<svg width="94" height="94" viewBox="0 0 94 94" fill="none" xmlns="http://www.w3.org/2000/svg">
<g style="mix-blend-mode:hard-light" filter="url(#filter0_f_292_528)">
<path d="M45.4156 52.5483L45.4673 52.5588L45.5192 52.568C46.0329 52.6586 46.4697 52.6563 46.7011 52.6513C46.7946 52.6492 46.8949 52.6452 46.9456 52.6432C46.9544 52.6428 46.9617 52.6426 46.9672 52.6423C46.9978 52.6412 47.0134 52.6407 47.0194 52.6406C47.0273 52.6407 47.0489 52.6412 47.0962 52.6431C47.1043 52.6434 47.1159 52.6439 47.1301 52.6445C47.1886 52.6469 47.2912 52.6512 47.3794 52.6536C47.6141 52.6601 48.0395 52.6659 48.5359 52.5934C50.7227 52.2788 51.7962 50.624 52.1953 49.774C52.6541 48.7966 52.8114 47.7535 52.8114 46.8406C52.8114 45.9169 52.6499 44.8828 52.1976 43.9149C51.8025 43.0695 50.8363 41.5977 48.9202 41.1383C48.6533 41.0717 48.4181 41.0408 48.2327 41.0258C48.1187 41.0166 48.0244 41.0135 47.9634 41.0123C47.9075 41.0112 47.858 41.0113 47.8557 41.0113C47.7553 41.0113 47.6306 41.0102 47.4895 41.0089C47.0638 41.005 46.4889 40.9997 45.9807 41.0204C44.9347 41.0621 43.9617 41.4512 43.1853 42.0731C41.4862 43.4278 41.1957 45.4226 41.1628 46.5613L41.1627 46.5657C41.1314 47.6926 41.2924 49.7194 42.8448 51.2135L42.8545 51.2228L42.8643 51.232C43.7448 52.0681 44.7187 52.4063 45.4156 52.5483ZM49.0662 47.1063C49.0076 47.2687 48.8937 47.5185 48.6877 47.7894C48.7704 47.5157 48.8164 47.1916 48.8164 46.8406C48.8164 46.821 48.8163 46.8015 48.816 46.782L49.1461 46.7916C49.1465 46.7947 49.1469 46.7977 49.1472 46.8005C49.1457 46.8113 49.1436 46.8247 49.1406 46.8406C49.1298 46.8987 49.1083 46.99 49.0662 47.1063ZM49.1455 46.7872L48.8159 46.778C48.8095 46.3728 48.7409 46.0081 48.6256 45.7163C48.944 46.1049 49.0656 46.4596 49.1077 46.6111C49.1298 46.6905 49.1405 46.7503 49.1455 46.7872ZM49.1498 46.83C49.1497 46.8301 49.1495 46.8276 49.1494 46.8226C49.1498 46.8275 49.1498 46.83 49.1498 46.83ZM49.1501 46.7777C49.1504 46.7715 49.1507 46.7686 49.1508 46.7686C49.1508 46.7687 49.1507 46.7718 49.1501 46.7777ZM47.4563 45.0042C47.5635 45.0051 47.6706 45.0059 47.7778 45.0062C47.6575 44.9397 47.5416 44.8869 47.4341 44.845C47.4207 44.8398 47.4074 44.8347 47.3942 44.8298C47.2855 44.7894 47.1863 44.7603 47.1014 44.7395C47.0725 44.7461 47.044 44.7529 47.0158 44.7601C47.0113 44.7612 47.0068 44.7624 47.0023 44.7636L46.954 45.0003C46.9746 45.0003 46.9952 45.0004 47.0158 45.0006C47.1243 45.0012 47.2328 45.0022 47.3413 45.0032C47.3676 45.0034 47.3939 45.0037 47.4202 45.0039C47.4322 45.004 47.4443 45.0041 47.4563 45.0042ZM46.3518 45.0053C46.5146 44.9242 46.694 44.8522 46.891 44.7943L46.8547 45C46.6871 44.9999 46.5195 45.0011 46.3518 45.0053ZM45.1544 46.8406C45.154 46.7869 45.1546 46.7322 45.1562 46.6765C45.1648 46.3783 45.2005 46.1206 45.2603 45.903C45.0889 46.1253 44.9955 46.3084 44.9626 46.3787C44.908 46.4949 44.8743 46.5922 44.8535 46.6677C44.8535 46.6679 44.8535 46.668 44.8535 46.6681C44.8141 46.8115 44.8214 46.8759 44.8214 46.8406L44.8216 46.8454C44.8217 46.8487 44.822 46.8538 44.8227 46.8608C44.8239 46.8744 44.8268 46.8979 44.8333 46.9311C44.8448 46.9899 44.8758 47.1197 44.9589 47.2976C44.9984 47.3821 45.107 47.5939 45.3101 47.841C45.2105 47.5709 45.1571 47.2334 45.1544 46.8406ZM46.7765 48.83C46.6159 48.778 46.4678 48.7169 46.3317 48.6496C46.4786 48.6635 46.6263 48.6577 46.7741 48.6518C46.7937 48.6511 46.8133 48.6503 46.8328 48.6496C46.8938 48.6473 46.9548 48.6455 47.0158 48.6455C47.0767 48.6455 47.1375 48.647 47.1984 48.6491C47.2383 48.6505 47.2783 48.6522 47.3182 48.6538C47.4223 48.6581 47.5263 48.6624 47.63 48.6621C47.4802 48.7376 47.3214 48.8027 47.1548 48.8553C47.109 48.8698 47.0627 48.8833 47.0158 48.8958C47.0148 48.8961 47.0137 48.8964 47.0127 48.8967C46.9868 48.8905 46.9606 48.884 46.9342 48.8771C46.8803 48.8624 46.8278 48.8467 46.7765 48.83ZM47.7739 49.0013C47.8006 49.0013 47.8279 49.0013 47.8557 49.0013C47.8879 49.0013 47.8544 49.0039 47.7739 49.0013ZM46.2939 49.0043L46.3047 49.0038L46.2939 49.0043L46.2939 49.0043Z" stroke="#92FF26" stroke-width="7.99"/>
</g>
<g style="mix-blend-mode:hard-light" filter="url(#filter1_f_292_528)">
<path d="M47.9631 48.6396C48.079 48.6235 48.1866 48.5708 48.2838 48.4876C48.2954 48.4776 48.3069 48.4672 48.3182 48.4564C48.624 48.1638 48.8164 47.5587 48.8164 46.8406C48.8164 46.821 48.8163 46.8015 48.816 46.782L50.379 46.8271L50.379 46.8276C50.3789 46.8293 50.3788 46.8337 50.3785 46.8406C50.3756 46.9008 50.3562 47.1559 50.223 47.5244C50.0718 47.9429 49.7204 48.643 48.9652 49.2563C48.9582 49.2621 48.9511 49.2678 48.9439 49.2735C48.936 49.2798 48.9281 49.2861 48.9201 49.2924C48.6822 49.4796 48.4189 49.646 48.1341 49.785L47.9631 48.6396ZM47.9631 48.6396C47.9273 48.645 47.8915 48.6492 47.8557 48.6524C47.6772 48.6686 47.4978 48.6612 47.3182 48.6538C47.2783 48.6522 47.2383 48.6505 47.1984 48.6491C47.1375 48.647 47.0767 48.6455 47.0158 48.6455C46.9548 48.6455 46.8938 48.6473 46.8328 48.6496C46.8133 48.6503 46.7937 48.6511 46.7741 48.6518C46.6123 48.6582 46.4507 48.6646 46.29 48.6451C46.2867 48.6447 46.2834 48.6443 46.2801 48.6439C46.2579 48.641 46.2357 48.6377 46.2135 48.6338C46.0122 48.5928 45.8002 48.5107 45.615 48.3349C45.3212 48.0521 45.1591 47.5322 45.1544 46.8406C45.154 46.7869 45.1546 46.7322 45.1562 46.6765C45.1776 45.9322 45.3682 45.44 45.6794 45.1939M47.9631 48.6396L48.1234 49.7902C48.0362 49.8325 47.9469 49.8722 47.8557 49.9092C47.5941 50.0153 47.3169 50.0986 47.0267 50.1547C47.023 50.154 47.0194 50.1534 47.0158 50.1528C46.9734 50.1452 46.93 50.1369 46.8858 50.1279C46.7902 50.1084 46.6908 50.0853 46.589 50.0579C46.5282 50.0411 46.4685 50.0233 46.4101 50.0046C46.3882 49.9976 46.3664 49.9905 46.3449 49.9832C46.3403 49.9817 46.3358 49.9802 46.3313 49.9787C46.2157 49.9394 46.1049 49.8967 45.9986 49.8511C45.9884 49.8468 45.9782 49.8423 45.968 49.8379C45.5178 49.6407 45.1513 49.3913 44.8566 49.1337C44.8547 49.1321 44.8529 49.1304 44.851 49.1288C44.2472 48.5992 43.9461 48.0356 43.8446 47.8183C43.5999 47.2946 43.5914 46.9328 43.5914 46.8406C43.5914 46.8109 43.592 46.7398 43.6066 46.6335C43.6067 46.6329 43.6068 46.6324 43.6069 46.6318C43.6309 46.4577 43.6924 46.1899 43.8492 45.856C43.9518 45.6373 44.3047 44.9742 45.0324 44.3939L45.6794 45.1939M45.6794 45.1939C45.8244 45.0767 45.988 45.018 46.141 45.0122M45.6794 45.1939L45.0413 44.3868C45.3299 44.1579 45.6769 43.9422 46.0901 43.7723L46.141 45.0122M46.141 45.0122C46.3789 45.0024 46.6168 44.9998 46.8547 45L47.0158 44.0871L47.1215 43.4883C47.1161 43.4873 47.1108 43.4864 47.1056 43.4855C47.0754 43.4905 47.0455 43.4958 47.0158 43.5013C46.6771 43.5641 46.3704 43.6573 46.0934 43.7709L46.141 45.0122ZM47.9658 45.018L48.3151 43.8983C48.606 44.0531 48.9145 44.2626 49.2127 44.5458L48.4376 45.3622C48.3057 45.1773 48.1453 45.056 47.9658 45.018ZM47.9658 45.018L48.2134 43.8461C48.0896 43.7845 47.9696 43.7328 47.8557 43.6894C47.6245 43.6011 47.4187 43.547 47.257 43.514L47.252 43.5385L47.2228 43.6819L47.0158 44.6973L46.954 45.0003C46.9746 45.0003 46.9952 45.0004 47.0158 45.0006C47.1243 45.0012 47.2328 45.0022 47.3413 45.0032C47.3676 45.0034 47.3939 45.0037 47.4202 45.0039C47.4322 45.004 47.4443 45.0041 47.4563 45.0042C47.5895 45.0054 47.7226 45.0063 47.8557 45.0063H47.8557C47.8933 45.0063 47.9282 45.0063 47.9658 45.018ZM45.1699 53.7535L45.2375 53.7673L45.3054 53.7793C45.9364 53.8906 46.4666 53.8867 46.728 53.881C46.8348 53.8786 46.9507 53.874 46.9978 53.8721C47.005 53.8718 47.0105 53.8716 47.0142 53.8714C47.0169 53.8713 47.0195 53.8712 47.0218 53.8712C47.0288 53.8714 47.0374 53.8717 47.0478 53.8721C47.053 53.8723 47.0615 53.8727 47.0726 53.8732C47.1274 53.8754 47.2464 53.8804 47.3452 53.8831C47.6038 53.8903 48.111 53.8983 48.7115 53.8108C51.4943 53.4105 52.8329 51.3102 53.3087 50.2967C53.8625 49.1169 54.0414 47.8857 54.0414 46.8406C54.0414 45.7814 53.8572 44.5611 53.3119 43.3942C52.8403 42.3851 51.6401 40.5249 49.2078 39.9424C48.8673 39.8581 48.5677 39.8189 48.3318 39.7998C48.1855 39.788 48.065 39.7841 47.988 39.7826C47.9177 39.7812 47.8557 39.7813 47.8557 39.7813C47.7737 39.7813 47.6639 39.7803 47.5347 39.7791C47.1096 39.7752 46.4751 39.7693 45.9313 39.7914C44.6106 39.8442 43.3887 40.3347 42.4178 41.1119C40.2914 42.8076 39.9697 45.2651 39.9333 46.5258L39.9332 46.5315C39.8989 47.7673 40.059 50.2395 41.9919 52.0997L42.0046 52.1119L42.0173 52.124C43.112 53.1633 44.3205 53.5804 45.1699 53.7535ZM47.7405 50.2312C47.7777 50.2313 47.8161 50.2313 47.8557 50.2313C47.8938 50.2313 47.8475 50.2346 47.7405 50.2312ZM46.341 50.2334L46.3551 50.2328L46.341 50.2334L46.341 50.2334ZM48.4537 45.3853C48.6711 45.7043 48.8068 46.1999 48.8159 46.778L50.3792 46.8214C50.3793 46.8153 50.3804 46.7679 50.3719 46.6844C50.3634 46.6025 50.3434 46.4635 50.2928 46.2815C50.2016 45.9536 49.9426 45.248 49.2381 44.5701L48.4537 45.3853Z" stroke="#18725C" stroke-width="10.45"/>
</g>
<g style="mix-blend-mode:hard-light" filter="url(#filter2_ddi_292_528)">
<path d="M45.4156 52.5483L45.4673 52.5588L45.5192 52.568C46.0329 52.6586 46.4697 52.6563 46.7011 52.6513C46.7946 52.6492 46.8949 52.6452 46.9456 52.6432C46.9544 52.6428 46.9617 52.6426 46.9672 52.6423C46.9978 52.6412 47.0134 52.6407 47.0194 52.6406C47.0273 52.6407 47.0489 52.6412 47.0962 52.6431C47.1043 52.6434 47.1159 52.6439 47.1301 52.6445C47.1886 52.6469 47.2912 52.6512 47.3794 52.6536C47.6141 52.6601 48.0395 52.6659 48.5359 52.5934C50.7227 52.2788 51.7962 50.624 52.1953 49.774C52.6541 48.7966 52.8114 47.7535 52.8114 46.8406C52.8114 45.9169 52.6499 44.8828 52.1976 43.9149C51.8025 43.0695 50.8363 41.5977 48.9202 41.1383C48.6533 41.0717 48.4181 41.0408 48.2327 41.0258C48.1187 41.0166 48.0244 41.0135 47.9634 41.0123C47.9075 41.0112 47.858 41.0113 47.8557 41.0113C47.7553 41.0113 47.6306 41.0102 47.4895 41.0089C47.0638 41.005 46.4889 40.9997 45.9807 41.0204C44.9347 41.0621 43.9617 41.4512 43.1853 42.0731C41.4862 43.4278 41.1957 45.4226 41.1628 46.5613L41.1627 46.5657C41.1314 47.6926 41.2924 49.7194 42.8448 51.2135L42.8545 51.2228L42.8643 51.232C43.7448 52.0681 44.7187 52.4063 45.4156 52.5483ZM49.0662 47.1063C49.0076 47.2687 48.8937 47.5185 48.6877 47.7894C48.7704 47.5157 48.8164 47.1916 48.8164 46.8406C48.8164 46.821 48.8163 46.8015 48.816 46.782L49.1461 46.7916C49.1465 46.7947 49.1469 46.7977 49.1472 46.8005C49.1457 46.8113 49.1436 46.8247 49.1406 46.8406C49.1298 46.8987 49.1083 46.99 49.0662 47.1063ZM49.1455 46.7872L48.8159 46.778C48.8095 46.3728 48.7409 46.0081 48.6256 45.7163C48.944 46.1049 49.0656 46.4596 49.1077 46.6111C49.1298 46.6905 49.1405 46.7503 49.1455 46.7872ZM49.1498 46.83C49.1497 46.8301 49.1495 46.8276 49.1494 46.8226C49.1498 46.8275 49.1498 46.83 49.1498 46.83ZM49.1501 46.7777C49.1504 46.7715 49.1507 46.7686 49.1508 46.7686C49.1508 46.7687 49.1507 46.7718 49.1501 46.7777ZM47.4563 45.0042C47.5635 45.0051 47.6706 45.0059 47.7778 45.0062C47.6575 44.9397 47.5416 44.8869 47.4341 44.845C47.4207 44.8398 47.4074 44.8347 47.3942 44.8298C47.2855 44.7894 47.1863 44.7603 47.1014 44.7395C47.0725 44.7461 47.044 44.7529 47.0158 44.7601C47.0113 44.7612 47.0068 44.7624 47.0023 44.7636L46.954 45.0003C46.9746 45.0003 46.9952 45.0004 47.0158 45.0006C47.1243 45.0012 47.2328 45.0022 47.3413 45.0032C47.3676 45.0034 47.3939 45.0037 47.4202 45.0039C47.4322 45.004 47.4443 45.0041 47.4563 45.0042ZM46.3518 45.0053C46.5146 44.9242 46.694 44.8522 46.891 44.7943L46.8547 45C46.6871 44.9999 46.5195 45.0011 46.3518 45.0053ZM45.1544 46.8406C45.154 46.7869 45.1546 46.7322 45.1562 46.6765C45.1648 46.3783 45.2005 46.1206 45.2603 45.903C45.0889 46.1253 44.9955 46.3084 44.9626 46.3787C44.908 46.4949 44.8743 46.5922 44.8535 46.6677C44.8535 46.6679 44.8535 46.668 44.8535 46.6681C44.8141 46.8115 44.8214 46.8759 44.8214 46.8406L44.8216 46.8454C44.8217 46.8487 44.822 46.8538 44.8227 46.8608C44.8239 46.8744 44.8268 46.8979 44.8333 46.9311C44.8448 46.9899 44.8758 47.1197 44.9589 47.2976C44.9984 47.3821 45.107 47.5939 45.3101 47.841C45.2105 47.5709 45.1571 47.2334 45.1544 46.8406ZM46.7765 48.83C46.6159 48.778 46.4678 48.7169 46.3317 48.6496C46.4786 48.6635 46.6263 48.6577 46.7741 48.6518C46.7937 48.6511 46.8133 48.6503 46.8328 48.6496C46.8938 48.6473 46.9548 48.6455 47.0158 48.6455C47.0767 48.6455 47.1375 48.647 47.1984 48.6491C47.2383 48.6505 47.2783 48.6522 47.3182 48.6538C47.4223 48.6581 47.5263 48.6624 47.63 48.6621C47.4802 48.7376 47.3214 48.8027 47.1548 48.8553C47.109 48.8698 47.0627 48.8833 47.0158 48.8958C47.0148 48.8961 47.0137 48.8964 47.0127 48.8967C46.9868 48.8905 46.9606 48.884 46.9342 48.8771C46.8803 48.8624 46.8278 48.8467 46.7765 48.83ZM47.7739 49.0013C47.8006 49.0013 47.8279 49.0013 47.8557 49.0013C47.8879 49.0013 47.8544 49.0039 47.7739 49.0013ZM46.2939 49.0043L46.3047 49.0038L46.2939 49.0043L46.2939 49.0043Z" stroke="#92FF26" stroke-opacity="0.1" stroke-width="7.99"/>
</g>
<g filter="url(#filter3_f_292_528)">
<path d="M45.7221 51.0442L45.754 51.0507L45.7859 51.0563C46.1533 51.1212 46.4736 51.1209 46.6675 51.1166C46.8425 51.1128 46.8883 51.1098 46.9175 51.1079C46.9411 51.1063 46.954 51.1055 47.0158 51.1055C47.08 51.1055 47.1078 51.1069 47.1565 51.1093C47.2052 51.1117 47.2746 51.1151 47.422 51.1192C47.6271 51.1249 47.9498 51.1279 48.3161 51.0742C49.7596 50.8668 50.5024 49.7678 50.8058 49.1217C51.146 48.3968 51.2764 47.5885 51.2764 46.8406C51.2764 46.0861 51.1432 45.2843 50.8069 44.5648C50.507 43.923 49.8322 42.935 48.5582 42.6301C48.3844 42.5861 48.2308 42.5656 48.109 42.5558C47.9793 42.5453 47.8644 42.5463 47.8562 42.5463L47.8557 42.5463C47.7301 42.5463 47.5871 42.545 47.4329 42.5436C47.0126 42.5398 46.5086 42.5352 46.0435 42.5541C45.3399 42.5818 44.6774 42.8441 44.1433 43.2724C42.9774 44.2014 42.7256 45.6191 42.6972 46.6055L42.6971 46.6082C42.6696 47.5994 42.8316 49.0704 43.9092 50.1074L43.9152 50.1132L43.9212 50.1189C44.5346 50.7012 45.2157 50.941 45.7221 51.0442Z" stroke="#92FF26" stroke-width="4.92"/>
</g>
<g filter="url(#filter4_f_292_528)">
<path d="M45.9837 49.8422L45.9678 49.839C45.614 49.7669 45.1674 49.606 44.7681 49.2269L44.7621 49.2212L44.7621 49.2212C44.065 48.5503 43.9022 47.5247 43.9266 46.6424L43.9267 46.641C43.9516 45.7763 44.1725 44.821 44.9113 44.2332C45.2506 43.9606 45.6635 43.8 46.0918 43.7832M45.9837 49.8422L46.141 45.0122M45.9837 49.8422L45.9997 49.8451C46.2498 49.8892 46.4767 49.8905 46.6405 49.8869C46.7493 49.8845 46.8087 49.8818 46.8564 49.8796C46.9076 49.8772 46.9453 49.8755 47.0158 49.8755C47.0973 49.8755 47.1553 49.878 47.2317 49.8814C47.2898 49.8839 47.3585 49.887 47.4562 49.8897C47.6375 49.8947 47.8778 49.8955 48.1395 49.8569M45.9837 49.8422L48.1395 49.8569M46.0918 43.7832C46.0925 43.7831 46.0932 43.7831 46.0939 43.7831L46.141 45.0122M46.0918 43.7832C46.0914 43.7832 46.091 43.7832 46.0906 43.7832L46.141 45.0122M46.0918 43.7832C46.5241 43.7655 46.9751 43.7696 47.3872 43.7734C47.5507 43.7749 47.7081 43.7763 47.8557 43.7763C47.8567 43.7763 47.8583 43.7763 47.8605 43.7763C47.8936 43.7758 48.0613 43.7732 48.2594 43.8234M46.141 45.0122C46.5411 44.9958 46.9412 44.9995 47.3413 45.0032C47.5128 45.0047 47.6843 45.0063 47.8557 45.0063H47.8557C47.8933 45.0063 47.9282 45.0063 47.9658 45.018M48.2594 43.8234C48.2464 43.8203 48.2333 43.8174 48.2201 43.8146L47.9658 45.018M48.2594 43.8234C49.0242 44.0019 49.4681 44.6051 49.6926 45.0855C49.9358 45.6061 50.0464 46.2216 50.0464 46.8406C50.0464 47.4562 49.9376 48.0765 49.6923 48.599C49.4657 49.0819 48.9877 49.7356 48.1395 49.8569M48.2594 43.8234C48.2833 43.8294 48.3075 43.8362 48.3321 43.8439L47.9658 45.018M47.9658 45.018L48.1395 49.8569" stroke="white" stroke-width="2.46"/>
</g>
<circle cx="47" cy="47" r="3" fill="white"/>
<defs>
<filter id="filter0_f_292_528" x="0.284061" y="0.130253" width="93.4026" height="93.4021" filterUnits="userSpaceOnUse" color-interpolation-filters="sRGB">
<feFlood flood-opacity="0" result="BackgroundImageFix"/>
<feBlend mode="normal" in="SourceGraphic" in2="BackgroundImageFix" result="shape"/>
<feGaussianBlur stdDeviation="18.44" result="effect1_foregroundBlur_292_528"/>
</filter>
<filter id="filter1_f_292_528" x="22.4141" y="22.2603" width="49.1425" height="49.142" filterUnits="userSpaceOnUse" color-interpolation-filters="sRGB">
<feFlood flood-opacity="0" result="BackgroundImageFix"/>
<feBlend mode="normal" in="SourceGraphic" in2="BackgroundImageFix" result="shape"/>
<feGaussianBlur stdDeviation="6.145" result="effect1_foregroundBlur_292_528"/>
</filter>
<filter id="filter2_ddi_292_528" x="21.1841" y="33.3203" width="51.6026" height="51.6021" filterUnits="userSpaceOnUse" color-interpolation-filters="sRGB">
<feFlood flood-opacity="0" result="BackgroundImageFix"/>
<feColorMatrix in="SourceAlpha" type="matrix" values="0 0 0 0 0 0 0 0 0 0 0 0 0 0 0 0 0 0 127 0" result="hardAlpha"/>
<feOffset dy="7.99"/>
<feGaussianBlur stdDeviation="3.075"/>
<feComposite in2="hardAlpha" operator="out"/>
<feColorMatrix type="matrix" values="0 0 0 0 0 0 0 0 0 0.084549 0 0 0 0 0.301961 0 0 0 0.7 0"/>
<feBlend mode="normal" in2="BackgroundImageFix" result="effect1_dropShadow_292_528"/>
<feColorMatrix in="SourceAlpha" type="matrix" values="0 0 0 0 0 0 0 0 0 0 0 0 0 0 0 0 0 0 127 0" result="hardAlpha"/>
<feOffset dy="12.29"/>
<feGaussianBlur stdDeviation="7.99"/>
<feComposite in2="hardAlpha" operator="out"/>
<feColorMatrix type="matrix" values="0 0 0 0 0 0 0 0 0 0.204 0 0 0 0 0.6 0 0 0 1 0"/>
<feBlend mode="normal" in2="effect1_dropShadow_292_528" result="effect2_dropShadow_292_528"/>
<feBlend mode="normal" in="SourceGraphic" in2="effect2_dropShadow_292_528" result="shape"/>
<feColorMatrix in="SourceAlpha" type="matrix" values="0 0 0 0 0 0 0 0 0 0 0 0 0 0 0 0 0 0 127 0" result="hardAlpha"/>
<feOffset dx="-0.8" dy="1.6"/>
<feGaussianBlur stdDeviation="0.4"/>
<feComposite in2="hardAlpha" operator="arithmetic" k2="-1" k3="1"/>
<feColorMatrix type="matrix" values="0 0 0 0 1 0 0 0 0 1 0 0 0 0 1 0 0 0 0.5 0"/>
<feBlend mode="normal" in2="shape" result="effect3_innerShadow_292_528"/>
</filter>
<filter id="filter3_f_292_528" x="39.0044" y="38.8501" width="15.962" height="15.962" filterUnits="userSpaceOnUse" color-interpolation-filters="sRGB">
<feFlood flood-opacity="0" result="BackgroundImageFix"/>
<feBlend mode="normal" in="SourceGraphic" in2="BackgroundImageFix" result="shape"/>
<feGaussianBlur stdDeviation="0.615" result="effect1_foregroundBlur_292_528"/>
</filter>
<filter id="filter4_f_292_528" x="41.8743" y="41.72" width="10.222" height="10.222" filterUnits="userSpaceOnUse" color-interpolation-filters="sRGB">
<feFlood flood-opacity="0" result="BackgroundImageFix"/>
<feBlend mode="normal" in="SourceGraphic" in2="BackgroundImageFix" result="shape"/>
<feGaussianBlur stdDeviation="0.41" result="effect1_foregroundBlur_292_528"/>
</filter>
</defs>
</svg>
