<svg width="94" height="95" viewBox="0 0 94 95" fill="none" xmlns="http://www.w3.org/2000/svg">
<g style="mix-blend-mode:hard-light" filter="url(#filter0_f_303_9870)">
<path d="M45.2957 53.0483L45.3474 53.0588L45.3993 53.068C45.913 53.1586 46.3498 53.1563 46.5812 53.1513C46.6747 53.1492 46.775 53.1452 46.8257 53.1432C46.8345 53.1428 46.8418 53.1426 46.8474 53.1423C46.8779 53.1412 46.8935 53.1407 46.8996 53.1406C46.9074 53.1407 46.929 53.1412 46.9763 53.1431C46.9845 53.1434 46.9961 53.1439 47.0102 53.1445C47.0687 53.1469 47.1713 53.1512 47.2595 53.1536C47.4943 53.1601 47.9195 53.1659 48.416 53.0934C50.6028 52.7789 51.6764 51.124 52.0754 50.274C52.5342 49.2966 52.6915 48.2535 52.6915 47.3406C52.6915 46.4169 52.53 45.3828 52.0777 44.4149C51.6826 43.5695 50.7165 42.0978 48.8004 41.6383C48.5334 41.5717 48.2983 41.5408 48.1128 41.5258C47.9988 41.5166 47.9046 41.5135 47.8436 41.5123C47.7876 41.5112 47.7381 41.5113 47.7359 41.5113C47.6354 41.5113 47.5107 41.5102 47.3696 41.5089C46.9439 41.505 46.369 41.4997 45.8609 41.5204C44.8148 41.5621 43.8419 41.9512 43.0654 42.5731C41.3664 43.9278 41.0758 45.9226 41.043 47.0613L41.0428 47.0657C41.0116 48.1926 41.1725 50.2194 42.725 51.7135L42.7347 51.7228L42.7444 51.732C43.6249 52.5681 44.5989 52.9063 45.2957 53.0483ZM48.9464 47.6063C48.8877 47.7687 48.7738 48.0185 48.5678 48.2894C48.6505 48.0157 48.6965 47.6916 48.6965 47.3406C48.6965 47.321 48.6964 47.3015 48.6961 47.282L49.0262 47.2916C49.0266 47.2947 49.027 47.2977 49.0274 47.3005C49.0258 47.3113 49.0237 47.3247 49.0207 47.3406C49.01 47.3987 48.9884 47.49 48.9464 47.6063ZM49.0256 47.2872L48.696 47.278C48.6896 46.8728 48.621 46.5081 48.5057 46.2163C48.8241 46.6049 48.9457 46.9596 48.9879 47.1111C49.0099 47.1905 49.0206 47.2503 49.0256 47.2872ZM49.0299 47.33C49.0299 47.3301 49.0297 47.3276 49.0295 47.3226C49.0299 47.3275 49.03 47.33 49.0299 47.33ZM49.0302 47.2777C49.0305 47.2715 49.0308 47.2686 49.0309 47.2686C49.0309 47.2687 49.0308 47.2718 49.0302 47.2777ZM47.3364 45.5042C47.4436 45.5051 47.5508 45.5059 47.6579 45.5062C47.5377 45.4397 47.4217 45.3869 47.3142 45.345C47.3008 45.3398 47.2875 45.3347 47.2743 45.3298C47.1656 45.2894 47.0665 45.2603 46.9815 45.2395C46.9527 45.2461 46.9241 45.2529 46.8959 45.2601C46.8914 45.2612 46.8869 45.2624 46.8824 45.2636L46.8342 45.5003C46.8548 45.5003 46.8753 45.5004 46.8959 45.5006C47.0044 45.5012 47.1129 45.5022 47.2214 45.5032C47.2477 45.5034 47.274 45.5037 47.3003 45.5039C47.3123 45.504 47.3244 45.5041 47.3364 45.5042ZM46.232 45.5053C46.3948 45.4242 46.5741 45.3522 46.7711 45.2943L46.7348 45.5C46.5672 45.4999 46.3996 45.5011 46.232 45.5053ZM45.0345 47.3406C45.0342 47.2869 45.0348 47.2322 45.0363 47.1765C45.0449 46.8783 45.0806 46.6206 45.1404 46.403C44.969 46.6253 44.8757 46.8084 44.8427 46.8787C44.7882 46.9949 44.7544 47.0922 44.7337 47.1677C44.7336 47.1679 44.7336 47.168 44.7336 47.1681C44.6942 47.3115 44.7015 47.3759 44.7015 47.3406L44.7017 47.3454C44.7018 47.3487 44.7021 47.3538 44.7028 47.3608C44.7041 47.3744 44.7069 47.3979 44.7134 47.4311C44.7249 47.4899 44.7559 47.6197 44.8391 47.7976C44.8786 47.8821 44.9871 48.0939 45.1902 48.341C45.0906 48.0709 45.0372 47.7334 45.0345 47.3406ZM46.6566 49.33C46.496 49.278 46.348 49.2169 46.2118 49.1496C46.3587 49.1635 46.5064 49.1577 46.6543 49.1518C46.6738 49.1511 46.6934 49.1503 46.7129 49.1496C46.7739 49.1473 46.8349 49.1455 46.8959 49.1455C46.9568 49.1455 47.0177 49.147 47.0785 49.1491C47.1185 49.1505 47.1584 49.1522 47.1984 49.1538C47.3024 49.1581 47.4064 49.1624 47.5102 49.1621C47.3603 49.2376 47.2015 49.3027 47.0349 49.3553C46.9892 49.3698 46.9428 49.3833 46.8959 49.3958C46.8949 49.3961 46.8939 49.3964 46.8928 49.3967C46.8669 49.3905 46.8407 49.384 46.8143 49.3771C46.7605 49.3624 46.7079 49.3467 46.6566 49.33ZM47.654 49.5013C47.6807 49.5013 47.708 49.5013 47.7359 49.5013C47.768 49.5013 47.7345 49.5039 47.654 49.5013ZM46.1741 49.5043L46.1848 49.5038L46.1741 49.5043L46.1741 49.5043Z" stroke="#2EACF3" stroke-width="7.99"/>
</g>
<g style="mix-blend-mode:hard-light" filter="url(#filter1_f_303_9870)">
<path d="M47.8432 49.1396C47.9591 49.1235 48.0668 49.0708 48.1639 48.9876C48.1755 48.9776 48.187 48.9672 48.1983 48.9564C48.5041 48.6638 48.6965 48.0587 48.6965 47.3406C48.6965 47.321 48.6964 47.3015 48.6961 47.282L50.2591 47.3271L50.2591 47.3276C50.2591 47.3293 50.259 47.3337 50.2586 47.3406C50.2557 47.4008 50.2363 47.6559 50.1031 48.0244C49.9519 48.4429 49.6005 49.143 48.8454 49.7563C48.8383 49.7621 48.8312 49.7678 48.824 49.7735C48.8161 49.7798 48.8082 49.7861 48.8002 49.7924C48.5623 49.9796 48.299 50.146 48.0142 50.285L47.8432 49.1396ZM47.8432 49.1396C47.8074 49.145 47.7717 49.1492 47.7359 49.1524C47.5573 49.1686 47.378 49.1612 47.1984 49.1538C47.1584 49.1522 47.1185 49.1505 47.0785 49.1491C47.0177 49.147 46.9568 49.1455 46.8959 49.1455C46.8349 49.1455 46.7739 49.1473 46.7129 49.1496C46.6934 49.1503 46.6738 49.1511 46.6543 49.1518C46.4924 49.1582 46.3308 49.1646 46.1701 49.1451C46.1668 49.1447 46.1635 49.1443 46.1603 49.1439C46.138 49.141 46.1158 49.1377 46.0936 49.1338C45.8923 49.0928 45.6803 49.0107 45.4952 48.8349C45.2013 48.5521 45.0392 48.0322 45.0345 47.3406C45.0342 47.2869 45.0348 47.2322 45.0363 47.1765C45.0578 46.4322 45.2483 45.94 45.5596 45.6939M47.8432 49.1396L48.0036 50.2902C47.9163 50.3325 47.827 50.3722 47.7359 50.4092C47.4742 50.5153 47.197 50.5986 46.9068 50.6547C46.9032 50.654 46.8996 50.6534 46.8959 50.6528C46.8535 50.6452 46.8102 50.6369 46.766 50.6279C46.6704 50.6084 46.5709 50.5853 46.4692 50.558C46.4083 50.5411 46.3487 50.5233 46.2902 50.5046C46.2683 50.4976 46.2466 50.4905 46.225 50.4832C46.2205 50.4817 46.2159 50.4802 46.2114 50.4787C46.0958 50.4394 45.985 50.3967 45.8788 50.3511C45.8685 50.3468 45.8583 50.3423 45.8482 50.3379C45.398 50.1407 45.0315 49.8913 44.7367 49.6337C44.7349 49.6321 44.733 49.6304 44.7311 49.6288C44.1273 49.0992 43.8263 48.5356 43.7247 48.3183C43.48 47.7946 43.4715 47.4328 43.4715 47.3406C43.4715 47.3109 43.4722 47.2398 43.4868 47.1335C43.4868 47.1329 43.4869 47.1324 43.487 47.1318C43.5111 46.9577 43.5725 46.6899 43.7293 46.356C43.8319 46.1373 44.1849 45.4742 44.9125 44.8939L45.5596 45.6939M45.5596 45.6939C45.7045 45.5767 45.8682 45.518 46.0211 45.5122M45.5596 45.6939L44.9214 44.8868C45.21 44.6579 45.557 44.4422 45.9703 44.2723L46.0211 45.5122M46.0211 45.5122C46.259 45.5024 46.4969 45.4998 46.7348 45.5L46.8959 44.5871L47.0016 43.9883C46.9963 43.9873 46.991 43.9864 46.9857 43.9855C46.9555 43.9905 46.9256 43.9958 46.8959 44.0013C46.5573 44.0641 46.2506 44.1573 45.9736 44.2709L46.0211 45.5122ZM47.8459 45.518L48.1952 44.3983C48.4861 44.5531 48.7946 44.7626 49.0929 45.0458L48.3177 45.8622C48.1859 45.6773 48.0254 45.556 47.8459 45.518ZM47.8459 45.518L48.0936 44.3461C47.9697 44.2845 47.8497 44.2328 47.7359 44.1894C47.5046 44.1011 47.2988 44.047 47.1371 44.014L47.1321 44.0384L47.1029 44.1819L46.8959 45.1973L46.8342 45.5003C46.8548 45.5003 46.8753 45.5004 46.8959 45.5006C47.0044 45.5012 47.1129 45.5022 47.2214 45.5032C47.2477 45.5034 47.274 45.5037 47.3003 45.5039C47.3123 45.504 47.3244 45.5041 47.3364 45.5042C47.4696 45.5054 47.6027 45.5063 47.7359 45.5063H47.7359C47.7734 45.5063 47.8083 45.5063 47.8459 45.518ZM45.0501 54.2535L45.1176 54.2673L45.1856 54.2793C45.8165 54.3906 46.3467 54.3867 46.6081 54.381C46.7149 54.3786 46.8308 54.374 46.8779 54.3721C46.8851 54.3718 46.8907 54.3716 46.8944 54.3714C46.8971 54.3713 46.8996 54.3712 46.902 54.3712C46.9089 54.3714 46.9175 54.3717 46.9279 54.3721C46.9331 54.3723 46.9416 54.3727 46.9527 54.3732C47.0075 54.3754 47.1265 54.3804 47.2253 54.3831C47.4839 54.3903 47.9911 54.3983 48.5915 54.3108C51.3744 53.9106 52.713 51.8102 53.1888 50.7967C53.7427 49.6169 53.9215 48.3857 53.9215 47.3406C53.9215 46.2814 53.7373 45.0611 53.192 43.8942C52.7205 42.8851 51.5202 41.0249 49.088 40.4424C48.7474 40.3581 48.4478 40.3189 48.212 40.2998C48.0656 40.288 47.9452 40.2841 47.8682 40.2826C47.7978 40.2812 47.7359 40.2813 47.7359 40.2813C47.6538 40.2813 47.544 40.2803 47.4148 40.2791C46.9898 40.2752 46.3552 40.2693 45.8114 40.2914C44.4908 40.3442 43.2689 40.8347 42.2979 41.6119C40.1715 43.3076 39.8498 45.7651 39.8135 47.0258L39.8133 47.0315C39.779 48.2673 39.9391 50.7395 41.8721 52.5997L41.8847 52.6119L41.8975 52.624C42.9921 53.6633 44.2006 54.0804 45.0501 54.2535ZM47.6206 50.7312C47.6578 50.7313 47.6962 50.7313 47.7359 50.7313C47.7739 50.7313 47.7277 50.7346 47.6206 50.7312ZM46.2212 50.7334L46.2352 50.7328L46.2212 50.7334L46.2212 50.7334ZM48.3338 45.8853C48.5512 46.2043 48.6869 46.6999 48.696 47.278L50.2593 47.3214C50.2595 47.3153 50.2606 47.2679 50.252 47.1844C50.2436 47.1025 50.2235 46.9635 50.1729 46.7815C50.0817 46.4536 49.8227 45.748 49.1183 45.0701L48.3338 45.8853Z" stroke="#267DFF" stroke-width="10.45"/>
</g>
<g style="mix-blend-mode:hard-light" filter="url(#filter2_ddi_303_9870)">
<path d="M45.2957 53.0483L45.3474 53.0588L45.3993 53.068C45.913 53.1586 46.3498 53.1563 46.5812 53.1513C46.6747 53.1492 46.775 53.1452 46.8257 53.1432C46.8345 53.1428 46.8418 53.1426 46.8474 53.1423C46.8779 53.1412 46.8935 53.1407 46.8996 53.1406C46.9074 53.1407 46.929 53.1412 46.9763 53.1431C46.9845 53.1434 46.9961 53.1439 47.0102 53.1445C47.0687 53.1469 47.1713 53.1512 47.2595 53.1536C47.4943 53.1601 47.9195 53.1659 48.416 53.0934C50.6028 52.7789 51.6764 51.124 52.0754 50.274C52.5342 49.2966 52.6915 48.2535 52.6915 47.3406C52.6915 46.4169 52.53 45.3828 52.0777 44.4149C51.6826 43.5695 50.7165 42.0978 48.8004 41.6383C48.5334 41.5717 48.2983 41.5408 48.1128 41.5258C47.9988 41.5166 47.9046 41.5135 47.8436 41.5123C47.7876 41.5112 47.7381 41.5113 47.7359 41.5113C47.6354 41.5113 47.5107 41.5102 47.3696 41.5089C46.9439 41.505 46.369 41.4997 45.8609 41.5204C44.8148 41.5621 43.8419 41.9512 43.0654 42.5731C41.3664 43.9278 41.0758 45.9226 41.043 47.0613L41.0428 47.0657C41.0116 48.1926 41.1725 50.2194 42.725 51.7135L42.7347 51.7228L42.7444 51.732C43.6249 52.5681 44.5989 52.9063 45.2957 53.0483ZM48.9464 47.6063C48.8877 47.7687 48.7738 48.0185 48.5678 48.2894C48.6505 48.0157 48.6965 47.6916 48.6965 47.3406C48.6965 47.321 48.6964 47.3015 48.6961 47.282L49.0262 47.2916C49.0266 47.2947 49.027 47.2977 49.0274 47.3005C49.0258 47.3113 49.0237 47.3247 49.0207 47.3406C49.01 47.3987 48.9884 47.49 48.9464 47.6063ZM49.0256 47.2872L48.696 47.278C48.6896 46.8728 48.621 46.5081 48.5057 46.2163C48.8241 46.6049 48.9457 46.9596 48.9879 47.1111C49.0099 47.1905 49.0206 47.2503 49.0256 47.2872ZM49.0299 47.33C49.0299 47.3301 49.0297 47.3276 49.0295 47.3226C49.0299 47.3275 49.03 47.33 49.0299 47.33ZM49.0302 47.2777C49.0305 47.2715 49.0308 47.2686 49.0309 47.2686C49.0309 47.2687 49.0308 47.2718 49.0302 47.2777ZM47.3364 45.5042C47.4436 45.5051 47.5508 45.5059 47.6579 45.5062C47.5377 45.4397 47.4217 45.3869 47.3142 45.345C47.3008 45.3398 47.2875 45.3347 47.2743 45.3298C47.1656 45.2894 47.0665 45.2603 46.9815 45.2395C46.9527 45.2461 46.9241 45.2529 46.8959 45.2601C46.8914 45.2612 46.8869 45.2624 46.8824 45.2636L46.8342 45.5003C46.8548 45.5003 46.8753 45.5004 46.8959 45.5006C47.0044 45.5012 47.1129 45.5022 47.2214 45.5032C47.2477 45.5034 47.274 45.5037 47.3003 45.5039C47.3123 45.504 47.3244 45.5041 47.3364 45.5042ZM46.232 45.5053C46.3948 45.4242 46.5741 45.3522 46.7711 45.2943L46.7348 45.5C46.5672 45.4999 46.3996 45.5011 46.232 45.5053ZM45.0345 47.3406C45.0342 47.2869 45.0348 47.2322 45.0363 47.1765C45.0449 46.8783 45.0806 46.6206 45.1404 46.403C44.969 46.6253 44.8757 46.8084 44.8427 46.8787C44.7882 46.9949 44.7544 47.0922 44.7337 47.1677C44.7336 47.1679 44.7336 47.168 44.7336 47.1681C44.6942 47.3115 44.7015 47.3759 44.7015 47.3406L44.7017 47.3454C44.7018 47.3487 44.7021 47.3538 44.7028 47.3608C44.7041 47.3744 44.7069 47.3979 44.7134 47.4311C44.7249 47.4899 44.7559 47.6197 44.8391 47.7976C44.8786 47.8821 44.9871 48.0939 45.1902 48.341C45.0906 48.0709 45.0372 47.7334 45.0345 47.3406ZM46.6566 49.33C46.496 49.278 46.348 49.2169 46.2118 49.1496C46.3587 49.1635 46.5064 49.1577 46.6543 49.1518C46.6738 49.1511 46.6934 49.1503 46.7129 49.1496C46.7739 49.1473 46.8349 49.1455 46.8959 49.1455C46.9568 49.1455 47.0177 49.147 47.0785 49.1491C47.1185 49.1505 47.1584 49.1522 47.1984 49.1538C47.3024 49.1581 47.4064 49.1624 47.5102 49.1621C47.3603 49.2376 47.2015 49.3027 47.0349 49.3553C46.9892 49.3698 46.9428 49.3833 46.8959 49.3958C46.8949 49.3961 46.8939 49.3964 46.8928 49.3967C46.8669 49.3905 46.8407 49.384 46.8143 49.3771C46.7605 49.3624 46.7079 49.3467 46.6566 49.33ZM47.654 49.5013C47.6807 49.5013 47.708 49.5013 47.7359 49.5013C47.768 49.5013 47.7345 49.5039 47.654 49.5013ZM46.1741 49.5043L46.1848 49.5038L46.1741 49.5043L46.1741 49.5043Z" stroke="#379FFF" stroke-opacity="0.2" stroke-width="7.99"/>
</g>
<g filter="url(#filter3_f_303_9870)">
<path d="M45.6023 51.5442L45.6341 51.5507L45.6661 51.5563C46.0334 51.6212 46.3537 51.6209 46.5476 51.6166C46.7227 51.6128 46.7684 51.6098 46.7976 51.6079C46.8213 51.6063 46.8341 51.6055 46.8959 51.6055C46.9601 51.6055 46.988 51.6069 47.0366 51.6093C47.0853 51.6117 47.1548 51.6151 47.3022 51.6192C47.5072 51.6249 47.8299 51.6279 48.1962 51.5742C49.6397 51.3669 50.3826 50.2678 50.6859 49.6217C51.0262 48.8968 51.1565 48.0885 51.1565 47.3406C51.1565 46.5861 51.0233 45.7843 50.687 45.0648C50.3871 44.423 49.7124 43.435 48.4383 43.1301C48.2645 43.0861 48.1109 43.0656 47.9891 43.0558C47.8594 43.0453 47.7445 43.0463 47.7363 43.0463L47.7359 43.0463C47.6102 43.0463 47.4673 43.045 47.313 43.0436C46.8927 43.0398 46.3887 43.0352 45.9236 43.0541C45.22 43.0818 44.5575 43.3441 44.0235 43.7724C42.8576 44.7014 42.6058 46.1191 42.5773 47.1055L42.5772 47.1082C42.5497 48.0994 42.7117 49.5704 43.7894 50.6074L43.7953 50.6132L43.8013 50.6189C44.4147 51.2012 45.0958 51.441 45.6023 51.5442Z" stroke="#379FFF" stroke-width="4.92"/>
</g>
<g filter="url(#filter4_f_303_9870)">
<path d="M45.8638 50.3422L45.8479 50.339C45.4941 50.2669 45.0475 50.106 44.6482 49.7269L44.6422 49.7212L44.6423 49.7212C43.9451 49.0503 43.7823 48.0247 43.8068 47.1424L43.8068 47.141C43.8318 46.2763 44.0526 45.3211 44.7914 44.7332C45.1307 44.4606 45.5437 44.3 45.972 44.2832M45.8638 50.3422L46.0211 45.5122M45.8638 50.3422L45.8798 50.3451C46.1299 50.3892 46.3568 50.3905 46.5207 50.3869C46.6294 50.3845 46.6888 50.3818 46.7366 50.3796C46.7878 50.3772 46.8254 50.3755 46.8959 50.3755C46.9774 50.3755 47.0354 50.378 47.1118 50.3814C47.1699 50.3839 47.2386 50.387 47.3364 50.3897C47.5176 50.3947 47.7579 50.3955 48.0196 50.3569M45.8638 50.3422L48.0196 50.3569M45.972 44.2832C45.9727 44.2831 45.9733 44.2831 45.974 44.2831L46.0211 45.5122M45.972 44.2832C45.9716 44.2832 45.9711 44.2832 45.9707 44.2832L46.0211 45.5122M45.972 44.2832C46.4042 44.2655 46.8552 44.2696 47.2673 44.2734C47.4308 44.2749 47.5882 44.2763 47.7359 44.2763C47.7368 44.2763 47.7384 44.2763 47.7406 44.2763C47.7737 44.2758 47.9414 44.2732 48.1396 44.3234M46.0211 45.5122C46.4212 45.4958 46.8213 45.4995 47.2214 45.5032C47.3929 45.5047 47.5644 45.5063 47.7359 45.5063H47.7359C47.7734 45.5063 47.8083 45.5063 47.8459 45.518M48.1396 44.3234C48.1265 44.3203 48.1134 44.3174 48.1002 44.3146L47.8459 45.518M48.1396 44.3234C48.9044 44.5019 49.3482 45.1051 49.5727 45.5855C49.816 46.1061 49.9265 46.7216 49.9265 47.3406C49.9265 47.9562 49.8177 48.5765 49.5725 49.099C49.3458 49.5819 48.8678 50.2357 48.0196 50.3569M48.1396 44.3234C48.1634 44.3294 48.1877 44.3362 48.2122 44.3439L47.8459 45.518M47.8459 45.518L48.0196 50.3569" stroke="white" stroke-width="2.46"/>
</g>
<circle cx="46.8799" cy="47.5" r="3" fill="white"/>
<defs>
<filter id="filter0_f_303_9870" x="0.164433" y="0.630253" width="93.4021" height="93.4021" filterUnits="userSpaceOnUse" color-interpolation-filters="sRGB">
<feFlood flood-opacity="0" result="BackgroundImageFix"/>
<feBlend mode="normal" in="SourceGraphic" in2="BackgroundImageFix" result="shape"/>
<feGaussianBlur stdDeviation="18.44" result="effect1_foregroundBlur_303_9870"/>
</filter>
<filter id="filter1_f_303_9870" x="22.2945" y="22.7603" width="49.142" height="49.142" filterUnits="userSpaceOnUse" color-interpolation-filters="sRGB">
<feFlood flood-opacity="0" result="BackgroundImageFix"/>
<feBlend mode="normal" in="SourceGraphic" in2="BackgroundImageFix" result="shape"/>
<feGaussianBlur stdDeviation="6.145" result="effect1_foregroundBlur_303_9870"/>
</filter>
<filter id="filter2_ddi_303_9870" x="21.0644" y="33.8203" width="51.6021" height="51.6021" filterUnits="userSpaceOnUse" color-interpolation-filters="sRGB">
<feFlood flood-opacity="0" result="BackgroundImageFix"/>
<feColorMatrix in="SourceAlpha" type="matrix" values="0 0 0 0 0 0 0 0 0 0 0 0 0 0 0 0 0 0 127 0" result="hardAlpha"/>
<feOffset dy="7.99"/>
<feGaussianBlur stdDeviation="3.075"/>
<feComposite in2="hardAlpha" operator="out"/>
<feColorMatrix type="matrix" values="0 0 0 0 0 0 0 0 0 0.084549 0 0 0 0 0.301961 0 0 0 0.7 0"/>
<feBlend mode="normal" in2="BackgroundImageFix" result="effect1_dropShadow_303_9870"/>
<feColorMatrix in="SourceAlpha" type="matrix" values="0 0 0 0 0 0 0 0 0 0 0 0 0 0 0 0 0 0 127 0" result="hardAlpha"/>
<feOffset dy="12.29"/>
<feGaussianBlur stdDeviation="7.99"/>
<feComposite in2="hardAlpha" operator="out"/>
<feColorMatrix type="matrix" values="0 0 0 0 0 0 0 0 0 0.204 0 0 0 0 0.6 0 0 0 1 0"/>
<feBlend mode="normal" in2="effect1_dropShadow_303_9870" result="effect2_dropShadow_303_9870"/>
<feBlend mode="normal" in="SourceGraphic" in2="effect2_dropShadow_303_9870" result="shape"/>
<feColorMatrix in="SourceAlpha" type="matrix" values="0 0 0 0 0 0 0 0 0 0 0 0 0 0 0 0 0 0 127 0" result="hardAlpha"/>
<feOffset dx="-0.8" dy="1.6"/>
<feGaussianBlur stdDeviation="0.4"/>
<feComposite in2="hardAlpha" operator="arithmetic" k2="-1" k3="1"/>
<feColorMatrix type="matrix" values="0 0 0 0 1 0 0 0 0 1 0 0 0 0 1 0 0 0 0.5 0"/>
<feBlend mode="normal" in2="shape" result="effect3_innerShadow_303_9870"/>
</filter>
<filter id="filter3_f_303_9870" x="38.8845" y="39.3501" width="15.962" height="15.962" filterUnits="userSpaceOnUse" color-interpolation-filters="sRGB">
<feFlood flood-opacity="0" result="BackgroundImageFix"/>
<feBlend mode="normal" in="SourceGraphic" in2="BackgroundImageFix" result="shape"/>
<feGaussianBlur stdDeviation="0.615" result="effect1_foregroundBlur_303_9870"/>
</filter>
<filter id="filter4_f_303_9870" x="41.7545" y="42.22" width="10.222" height="10.222" filterUnits="userSpaceOnUse" color-interpolation-filters="sRGB">
<feFlood flood-opacity="0" result="BackgroundImageFix"/>
<feBlend mode="normal" in="SourceGraphic" in2="BackgroundImageFix" result="shape"/>
<feGaussianBlur stdDeviation="0.41" result="effect1_foregroundBlur_303_9870"/>
</filter>
</defs>
</svg>
