<svg width="800" height="136" viewBox="0 0 800 136" fill="none" xmlns="http://www.w3.org/2000/svg">
<path d="M156.26 58.1H157.26V57.1H156.26V58.1ZM80.48 58.1V57.1H79.48V58.1H80.48ZM80.48 83.84H79.48V84.84H80.48V83.84ZM122.24 83.84H123.24V82.84H122.24V83.84ZM122.24 95.18L122.916 95.9165L123.24 95.6194V95.18H122.24ZM124.22 43.88L123.551 44.6233L124.158 45.1691L124.814 44.6845L124.22 43.88ZM151.04 24.08L151.634 24.8845L152.603 24.1692L151.722 23.3483L151.04 24.08ZM156.26 107.24L157.038 107.868L157.26 107.593V107.24H156.26ZM156.26 57.1H80.48V59.1H156.26V57.1ZM79.48 58.1V83.84H81.48V58.1H79.48ZM80.48 84.84H122.24V82.84H80.48V84.84ZM121.24 83.84V95.18H123.24V83.84H121.24ZM121.564 94.4435C113.01 102.299 101.069 105.34 85.7 105.34V107.34C101.291 107.34 113.83 104.261 122.916 95.9165L121.564 94.4435ZM85.7 105.34C70.528 105.34 58.8116 101.991 50.9076 95.7024C43.0392 89.4425 38.82 80.1675 38.82 68H36.82C36.82 80.6724 41.2408 90.5675 49.6624 97.2675C58.0484 103.939 70.272 107.34 85.7 107.34V105.34ZM38.82 68C38.82 55.9143 42.91 46.6849 50.6426 40.451C58.4098 34.1893 69.9877 30.84 85.16 30.84V28.84C69.7323 28.84 57.6402 32.2407 49.3874 38.894C41.1 45.5751 36.82 55.4257 36.82 68H38.82ZM85.16 30.84C101.858 30.84 112.952 35.0845 123.551 44.6233L124.889 43.1367C113.888 33.2355 102.302 28.84 85.16 28.84V30.84ZM124.814 44.6845L151.634 24.8845L150.446 23.2755L123.626 43.0755L124.814 44.6845ZM151.722 23.3483C138.387 10.927 115.64 -0.140007 84.26 -0.140007V1.85999C115.16 1.85999 137.413 12.753 150.358 24.8117L151.722 23.3483ZM84.26 -0.140007C58.2868 -0.140007 37.1161 6.01245 22.4168 17.6484C7.6871 29.3085 -0.44 46.3945 -0.44 68H1.56C1.56 46.9455 9.4529 30.4615 23.6582 19.2166C37.8939 7.94753 58.5732 1.85999 84.26 1.85999V-0.140007ZM-0.44 68C-0.44 89.6055 7.6871 106.691 22.4168 118.352C37.1161 129.988 58.2868 136.14 84.26 136.14V134.14C58.5732 134.14 37.8939 128.052 23.6582 116.783C9.4529 105.539 1.56 89.0545 1.56 68H-0.44ZM84.26 136.14C118.124 136.14 143.294 124.91 157.038 107.868L155.482 106.612C142.226 123.05 117.716 134.14 84.26 134.14V136.14ZM157.26 107.24V58.1H155.26V107.24H157.26ZM254.554 136.14C279.635 136.14 300.444 129.984 315.006 118.349C329.595 106.691 337.814 89.6083 337.814 68H335.814C335.814 89.0517 327.833 105.539 313.757 116.786C299.654 128.056 279.334 134.14 254.554 134.14V136.14ZM337.814 68C337.814 46.3917 329.595 29.309 315.006 17.6513C300.444 6.01584 279.635 -0.140007 254.554 -0.140007V1.85999C279.334 1.85999 299.654 7.94415 313.757 19.2137C327.833 30.461 335.814 46.9483 335.814 68H337.814ZM254.554 -0.140007C229.474 -0.140007 208.708 6.01586 194.191 17.6522C179.647 29.3108 171.474 46.3936 171.474 68H173.474C173.474 46.9464 181.412 30.4592 195.442 19.2128C209.5 7.94412 229.775 1.85999 254.554 1.85999V-0.140007ZM171.474 68C171.474 89.6064 179.647 106.689 194.191 118.348C208.708 129.984 229.474 136.14 254.554 136.14V134.14C229.775 134.14 209.5 128.056 195.442 116.787C181.412 105.541 173.474 89.0536 173.474 68H171.474ZM254.554 104.26C240.843 104.26 229.889 100.92 222.383 94.7666C214.903 88.6351 210.734 79.6196 210.734 68H208.734C208.734 80.1404 213.115 89.7549 221.115 96.3134C229.089 102.85 240.545 106.26 254.554 106.26V104.26ZM210.734 68C210.734 56.3837 214.946 47.3675 222.449 41.2343C229.98 35.0792 240.934 31.74 254.554 31.74V29.74C240.634 29.74 229.179 33.1508 221.184 39.6857C213.162 46.2425 208.734 55.8563 208.734 68H210.734ZM254.554 31.74C268.265 31.74 279.219 35.0798 286.725 41.2334C294.205 47.3649 298.374 56.3804 298.374 68H300.374C300.374 55.8596 295.993 46.2451 287.993 39.6866C280.02 33.1502 268.563 29.74 254.554 29.74V31.74ZM298.374 68C298.374 79.6196 294.205 88.6351 286.725 94.7666C279.219 100.92 268.265 104.26 254.554 104.26V106.26C268.563 106.26 280.02 102.85 287.993 96.3134C295.993 89.7549 300.374 80.1404 300.374 68H298.374ZM468.211 131L467.314 131.442L467.589 132H468.211V131ZM507.271 131V132H508.914L508.159 130.541L507.271 131ZM442.111 4.99999L443 4.54064L442.72 3.99999H442.111V4.99999ZM401.971 4.99999V3.99999H401.363L401.083 4.54064L401.971 4.99999ZM336.811 131L335.923 130.541L335.168 132H336.811V131ZM375.331 131V132H375.953L376.228 131.442L375.331 131ZM387.211 106.88V105.88H386.589L386.314 106.438L387.211 106.88ZM456.331 106.88L457.228 106.438L456.953 105.88H456.331V106.88ZM399.811 80.78L398.914 80.3386L398.205 81.78H399.811V80.78ZM421.771 36.14L422.67 35.7015L421.775 33.867L420.874 35.6986L421.771 36.14ZM443.551 80.78V81.78H445.152L444.45 80.3415L443.551 80.78ZM468.211 132H507.271V130H468.211V132ZM508.159 130.541L443 4.54064L441.223 5.45935L506.383 131.459L508.159 130.541ZM442.111 3.99999H401.971V5.99999H442.111V3.99999ZM401.083 4.54064L335.923 130.541L337.699 131.459L402.859 5.45935L401.083 4.54064ZM336.811 132H375.331V130H336.811V132ZM376.228 131.442L388.108 107.322L386.314 106.438L374.434 130.558L376.228 131.442ZM387.211 107.88H456.331V105.88H387.211V107.88ZM455.434 107.322L467.314 131.442L469.108 130.558L457.228 106.438L455.434 107.322ZM400.709 81.2214L422.669 36.5814L420.874 35.6986L398.914 80.3386L400.709 81.2214ZM420.873 36.5785L442.653 81.2185L444.45 80.3415L422.67 35.7015L420.873 36.5785ZM443.551 79.78H399.811V81.78H443.551V79.78ZM557.937 101.48H556.937V102.48H557.937V101.48ZM557.937 4.99999H558.937V3.99999H557.937V4.99999ZM521.217 4.99999V3.99999H520.217V4.99999H521.217ZM521.217 131H520.217V132H521.217V131ZM642.717 131V132H643.717V131H642.717ZM642.717 101.48H643.717V100.48H642.717V101.48ZM558.937 101.48V4.99999H556.937V101.48H558.937ZM557.937 3.99999H521.217V5.99999H557.937V3.99999ZM520.217 4.99999V131H522.217V4.99999H520.217ZM521.217 132H642.717V130H521.217V132ZM643.717 131V101.48H641.717V131H643.717ZM642.717 100.48H557.937V102.48H642.717V100.48ZM729.012 51.08L729.094 50.0834L729.091 50.0832L729.012 51.08ZM724.512 28.4L724.521 27.4H724.512V28.4ZM775.092 42.44L774.515 43.2573L775.279 43.796L775.868 43.0699L775.092 42.44ZM793.632 19.58L794.408 20.2099L795.081 19.3809L794.21 18.764L793.632 19.58ZM726.852 82.22L726.765 83.2163L726.768 83.2165L726.852 82.22ZM669.612 87.8L670.256 87.0356L669.494 86.3931L668.849 87.1527L669.612 87.8ZM650.352 110.48L649.589 109.833L648.923 110.618L649.727 111.261L650.352 110.48ZM729.091 50.0832C717.803 49.1801 708.63 48.4648 702.268 46.9352C699.086 46.1702 696.722 45.226 695.17 44.0346C693.667 42.881 692.932 41.5071 692.932 39.74H690.932C690.932 42.2029 692.018 44.1365 693.952 45.6211C695.837 47.0677 698.525 48.0923 701.8 48.8798C708.353 50.4552 717.72 51.1799 728.932 52.0768L729.091 50.0832ZM692.932 39.74C692.932 37.8747 693.836 36.3078 695.562 34.9593C697.313 33.5914 699.857 32.4992 702.948 31.6601C709.122 29.9844 717.164 29.4 724.512 29.4V27.4C717.099 27.4 708.851 27.9856 702.425 29.7299C699.216 30.6008 696.382 31.781 694.331 33.3831C692.255 35.0047 690.932 37.1053 690.932 39.74H692.932ZM724.502 29.3999C743.996 29.5788 760.695 33.5121 774.515 43.2573L775.668 41.6227C761.408 31.5679 744.267 27.5812 724.521 27.4L724.502 29.3999ZM775.868 43.0699L794.408 20.2099L792.855 18.9501L774.315 41.8101L775.868 43.0699ZM794.21 18.764C776.712 6.36969 751.649 -0.140007 724.512 -0.140007V1.85999C751.374 1.85999 775.991 8.31029 793.054 20.396L794.21 18.764ZM724.512 -0.140007C704.429 -0.140007 686.957 3.56581 674.468 10.7481C661.943 17.9509 654.392 28.6875 654.392 42.62H656.392C656.392 29.5525 663.42 19.409 675.465 12.4819C687.546 5.53417 704.634 1.85999 724.512 1.85999V-0.140007ZM654.392 42.62C654.392 49.8602 656.591 55.8622 660.508 60.8182C664.411 65.7574 669.983 69.6111 676.668 72.6456C690.018 78.7056 708.029 81.5949 726.765 83.2163L726.938 81.2237C708.234 79.6051 690.515 76.7344 677.495 70.8244C670.995 67.8739 665.722 64.1901 662.077 59.5781C658.445 54.9828 656.392 49.4198 656.392 42.62H654.392ZM726.768 83.2165C739.742 84.2977 748.623 85.5071 754.25 87.4193C757.056 88.373 758.954 89.4703 760.145 90.7291C761.306 91.9551 761.852 93.3906 761.852 95.18H763.852C763.852 92.9194 763.137 90.9799 761.598 89.354C760.09 87.761 757.847 86.5295 754.893 85.5257C749 83.5229 739.881 82.3023 726.935 81.2234L726.768 83.2165ZM761.852 95.18C761.852 97.0099 761.263 98.5745 760.076 99.9254C758.87 101.297 757.007 102.491 754.4 103.469C749.173 105.429 741.22 106.42 730.452 106.42V108.42C741.283 108.42 749.53 107.431 755.103 105.341C757.896 104.294 760.083 102.946 761.578 101.246C763.09 99.5255 763.852 97.4901 763.852 95.18H761.852ZM730.452 106.42C705.436 106.42 684.98 99.4533 670.256 87.0356L668.967 88.5644C684.123 101.347 705.067 108.42 730.452 108.42V106.42ZM668.849 87.1527L649.589 109.833L651.114 111.127L670.374 88.4473L668.849 87.1527ZM649.727 111.261C669.739 127.27 697.153 136.14 729.732 136.14V134.14C697.51 134.14 670.564 125.37 650.976 109.699L649.727 111.261ZM729.732 136.14C752.7 136.14 770.332 131.712 782.254 123.917C794.219 116.094 800.392 104.898 800.392 91.58H798.392C798.392 104.182 792.594 114.766 781.159 122.243C769.682 129.748 752.483 134.14 729.732 134.14V136.14ZM800.392 91.58C800.392 84.1575 798.521 78.0135 795.014 72.9384C791.513 67.8725 786.428 63.9369 780.098 60.8464C767.472 54.6821 749.711 51.794 729.094 50.0834L728.929 52.0766C749.532 53.786 766.961 56.6579 779.22 62.6436C785.333 65.6281 790.114 69.365 793.369 74.0754C796.617 78.7765 798.392 84.5125 798.392 91.58H800.392Z" fill="white" fill-opacity="0.2"/>
</svg>
