<svg width="1146" height="136" viewBox="0 0 1146 136" fill="none" xmlns="http://www.w3.org/2000/svg">
<path d="M25.58 90.5L26.3623 89.8771L25.7122 89.0606L24.9242 89.745L25.58 90.5ZM0.92 111.92L0.264231 111.165L-0.472739 111.805L0.149445 112.557L0.92 111.92ZM122.96 4.99999H123.96V3.99999H122.96V4.99999ZM86.24 4.99999V3.99999H85.24V4.99999H86.24ZM24.9242 89.745L0.264231 111.165L1.57577 112.675L26.2358 91.255L24.9242 89.745ZM0.149445 112.557C12.4256 127.399 30.1856 136.14 56.54 136.14V134.14C30.6944 134.14 13.5344 125.601 1.69056 111.283L0.149445 112.557ZM56.54 136.14C78.6843 136.14 95.5609 129.921 106.908 119.171C118.259 108.417 123.96 93.2388 123.96 75.56H121.96C121.96 92.8012 116.411 107.413 105.532 117.719C94.6492 128.029 78.3157 134.14 56.54 134.14V136.14ZM123.96 75.56V4.99999H121.96V75.56H123.96ZM122.96 3.99999H86.24V5.99999H122.96V3.99999ZM85.24 4.99999V72.68H87.24V4.99999H85.24ZM85.24 72.68C85.24 82.4655 83.1902 90.241 78.6189 95.5634C74.0733 100.856 66.8789 103.9 56.18 103.9V105.9C67.2611 105.9 75.0967 102.734 80.1361 96.8665C85.1499 91.0289 87.24 82.6945 87.24 72.68H85.24ZM56.18 103.9C49.2734 103.9 43.7147 102.75 38.9532 100.445C34.1923 98.1406 30.1638 94.6511 26.3623 89.8771L24.7977 91.1229C28.7362 96.0689 32.9877 99.7794 38.0818 102.245C43.1753 104.71 49.0466 105.9 56.18 105.9V103.9ZM225.058 136.14C250.138 136.14 270.948 129.984 285.51 118.349C300.099 106.691 308.318 89.6083 308.318 68H306.318C306.318 89.0517 298.337 105.539 284.261 116.786C270.158 128.056 249.838 134.14 225.058 134.14V136.14ZM308.318 68C308.318 46.3917 300.099 29.309 285.51 17.6513C270.948 6.01584 250.138 -0.140007 225.058 -0.140007V1.85999C249.838 1.85999 270.158 7.94415 284.261 19.2137C298.337 30.461 306.318 46.9483 306.318 68H308.318ZM225.058 -0.140007C199.978 -0.140007 179.212 6.01586 164.695 17.6522C150.15 29.3108 141.978 46.3936 141.978 68H143.978C143.978 46.9464 151.916 30.4592 165.946 19.2128C180.004 7.94412 200.278 1.85999 225.058 1.85999V-0.140007ZM141.978 68C141.978 89.6064 150.15 106.689 164.695 118.348C179.212 129.984 199.978 136.14 225.058 136.14V134.14C200.278 134.14 180.004 128.056 165.946 116.787C151.916 105.541 143.978 89.0536 143.978 68H141.978ZM225.058 104.26C211.347 104.26 200.393 100.92 192.887 94.7666C185.407 88.6351 181.238 79.6196 181.238 68H179.238C179.238 80.1404 183.619 89.7549 191.619 96.3134C199.593 102.85 211.049 106.26 225.058 106.26V104.26ZM181.238 68C181.238 56.3837 185.45 47.3675 192.953 41.2343C200.483 35.0792 211.438 31.74 225.058 31.74V29.74C211.138 29.74 199.682 33.1508 191.688 39.6857C183.666 46.2425 179.238 55.8563 179.238 68H181.238ZM225.058 31.74C238.769 31.74 249.723 35.0798 257.229 41.2334C264.709 47.3649 268.878 56.3804 268.878 68H270.878C270.878 55.8596 266.497 46.2451 258.497 39.6866C250.523 33.1502 239.067 29.74 225.058 29.74V31.74ZM268.878 68C268.878 79.6196 264.709 88.6351 257.229 94.7666C249.723 100.92 238.769 104.26 225.058 104.26V106.26C239.067 106.26 250.523 102.85 258.497 96.3134C266.497 89.7549 270.878 80.1404 270.878 68H268.878ZM437.111 4.99999V3.99999H436.111V4.99999H437.111ZM364.211 4.99999H365.211V3.99999H364.211V4.99999ZM327.491 4.99999V3.99999H326.491V4.99999H327.491ZM473.831 4.99999H474.831V3.99999H473.831V4.99999ZM436.111 4.99999V68.72H438.111V4.99999H436.111ZM436.111 68.72C436.111 79.5237 433.146 88.2902 427.322 94.3522C421.505 100.407 412.704 103.9 400.751 103.9V105.9C413.097 105.9 422.476 102.283 428.764 95.7378C435.045 89.1998 438.111 79.8763 438.111 68.72H436.111ZM400.751 103.9C388.797 103.9 379.949 100.407 374.087 94.3495C368.218 88.2863 365.211 79.5199 365.211 68.72H363.211C363.211 79.8801 366.323 89.2037 372.65 95.7405C378.982 102.283 388.405 105.9 400.751 105.9V103.9ZM365.211 68.72V4.99999H363.211V68.72H365.211ZM364.211 3.99999H327.491V5.99999H364.211V3.99999ZM326.491 4.99999V71.6H328.491V4.99999H326.491ZM326.491 71.6C326.491 91.0095 333.151 107.183 345.838 118.494C358.512 129.793 377.089 136.14 400.751 136.14V134.14C377.433 134.14 359.38 127.887 347.169 117.001C334.971 106.127 328.491 90.5305 328.491 71.6H326.491ZM400.751 136.14C424.413 136.14 442.945 129.793 455.575 118.493C468.217 107.181 474.831 91.0074 474.831 71.6H472.831C472.831 90.5326 466.394 106.129 454.241 117.002C442.076 127.887 424.069 134.14 400.751 134.14V136.14ZM474.831 71.6V4.99999H472.831V71.6H474.831ZM473.831 3.99999H437.111V5.99999H473.831V3.99999ZM650.793 131V132H652.981L651.549 130.346L650.793 131ZM613.713 88.16L613.434 87.1998L611.936 87.6354L612.957 88.8145L613.713 88.16ZM501.213 4.99999V3.99999H500.213V4.99999H501.213ZM501.213 131H500.213V132H501.213V131ZM537.753 131V132H538.753V131H537.753ZM537.753 91.22V90.22H536.753V91.22H537.753ZM574.833 91.22L575.6 90.5781L575.3 90.22H574.833V91.22ZM608.133 131L607.366 131.642L607.666 132H608.133V131ZM537.573 64.58H536.573V65.58H537.573V64.58ZM537.573 32.9V31.9H536.573V32.9H537.573ZM651.549 130.346L614.469 87.5056L612.957 88.8145L650.037 131.654L651.549 130.346ZM613.992 89.1202C624.028 86.2008 632.492 81.3452 638.453 74.4833C644.425 67.6083 647.833 58.7766 647.833 48.02H645.833C645.833 58.3234 642.581 66.6817 636.943 73.1717C631.294 79.6748 623.198 84.3592 613.434 87.1998L613.992 89.1202ZM647.833 48.02C647.833 33.2847 641.411 22.2265 630.867 14.8892C620.364 7.58064 605.832 3.99999 589.593 3.99999V5.99999C605.575 5.99999 619.663 9.52934 629.724 16.5308C639.745 23.5035 645.833 33.9553 645.833 48.02H647.833ZM589.593 3.99999H501.213V5.99999H589.593V3.99999ZM500.213 4.99999V131H502.213V4.99999H500.213ZM501.213 132H537.753V130H501.213V132ZM538.753 131V91.22H536.753V131H538.753ZM537.753 92.22H574.833V90.22H537.753V92.22ZM574.066 91.8619L607.366 131.642L608.9 130.358L575.6 90.5781L574.066 91.8619ZM608.133 132H650.793V130H608.133V132ZM538.573 64.58V32.9H536.573V64.58H538.573ZM537.573 33.9H586.893V31.9H537.573V33.9ZM586.893 33.9C593.409 33.9 598.854 34.7997 602.644 37.0862C606.342 39.3171 608.573 42.9339 608.573 48.74H610.573C610.573 42.3061 608.035 38.0029 603.677 35.3738C599.412 32.8003 593.517 31.9 586.893 31.9V33.9ZM608.573 48.74C608.573 54.5461 606.342 58.1629 602.644 60.3938C598.854 62.6803 593.409 63.58 586.893 63.58V65.58C593.517 65.58 599.412 64.6797 603.677 62.1062C608.035 59.4771 610.573 55.1739 610.573 48.74H608.573ZM586.893 63.58H537.573V65.58H586.893V63.58ZM784.07 4.99999V3.99999H783.07V4.99999H784.07ZM784.07 82.04L783.353 82.7361L785.07 84.5079V82.04H784.07ZM709.37 4.99999L710.088 4.30387L709.794 3.99999H709.37V4.99999ZM670.49 4.99999V3.99999H669.49V4.99999H670.49ZM670.49 131H669.49V132H670.49V131ZM705.951 131V132H706.951V131H705.951ZM705.951 48.2L706.664 47.4991L704.951 45.7555V48.2H705.951ZM787.31 131L786.597 131.701L786.891 132H787.31V131ZM819.53 131V132H820.53V131H819.53ZM819.53 4.99999H820.53V3.99999H819.53V4.99999ZM783.07 4.99999V82.04H785.07V4.99999H783.07ZM784.788 81.3439L710.088 4.30387L708.653 5.69611L783.353 82.7361L784.788 81.3439ZM709.37 3.99999H670.49V5.99999H709.37V3.99999ZM669.49 4.99999V131H671.49V4.99999H669.49ZM670.49 132H705.951V130H670.49V132ZM706.951 131V48.2H704.951V131H706.951ZM705.237 48.9009L786.597 131.701L788.024 130.299L706.664 47.4991L705.237 48.9009ZM787.31 132H819.53V130H787.31V132ZM820.53 131V4.99999H818.53V131H820.53ZM819.53 3.99999H784.07V5.99999H819.53V3.99999ZM885.264 102.92H884.264V103.92H885.264V102.92ZM885.264 80.6V79.6H884.264V80.6H885.264ZM964.644 80.6V81.6H965.644V80.6H964.644ZM964.644 53.78H965.644V52.78H964.644V53.78ZM885.264 53.78H884.264V54.78H885.264V53.78ZM885.264 33.08V32.08H884.264V33.08H885.264ZM981.564 33.08V34.08H982.564V33.08H981.564ZM981.564 4.99999H982.564V3.99999H981.564V4.99999ZM849.084 4.99999V3.99999H848.084V4.99999H849.084ZM849.084 131H848.084V132H849.084V131ZM983.544 131V132H984.544V131H983.544ZM983.544 102.92H984.544V101.92H983.544V102.92ZM886.264 102.92V80.6H884.264V102.92H886.264ZM885.264 81.6H964.644V79.6H885.264V81.6ZM965.644 80.6V53.78H963.644V80.6H965.644ZM964.644 52.78H885.264V54.78H964.644V52.78ZM886.264 53.78V33.08H884.264V53.78H886.264ZM885.264 34.08H981.564V32.08H885.264V34.08ZM982.564 33.08V4.99999H980.564V33.08H982.564ZM981.564 3.99999H849.084V5.99999H981.564V3.99999ZM848.084 4.99999V131H850.084V4.99999H848.084ZM849.084 132H983.544V130H849.084V132ZM984.544 131V102.92H982.544V131H984.544ZM983.544 101.92H885.264V103.92H983.544V101.92ZM990.225 4.99999V3.99999H988.29L989.41 5.5784L990.225 4.99999ZM1049.45 88.52H1050.45V88.2014L1050.26 87.9416L1049.45 88.52ZM1049.45 131H1048.45V132H1049.45V131ZM1086.17 131V132H1087.17V131H1086.17ZM1086.17 88.52L1085.35 87.9416L1085.17 88.2014V88.52H1086.17ZM1145.39 4.99999L1146.2 5.5784L1147.32 3.99999H1145.39V4.99999ZM1104.53 4.99999V3.99999H1103.99L1103.7 4.44212L1104.53 4.99999ZM1067.99 59.36L1067.16 59.9197L1067.99 61.1495L1068.82 59.9179L1067.99 59.36ZM1031.27 4.99999L1032.09 4.44024L1031.8 3.99999H1031.27V4.99999ZM989.41 5.5784L1048.63 89.0984L1050.26 87.9416L991.041 4.42159L989.41 5.5784ZM1048.45 88.52V131H1050.45V88.52H1048.45ZM1049.45 132H1086.17V130H1049.45V132ZM1087.17 131V88.52H1085.17V131H1087.17ZM1086.98 89.0984L1146.2 5.5784L1144.57 4.42159L1085.35 87.9416L1086.98 89.0984ZM1145.39 3.99999H1104.53V5.99999H1145.39V3.99999ZM1103.7 4.44212L1067.16 58.8021L1068.82 59.9179L1105.36 5.55786L1103.7 4.44212ZM1068.81 58.8002L1032.09 4.44024L1030.44 5.55975L1067.16 59.9197L1068.81 58.8002ZM1031.27 3.99999H990.225V5.99999H1031.27V3.99999Z" fill="white" fill-opacity="0.2"/>
</svg>
