<svg width="1076" height="131" viewBox="0 0 1076 131" fill="none" xmlns="http://www.w3.org/2000/svg">
<path d="M114.34 4.99999V3.99999H113.34V4.99999H114.34ZM149.8 4.99999H150.8V3.99999H149.8V4.99999ZM149.8 131V132H150.8V131H149.8ZM117.58 131L116.867 131.701L117.161 132H117.58V131ZM36.22 48.2L36.9333 47.4991L35.22 45.7555V48.2H36.22ZM36.22 131V132H37.22V131H36.22ZM0.76 131H-0.24V132H0.76V131ZM0.76 4.99999V3.99999H-0.24V4.99999H0.76ZM39.64 4.99999L40.3579 4.30387L40.0633 3.99999H39.64V4.99999ZM114.34 82.04L113.622 82.7361L115.34 84.5079V82.04H114.34ZM114.34 5.99999H149.8V3.99999H114.34V5.99999ZM148.8 4.99999V131H150.8V4.99999H148.8ZM149.8 130H117.58V132H149.8V130ZM118.293 130.299L36.9333 47.4991L35.5067 48.9009L116.867 131.701L118.293 130.299ZM35.22 48.2V131H37.22V48.2H35.22ZM36.22 130H0.76V132H36.22V130ZM1.76 131V4.99999H-0.24V131H1.76ZM0.76 5.99999H39.64V3.99999H0.76V5.99999ZM38.9221 5.69611L113.622 82.7361L115.058 81.3439L40.3579 4.30387L38.9221 5.69611ZM115.34 82.04V4.99999H113.34V82.04H115.34ZM295.274 131L294.377 131.442L294.652 132H295.274V131ZM283.394 106.88L284.291 106.438L284.016 105.88H283.394V106.88ZM214.274 106.88V105.88H213.652L213.377 106.438L214.274 106.88ZM202.394 131V132H203.016L203.291 131.442L202.394 131ZM163.874 131L162.986 130.541L162.231 132H163.874V131ZM229.034 4.99999V3.99999H228.425L228.145 4.54064L229.034 4.99999ZM269.174 4.99999L270.062 4.54064L269.782 3.99999H269.174V4.99999ZM334.334 131V132H335.977L335.222 130.541L334.334 131ZM226.874 80.78L225.976 80.3386L225.267 81.78H226.874V80.78ZM270.614 80.78V81.78H272.214L271.512 80.3415L270.614 80.78ZM248.834 36.14L249.732 35.7015L248.837 33.867L247.936 35.6986L248.834 36.14ZM296.171 130.558L284.291 106.438L282.497 107.322L294.377 131.442L296.171 130.558ZM283.394 105.88H214.274V107.88H283.394V105.88ZM213.377 106.438L201.497 130.558L203.291 131.442L215.171 107.322L213.377 106.438ZM202.394 130H163.874V132H202.394V130ZM164.762 131.459L229.922 5.45935L228.145 4.54064L162.986 130.541L164.762 131.459ZM229.034 5.99999H269.174V3.99999H229.034V5.99999ZM268.285 5.45935L333.445 131.459L335.222 130.541L270.062 4.54064L268.285 5.45935ZM334.334 130H295.274V132H334.334V130ZM226.874 81.78H270.614V79.78H226.874V81.78ZM271.512 80.3415L249.732 35.7015L247.935 36.5785L269.715 81.2185L271.512 80.3415ZM247.936 35.6986L225.976 80.3386L227.771 81.2214L249.731 36.5814L247.936 35.6986ZM316.1 4.99999V3.99999H314.499L315.202 5.43897L316.1 4.99999ZM355.7 4.99999L356.609 4.58334L356.342 3.99999H355.7V4.99999ZM397.28 95.72L396.371 96.1367L397.282 98.1244L398.19 96.1352L397.28 95.72ZM438.68 4.99999V3.99999H438.037L437.771 4.58483L438.68 4.99999ZM477.92 4.99999L478.818 5.44001L479.524 3.99999H477.92V4.99999ZM416.18 131V132H416.804L417.078 131.44L416.18 131ZM377.66 131L376.762 131.439L377.036 132H377.66V131ZM316.1 5.99999H355.7V3.99999H316.1V5.99999ZM354.791 5.41665L396.371 96.1367L398.189 95.3033L356.609 4.58334L354.791 5.41665ZM398.19 96.1352L439.59 5.41515L437.771 4.58483L396.371 95.3048L398.19 96.1352ZM438.68 5.99999H477.92V3.99999H438.68V5.99999ZM477.022 4.55997L415.282 130.56L417.078 131.44L478.818 5.44001L477.022 4.55997ZM416.18 130H377.66V132H416.18V130ZM378.559 130.561L316.999 4.56101L315.202 5.43897L376.762 131.439L378.559 130.561ZM528.437 131V132H529.437V131H528.437ZM491.717 131H490.717V132H491.717V131ZM491.717 4.99999V3.99999H490.717V4.99999H491.717ZM528.437 4.99999H529.437V3.99999H528.437V4.99999ZM528.437 130H491.717V132H528.437V130ZM492.717 131V4.99999H490.717V131H492.717ZM491.717 5.99999H528.437V3.99999H491.717V5.99999ZM527.437 4.99999V131H529.437V4.99999H527.437ZM706.662 58.1H707.662V57.1H706.662V58.1ZM706.662 107.24L707.441 107.868L707.662 107.593V107.24H706.662ZM701.442 24.08L702.036 24.8845L703.005 24.1692L702.124 23.3483L701.442 24.08ZM674.622 43.88L673.953 44.6233L674.56 45.1691L675.216 44.6845L674.622 43.88ZM672.642 95.18L673.319 95.9165L673.642 95.6194V95.18H672.642ZM672.642 83.84H673.642V82.84H672.642V83.84ZM630.882 83.84H629.882V84.84H630.882V83.84ZM630.882 58.1V57.1H629.882V58.1H630.882ZM705.662 58.1V107.24H707.662V58.1H705.662ZM705.884 106.612C692.628 123.05 668.119 134.14 634.662 134.14V136.14C668.526 136.14 693.697 124.91 707.441 107.868L705.884 106.612ZM634.662 134.14C608.976 134.14 588.296 128.052 574.061 116.783C559.855 105.539 551.962 89.0545 551.962 68H549.962C549.962 89.6055 558.089 106.691 572.819 118.352C587.518 129.988 608.689 136.14 634.662 136.14V134.14ZM551.962 68C551.962 46.9455 559.855 30.4615 574.061 19.2166C588.296 7.94753 608.976 1.85999 634.662 1.85999V-0.140007C608.689 -0.140007 587.518 6.01245 572.819 17.6484C558.089 29.3085 549.962 46.3945 549.962 68H551.962ZM634.662 1.85999C665.563 1.85999 687.815 12.753 700.761 24.8117L702.124 23.3483C688.789 10.927 666.042 -0.140007 634.662 -0.140007V1.85999ZM700.848 23.2755L674.028 43.0755L675.216 44.6845L702.036 24.8845L700.848 23.2755ZM675.291 43.1367C664.29 33.2355 652.704 28.84 635.562 28.84V30.84C652.26 30.84 663.355 35.0845 673.953 44.6233L675.291 43.1367ZM635.562 28.84C620.135 28.84 608.043 32.2407 599.79 38.894C591.502 45.5751 587.222 55.4257 587.222 68H589.222C589.222 55.9143 593.312 46.6849 601.045 40.451C608.812 34.1893 620.39 30.84 635.562 30.84V28.84ZM587.222 68C587.222 80.6724 591.643 90.5675 600.065 97.2675C608.451 103.939 620.674 107.34 636.102 107.34V105.34C620.93 105.34 609.214 101.991 601.31 95.7024C593.442 89.4425 589.222 80.1675 589.222 68H587.222ZM636.102 107.34C651.693 107.34 664.232 104.261 673.319 95.9165L671.966 94.4435C663.412 102.299 651.471 105.34 636.102 105.34V107.34ZM673.642 95.18V83.84H671.642V95.18H673.642ZM672.642 82.84H630.882V84.84H672.642V82.84ZM631.882 83.84V58.1H629.882V83.84H631.882ZM630.882 59.1H706.662V57.1H630.882V59.1ZM841.075 131L840.177 131.442L840.452 132H841.075V131ZM829.195 106.88L830.092 106.438L829.817 105.88H829.195V106.88ZM760.075 106.88V105.88H759.452L759.177 106.438L760.075 106.88ZM748.195 131V132H748.817L749.092 131.442L748.195 131ZM709.675 131L708.786 130.541L708.032 132H709.675V131ZM774.835 4.99999V3.99999H774.226L773.946 4.54064L774.835 4.99999ZM814.975 4.99999L815.863 4.54064L815.583 3.99999H814.975V4.99999ZM880.135 131V132H881.777L881.023 130.541L880.135 131ZM772.675 80.78L771.777 80.3386L771.068 81.78H772.675V80.78ZM816.415 80.78V81.78H818.015L817.313 80.3415L816.415 80.78ZM794.635 36.14L795.533 35.7015L794.638 33.867L793.737 35.6986L794.635 36.14ZM841.972 130.558L830.092 106.438L828.297 107.322L840.177 131.442L841.972 130.558ZM829.195 105.88H760.075V107.88H829.195V105.88ZM759.177 106.438L747.297 130.558L749.092 131.442L760.972 107.322L759.177 106.438ZM748.195 130H709.675V132H748.195V130ZM710.563 131.459L775.723 5.45935L773.946 4.54064L708.786 130.541L710.563 131.459ZM774.835 5.99999H814.975V3.99999H774.835V5.99999ZM814.086 5.45935L879.246 131.459L881.023 130.541L815.863 4.54064L814.086 5.45935ZM880.135 130H841.075V132H880.135V130ZM772.675 81.78H816.415V79.78H772.675V81.78ZM817.313 80.3415L795.533 35.7015L793.736 36.5785L815.516 81.2185L817.313 80.3415ZM793.737 35.6986L771.777 80.3386L773.572 81.2214L795.532 36.5814L793.737 35.6986ZM1003.63 4.99999H1004.63V3.99999H1003.63V4.99999ZM1003.63 34.34V35.34H1004.63V34.34H1003.63ZM951.253 34.34V33.34H950.253V34.34H951.253ZM951.253 131V132H952.253V131H951.253ZM914.533 131H913.533V132H914.533V131ZM914.533 34.34H915.533V33.34H914.533V34.34ZM862.513 34.34H861.513V35.34H862.513V34.34ZM862.513 4.99999V3.99999H861.513V4.99999H862.513ZM1002.63 4.99999V34.34H1004.63V4.99999H1002.63ZM1003.63 33.34H951.253V35.34H1003.63V33.34ZM950.253 34.34V131H952.253V34.34H950.253ZM951.253 130H914.533V132H951.253V130ZM915.533 131V34.34H913.533V131H915.533ZM914.533 33.34H862.513V35.34H914.533V33.34ZM863.513 34.34V4.99999H861.513V34.34H863.513ZM862.513 5.99999H1003.63V3.99999H862.513V5.99999ZM1057.35 102.92H1056.35V103.92H1057.35V102.92ZM1155.63 102.92H1156.63V101.92H1155.63V102.92ZM1155.63 131V132H1156.63V131H1155.63ZM1021.17 131H1020.17V132H1021.17V131ZM1021.17 4.99999V3.99999H1020.17V4.99999H1021.17ZM1153.65 4.99999H1154.65V3.99999H1153.65V4.99999ZM1153.65 33.08V34.08H1154.65V33.08H1153.65ZM1057.35 33.08V32.08H1056.35V33.08H1057.35ZM1057.35 53.78H1056.35V54.78H1057.35V53.78ZM1136.73 53.78H1137.73V52.78H1136.73V53.78ZM1136.73 80.6V81.6H1137.73V80.6H1136.73ZM1057.35 80.6V79.6H1056.35V80.6H1057.35ZM1057.35 103.92H1155.63V101.92H1057.35V103.92ZM1154.63 102.92V131H1156.63V102.92H1154.63ZM1155.63 130H1021.17V132H1155.63V130ZM1022.17 131V4.99999H1020.17V131H1022.17ZM1021.17 5.99999H1153.65V3.99999H1021.17V5.99999ZM1152.65 4.99999V33.08H1154.65V4.99999H1152.65ZM1153.65 32.08H1057.35V34.08H1153.65V32.08ZM1056.35 33.08V53.78H1058.35V33.08H1056.35ZM1057.35 54.78H1136.73V52.78H1057.35V54.78ZM1135.73 53.78V80.6H1137.73V53.78H1135.73ZM1136.73 79.6H1057.35V81.6H1136.73V79.6ZM1056.35 80.6V102.92H1058.35V80.6H1056.35Z" fill="white" fill-opacity="0.2"/>
</svg>
