<svg width="1119" height="136" viewBox="0 0 1119 136" fill="none" xmlns="http://www.w3.org/2000/svg">
<path d="M79.16 51.08L79.2427 50.0834L79.2397 50.0832L79.16 51.08ZM74.66 28.4L74.6692 27.4H74.66V28.4ZM125.24 42.44L124.664 43.2573L125.428 43.796L126.017 43.0699L125.24 42.44ZM143.78 19.58L144.557 20.2099L145.229 19.3809L144.358 18.764L143.78 19.58ZM77 82.22L76.9138 83.2163L76.917 83.2165L77 82.22ZM19.76 87.8L20.4047 87.0356L19.6429 86.3931L18.9978 87.1527L19.76 87.8ZM0.5 110.48L-0.262238 109.833L-0.928779 110.618L-0.124695 111.261L0.5 110.48ZM79.2397 50.0832C67.9517 49.1801 58.7785 48.4648 52.4163 46.9352C49.2343 46.1702 46.8708 45.226 45.3186 44.0346C43.8158 42.881 43.08 41.5071 43.08 39.74H41.08C41.08 42.2029 42.1667 44.1365 44.1008 45.6211C45.9854 47.0677 48.6732 48.0923 51.9487 48.8798C58.5015 50.4552 67.8683 51.1799 79.0803 52.0768L79.2397 50.0832ZM43.08 39.74C43.08 37.8747 43.9841 36.3078 45.7106 34.9593C47.4619 33.5914 50.0055 32.4992 53.097 31.6601C59.2705 29.9844 67.3123 29.4 74.66 29.4V27.4C67.2477 27.4 58.9995 27.9856 52.5731 29.7299C49.3645 30.6008 46.5306 31.781 44.4795 33.3831C42.4034 35.0047 41.08 37.1053 41.08 39.74H43.08ZM74.6508 29.3999C94.1447 29.5788 110.843 33.5121 124.664 43.2573L125.816 41.6227C111.557 31.5679 94.4153 27.5812 74.6692 27.4L74.6508 29.3999ZM126.017 43.0699L144.557 20.2099L143.003 18.9501L124.463 41.8101L126.017 43.0699ZM144.358 18.764C126.86 6.36969 101.798 -0.140007 74.66 -0.140007V1.85999C101.522 1.85999 126.14 8.31029 143.202 20.396L144.358 18.764ZM74.66 -0.140007C54.5773 -0.140007 37.1054 3.56581 24.6165 10.7481C12.0918 17.9509 4.54 28.6875 4.54 42.62H6.54C6.54 29.5525 13.5682 19.409 25.6135 12.4819C37.6946 5.53417 54.7827 1.85999 74.66 1.85999V-0.140007ZM4.54 42.62C4.54 49.8602 6.73916 55.8622 10.6561 60.8182C14.5598 65.7574 20.1317 69.6111 26.8167 72.6456C40.1669 78.7056 58.1777 81.5949 76.9138 83.2163L77.0862 81.2237C58.3823 79.6051 40.6631 76.7344 27.6433 70.8244C21.1433 67.8739 15.8702 64.1901 12.2252 59.5781C8.59334 54.9828 6.54 49.4198 6.54 42.62H4.54ZM76.917 83.2165C89.8907 84.2977 98.7715 85.5071 104.398 87.4193C107.205 88.373 109.102 89.4703 110.294 90.7291C111.455 91.9551 112 93.3906 112 95.18H114C114 92.9194 113.285 90.9799 111.746 89.354C110.238 87.761 107.995 86.5295 105.042 85.5257C99.1485 83.5229 90.0293 82.3023 77.083 81.2234L76.917 83.2165ZM112 95.18C112 97.0099 111.412 98.5745 110.224 99.9254C109.018 101.297 107.155 102.491 104.549 103.469C99.3216 105.429 91.3684 106.42 80.6 106.42V108.42C91.4317 108.42 99.6785 107.431 105.251 105.341C108.045 104.294 110.232 102.946 111.726 101.246C113.238 99.5255 114 97.4901 114 95.18H112ZM80.6 106.42C55.5846 106.42 35.1286 99.4533 20.4047 87.0356L19.1153 88.5644C34.2714 101.347 55.2154 108.42 80.6 108.42V106.42ZM18.9978 87.1527L-0.262238 109.833L1.26224 111.127L20.5222 88.4473L18.9978 87.1527ZM-0.124695 111.261C19.8873 127.27 47.3017 136.14 79.88 136.14V134.14C47.6583 134.14 20.7127 125.37 1.1247 109.699L-0.124695 111.261ZM79.88 136.14C102.848 136.14 120.48 131.712 132.402 123.917C144.368 116.094 150.54 104.898 150.54 91.58H148.54C148.54 104.182 142.742 114.766 131.308 122.243C119.83 129.748 102.632 134.14 79.88 134.14V136.14ZM150.54 91.58C150.54 84.1575 148.669 78.0135 145.162 72.9384C141.662 67.8725 136.576 63.9369 130.246 60.8464C117.621 54.6821 99.8595 51.794 79.2427 50.0834L79.0773 52.0766C99.6805 53.786 117.109 56.6579 129.369 62.6436C135.482 65.6281 140.262 69.365 143.517 74.0754C146.766 78.7765 148.54 84.5125 148.54 91.58H150.54ZM277.654 4.99999V3.99999H276.654V4.99999H277.654ZM204.754 4.99999H205.754V3.99999H204.754V4.99999ZM168.034 4.99999V3.99999H167.034V4.99999H168.034ZM314.374 4.99999H315.374V3.99999H314.374V4.99999ZM276.654 4.99999V68.72H278.654V4.99999H276.654ZM276.654 68.72C276.654 79.5237 273.689 88.2902 267.865 94.3522C262.048 100.407 253.247 103.9 241.294 103.9V105.9C253.64 105.9 263.019 102.283 269.307 95.7378C275.588 89.1998 278.654 79.8763 278.654 68.72H276.654ZM241.294 103.9C229.34 103.9 220.492 100.407 214.63 94.3495C208.761 88.2863 205.754 79.5199 205.754 68.72H203.754C203.754 79.8801 206.866 89.2037 213.193 95.7405C219.525 102.283 228.948 105.9 241.294 105.9V103.9ZM205.754 68.72V4.99999H203.754V68.72H205.754ZM204.754 3.99999H168.034V5.99999H204.754V3.99999ZM167.034 4.99999V71.6H169.034V4.99999H167.034ZM167.034 71.6C167.034 91.0095 173.693 107.183 186.381 118.494C199.055 129.793 217.632 136.14 241.294 136.14V134.14C217.976 134.14 199.923 127.887 187.712 117.001C175.514 106.127 169.034 90.5305 169.034 71.6H167.034ZM241.294 136.14C264.956 136.14 283.488 129.793 296.118 118.493C308.76 107.181 315.374 91.0074 315.374 71.6H313.374C313.374 90.5326 306.937 106.129 294.784 117.002C282.619 127.887 264.612 134.14 241.294 134.14V136.14ZM315.374 71.6V4.99999H313.374V71.6H315.374ZM314.374 3.99999H277.654V5.99999H314.374V3.99999ZM452.996 49.82L452.153 50.3584L452.643 51.124L453.451 50.7103L452.996 49.82ZM484.676 33.62L485.131 34.5103L486.105 34.0124L485.522 33.087L484.676 33.62ZM485.216 102.2L486.062 102.734L486.645 101.81L485.673 101.311L485.216 102.2ZM453.716 86L454.173 85.1107L453.372 84.6985L452.879 85.453L453.716 86ZM415.016 104.26C402.213 104.26 391.665 101.014 384.336 94.9068C377.032 88.8199 372.816 79.8014 372.816 68H370.816C370.816 80.3186 375.24 89.9301 383.056 96.4432C390.847 102.936 401.899 106.26 415.016 106.26V104.26ZM372.816 68C372.816 56.1986 377.032 47.1801 384.336 41.0932C391.665 34.9859 402.213 31.74 415.016 31.74V29.74C401.899 29.74 390.847 33.0641 383.056 39.5568C375.24 46.0699 370.816 55.6814 370.816 68H372.816ZM415.016 31.74C431.658 31.74 444.089 37.7357 452.153 50.3584L453.839 49.2816C445.343 35.9843 432.214 29.74 415.016 29.74V31.74ZM453.451 50.7103L485.131 34.5103L484.221 32.7297L452.541 48.9296L453.451 50.7103ZM485.522 33.087C473.97 14.7495 448.42 -0.140007 415.556 -0.140007V1.85999C447.852 1.85999 472.703 16.4905 483.83 34.153L485.522 33.087ZM415.556 -0.140007C390.92 -0.140007 370.424 6.06352 356.066 17.7237C341.682 29.4046 333.556 46.4851 333.556 68H335.556C335.556 47.0349 343.45 30.5454 357.327 19.2763C371.228 7.98647 391.232 1.85999 415.556 1.85999V-0.140007ZM333.556 68C333.556 89.5141 341.681 106.592 355.881 118.272C370.057 129.933 390.194 136.14 414.116 136.14V134.14C390.518 134.14 370.875 128.017 357.151 116.728C343.451 105.458 335.556 88.9659 335.556 68H333.556ZM414.116 136.14C448.404 136.14 474.141 121.623 486.062 102.734L484.37 101.666C472.891 119.857 447.869 134.14 414.116 134.14V136.14ZM485.673 101.311L454.173 85.1107L453.259 86.8893L484.759 103.089L485.673 101.311ZM452.879 85.453C444.279 98.6156 431.669 104.26 415.016 104.26V106.26C432.203 106.26 445.513 100.384 454.553 86.547L452.879 85.453ZM613.484 49.82L612.642 50.3584L613.131 51.124L613.94 50.7103L613.484 49.82ZM645.164 33.62L645.62 34.5103L646.594 34.0124L646.01 33.087L645.164 33.62ZM645.704 102.2L646.55 102.734L647.133 101.81L646.162 101.311L645.704 102.2ZM614.204 86L614.662 85.1107L613.86 84.6985L613.367 85.453L614.204 86ZM575.504 104.26C562.701 104.26 552.153 101.014 544.825 94.9068C537.52 88.8199 533.304 79.8014 533.304 68H531.304C531.304 80.3186 535.728 89.9301 543.544 96.4432C551.335 102.936 562.388 106.26 575.504 106.26V104.26ZM533.304 68C533.304 56.1986 537.52 47.1801 544.825 41.0932C552.153 34.9859 562.701 31.74 575.504 31.74V29.74C562.388 29.74 551.335 33.0641 543.544 39.5568C535.728 46.0699 531.304 55.6814 531.304 68H533.304ZM575.504 31.74C592.147 31.74 604.577 37.7357 612.642 50.3584L614.327 49.2816C605.832 35.9843 592.702 29.74 575.504 29.74V31.74ZM613.94 50.7103L645.62 34.5103L644.709 32.7297L613.029 48.9296L613.94 50.7103ZM646.01 33.087C634.458 14.7495 608.909 -0.140007 576.044 -0.140007V1.85999C608.34 1.85999 633.191 16.4905 644.318 34.153L646.01 33.087ZM576.044 -0.140007C551.408 -0.140007 530.912 6.06352 516.554 17.7237C502.17 29.4046 494.044 46.4851 494.044 68H496.044C496.044 47.0349 503.938 30.5454 517.815 19.2763C531.717 7.98647 551.72 1.85999 576.044 1.85999V-0.140007ZM494.044 68C494.044 89.5141 502.17 106.592 516.369 118.272C530.545 129.933 550.682 136.14 574.604 136.14V134.14C551.007 134.14 531.363 128.017 517.64 116.728C503.939 105.458 496.044 88.9659 496.044 68H494.044ZM574.604 136.14C608.892 136.14 634.63 121.623 646.55 102.734L644.859 101.666C633.379 119.857 608.357 134.14 574.604 134.14V136.14ZM646.162 101.311L614.662 85.1107L613.747 86.8893L645.247 103.089L646.162 101.311ZM613.367 85.453C604.768 98.6156 592.158 104.26 575.504 104.26V106.26C592.691 106.26 606.001 100.384 615.042 86.547L613.367 85.453ZM700.143 102.92H699.143V103.92H700.143V102.92ZM700.143 80.6V79.6H699.143V80.6H700.143ZM779.523 80.6V81.6H780.523V80.6H779.523ZM779.523 53.78H780.523V52.78H779.523V53.78ZM700.143 53.78H699.143V54.78H700.143V53.78ZM700.143 33.08V32.08H699.143V33.08H700.143ZM796.443 33.08V34.08H797.443V33.08H796.443ZM796.443 4.99999H797.443V3.99999H796.443V4.99999ZM663.963 4.99999V3.99999H662.963V4.99999H663.963ZM663.963 131H662.963V132H663.963V131ZM798.423 131V132H799.423V131H798.423ZM798.423 102.92H799.423V101.92H798.423V102.92ZM701.143 102.92V80.6H699.143V102.92H701.143ZM700.143 81.6H779.523V79.6H700.143V81.6ZM780.523 80.6V53.78H778.523V80.6H780.523ZM779.523 52.78H700.143V54.78H779.523V52.78ZM701.143 53.78V33.08H699.143V53.78H701.143ZM700.143 34.08H796.443V32.08H700.143V34.08ZM797.443 33.08V4.99999H795.443V33.08H797.443ZM796.443 3.99999H663.963V5.99999H796.443V3.99999ZM662.963 4.99999V131H664.963V4.99999H662.963ZM663.963 132H798.423V130H663.963V132ZM799.423 131V102.92H797.423V131H799.423ZM798.423 101.92H700.143V103.92H798.423V101.92ZM888.984 51.08L889.067 50.0834L889.064 50.0832L888.984 51.08ZM884.484 28.4L884.493 27.4H884.484V28.4ZM935.064 42.44L934.488 43.2573L935.252 43.796L935.841 43.0699L935.064 42.44ZM953.604 19.58L954.381 20.2099L955.053 19.3809L954.182 18.764L953.604 19.58ZM886.824 82.22L886.738 83.2163L886.741 83.2165L886.824 82.22ZM829.584 87.8L830.229 87.0356L829.467 86.3931L828.822 87.1527L829.584 87.8ZM810.324 110.48L809.562 109.833L808.895 110.618L809.7 111.261L810.324 110.48ZM889.064 50.0832C877.776 49.1801 868.603 48.4648 862.24 46.9352C859.059 46.1702 856.695 45.226 855.143 44.0346C853.64 42.881 852.904 41.5071 852.904 39.74H850.904C850.904 42.2029 851.991 44.1365 853.925 45.6211C855.81 47.0677 858.497 48.0923 861.773 48.8798C868.326 50.4552 877.693 51.1799 888.904 52.0768L889.064 50.0832ZM852.904 39.74C852.904 37.8747 853.808 36.3078 855.535 34.9593C857.286 33.5914 859.83 32.4992 862.921 31.6601C869.095 29.9844 877.137 29.4 884.484 29.4V27.4C877.072 27.4 868.824 27.9856 862.397 29.7299C859.189 30.6008 856.355 31.781 854.304 33.3831C852.228 35.0047 850.904 37.1053 850.904 39.74H852.904ZM884.475 29.3999C903.969 29.5788 920.668 33.5121 934.488 43.2573L935.641 41.6227C921.381 31.5679 904.24 27.5812 884.493 27.4L884.475 29.3999ZM935.841 43.0699L954.381 20.2099L952.828 18.9501L934.288 41.8101L935.841 43.0699ZM954.182 18.764C936.684 6.36969 911.622 -0.140007 884.484 -0.140007V1.85999C911.346 1.85999 935.964 8.31029 953.026 20.396L954.182 18.764ZM884.484 -0.140007C864.402 -0.140007 846.93 3.56581 834.441 10.7481C821.916 17.9509 814.364 28.6875 814.364 42.62H816.364C816.364 29.5525 823.392 19.409 835.438 12.4819C847.519 5.53417 864.607 1.85999 884.484 1.85999V-0.140007ZM814.364 42.62C814.364 49.8602 816.563 55.8622 820.48 60.8182C824.384 65.7574 829.956 69.6111 836.641 72.6456C849.991 78.7056 868.002 81.5949 886.738 83.2163L886.91 81.2237C868.207 79.6051 850.487 76.7344 837.468 70.8244C830.968 67.8739 825.694 64.1901 822.049 59.5781C818.418 54.9828 816.364 49.4198 816.364 42.62H814.364ZM886.741 83.2165C899.715 84.2977 908.596 85.5071 914.222 87.4193C917.029 88.373 918.926 89.4703 920.118 90.7291C921.279 91.9551 921.824 93.3906 921.824 95.18H923.824C923.824 92.9194 923.11 90.9799 921.57 89.354C920.062 87.761 917.82 86.5295 914.866 85.5257C908.973 83.5229 899.854 82.3023 886.907 81.2234L886.741 83.2165ZM921.824 95.18C921.824 97.0099 921.236 98.5745 920.048 99.9254C918.843 101.297 916.979 102.491 914.373 103.469C909.146 105.429 901.193 106.42 890.424 106.42V108.42C901.256 108.42 909.503 107.431 915.075 105.341C917.869 104.294 920.056 102.946 921.55 101.246C923.063 99.5255 923.824 97.4901 923.824 95.18H921.824ZM890.424 106.42C865.409 106.42 844.953 99.4533 830.229 87.0356L828.94 88.5644C844.096 101.347 865.04 108.42 890.424 108.42V106.42ZM828.822 87.1527L809.562 109.833L811.086 111.127L830.346 88.4473L828.822 87.1527ZM809.7 111.261C829.711 127.27 857.126 136.14 889.704 136.14V134.14C857.483 134.14 830.537 125.37 810.949 109.699L809.7 111.261ZM889.704 136.14C912.673 136.14 930.304 131.712 942.227 123.917C954.192 116.094 960.364 104.898 960.364 91.58H958.364C958.364 104.182 952.567 114.766 941.132 122.243C929.654 129.748 912.456 134.14 889.704 134.14V136.14ZM960.364 91.58C960.364 84.1575 958.494 78.0135 954.987 72.9384C951.486 67.8725 946.4 63.9369 940.07 60.8464C927.445 54.6821 909.684 51.794 889.067 50.0834L888.902 52.0766C909.505 53.786 926.933 56.6579 939.193 62.6436C945.306 65.6281 950.086 69.365 953.341 74.0754C956.59 78.7765 958.364 84.5125 958.364 91.58H960.364ZM1048.07 51.08L1048.15 50.0834L1048.15 50.0832L1048.07 51.08ZM1043.57 28.4L1043.58 27.4H1043.57V28.4ZM1094.15 42.44L1093.57 43.2573L1094.33 43.796L1094.92 43.0699L1094.15 42.44ZM1112.69 19.58L1113.46 20.2099L1114.14 19.3809L1113.26 18.764L1112.69 19.58ZM1045.91 82.22L1045.82 83.2163L1045.82 83.2165L1045.91 82.22ZM988.666 87.8L989.311 87.0356L988.549 86.3931L987.904 87.1527L988.666 87.8ZM969.406 110.48L968.644 109.833L967.977 110.618L968.782 111.261L969.406 110.48ZM1048.15 50.0832C1036.86 49.1801 1027.68 48.4648 1021.32 46.9352C1018.14 46.1702 1015.78 45.226 1014.22 44.0346C1012.72 42.881 1011.99 41.5071 1011.99 39.74H1009.99C1009.99 42.2029 1011.07 44.1365 1013.01 45.6211C1014.89 47.0677 1017.58 48.0923 1020.85 48.8798C1027.41 50.4552 1036.77 51.1799 1047.99 52.0768L1048.15 50.0832ZM1011.99 39.74C1011.99 37.8747 1012.89 36.3078 1014.62 34.9593C1016.37 33.5914 1018.91 32.4992 1022 31.6601C1028.18 29.9844 1036.22 29.4 1043.57 29.4V27.4C1036.15 27.4 1027.91 27.9856 1021.48 29.7299C1018.27 30.6008 1015.44 31.781 1013.39 33.3831C1011.31 35.0047 1009.99 37.1053 1009.99 39.74H1011.99ZM1043.56 29.3999C1063.05 29.5788 1079.75 33.5121 1093.57 43.2573L1094.72 41.6227C1080.46 31.5679 1063.32 27.5812 1043.58 27.4L1043.56 29.3999ZM1094.92 43.0699L1113.46 20.2099L1111.91 18.9501L1093.37 41.8101L1094.92 43.0699ZM1113.26 18.764C1095.77 6.36969 1070.7 -0.140007 1043.57 -0.140007V1.85999C1070.43 1.85999 1095.05 8.31029 1112.11 20.396L1113.26 18.764ZM1043.57 -0.140007C1023.48 -0.140007 1006.01 3.56581 993.523 10.7481C980.998 17.9509 973.446 28.6875 973.446 42.62H975.446C975.446 29.5525 982.474 19.409 994.52 12.4819C1006.6 5.53417 1023.69 1.85999 1043.57 1.85999V-0.140007ZM973.446 42.62C973.446 49.8602 975.645 55.8622 979.562 60.8182C983.466 65.7574 989.038 69.6111 995.723 72.6456C1009.07 78.7056 1027.08 81.5949 1045.82 83.2163L1045.99 81.2237C1027.29 79.6051 1009.57 76.7344 996.55 70.8244C990.05 67.8739 984.776 64.1901 981.131 59.5781C977.5 54.9828 975.446 49.4198 975.446 42.62H973.446ZM1045.82 83.2165C1058.8 84.2977 1067.68 85.5071 1073.3 87.4193C1076.11 88.373 1078.01 89.4703 1079.2 90.7291C1080.36 91.9551 1080.91 93.3906 1080.91 95.18H1082.91C1082.91 92.9194 1082.19 90.9799 1080.65 89.354C1079.14 87.761 1076.9 86.5295 1073.95 85.5257C1068.05 83.5229 1058.94 82.3023 1045.99 81.2234L1045.82 83.2165ZM1080.91 95.18C1080.91 97.0099 1080.32 98.5745 1079.13 99.9254C1077.92 101.297 1076.06 102.491 1073.46 103.469C1068.23 105.429 1060.27 106.42 1049.51 106.42V108.42C1060.34 108.42 1068.58 107.431 1074.16 105.341C1076.95 104.294 1079.14 102.946 1080.63 101.246C1082.14 99.5255 1082.91 97.4901 1082.91 95.18H1080.91ZM1049.51 106.42C1024.49 106.42 1004.03 99.4533 989.311 87.0356L988.022 88.5644C1003.18 101.347 1024.12 108.42 1049.51 108.42V106.42ZM987.904 87.1527L968.644 109.833L970.169 111.127L989.428 88.4473L987.904 87.1527ZM968.782 111.261C988.794 127.27 1016.21 136.14 1048.79 136.14V134.14C1016.56 134.14 989.619 125.37 970.031 109.699L968.782 111.261ZM1048.79 136.14C1071.75 136.14 1089.39 131.712 1101.31 123.917C1113.27 116.094 1119.45 104.898 1119.45 91.58H1117.45C1117.45 104.182 1111.65 114.766 1100.21 122.243C1088.74 129.748 1071.54 134.14 1048.79 134.14V136.14ZM1119.45 91.58C1119.45 84.1575 1117.58 78.0135 1114.07 72.9384C1110.57 67.8725 1105.48 63.9369 1099.15 60.8464C1086.53 54.6821 1068.77 51.794 1048.15 50.0834L1047.98 52.0766C1068.59 53.786 1086.02 56.6579 1098.28 62.6436C1104.39 65.6281 1109.17 69.365 1112.42 74.0754C1115.67 78.7765 1117.45 84.5125 1117.45 91.58H1119.45Z" fill="black" fill-opacity="0.1" />
</svg>
