<svg width="293" height="1370" viewBox="0 0 293 1370" fill="none" xmlns="http://www.w3.org/2000/svg">
<path d="M79.1049 0.863281L80.0669 1.13634L80.0654 1.14165L80.0418 1.22544C80.025 1.28518 80 1.3748 79.9671 1.49379C79.9011 1.73178 79.8035 2.0873 79.6769 2.55639C79.4238 3.49458 79.0548 4.88706 78.5923 6.70225L77.6233 6.45534C78.087 4.63544 78.4571 3.23841 78.7114 2.29587C78.8386 1.8246 78.9368 1.46694 79.0033 1.22686C79.0366 1.10681 79.0619 1.01616 79.079 0.955391L79.0983 0.886714L79.1044 0.864848L79.1049 0.863281Z" fill="#808080"/>
<path d="M72.3584 29.3391C73.2459 25.0972 74.0913 21.2678 74.8648 17.8934L75.8395 18.1168C75.0674 21.4853 74.2233 25.3085 73.3372 29.5439L72.3584 29.3391Z" fill="#808080"/>
<path d="M67.9461 52.4125C68.6468 48.3824 69.3503 44.5417 70.0445 40.9077L71.0268 41.0953C70.3336 44.7241 69.6311 48.5593 68.9313 52.5838L67.9461 52.4125Z" fill="#808080"/>
<path d="M64.2984 75.6415C64.8595 71.6422 65.4386 67.7603 66.028 64.0069L67.0159 64.1621C66.4273 67.9103 65.849 71.7867 65.2887 75.7805L64.2984 75.6415Z" fill="#808080"/>
<path d="M61.4185 98.9672C61.8415 94.9951 62.2908 91.1023 62.7608 87.297L63.7533 87.4196C63.284 91.2195 62.8353 95.1067 62.4129 99.0731L61.4185 98.9672Z" fill="#808080"/>
<path d="M59.3359 122.349C59.6183 118.392 59.9329 114.49 60.2752 110.651L61.2712 110.74C60.9295 114.573 60.6153 118.469 60.3334 122.42L59.3359 122.349Z" fill="#808080"/>
<path d="M58.0963 145.785C58.2306 141.836 58.4022 137.926 58.6071 134.06L59.6057 134.113C59.4011 137.973 59.2298 141.876 59.0957 145.819L58.0963 145.785Z" fill="#808080"/>
<path d="M57.7653 169.263C57.7401 165.321 57.757 161.405 57.8123 157.52L58.8122 157.535C58.757 161.412 58.7402 165.321 58.7653 169.256L57.7653 169.263Z" fill="#808080"/>
<path d="M58.4271 192.746C58.2278 188.816 58.0753 184.901 57.9662 181.007L58.9658 180.979C59.0747 184.866 59.2269 188.773 59.4258 192.695L58.4271 192.746Z" fill="#808080"/>
<path d="M60.1819 216.177C59.7909 212.268 59.4517 208.365 59.161 204.472L60.1582 204.398C60.4483 208.282 60.7868 212.177 61.1769 216.078L60.1819 216.177Z" fill="#808080"/>
<path d="M63.1435 239.471C62.541 235.596 61.9954 231.718 61.5035 227.842L62.4956 227.716C62.9863 231.583 63.5306 235.452 64.1316 239.317L63.1435 239.471Z" fill="#808080"/>
<path d="M67.448 262.565C66.6102 258.737 65.8349 254.897 65.119 251.05L66.1021 250.867C66.8161 254.704 67.5893 258.534 68.4249 262.351L67.448 262.565Z" fill="#808080"/>
<path d="M73.2417 285.333C72.1434 281.574 71.1136 277.795 70.1491 273.999L71.1183 273.753C72.0799 277.537 73.1067 281.305 74.2015 285.053L73.2417 285.333Z" fill="#808080"/>
<path d="M80.6805 307.621C79.2952 303.957 77.9846 300.265 76.7456 296.548L77.6942 296.232C78.9292 299.937 80.2354 303.616 81.6159 307.267L80.6805 307.621Z" fill="#808080"/>
<path d="M87.4312 323.902C86.6228 322.118 85.8341 320.325 85.0649 318.523L85.9846 318.131C86.751 319.925 87.5367 321.712 88.3421 323.489L87.4312 323.902Z" fill="#808080"/>
<path d="M89.941 329.725C89.1072 327.898 88.2706 326.059 87.4312 324.206L88.3421 323.793C89.1811 325.645 90.0173 327.484 90.8508 329.31L89.941 329.725Z" fill="#808080"/>
<path d="M100.058 351.534C98.3712 347.961 96.6737 344.332 94.965 340.647L95.8722 340.226C97.58 343.909 99.2765 347.536 100.962 351.107L100.058 351.534Z" fill="#808080"/>
<path d="M253.583 360.666C257.838 361.104 261.742 362.235 265.295 363.96L264.858 364.86C261.411 363.186 257.621 362.086 253.481 361.661L253.583 360.666Z" fill="#808080"/>
<path d="M235.509 362.607C237.544 362.015 239.524 361.55 241.45 361.206L241.626 362.191C239.737 362.528 237.791 362.984 235.789 363.567C233.935 364.107 232.109 364.75 230.308 365.491L229.927 364.567C231.76 363.812 233.62 363.157 235.509 362.607Z" fill="#808080"/>
<path d="M110.499 373.192C108.754 369.653 106.999 366.05 105.232 362.384L106.133 361.95C107.898 365.614 109.652 369.214 111.396 372.75L110.499 373.192Z" fill="#808080"/>
<path d="M210.12 377.28C213.158 374.593 216.286 372.184 219.506 370.088L220.051 370.926C216.877 372.993 213.788 375.371 210.782 378.029L210.12 377.28Z" fill="#808080"/>
<path d="M275.154 371.066C277.939 373.859 280.383 377.122 282.491 380.754L281.626 381.256C279.556 377.689 277.163 374.497 274.446 371.772L275.154 371.066Z" fill="#808080"/>
<path d="M121.372 394.658C119.55 391.165 117.717 387.596 115.873 383.953L116.766 383.502C118.608 387.141 120.439 390.706 122.259 394.196L121.372 394.658Z" fill="#808080"/>
<path d="M194.277 394.673C196.715 391.454 199.217 388.411 201.786 385.567L202.528 386.238C199.98 389.058 197.496 392.079 195.075 395.276L194.277 394.673Z" fill="#808080"/>
<path d="M287.518 391.8C288.82 395.506 289.87 399.426 290.672 403.495L289.691 403.688C288.897 399.661 287.859 395.788 286.575 392.132L287.518 391.8Z" fill="#808080"/>
<path d="M181.343 414.29C183.35 410.839 185.407 407.499 187.514 404.287L188.35 404.835C186.253 408.031 184.206 411.356 182.208 414.792L181.343 414.29Z" fill="#808080"/>
<path d="M132.82 415.846C130.895 412.418 128.96 408.9 127.014 405.295L127.894 404.82C129.838 408.421 131.77 411.933 133.692 415.356L132.82 415.846Z" fill="#808080"/>
<path d="M292.293 415.486C292.601 419.458 292.7 423.508 292.592 427.582L291.592 427.556C291.699 423.514 291.601 419.5 291.296 415.563L292.293 415.486Z" fill="#808080"/>
<path d="M170.388 435.113C172.104 431.532 173.861 428.02 175.659 424.591L176.545 425.056C174.752 428.473 173.001 431.974 171.29 435.545L170.388 435.113Z" fill="#808080"/>
<path d="M145.03 436.584C142.969 433.26 140.898 429.827 138.816 426.286L139.678 425.779C141.756 429.314 143.823 432.74 145.88 436.057L145.03 436.584Z" fill="#808080"/>
<path d="M291.673 439.65C291.169 443.661 290.466 447.649 289.568 451.566L288.593 451.343C289.484 447.459 290.181 443.503 290.681 439.525L291.673 439.65Z" fill="#808080"/>
<path d="M160.859 456.585C162.363 452.943 163.901 449.339 165.474 445.786L166.388 446.191C164.819 449.736 163.284 453.332 161.784 456.967L160.859 456.585Z" fill="#808080"/>
<path d="M158.325 456.66C156.057 453.477 153.781 450.154 151.496 446.694L152.33 446.143C154.61 449.594 156.879 452.907 159.14 456.079L158.325 456.66Z" fill="#808080"/>
<path d="M286.239 463.196C284.895 467.069 283.341 470.813 281.578 474.375L280.682 473.931C282.425 470.41 283.963 466.704 285.295 462.868L286.239 463.196Z" fill="#808080"/>
<path d="M173.193 475.609C170.639 472.695 168.081 469.594 165.516 466.31L166.304 465.694C168.859 468.965 171.405 472.051 173.945 474.951L173.193 475.609Z" fill="#808080"/>
<path d="M152.352 478.486C153.703 474.804 155.084 471.136 156.497 467.493L157.429 467.854C156.019 471.492 154.64 475.154 153.291 478.83L152.352 478.486Z" fill="#808080"/>
<path d="M190.42 492.449C187.42 490.02 184.423 487.325 181.425 484.369L182.127 483.657C185.104 486.592 188.077 489.265 191.05 491.672L190.42 492.449Z" fill="#808080"/>
<path d="M275.419 484.814C273.043 488.198 270.424 491.303 267.563 494.056L266.87 493.336C269.679 490.631 272.257 487.577 274.6 484.239L275.419 484.814Z" fill="#808080"/>
<path d="M144.593 500.658C145.832 496.961 147.098 493.253 148.393 489.546L149.337 489.876C148.043 493.578 146.779 497.282 145.542 500.976L144.593 500.658Z" fill="#808080"/>
<path d="M211.064 504.871C207.447 503.452 203.85 501.642 200.266 499.449L200.788 498.596C204.327 500.761 207.871 502.544 211.429 503.94L211.064 504.871Z" fill="#808080"/>
<path d="M257.9 501.406C256.145 502.426 254.325 503.329 252.441 504.107C250.529 504.895 248.628 505.581 246.736 506.165L246.441 505.209C248.303 504.635 250.175 503.96 252.06 503.182C253.901 502.423 255.681 501.539 257.398 500.541L257.9 501.406Z" fill="#808080"/>
<path d="M234.848 508.502C230.778 508.84 226.749 508.693 222.749 508.069L222.903 507.081C226.824 507.693 230.775 507.837 234.765 507.506L234.848 508.502Z" fill="#808080"/>
<path d="M137.371 522.995C138.53 519.299 139.715 515.566 140.928 511.809L141.88 512.116C140.667 515.871 139.483 519.601 138.325 523.294L137.371 522.995Z" fill="#808080"/>
<path d="M130.471 545.465C131.584 541.785 132.724 538.033 133.892 534.224L134.848 534.517C133.681 538.324 132.541 542.075 131.428 545.755L130.471 545.465Z" fill="#808080"/>
<path d="M66.8905 536.714C64.6682 536.496 62.4999 536.382 60.386 536.367L60.3931 535.367C62.55 535.383 64.7613 535.499 67.0264 535.723L67.0638 535.726L67.1004 535.736C69.1308 536.252 71.1334 536.808 73.1085 537.405L72.8193 538.362C70.8703 537.774 68.8941 537.224 66.8905 536.714Z" fill="#808080"/>
<path d="M47.4191 537.595C42.9876 538.499 38.863 539.877 35.0512 541.646L34.6301 540.739C38.5124 538.937 42.7113 537.534 47.2192 536.615L47.4191 537.595Z" fill="#808080"/>
<path d="M95.4123 547.491C91.8137 545.637 88.1049 543.935 84.2826 542.393L84.6566 541.466C88.5076 543.019 92.2445 544.734 95.8703 546.602L95.4123 547.491Z" fill="#808080"/>
<path d="M23.9947 548.495C20.5538 551.243 17.4941 554.357 14.8248 557.733L14.0404 557.112C16.7546 553.68 19.8676 550.511 23.3708 547.714L23.9947 548.495Z" fill="#808080"/>
<path d="M115.978 560.58C112.758 558.102 109.431 555.763 105.994 553.573L106.531 552.729C109.994 554.936 113.345 557.291 116.588 559.788L115.978 560.58Z" fill="#808080"/>
<path d="M123.687 567.909C124.79 564.29 125.922 560.545 127.083 556.696L128.04 556.985C126.879 560.834 125.747 564.58 124.643 568.201L123.687 567.909Z" fill="#808080"/>
<path d="M134.007 577.031C131.217 574.044 128.328 571.179 125.337 568.444L126.011 567.706C129.023 570.46 131.93 573.343 134.738 576.348L134.007 577.031Z" fill="#808080"/>
<path d="M7.88632 568.761C5.94573 572.716 4.44 576.834 3.37928 580.995L2.41028 580.748C3.48784 576.521 5.01731 572.338 6.98858 568.321L7.88632 568.761Z" fill="#808080"/>
<path d="M116.603 590.28C117.772 586.8 118.973 583.081 120.208 579.157L121.162 579.457C119.925 583.385 118.723 587.11 117.551 590.599L116.603 590.28Z" fill="#808080"/>
<path d="M149.374 596.04C147.01 592.675 144.556 589.411 142.01 586.255L142.788 585.627C145.348 588.801 147.815 592.083 150.193 595.465L149.374 596.04Z" fill="#808080"/>
<path d="M1.52797 593.889C1.38645 598.357 1.78151 602.723 2.7236 606.832L1.74889 607.055C0.786096 602.856 0.384463 598.404 0.528469 593.857L1.52797 593.889Z" fill="#808080"/>
<path d="M110.515 606.718C111.227 605.045 111.95 603.238 112.686 601.307L113.621 601.663C112.881 603.604 112.153 605.423 111.435 607.109C110.601 609.07 109.719 610.96 108.792 612.78L107.901 612.326C108.817 610.527 109.69 608.658 110.515 606.718Z" fill="#808080"/>
<path d="M162.221 616.819C160.258 613.216 158.218 609.692 156.098 606.254L156.949 605.729C159.079 609.183 161.128 612.722 163.099 616.341L162.221 616.819Z" fill="#808080"/>
<path d="M7.56082 618.825C8.7079 620.669 10.0196 622.389 11.4978 623.961C12.938 625.493 14.402 626.945 15.8867 628.319L15.2075 629.053C13.7054 627.663 12.225 626.194 10.7693 624.646C9.24386 623.024 7.89212 621.251 6.71169 619.353L7.56082 618.825Z" fill="#808080"/>
<path d="M93.3785 632.091C96.2585 629.386 98.9748 626.303 101.491 622.842L102.299 623.43C99.7484 626.939 96.9909 630.07 94.0631 632.82L93.3785 632.091Z" fill="#808080"/>
<path d="M172.89 638.876C171.267 635.095 169.575 631.376 167.812 627.724L168.713 627.29C170.482 630.955 172.18 634.688 173.809 638.482L172.89 638.876Z" fill="#808080"/>
<path d="M25.5384 635.976C29.0771 638.346 32.6874 640.315 36.3315 641.884L35.9361 642.802C32.2332 641.208 28.5692 639.21 24.9818 636.807L25.5384 635.976Z" fill="#808080"/>
<path d="M72.3657 644.438C76.2297 643.273 79.9857 641.624 83.5821 639.492L84.092 640.352C80.4272 642.524 76.597 644.207 72.6544 645.396L72.3657 644.438Z" fill="#808080"/>
<path d="M48.0536 645.544C52.1534 646.349 56.2468 646.662 60.2821 646.487L60.3255 647.486C56.209 647.664 52.0364 647.345 47.8608 646.525L48.0536 645.544Z" fill="#808080"/>
<path d="M181.655 661.729C180.325 657.837 178.935 653.991 177.482 650.197L178.416 649.84C179.873 653.645 181.268 657.503 182.602 661.405L181.655 661.729Z" fill="#808080"/>
<path d="M188.818 685.141C187.74 681.189 186.61 677.269 185.424 673.386L186.38 673.094C187.569 676.987 188.703 680.917 189.783 684.878L188.818 685.141Z" fill="#808080"/>
<path d="M194.62 708.955C193.755 704.956 192.842 700.976 191.88 697.022L192.852 696.786C193.816 700.749 194.73 704.737 195.597 708.744L194.62 708.955Z" fill="#808080"/>
<path d="M199.247 733.028C198.564 728.996 197.839 724.973 197.069 720.963L198.052 720.775C198.822 724.792 199.549 728.822 200.233 732.861L199.247 733.028Z" fill="#808080"/>
<path d="M202.853 757.275C202.33 753.228 201.77 749.178 201.169 745.131L202.158 744.984C202.76 749.038 203.321 753.094 203.845 757.147L202.853 757.275Z" fill="#808080"/>
<path d="M205.564 781.648C205.182 777.589 204.766 773.516 204.312 769.435L205.306 769.325C205.76 773.411 206.177 777.49 206.56 781.554L205.564 781.648Z" fill="#808080"/>
<path d="M207.477 806.077C207.222 802.025 206.935 797.948 206.614 793.849L207.611 793.772C207.932 797.875 208.219 801.958 208.475 806.014L207.477 806.077Z" fill="#808080"/>
<path d="M208.673 830.561C208.532 826.528 208.362 822.453 208.162 818.344L209.161 818.295C209.361 822.409 209.531 826.488 209.673 830.526L208.673 830.561Z" fill="#808080"/>
<path d="M209.214 855.122C209.176 851.08 209.113 846.978 209.022 842.823L210.022 842.801C210.113 846.96 210.176 851.067 210.214 855.112L209.214 855.122Z" fill="#808080"/>
<path d="M209.144 879.547C209.203 875.568 209.24 871.504 209.252 867.362L210.252 867.365C210.24 871.51 210.203 875.579 210.144 879.562L209.144 879.547Z" fill="#808080"/>
<path d="M208.492 904.177C208.643 900.206 208.777 896.103 208.889 891.882L209.889 891.908C209.777 896.134 209.643 900.24 209.491 904.215L208.492 904.177Z" fill="#808080"/>
<path d="M207.272 928.692C207.51 924.819 207.74 920.729 207.953 916.441L208.952 916.491C208.739 920.783 208.509 924.877 208.27 928.753L207.272 928.692Z" fill="#808080"/>
<path d="M205.466 953.082C205.779 949.496 206.112 945.432 206.444 940.938L207.441 941.011C207.108 945.51 206.776 949.579 206.462 953.169L205.466 953.082Z" fill="#808080"/>
<path d="M204.011 967.991C204.093 967.241 204.188 966.367 204.292 965.373L205.286 965.477C205.086 967.392 204.922 968.863 204.808 969.856C204.751 970.353 204.706 970.73 204.676 970.983C204.661 971.109 204.649 971.205 204.642 971.269L204.631 971.359L204.63 971.364L204.63 971.365L204.397 971.337L204.208 973.983L203.21 973.912L203.635 967.964L204.011 967.991Z" fill="#808080"/>
<path d="M202.5 997.69C202.786 993.766 203.072 989.814 203.358 985.837L202.361 985.766C202.075 989.742 201.789 993.693 201.503 997.617L202.5 997.69Z" fill="#808080"/>
<path d="M200.736 1021.39C201.035 1017.47 201.333 1013.52 201.628 1009.54L200.631 1009.47C200.335 1013.45 200.038 1017.4 199.739 1021.31L200.736 1021.39Z" fill="#808080"/>
<path d="M198.859 1045.09C199.181 1041.17 199.5 1037.22 199.815 1033.24L198.818 1033.16C198.503 1037.14 198.185 1041.09 197.862 1045L198.859 1045.09Z" fill="#808080"/>
<path d="M196.799 1068.77C197.158 1064.87 197.51 1060.92 197.857 1056.93L196.861 1056.84C196.514 1060.83 196.162 1064.78 195.804 1068.68L196.799 1068.77Z" fill="#808080"/>
<path d="M194.469 1092.44C194.881 1088.55 195.282 1084.61 195.675 1080.61L194.679 1080.51C194.287 1084.51 193.886 1088.45 193.475 1092.34L194.469 1092.44Z" fill="#808080"/>
<path d="M191.748 1116.07C192.234 1112.2 192.707 1108.27 193.166 1104.27L192.173 1104.15C191.714 1108.15 191.242 1112.08 190.755 1115.95L191.748 1116.07Z" fill="#808080"/>
<path d="M188.468 1139.6C189.062 1135.77 189.635 1131.85 190.191 1127.86L189.2 1127.72C188.645 1131.71 188.073 1135.62 187.48 1139.45L188.468 1139.6Z" fill="#808080"/>
<path d="M184.349 1163.06C185.105 1159.27 185.833 1155.37 186.533 1151.36L185.548 1151.19C184.849 1155.19 184.123 1159.08 183.368 1162.87L184.349 1163.06Z" fill="#808080"/>
<path d="M140.636 1158.22C136.509 1158.44 132.376 1159.24 128.316 1160.6L128.634 1161.55C132.612 1160.22 136.656 1159.44 140.69 1159.22L140.636 1158.22Z" fill="#808080"/>
<path d="M164.794 1164.05C161.046 1161.89 157.136 1160.33 153.14 1159.36L152.905 1160.33C156.807 1161.28 160.628 1162.8 164.295 1164.91L164.794 1164.05Z" fill="#808080"/>
<path d="M116.976 1166C115.227 1167.09 113.508 1168.29 111.826 1169.61C110.307 1170.79 108.897 1172.06 107.594 1173.4L108.311 1174.09C109.582 1172.79 110.959 1171.55 112.442 1170.39C114.097 1169.1 115.787 1167.92 117.506 1166.84L116.976 1166Z" fill="#808080"/>
<path d="M182.771 1181.31C182.162 1180.41 181.54 1179.53 180.906 1178.69C181.229 1177.36 181.548 1176.02 181.862 1174.66L180.887 1174.43C180.636 1175.52 180.382 1176.6 180.125 1177.66C178.421 1175.47 176.634 1173.47 174.777 1171.66L174.079 1172.38C176.079 1174.33 177.999 1176.51 179.822 1178.91C179.229 1181.33 178.62 1183.68 177.993 1185.98L178.958 1186.25C179.517 1184.19 180.063 1182.09 180.595 1179.95C181.05 1180.58 181.499 1181.22 181.942 1181.87L182.771 1181.31Z" fill="#808080"/>
<path d="M100.874 1182.5C99.0383 1185.86 97.6814 1189.41 96.7904 1193.06L97.7617 1193.29C98.6329 1189.73 99.9588 1186.26 101.751 1182.98L100.874 1182.5Z" fill="#808080"/>
<path d="M193.334 1203.91C192.026 1199.73 190.535 1195.85 188.885 1192.27L187.977 1192.68C189.608 1196.23 191.083 1200.07 192.38 1204.2L193.334 1203.91Z" fill="#808080"/>
<path d="M95.5032 1204.3C95.5466 1208.11 96.0714 1211.89 97.0649 1215.51L98.0293 1215.25C97.0588 1211.71 96.5456 1208.02 96.5031 1204.29L95.5032 1204.3Z" fill="#808080"/>
<path d="M171.457 1208.82C172.893 1205.32 174.258 1201.58 175.556 1197.63L174.606 1197.32C173.314 1201.25 171.958 1204.96 170.532 1208.44L171.457 1208.82Z" fill="#808080"/>
<path d="M101.533 1225.91C103.505 1229.14 105.951 1232.07 108.859 1234.56L109.509 1233.8C106.685 1231.38 104.306 1228.53 102.386 1225.39L101.533 1225.91Z" fill="#808080"/>
<path d="M159.976 1229.7C162.251 1226.74 164.387 1223.37 166.398 1219.63L165.517 1219.16C163.527 1222.86 161.419 1226.18 159.183 1229.1L159.976 1229.7Z" fill="#808080"/>
<path d="M198.379 1228.35C197.877 1224.04 197.226 1219.95 196.437 1216.06L195.457 1216.26C196.24 1220.12 196.887 1224.19 197.386 1228.47L198.379 1228.35Z" fill="#808080"/>
<path d="M118.558 1240.42C121.893 1241.76 125.57 1242.65 129.579 1243.01L129.668 1242.01C125.753 1241.66 122.171 1240.79 118.931 1239.49L118.558 1240.42Z" fill="#808080"/>
<path d="M146.569 1241.56C148.308 1240.64 149.985 1239.55 151.603 1238.29L150.99 1237.5C149.432 1238.71 147.822 1239.76 146.157 1240.65C144.3 1241.09 142.492 1241.43 140.734 1241.68L140.874 1242.67C142.683 1242.41 144.542 1242.06 146.45 1241.61L146.512 1241.59L146.569 1241.56Z" fill="#808080"/>
<path d="M199.563 1253.32C199.624 1248.99 199.559 1244.82 199.375 1240.81L198.376 1240.85C198.559 1244.85 198.623 1249 198.563 1253.3L199.563 1253.32Z" fill="#808080"/>
<path d="M197.958 1278.24C198.43 1273.98 198.794 1269.83 199.058 1265.81L198.06 1265.75C197.797 1269.75 197.434 1273.88 196.964 1278.13L197.958 1278.24Z" fill="#808080"/>
<path d="M194.275 1302.87C195.054 1298.68 195.743 1294.59 196.343 1290.59L195.354 1290.45C194.756 1294.43 194.069 1298.51 193.291 1302.68L194.275 1302.87Z" fill="#808080"/>
<path d="M188.963 1327.2C189.99 1323.07 190.935 1319.03 191.802 1315.06L190.825 1314.85C189.96 1318.8 189.017 1322.84 187.993 1326.96L188.963 1327.2Z" fill="#808080"/>
<path d="M182.31 1351.32C183.541 1347.24 184.699 1343.23 185.787 1339.3L184.823 1339.03C183.738 1342.96 182.581 1346.96 181.353 1351.03L182.31 1351.32Z" fill="#808080"/>
<path d="M176.608 1369.16C177.29 1367.14 177.955 1365.13 178.603 1363.14L177.652 1362.83C177.005 1364.81 176.341 1366.82 175.66 1368.84L176.608 1369.16Z" fill="#808080"/>
</svg>
