<?xml version="1.0" encoding="utf-8"?>
<!-- Generator: Adobe Illustrator 27.4.0, SVG Export Plug-In . SVG Version: 6.00 Build 0)  -->
<svg version="1.1" id="Layer_1" xmlns="http://www.w3.org/2000/svg" xmlns:xlink="http://www.w3.org/1999/xlink" x="0px" y="0px"
	 viewBox="0 0 293 1370" style="enable-background:new 0 0 293 1370;" xml:space="preserve">
<style type="text/css">
	.st0{fill:none;stroke:#FFFFFF;stroke-miterlimit:10;stroke-opacity:0.5;stroke-dasharray:12,12;}
</style>
<path class="st0" d="M79.7,2.6c0,0-38.5,108.1-13.7,248.1c11.5,64.7,39.9,140.1,92.4,206c124.2,156.1,175.2-91.8,95.2-95
	c-50.9-2-79.7,60.3-96,105.1s-30.1,90.7-36.3,112.7c-13.3,46.8-50.6,95.3-103.5,48.4c-37.5-33.2-5.9-92.2,42.7-91.5
	c39.5,0.6,86.1,43.9,102.7,80c42.7,92.6,54.7,196.4,42.4,342.1s-15.3,270-64.7,283.2c-58.9,15.7-64.2-103.3,19-80.1
	c75.3,20.9,15.9,207.3,15.9,207.3"/>
</svg>
