<svg width="767" height="136" viewBox="0 0 767 136" fill="none" xmlns="http://www.w3.org/2000/svg">
<path d="M123.26 58.1H124.26V57.1H123.26V58.1ZM47.48 58.1V57.1H46.48V58.1H47.48ZM47.48 83.84H46.48V84.84H47.48V83.84ZM89.24 83.84H90.24V82.84H89.24V83.84ZM89.24 95.18L89.9164 95.9165L90.24 95.6194V95.18H89.24ZM91.22 43.88L90.551 44.6233L91.1575 45.1691L91.8139 44.6845L91.22 43.88ZM118.04 24.08L118.634 24.8845L119.603 24.1692L118.722 23.3483L118.04 24.08ZM123.26 107.24L124.038 107.868L124.26 107.593V107.24H123.26ZM123.26 57.1H47.48V59.1H123.26V57.1ZM46.48 58.1V83.84H48.48V58.1H46.48ZM47.48 84.84H89.24V82.84H47.48V84.84ZM88.24 83.84V95.18H90.24V83.84H88.24ZM88.5636 94.4435C80.0101 102.299 68.0691 105.34 52.7 105.34V107.34C68.2909 107.34 80.8299 104.261 89.9164 95.9165L88.5636 94.4435ZM52.7 105.34C37.528 105.34 25.8116 101.991 17.9076 95.7024C10.0392 89.4425 5.82 80.1675 5.82 68H3.82C3.82 80.6724 8.24083 90.5675 16.6624 97.2675C25.0484 103.939 37.272 107.34 52.7 107.34V105.34ZM5.82 68C5.82 55.9143 9.90997 46.6849 17.6426 40.451C25.4098 34.1893 36.9877 30.84 52.16 30.84V28.84C36.7323 28.84 24.6402 32.2407 16.3874 38.894C8.10004 45.5751 3.82 55.4257 3.82 68H5.82ZM52.16 30.84C68.8579 30.84 79.9524 35.0845 90.551 44.6233L91.889 43.1367C80.8876 33.2355 69.3021 28.84 52.16 28.84V30.84ZM91.8139 44.6845L118.634 24.8845L117.446 23.2755L90.6261 43.0755L91.8139 44.6845ZM118.722 23.3483C105.387 10.927 82.6397 -0.140007 51.26 -0.140007V1.85999C82.1603 1.85999 104.413 12.753 117.358 24.8117L118.722 23.3483ZM51.26 -0.140007C25.2868 -0.140007 4.1161 6.01245 -10.5832 17.6484C-25.3129 29.3085 -33.44 46.3945 -33.44 68H-31.44C-31.44 46.9455 -23.5471 30.4615 -9.34183 19.2166C4.89391 7.94753 25.5732 1.85999 51.26 1.85999V-0.140007ZM-33.44 68C-33.44 89.6055 -25.3129 106.691 -10.5832 118.352C4.1161 129.988 25.2868 136.14 51.26 136.14V134.14C25.5732 134.14 4.89391 128.052 -9.34183 116.783C-23.5471 105.539 -31.44 89.0545 -31.44 68H-33.44ZM51.26 136.14C85.1238 136.14 110.294 124.91 124.038 107.868L122.482 106.612C109.226 123.05 84.7162 134.14 51.26 134.14V136.14ZM124.26 107.24V58.1H122.26V107.24H124.26ZM221.554 136.14C246.635 136.14 267.444 129.984 282.006 118.349C296.595 106.691 304.814 89.6083 304.814 68H302.814C302.814 89.0517 294.833 105.539 280.757 116.786C266.654 128.056 246.334 134.14 221.554 134.14V136.14ZM304.814 68C304.814 46.3917 296.595 29.309 282.006 17.6513C267.444 6.01584 246.635 -0.140007 221.554 -0.140007V1.85999C246.334 1.85999 266.654 7.94415 280.757 19.2137C294.833 30.461 302.814 46.9483 302.814 68H304.814ZM221.554 -0.140007C196.474 -0.140007 175.708 6.01586 161.191 17.6522C146.647 29.3108 138.474 46.3936 138.474 68H140.474C140.474 46.9464 148.412 30.4592 162.442 19.2128C176.5 7.94412 196.775 1.85999 221.554 1.85999V-0.140007ZM138.474 68C138.474 89.6064 146.647 106.689 161.191 118.348C175.708 129.984 196.474 136.14 221.554 136.14V134.14C196.775 134.14 176.5 128.056 162.442 116.787C148.412 105.541 140.474 89.0536 140.474 68H138.474ZM221.554 104.26C207.843 104.26 196.889 100.92 189.383 94.7666C181.903 88.6351 177.734 79.6196 177.734 68H175.734C175.734 80.1404 180.115 89.7549 188.115 96.3134C196.089 102.85 207.545 106.26 221.554 106.26V104.26ZM177.734 68C177.734 56.3837 181.946 47.3675 189.449 41.2343C196.98 35.0792 207.934 31.74 221.554 31.74V29.74C207.634 29.74 196.179 33.1508 188.184 39.6857C180.162 46.2425 175.734 55.8563 175.734 68H177.734ZM221.554 31.74C235.265 31.74 246.219 35.0798 253.725 41.2334C261.205 47.3649 265.374 56.3804 265.374 68H267.374C267.374 55.8596 262.993 46.2451 254.993 39.6866C247.02 33.1502 235.563 29.74 221.554 29.74V31.74ZM265.374 68C265.374 79.6196 261.205 88.6351 253.725 94.7666C246.219 100.92 235.265 104.26 221.554 104.26V106.26C235.563 106.26 247.02 102.85 254.993 96.3134C262.993 89.7549 267.374 80.1404 267.374 68H265.374ZM435.211 131L434.314 131.442L434.589 132H435.211V131ZM474.271 131V132H475.914L475.159 130.541L474.271 131ZM409.111 4.99999L410 4.54064L409.72 3.99999H409.111V4.99999ZM368.971 4.99999V3.99999H368.363L368.083 4.54064L368.971 4.99999ZM303.811 131L302.923 130.541L302.168 132H303.811V131ZM342.331 131V132H342.953L343.228 131.442L342.331 131ZM354.211 106.88V105.88H353.589L353.314 106.438L354.211 106.88ZM423.331 106.88L424.228 106.438L423.953 105.88H423.331V106.88ZM366.811 80.78L365.914 80.3386L365.205 81.78H366.811V80.78ZM388.771 36.14L389.67 35.7015L388.775 33.867L387.874 35.6986L388.771 36.14ZM410.551 80.78V81.78H412.152L411.45 80.3415L410.551 80.78ZM435.211 132H474.271V130H435.211V132ZM475.159 130.541L410 4.54064L408.223 5.45935L473.383 131.459L475.159 130.541ZM409.111 3.99999H368.971V5.99999H409.111V3.99999ZM368.083 4.54064L302.923 130.541L304.699 131.459L369.859 5.45935L368.083 4.54064ZM303.811 132H342.331V130H303.811V132ZM343.228 131.442L355.108 107.322L353.314 106.438L341.434 130.558L343.228 131.442ZM354.211 107.88H423.331V105.88H354.211V107.88ZM422.434 107.322L434.314 131.442L436.108 130.558L424.228 106.438L422.434 107.322ZM367.709 81.2214L389.669 36.5814L387.874 35.6986L365.914 80.3386L367.709 81.2214ZM387.873 36.5785L409.653 81.2185L411.45 80.3415L389.67 35.7015L387.873 36.5785ZM410.551 79.78H366.811V81.78H410.551V79.78ZM524.937 101.48H523.937V102.48H524.937V101.48ZM524.937 4.99999H525.937V3.99999H524.937V4.99999ZM488.217 4.99999V3.99999H487.217V4.99999H488.217ZM488.217 131H487.217V132H488.217V131ZM609.717 131V132H610.717V131H609.717ZM609.717 101.48H610.717V100.48H609.717V101.48ZM525.937 101.48V4.99999H523.937V101.48H525.937ZM524.937 3.99999H488.217V5.99999H524.937V3.99999ZM487.217 4.99999V131H489.217V4.99999H487.217ZM488.217 132H609.717V130H488.217V132ZM610.717 131V101.48H608.717V131H610.717ZM609.717 100.48H524.937V102.48H609.717V100.48ZM696.012 51.08L696.094 50.0834L696.091 50.0832L696.012 51.08ZM691.512 28.4L691.521 27.4H691.512V28.4ZM742.092 42.44L741.515 43.2573L742.279 43.796L742.868 43.0699L742.092 42.44ZM760.632 19.58L761.408 20.2099L762.081 19.3809L761.21 18.764L760.632 19.58ZM693.852 82.22L693.765 83.2163L693.768 83.2165L693.852 82.22ZM636.612 87.8L637.256 87.0356L636.494 86.3931L635.849 87.1527L636.612 87.8ZM617.352 110.48L616.589 109.833L615.923 110.618L616.727 111.261L617.352 110.48ZM696.091 50.0832C684.803 49.1801 675.63 48.4648 669.268 46.9352C666.086 46.1702 663.722 45.226 662.17 44.0346C660.667 42.881 659.932 41.5071 659.932 39.74H657.932C657.932 42.2029 659.018 44.1365 660.952 45.6211C662.837 47.0677 665.525 48.0923 668.8 48.8798C675.353 50.4552 684.72 51.1799 695.932 52.0768L696.091 50.0832ZM659.932 39.74C659.932 37.8747 660.836 36.3078 662.562 34.9593C664.313 33.5914 666.857 32.4992 669.948 31.6601C676.122 29.9844 684.164 29.4 691.512 29.4V27.4C684.099 27.4 675.851 27.9856 669.425 29.7299C666.216 30.6008 663.382 31.781 661.331 33.3831C659.255 35.0047 657.932 37.1053 657.932 39.74H659.932ZM691.502 29.3999C710.996 29.5788 727.695 33.5121 741.515 43.2573L742.668 41.6227C728.408 31.5679 711.267 27.5812 691.521 27.4L691.502 29.3999ZM742.868 43.0699L761.408 20.2099L759.855 18.9501L741.315 41.8101L742.868 43.0699ZM761.21 18.764C743.712 6.36969 718.649 -0.140007 691.512 -0.140007V1.85999C718.374 1.85999 742.991 8.31029 760.054 20.396L761.21 18.764ZM691.512 -0.140007C671.429 -0.140007 653.957 3.56581 641.468 10.7481C628.943 17.9509 621.392 28.6875 621.392 42.62H623.392C623.392 29.5525 630.42 19.409 642.465 12.4819C654.546 5.53417 671.634 1.85999 691.512 1.85999V-0.140007ZM621.392 42.62C621.392 49.8602 623.591 55.8622 627.508 60.8182C631.411 65.7574 636.983 69.6111 643.668 72.6456C657.018 78.7056 675.029 81.5949 693.765 83.2163L693.938 81.2237C675.234 79.6051 657.515 76.7344 644.495 70.8244C637.995 67.8739 632.722 64.1901 629.077 59.5781C625.445 54.9828 623.392 49.4198 623.392 42.62H621.392ZM693.768 83.2165C706.742 84.2977 715.623 85.5071 721.25 87.4193C724.056 88.373 725.954 89.4703 727.145 90.7291C728.306 91.9551 728.852 93.3906 728.852 95.18H730.852C730.852 92.9194 730.137 90.9799 728.598 89.354C727.09 87.761 724.847 86.5295 721.893 85.5257C716 83.5229 706.881 82.3023 693.935 81.2234L693.768 83.2165ZM728.852 95.18C728.852 97.0099 728.263 98.5745 727.076 99.9254C725.87 101.297 724.007 102.491 721.4 103.469C716.173 105.429 708.22 106.42 697.452 106.42V108.42C708.283 108.42 716.53 107.431 722.103 105.341C724.896 104.294 727.083 102.946 728.578 101.246C730.09 99.5255 730.852 97.4901 730.852 95.18H728.852ZM697.452 106.42C672.436 106.42 651.98 99.4533 637.256 87.0356L635.967 88.5644C651.123 101.347 672.067 108.42 697.452 108.42V106.42ZM635.849 87.1527L616.589 109.833L618.114 111.127L637.374 88.4473L635.849 87.1527ZM616.727 111.261C636.739 127.27 664.153 136.14 696.732 136.14V134.14C664.51 134.14 637.564 125.37 617.976 109.699L616.727 111.261ZM696.732 136.14C719.7 136.14 737.332 131.712 749.254 123.917C761.219 116.094 767.392 104.898 767.392 91.58H765.392C765.392 104.182 759.594 114.766 748.159 122.243C736.682 129.748 719.483 134.14 696.732 134.14V136.14ZM767.392 91.58C767.392 84.1575 765.521 78.0135 762.014 72.9384C758.513 67.8725 753.428 63.9369 747.098 60.8464C734.472 54.6821 716.711 51.794 696.094 50.0834L695.929 52.0766C716.532 53.786 733.961 56.6579 746.22 62.6436C752.333 65.6281 757.114 69.365 760.369 74.0754C763.617 78.7765 765.392 84.5125 765.392 91.58H767.392Z" fill="#64D18C"/>
</svg>
