<svg width="293" height="1377" viewBox="0 0 293 1377" fill="none" xmlns="http://www.w3.org/2000/svg">
<path d="M79.4521 1C79.4521 1 26.3254 188.131 87.7529 323.696" stroke="#379FFF" stroke-miterlimit="10"/>
<path d="M87.7529 324C149.18 459.564 195.667 526.929 252.116 503.645C308.565 480.36 306.904 342.297 235.515 363.088C164.126 383.878 132.426 556.181 110.841 606.914C91.1038 653.304 44.5261 659.955 10.9998 624.304C-13.873 597.853 7.90523 530.398 66.8434 536.22C252.116 583.304 204 971.304 204 971.304" stroke="white" stroke-opacity="0.5" stroke-miterlimit="10" stroke-dasharray="12 12"/>
<path d="M204 968C194 1108 186 1220 146.201 1241.12C96.0003 1253 80.9427 1194.25 112 1170C159.943 1132.57 238 1185 176 1369" stroke="white" stroke-opacity="0.5" stroke-miterlimit="10" stroke-dasharray="12 12"/>
</svg>
