<svg width="479" height="265" viewBox="0 0 479 265" fill="none" xmlns="http://www.w3.org/2000/svg">
<g style="mix-blend-mode:hard-light" filter="url(#filter0_f_121_1337)">
<mask id="path-1-outside-1_121_1337" maskUnits="userSpaceOnUse" x="205.665" y="53.3114" width="261" height="200" fill="black">
<rect fill="white" x="205.665" y="53.3114" width="261" height="200"/>
<path d="M344.734 237.936C315.511 238.234 288.337 230.531 262.601 216.972C250.443 210.58 238.876 203.235 227.959 194.857C226.244 193.547 224.609 192.137 223.072 190.648C221.535 189.179 220.609 187.333 220.668 185.11C220.766 181.258 224.333 178.578 227.939 179.849C229.496 180.405 230.954 181.397 232.274 182.45C251.665 197.895 272.888 210.004 296.377 217.925C314.762 224.139 333.699 226.045 352.991 225.112C363.1 224.616 373.15 223.563 382.983 221.102C392.816 218.64 402.353 215.404 411.26 210.421C418.374 206.431 423.97 200.833 428.601 194.202C429.823 192.435 430.769 190.47 431.754 188.564C435.38 181.497 434.848 174.509 431.281 167.58C428.562 162.319 425.862 158.746 422.394 154.756C412.147 143.003 412.265 143.817 407.792 138.417C406.097 136.373 398.274 126.824 392.934 115.21C392.264 113.741 391.515 112.014 390.904 109.711C389.564 104.649 389.604 99.4277 390.707 94.1073C391.417 90.6134 392.776 87.3576 395.181 84.6974C402.531 76.5779 411.221 70.6421 422.217 68.776C430.276 67.4062 437.705 69.0539 444.346 73.878C450.455 78.305 452.721 84.5981 450.79 91.9236C450.238 93.9882 449.391 96.0131 448.464 97.9388C447.932 99.0505 447.105 100.083 446.218 100.917C444.011 103.001 440.858 103.2 438.572 101.592C436.247 99.9637 435.459 97.0058 436.621 94.1272C437.134 92.8765 437.863 91.7251 438.355 90.4744C439.814 86.8216 439.183 85.0944 435.794 83.0695C434.473 82.2754 433.114 81.6997 431.754 81.3225C427.852 80.2505 423.714 81.0446 421.034 81.7593C418.177 82.5137 412.147 84.1018 407.201 89.6207C405.211 91.8442 402.393 94.9808 401.959 99.6659C401.526 104.351 403.634 108.857 404.245 110.227C404.462 110.684 404.994 111.796 405.723 113.126C406.846 115.19 407.812 116.659 408.285 117.374C412.719 124.124 412.462 124.164 414.886 127.519C416.837 130.238 418.098 131.985 420.148 134.248C421.724 135.956 422.355 136.452 424.68 138.814C425.98 140.145 427.636 141.911 429.902 144.552C435.873 151.421 439.065 156.066 441.489 160.414C444.05 165.039 445.725 169.943 446.435 175.184C447.164 180.603 446.198 185.785 444.208 190.807C439.636 202.401 431.833 211.374 421.783 218.422C414.078 223.841 405.388 227.216 396.54 230.154C383.633 234.442 370.332 236.606 356.794 237.321C352.774 237.539 348.754 237.718 344.734 237.917"/>
</mask>
<path d="M262.601 216.972L269.337 204.188L269.326 204.182L262.601 216.972ZM227.959 194.857L236.756 183.394L236.745 183.385L236.733 183.376L227.959 194.857ZM223.072 190.648L233.126 180.27L233.091 180.236L233.056 180.202L223.072 190.648ZM220.668 185.11L235.113 185.494L235.113 185.487L235.113 185.479L220.668 185.11ZM227.939 179.849L232.798 166.24L232.77 166.23L232.741 166.22L227.939 179.849ZM232.274 182.45L223.269 193.75L223.271 193.752L232.274 182.45ZM296.377 217.925L301.003 204.236L300.994 204.233L296.377 217.925ZM352.991 225.112L353.689 239.545L353.699 239.544L352.991 225.112ZM411.26 210.421L418.315 223.032L418.322 223.028L418.33 223.024L411.26 210.421ZM428.601 194.202L440.448 202.476L440.467 202.448L440.486 202.42L428.601 194.202ZM431.754 188.564L444.59 195.2L444.601 195.18L444.611 195.16L431.754 188.564ZM431.281 167.58L444.129 160.966L444.123 160.956L444.118 160.945L431.281 167.58ZM422.394 154.756L433.3 145.276L433.293 145.268L433.285 145.26L422.394 154.756ZM407.792 138.417L418.92 129.199L418.918 129.197L407.792 138.417ZM392.934 115.21L379.787 121.206L379.796 121.227L379.806 121.247L392.934 115.21ZM390.904 109.711L376.935 113.409L376.937 113.416L390.904 109.711ZM390.707 94.1073L404.856 97.042L404.862 97.0123L404.868 96.9825L390.707 94.1073ZM395.181 84.6974L384.468 74.9998L384.46 75.0088L395.181 84.6974ZM422.217 68.776L424.634 83.0222L424.638 83.0217L422.217 68.776ZM444.346 73.878L435.853 85.5689L435.86 85.5737L435.867 85.5785L444.346 73.878ZM450.79 91.9236L464.75 95.6543L464.756 95.6307L464.762 95.6071L450.79 91.9236ZM448.464 97.9388L435.442 91.6757L435.436 91.6883L435.43 91.7008L448.464 97.9388ZM446.218 100.917L436.32 90.3894L436.308 90.4004L436.296 90.4114L446.218 100.917ZM438.572 101.592L446.886 89.773L446.873 89.7636L446.859 89.7542L438.572 101.592ZM436.621 94.1272L423.25 88.6495L423.236 88.6826L423.223 88.7157L436.621 94.1272ZM438.355 90.4744L424.935 85.117L424.923 85.1478L424.911 85.1786L438.355 90.4744ZM435.794 83.0695L428.346 95.4523L428.364 95.4634L428.383 95.4743L435.794 83.0695ZM431.754 81.3225L435.617 67.3984L435.6 67.3936L435.582 67.3889L431.754 81.3225ZM421.034 81.7593L424.723 95.7305L424.74 95.726L424.758 95.7213L421.034 81.7593ZM407.201 89.6207L396.44 79.9767L396.434 79.9832L407.201 89.6207ZM404.245 110.227L391.048 116.113L391.118 116.269L391.191 116.424L404.245 110.227ZM405.723 113.126L418.416 106.22L418.405 106.2L418.394 106.18L405.723 113.126ZM408.285 117.374L420.362 109.441L420.349 109.42L420.335 109.4L408.285 117.374ZM414.886 127.519L426.628 119.096L426.614 119.076L426.599 119.057L414.886 127.519ZM420.148 134.248L409.436 143.948L409.484 144L409.531 144.051L420.148 134.248ZM424.68 138.814L435.012 128.712L434.995 128.695L434.978 128.678L424.68 138.814ZM429.902 144.552L418.937 153.963L418.966 153.997L418.996 154.032L429.902 144.552ZM441.489 160.414L454.13 153.413L454.12 153.395L454.11 153.377L441.489 160.414ZM446.435 175.184L460.756 173.257L460.754 173.245L446.435 175.184ZM444.208 190.807L430.774 185.484L430.77 185.495L430.765 185.506L444.208 190.807ZM421.783 218.422L413.487 206.591L413.478 206.597L413.47 206.603L421.783 218.422ZM396.54 230.154L391.986 216.441L391.984 216.441L396.54 230.154ZM356.794 237.321L356.032 222.891L356.021 222.892L356.01 222.892L356.794 237.321ZM344.587 223.487C318.126 223.757 293.301 216.814 269.337 204.188L255.866 229.757C283.373 244.249 312.896 252.712 344.881 252.386L344.587 223.487ZM269.326 204.182C257.865 198.157 246.995 191.251 236.756 183.394L219.162 206.321C230.757 215.219 243.021 223.003 255.877 229.762L269.326 204.182ZM236.733 183.376C235.467 182.408 234.258 181.367 233.126 180.27L213.018 201.027C214.959 202.908 217.022 204.686 219.184 206.338L236.733 183.376ZM233.056 180.202C233.424 180.554 233.988 181.21 234.444 182.222C234.92 183.278 235.141 184.421 235.113 185.494L206.223 184.726C206.038 191.695 209.122 197.304 213.088 201.095L233.056 180.202ZM235.113 185.479C234.985 190.473 229.674 195.781 223.137 193.478L232.741 166.22C218.992 161.376 206.547 172.044 206.222 184.74L235.113 185.479ZM223.08 193.457C222.862 193.38 222.713 193.31 222.638 193.273C222.563 193.235 222.542 193.22 222.579 193.243C222.616 193.266 222.693 193.316 222.814 193.403C222.935 193.49 223.084 193.603 223.269 193.75L241.28 171.149C239.538 169.761 236.6 167.598 232.798 166.24L223.08 193.457ZM223.271 193.752C243.82 210.12 266.504 223.101 291.759 231.618L300.994 204.233C279.271 196.907 259.51 185.67 241.277 171.147L223.271 193.752ZM291.75 231.615C312.184 238.521 332.983 240.546 353.689 239.545L352.293 210.679C334.415 211.543 317.34 209.757 301.003 204.236L291.75 231.615ZM353.699 239.544C364.294 239.024 375.383 237.9 386.492 235.119L379.474 207.084C370.917 209.226 361.906 210.207 352.282 210.679L353.699 239.544ZM386.492 235.119C397.047 232.477 407.909 228.854 418.315 223.032L404.205 197.811C396.798 201.955 388.585 204.803 379.474 207.084L386.492 235.119ZM418.33 223.024C427.737 217.747 434.859 210.478 440.448 202.476L416.754 185.928C413.081 191.188 409.011 195.115 404.191 197.819L418.33 223.024ZM440.486 202.42C442.384 199.676 443.886 196.562 444.59 195.2L418.918 181.928C417.652 184.378 417.262 185.194 416.716 185.984L440.486 202.42ZM444.611 195.16C450.701 183.29 449.468 171.337 444.129 160.966L418.434 174.194C420.228 177.68 420.059 179.703 418.897 181.968L444.611 195.16ZM444.118 160.945C440.716 154.363 437.264 149.837 433.3 145.276L411.488 164.235C414.46 167.655 416.408 170.275 418.445 174.216L444.118 160.945ZM433.285 145.26C428.048 139.252 425.406 136.397 423.494 134.347C421.718 132.443 420.871 131.554 418.92 129.199L396.664 147.636C399.187 150.68 400.517 152.084 402.362 154.062C404.07 155.892 406.493 158.507 411.502 164.252L433.285 145.26ZM418.918 129.197C417.388 127.351 410.579 118.995 406.063 109.173L379.806 121.247C385.97 134.652 394.807 145.394 396.666 147.638L418.918 129.197ZM406.081 109.214C405.534 108.014 405.174 107.146 404.871 106.006L376.937 113.416C377.857 116.882 378.994 119.468 379.787 121.206L406.081 109.214ZM404.873 106.014C404.202 103.477 404.126 100.562 404.856 97.042L376.559 91.1727C375.082 98.2931 374.927 105.821 376.935 113.409L404.873 106.014ZM404.868 96.9825C405.215 95.2756 405.685 94.6258 405.901 94.386L384.46 75.0088C379.868 80.0894 377.619 85.9512 376.546 91.2321L404.868 96.9825ZM405.893 94.395C411.761 87.9133 417.724 84.195 424.634 83.0222L419.799 54.5297C404.718 57.0891 393.301 65.2424 384.468 74.9998L405.893 94.395ZM424.638 83.0217C428.977 82.2842 432.45 83.0966 435.853 85.5689L452.839 62.1871C442.96 55.0111 431.576 52.5281 419.795 54.5302L424.638 83.0217ZM435.867 85.5785C436.42 85.9794 436.704 86.2897 436.834 86.4556C436.9 86.5396 436.935 86.5973 436.952 86.6277C436.968 86.6577 436.975 86.6746 436.978 86.6826C436.981 86.6905 436.986 86.7075 436.992 86.7407C436.998 86.7744 437.008 86.8406 437.01 86.9468C437.014 87.1562 436.992 87.5764 436.817 88.2401L464.762 95.6071C466.358 89.5547 466.401 83.1289 464.188 76.9452C461.976 70.7639 457.871 65.8342 452.825 62.1775L435.867 85.5785ZM436.83 88.1929C436.604 89.0356 436.175 90.1534 435.442 91.6757L461.487 104.202C462.607 101.873 463.872 98.9408 464.75 95.6543L436.83 88.1929ZM435.43 91.7008C435.662 91.216 435.882 90.9029 436.006 90.7408C436.135 90.5725 436.241 90.4635 436.32 90.3894L456.117 111.444C457.96 109.711 460.015 107.278 461.499 104.177L435.43 91.7008ZM436.296 90.4114C438.923 87.9308 443.376 87.3033 446.886 89.773L430.258 113.41C438.341 119.096 449.099 118.071 456.14 111.422L436.296 90.4114ZM446.859 89.7542C448.526 90.9212 449.745 92.6809 450.264 94.6555C450.773 96.5898 450.514 98.3154 450.02 99.5387L423.223 88.7157C419.833 97.1094 421.834 107.512 430.285 113.429L446.859 89.7542ZM449.993 99.6048C449.972 99.6566 449.978 99.6278 450.354 98.8935C450.628 98.3593 451.255 97.1544 451.8 95.7702L424.911 85.1786C424.964 85.045 424.979 85.0412 424.637 85.708C424.398 86.1748 423.783 87.3471 423.25 88.6495L449.993 99.6048ZM451.776 95.8318C452.847 93.1477 454.713 87.6299 452.533 81.3931C450.386 75.2509 445.578 72.0825 443.205 70.6647L428.383 95.4743C429.399 96.0814 426.601 94.7891 425.252 90.9299C423.87 86.9761 425.322 84.1482 424.935 85.117L451.776 95.8318ZM443.241 70.6867C440.805 69.2212 438.24 68.126 435.617 67.3984L427.891 95.2467C427.988 95.2735 428.142 95.3297 428.346 95.4523L443.241 70.6867ZM435.582 67.3889C427.815 65.2546 420.536 66.9372 417.311 67.7972L424.758 95.7213C425.631 95.4884 426.433 95.3292 427.129 95.2716C427.848 95.212 428.067 95.295 427.926 95.2562L435.582 67.3889ZM417.346 67.788C414.156 68.6301 404.431 71.0607 396.44 79.9767L417.962 99.2647C419.863 97.1429 422.198 96.3972 424.723 95.7305L417.346 67.788ZM396.434 79.9832C394.621 82.0095 388.493 88.3713 387.571 98.3345L416.348 100.997C416.317 101.331 416.19 101.478 416.325 101.258C416.408 101.121 416.559 100.902 416.831 100.565C417.124 100.204 417.442 99.8458 417.968 99.2583L396.434 79.9832ZM387.571 98.3345C386.739 107.318 390.623 115.161 391.048 116.113L417.442 104.342C417.107 103.59 416.82 102.959 416.583 102.144C416.325 101.26 416.357 100.893 416.348 100.997L387.571 98.3345ZM391.191 116.424C391.456 116.982 392.126 118.383 393.052 120.072L418.394 106.18C417.862 105.209 417.467 104.386 417.299 104.03L391.191 116.424ZM393.03 120.031C394.443 122.628 395.669 124.494 396.234 125.348L420.335 109.4C419.955 108.825 419.25 107.752 418.416 106.22L393.03 120.031ZM396.207 125.307C398.324 128.53 399.293 130.106 400.075 131.361C400.989 132.828 401.717 133.965 403.173 135.981L426.599 119.057C425.631 117.717 425.275 117.157 424.604 116.078C423.799 114.787 422.679 112.968 420.362 109.441L396.207 125.307ZM403.144 135.941C405.1 138.667 406.78 141.014 409.436 143.948L430.859 124.549C429.416 122.956 428.574 121.81 426.628 119.096L403.144 135.941ZM409.531 144.051C410.541 145.145 411.276 145.878 412.016 146.603C412.701 147.275 413.33 147.883 414.381 148.951L434.978 128.678C433.704 127.383 432.855 126.562 432.25 125.968C431.699 125.428 431.331 125.06 430.764 124.446L409.531 144.051ZM414.348 148.917C415.432 150.025 416.876 151.561 418.937 153.963L440.867 135.141C438.396 132.261 436.529 130.264 435.012 128.712L414.348 148.917ZM418.996 154.032C424.479 160.339 427.04 164.171 428.868 167.45L454.11 153.377C451.09 147.961 447.266 142.502 440.808 135.072L418.996 154.032ZM428.848 167.414C430.584 170.549 431.658 173.744 432.115 177.122L460.754 173.245C459.793 166.141 457.517 159.529 454.13 153.413L428.848 167.414ZM432.114 177.11C432.437 179.511 432.089 182.165 430.774 185.484L457.642 196.131C460.307 189.404 461.891 181.696 460.756 173.257L432.114 177.11ZM430.765 185.506C427.396 194.051 421.613 200.892 413.487 206.591L430.08 230.253C442.053 221.856 451.877 210.751 457.651 196.108L430.765 185.506ZM413.47 206.603C407.558 210.761 400.525 213.605 391.986 216.441L401.094 243.868C410.251 240.827 420.599 236.922 430.097 230.241L413.47 206.603ZM391.984 216.441C380.526 220.248 368.536 222.231 356.032 222.891L357.556 251.751C372.128 250.982 386.74 248.637 401.096 243.867L391.984 216.441ZM356.01 222.892C352.032 223.108 348.142 223.281 344.021 223.484L345.447 252.349C349.366 252.155 353.516 251.97 357.578 251.75L356.01 222.892Z" fill="#267DFF" mask="url(#path-1-outside-1_121_1337)"/>
<path d="M123.987 62.4865L123.964 62.5055C119.481 66.0933 113.07 66.8713 107.97 63.0387L107.957 63.0289L107.944 63.019C102.852 59.1558 101.855 52.688 104.085 47.3786L104.089 47.3689L104.093 47.3592C104.126 47.2817 104.16 47.2047 104.193 47.1284C101.879 46.5167 99.5245 46.3547 97.1169 46.6405C92.9999 47.14 90.3213 49.3898 88.469 54.2936C87.4326 57.0583 87.2567 60.0918 87.925 63.3798C88.8766 68.0166 90.5696 72.3982 92.9444 76.6548L92.9504 76.6657C97.8507 85.4847 102.729 94.4102 107.364 103.502C111.43 111.431 114.027 119.94 115.086 128.848L115.087 128.861C115.603 133.267 116.165 142.243 111.876 152.266C107.706 162.048 101.074 167.539 98.0572 169.983C91.6143 175.237 85.3567 177.635 82.1958 178.669C67.6383 183.437 55.3146 179.913 50.7925 178.546C47.9411 177.7 42.7101 176.085 36.9386 172.089L36.9303 172.084L36.9221 172.078C34.1317 170.134 28.2057 165.978 24.0352 158.098C22.8191 155.825 20.6039 151.049 19.9753 144.428C19.5808 140.385 20.3864 136.422 21.0171 133.612C22.1874 128.401 25.207 124.364 27.4202 121.563C27.4213 121.562 27.4224 121.56 27.4235 121.559C31.7009 116.142 39.1303 114.905 44.8456 118.513C50.5315 122.095 52.5416 129.198 49.9764 135.277L49.9713 135.289L49.966 135.302C49.1649 137.181 48.0423 138.75 47.3323 139.72L47.3282 139.726C46.6374 140.668 46.4843 141.337 46.4621 141.814C46.4377 142.339 46.5532 143.164 47.177 144.38C48.5297 146.979 50.6973 148.438 53.2748 149.909C54.5348 150.617 58.4653 152.695 63.959 152.94C69.1199 153.167 72.954 151.714 75.805 150.568L123.987 62.4865ZM123.987 62.4865L124.011 62.4673M123.987 62.4865L124.011 62.4673M124.011 62.4673L124.038 62.4453C124.234 62.2859 124.798 61.8281 125.357 61.2147M124.011 62.4673L125.357 61.2147M82.4077 146.902L82.416 146.895C84.3331 145.373 86.2269 143.804 87.4832 141.246L87.4883 141.236L87.4935 141.226C88.9956 138.192 89.0129 135.275 88.5851 132.043L88.584 132.034L88.583 132.026C87.9647 127.271 86.72 122.748 84.8008 118.479C82.8313 114.122 80.7116 109.808 78.462 105.593L78.4594 105.588C76.9452 102.747 75.3521 99.9283 73.7065 97.0225L73.5626 96.7683C71.9764 93.9676 70.3421 91.0818 68.7688 88.1473L68.7648 88.1399L68.7609 88.1325C63.7902 78.8095 60.2394 68.3633 61.0242 56.5454L61.0243 56.544C61.773 45.3022 66.4013 35.6742 74.8161 28.2329C82.1151 21.7202 90.8299 19.6683 99.2824 19.6216C106.351 19.5745 112.951 21.2396 119.117 24.0902L82.4077 146.902ZM82.4077 146.902C79.935 148.871 77.728 149.792 75.8051 150.567L82.4077 146.902ZM125.357 61.2147C130.264 55.9511 132.957 48.8379 132.228 41.7692C131.468 34.3917 127.026 27.7465 119.117 24.0906L125.357 61.2147Z" stroke="#267DFF" stroke-width="14.45"/>
<mask id="path-4-outside-2_121_1337" maskUnits="userSpaceOnUse" x="159.754" y="52.0549" width="88" height="137" fill="black">
<rect fill="white" x="159.754" y="52.0549" width="88" height="137"/>
<path d="M174.754 154.442C175.464 139.354 177.554 125.034 183.547 111.463C187.628 102.205 192.123 93.1643 197.19 84.4188C199.378 80.6566 202.099 77.1702 204.78 73.7232C206.772 71.1626 209.394 69.2322 212.45 68.0307C215.762 66.711 219.093 66.6913 222.346 68.208C228.655 71.1626 232.322 75.8899 232.184 83.1188C232.165 84.5566 232.204 85.9945 232.066 87.4127C231.81 89.9734 230.114 91.7264 227.886 91.9431C225.442 92.1795 223.529 90.781 222.8 88.1218C222.563 87.2749 222.524 86.3688 222.406 85.4824C222.248 84.34 222.228 83.1385 221.913 82.0354C221.026 78.8051 217.713 77.8202 215.367 80.1248C214.224 81.2475 213.179 82.5081 212.292 83.8279C203.183 97.5174 195.849 112.093 190.822 127.753C188.713 134.351 188.101 141.225 187.569 148.1C187.313 151.468 187.234 154.876 187.471 158.244C187.687 161.297 189.048 162.124 192.025 161.336C193.365 160.982 194.805 160.371 195.79 159.445C198.038 157.298 200.423 155.132 202.079 152.551C208.526 142.486 213.278 131.613 216.235 120.012C216.55 118.81 216.925 117.609 217.221 116.387C218.463 111.365 219.744 106.342 220.907 101.299C221.637 98.1083 223.49 96.0204 226.23 95.6659C229.996 95.1931 233.17 98.0295 233.071 102.127C233.012 104.51 232.598 106.933 232.007 109.257C228.754 122.08 225.422 134.883 219.389 146.76C217.161 151.133 214.756 155.427 212.233 159.642C209.808 163.68 206.476 166.93 202.73 169.747C197.703 173.509 192.104 174.691 185.992 173.293C181.793 172.347 178.776 169.944 176.943 166.005C175.168 162.183 174.833 158.106 174.774 154.403"/>
</mask>
<path d="M183.547 111.463L196.766 117.301L196.77 117.292L183.547 111.463ZM197.19 84.4188L184.7 77.1533L184.693 77.1641L184.687 77.175L197.19 84.4188ZM204.78 73.7232L216.186 82.5951L216.187 82.5936L204.78 73.7232ZM212.45 68.0307L217.737 81.4785L217.768 81.4665L217.798 81.4544L212.45 68.0307ZM222.346 68.208L228.475 55.122L228.464 55.1167L228.453 55.1115L222.346 68.208ZM232.184 83.1188L217.737 82.8429L217.736 82.8818L217.736 82.9206L232.184 83.1188ZM232.066 87.4127L246.444 88.8519L246.446 88.8321L246.448 88.8123L232.066 87.4127ZM227.886 91.9431L229.277 106.326L229.285 106.325L227.886 91.9431ZM222.8 88.1218L236.735 84.2991L236.726 84.2668L236.717 84.2344L222.8 88.1218ZM222.406 85.4824L236.729 83.571L236.724 83.5386L236.72 83.5063L222.406 85.4824ZM221.913 82.0354L207.979 85.8622L207.999 85.9355L208.02 86.0085L221.913 82.0354ZM215.367 80.1248L225.491 90.4355L225.493 90.4333L215.367 80.1248ZM212.292 83.8279L200.3 75.7661L200.28 75.7947L200.261 75.8234L212.292 83.8279ZM190.822 127.753L177.064 123.336L177.061 123.344L177.058 123.352L190.822 127.753ZM187.569 148.1L173.162 146.984L173.162 146.994L173.161 147.003L187.569 148.1ZM187.471 158.244L173.056 159.256L173.057 159.268L187.471 158.244ZM192.025 161.336L188.33 147.367L188.328 147.367L192.025 161.336ZM195.79 159.445L205.683 169.979L205.727 169.936L205.772 169.894L195.79 159.445ZM202.079 152.551L214.24 160.356L214.247 160.345L202.079 152.551ZM216.235 120.012L202.258 116.342L202.245 116.392L202.233 116.442L216.235 120.012ZM217.221 116.387L203.193 112.919L203.185 112.952L203.176 112.986L217.221 116.387ZM220.907 101.299L234.988 104.547L234.991 104.533L234.994 104.519L220.907 101.299ZM226.23 95.6659L224.43 81.3284L224.403 81.3318L224.376 81.3353L226.23 95.6659ZM233.071 102.127L247.517 102.485L247.517 102.474L233.071 102.127ZM232.007 109.257L218.003 105.693L218 105.704L232.007 109.257ZM219.389 146.76L232.265 153.32L232.269 153.312L232.273 153.304L219.389 146.76ZM212.233 159.642L224.62 167.082L224.626 167.073L224.631 167.065L212.233 159.642ZM202.73 169.747L211.388 181.316L211.401 181.306L211.414 181.296L202.73 169.747ZM185.992 173.293L189.215 159.207L189.191 159.201L189.166 159.195L185.992 173.293ZM176.943 166.005L163.837 172.09L163.842 172.102L176.943 166.005ZM189.188 155.121C189.859 140.857 191.798 128.55 196.766 117.301L170.329 105.626C163.31 121.519 161.069 137.852 160.32 153.763L189.188 155.121ZM196.77 117.292C200.673 108.438 204.933 99.8795 209.693 91.6625L184.687 77.175C179.314 86.4491 174.584 95.9728 170.325 105.634L196.77 117.292ZM209.681 91.6843C211.294 88.9108 213.385 86.1965 216.186 82.5951L193.375 64.8513C190.813 68.1439 187.463 72.4024 184.7 77.1533L209.681 91.6843ZM216.187 82.5936C216.529 82.1539 217.007 81.7657 217.737 81.4785L207.162 54.5829C201.781 56.6987 197.014 60.1713 193.373 64.8528L216.187 82.5936ZM217.798 81.4544C217.912 81.4089 217.701 81.5101 217.248 81.5047C217.034 81.5021 216.82 81.4757 216.624 81.4302C216.43 81.385 216.299 81.332 216.24 81.3044L228.453 55.1115C221.279 51.7669 213.782 51.9448 207.101 54.607L217.798 81.4544ZM216.218 81.294C217.701 81.9885 217.906 82.4372 217.777 82.2483C217.753 82.2148 217.728 82.172 217.707 82.1265C217.686 82.0811 217.679 82.0558 217.681 82.062C217.682 82.066 217.747 82.2941 217.737 82.8429L246.632 83.3946C246.751 77.1341 245.186 71.1035 241.589 65.8727C238.083 60.7743 233.301 57.382 228.475 55.122L216.218 81.294ZM217.736 82.9206C217.705 85.1594 217.744 85.3941 217.684 86.0132L246.448 88.8123C246.664 86.595 246.624 83.9539 246.633 83.3169L217.736 82.9206ZM217.688 85.9736C217.844 84.4145 218.525 82.4374 220.161 80.6879C221.826 78.9072 224.099 77.7932 226.488 77.561L229.285 106.325C239.221 105.359 245.59 97.3844 246.444 88.8519L217.688 85.9736ZM226.496 77.5602C228.49 77.3673 231.059 77.8345 233.339 79.535C235.523 81.1642 236.421 83.1538 236.735 84.2991L208.865 91.9446C209.908 95.749 212.127 99.7674 216.061 102.702C220.091 105.707 224.838 106.755 229.277 106.326L226.496 77.5602ZM236.717 84.2344C236.808 84.5607 236.858 84.8098 236.881 84.9427C236.904 85.0716 236.91 85.1302 236.901 85.0623C236.898 85.0308 236.892 84.9826 236.883 84.903C236.873 84.8126 236.865 84.7383 236.851 84.6005C236.826 84.3704 236.784 83.9892 236.729 83.571L208.083 87.3939C208.086 87.4188 208.094 87.4833 208.117 87.6988C208.135 87.8624 208.172 88.2195 208.215 88.5715C208.302 89.282 208.476 90.5531 208.883 92.0092L236.717 84.2344ZM236.72 83.5063C236.721 83.5112 236.718 83.4912 236.711 83.435C236.705 83.3774 236.697 83.3005 236.685 83.1839C236.669 83.023 236.624 82.5503 236.581 82.1604C236.49 81.3323 236.302 79.7968 235.806 78.0624L208.02 86.0085C207.921 85.6626 207.874 85.4111 207.856 85.3062C207.839 85.2066 207.84 85.1888 207.855 85.3279C207.863 85.3946 207.871 85.4788 207.884 85.6031C207.89 85.6657 207.896 85.7284 207.904 85.8052C207.911 85.8783 207.919 85.9628 207.928 86.0501C207.961 86.3847 208.013 86.8939 208.091 87.4586L236.72 83.5063ZM235.847 78.2086C234.26 72.4312 229.924 67.0977 223.26 65.1402C216.478 63.1482 209.747 65.39 205.241 69.8163L225.493 90.4333C223.334 92.555 219.432 94.137 215.115 92.8688C210.915 91.6352 208.678 88.4093 207.979 85.8622L235.847 78.2086ZM205.244 69.814C203.398 71.6263 201.728 73.6414 200.3 75.7661L224.284 91.8896C224.63 91.3749 225.05 90.8688 225.491 90.4355L205.244 69.814ZM200.261 75.8234C190.51 90.4788 182.549 106.251 177.064 123.336L204.58 132.17C209.15 117.935 215.857 104.556 224.322 91.8323L200.261 75.8234ZM177.058 123.352C174.368 131.767 173.685 140.233 173.162 146.984L201.976 149.215C202.518 142.218 203.057 136.935 204.586 132.153L177.058 123.352ZM173.161 147.003C172.867 150.864 172.757 155.003 173.056 159.256L201.885 157.231C201.711 154.748 201.759 152.072 201.978 149.196L173.161 147.003ZM173.057 159.268C173.248 161.959 174.161 168.922 180.73 173.275C186.946 177.395 193.457 175.905 195.722 175.305L188.328 147.367C188.336 147.365 189.152 147.135 190.468 147.17C191.895 147.207 194.265 147.575 196.695 149.186C199.184 150.835 200.543 152.996 201.208 154.603C201.804 156.043 201.875 157.091 201.884 157.22L173.057 159.268ZM195.719 175.306C198.131 174.668 202.202 173.247 205.683 169.979L185.898 148.912C186.759 148.103 187.494 147.719 187.781 147.581C188.1 147.428 188.29 147.377 188.33 147.367L195.719 175.306ZM205.772 169.894C207.485 168.258 211.43 164.735 214.24 160.356L189.919 144.747C189.417 145.528 188.591 146.339 185.809 148.997L205.772 169.894ZM214.247 160.345C221.516 148.997 226.893 136.701 230.237 123.581L202.233 116.442C199.662 126.526 195.537 135.975 189.911 144.758L214.247 160.345ZM230.211 123.681C230.221 123.645 231.002 120.871 231.265 119.788L203.176 112.986C202.847 114.346 202.88 113.975 202.258 116.342L230.211 123.681ZM231.248 119.856C232.456 114.972 233.79 109.737 234.988 104.547L206.827 98.0513C205.698 102.946 204.469 107.757 203.193 112.919L231.248 119.856ZM234.994 104.519C234.936 104.775 234.62 105.943 233.399 107.256C232.035 108.724 230.111 109.734 228.084 109.996L224.376 81.3353C213.785 82.7055 208.43 91.0407 206.821 98.079L234.994 104.519ZM228.03 110.003C225.731 110.292 223.192 109.558 221.269 107.773C219.336 105.979 218.58 103.66 218.626 101.779L247.517 102.474C247.819 89.9383 237.348 79.7068 224.43 81.3284L228.03 110.003ZM218.626 101.768C218.601 102.772 218.413 104.083 218.003 105.693L246.011 112.82C246.784 109.782 247.424 106.247 247.517 102.485L218.626 101.768ZM218 105.704C214.703 118.701 211.704 129.982 206.506 140.217L232.273 153.304C239.14 139.784 242.805 125.458 246.013 112.81L218 105.704ZM206.514 140.201C204.458 144.237 202.217 148.241 199.835 152.22L224.631 167.065C227.296 162.613 229.865 158.029 232.265 153.32L206.514 140.201ZM199.845 152.203C198.676 154.15 196.849 156.09 194.046 158.198L211.414 181.296C216.103 177.771 220.94 173.211 224.62 167.082L199.845 152.203ZM194.072 158.178C192.447 159.394 191.193 159.659 189.215 159.207L182.769 187.378C193.014 189.723 202.959 187.624 211.388 181.316L194.072 158.178ZM189.166 159.195C189.037 159.166 189.05 159.156 189.162 159.208C189.279 159.263 189.447 159.359 189.629 159.505C189.811 159.652 189.944 159.797 190.025 159.904C190.103 160.005 190.098 160.025 190.043 159.907L163.842 172.102C167.581 180.134 174.283 185.468 182.818 187.39L189.166 159.195ZM190.049 159.919C189.595 158.941 189.273 157.377 189.222 154.172L160.326 154.634C160.393 158.835 160.742 165.426 163.837 172.09L190.049 159.919Z" fill="#267DFF" mask="url(#path-4-outside-2_121_1337)"/>
<mask id="path-6-outside-3_121_1337" maskUnits="userSpaceOnUse" x="231.723" y="53.3114" width="83" height="142" fill="black">
<rect fill="white" x="231.723" y="53.3114" width="83" height="142"/>
<path d="M266.005 133.805C266.707 134.91 267.229 135.876 267.871 136.704C272.949 143.194 276.902 150.334 280.836 157.514C282.963 161.361 285.231 165.148 287.278 169.033C288.041 170.513 288.683 172.17 288.844 173.807C289.125 176.726 287.258 179.073 284.489 179.882C281.88 180.651 279.17 179.705 277.605 177.298C276.14 175.03 274.835 172.663 273.531 170.316C271.303 166.311 269.216 162.228 266.847 158.303C264.018 153.609 260.887 149.111 258.037 144.437C255.99 141.064 254.043 137.612 252.377 134.061C250.872 130.846 251.735 127.848 254.665 125.737C256.552 124.376 258.659 123.213 260.827 122.365C267.57 119.721 273.691 116.053 279.551 111.95C281.378 110.668 283.044 109.031 284.368 107.275C289.325 100.667 288.262 91.9686 282.14 86.3865C277.765 82.4021 272.567 80.5677 266.747 80.4493C262.854 80.3507 258.94 80.686 255.027 80.7452C253.581 80.7649 252.096 80.7846 250.712 80.4493C248.323 79.8773 246.878 78.0823 246.738 75.8929C246.577 73.4864 247.701 71.7704 249.849 70.6855C250.491 70.3502 251.193 70.0938 251.896 69.936C260.365 68.1607 268.975 67.4506 277.324 69.8374C294.483 74.7291 302.993 90.5287 299.18 105.263C297.353 112.384 292.918 117.926 286.817 122.108C280.595 126.349 274.253 130.353 267.169 133.134C266.847 133.253 266.566 133.489 265.964 133.864"/>
</mask>
<path d="M267.871 136.704L256.451 145.558L256.471 145.583L256.491 145.609L267.871 136.704ZM280.836 157.514L268.163 164.457L268.177 164.483L268.191 164.508L280.836 157.514ZM287.278 169.033L300.122 162.412L300.093 162.355L300.063 162.298L287.278 169.033ZM288.844 173.807L303.227 172.422L303.226 172.41L303.225 172.397L288.844 173.807ZM284.489 179.882L280.438 166.011L280.42 166.017L280.402 166.022L284.489 179.882ZM277.605 177.298L265.466 185.138L265.479 185.158L265.492 185.178L277.605 177.298ZM273.531 170.316L286.161 163.296L286.158 163.29L273.531 170.316ZM266.847 158.303L254.472 165.763L254.475 165.768L266.847 158.303ZM258.037 144.437L245.684 151.934L245.691 151.946L245.699 151.958L258.037 144.437ZM252.377 134.061L239.29 140.188L239.296 140.199L252.377 134.061ZM254.665 125.737L263.111 137.463L263.12 137.456L254.665 125.737ZM260.827 122.365L266.092 135.821L266.1 135.818L260.827 122.365ZM279.551 111.95L287.839 123.787L287.846 123.782L287.854 123.777L279.551 111.95ZM284.368 107.275L295.903 115.978L295.915 115.963L295.927 115.947L284.368 107.275ZM282.14 86.3865L291.877 75.7094L291.87 75.7028L282.14 86.3865ZM266.747 80.4493L266.381 94.8947L266.417 94.8956L266.453 94.8963L266.747 80.4493ZM255.027 80.7452L255.224 95.1938L255.234 95.1937L255.245 95.1935L255.027 80.7452ZM250.712 80.4493L254.112 66.4052L254.095 66.4009L254.077 66.3968L250.712 80.4493ZM246.738 75.8929L261.158 74.9676L261.157 74.9492L261.156 74.9309L246.738 75.8929ZM249.849 70.6855L256.364 83.5831L256.451 83.5395L256.537 83.4946L249.849 70.6855ZM251.896 69.936L248.931 55.7933L248.83 55.8146L248.728 55.8373L251.896 69.936ZM277.324 69.8374L273.352 83.7308L273.362 83.7337L277.324 69.8374ZM299.18 105.263L285.19 101.643L285.186 101.658L285.183 101.673L299.18 105.263ZM286.817 122.108L294.955 134.048L294.971 134.038L294.986 134.027L286.817 122.108ZM267.169 133.134L272.166 146.693L272.308 146.64L272.449 146.585L267.169 133.134ZM253.811 141.559C254.125 142.053 254.148 142.113 254.667 142.953C255.041 143.558 255.652 144.527 256.451 145.558L279.291 127.851C279.448 128.053 279.477 128.125 279.254 127.764C279.135 127.572 279.04 127.414 278.842 127.089C278.669 126.804 278.448 126.444 278.198 126.051L253.811 141.559ZM256.491 145.609C260.736 151.035 264.168 157.165 268.163 164.457L293.509 150.571C289.637 143.504 285.161 135.353 279.251 127.8L256.491 145.609ZM268.191 164.508C270.707 169.057 272.473 171.933 274.494 175.769L300.063 162.298C297.989 158.363 295.219 153.664 293.481 150.52L268.191 164.508ZM274.435 175.655C274.501 175.784 274.549 175.886 274.581 175.959C274.613 176.033 274.624 176.064 274.62 176.053C274.616 176.043 274.592 175.971 274.562 175.84C274.532 175.711 274.49 175.5 274.463 175.217L303.225 172.397C302.812 168.183 301.283 164.664 300.122 162.412L274.435 175.655ZM274.46 175.191C274.257 173.082 274.857 170.851 276.187 169.05C277.453 167.337 279.066 166.412 280.438 166.011L288.539 193.753C296.964 191.293 304.268 183.24 303.227 172.422L274.46 175.191ZM280.402 166.022C281.983 165.556 283.84 165.555 285.646 166.22C287.469 166.891 288.859 168.099 289.717 169.419L265.492 185.178C270.555 192.96 279.861 196.311 288.575 193.742L280.402 166.022ZM289.743 169.458C288.59 167.672 287.53 165.758 286.161 163.296L260.9 177.335C262.141 179.567 263.69 182.387 265.466 185.138L289.743 169.458ZM286.158 163.29C284.28 159.915 281.741 155.017 279.22 150.838L254.475 165.768C256.69 169.439 258.326 172.708 260.903 177.341L286.158 163.29ZM279.223 150.843C277.663 148.255 276.044 145.761 274.564 143.485C273.042 141.145 271.669 139.038 270.375 136.915L245.699 151.958C247.255 154.51 248.872 156.989 250.336 159.24C251.841 161.555 253.202 163.656 254.472 165.763L279.223 150.843ZM270.39 136.939C268.49 133.809 266.826 130.838 265.459 127.924L239.296 140.199C241.26 144.385 243.489 148.318 245.684 151.934L270.39 136.939ZM265.464 127.935C265.929 128.928 266.455 130.929 265.779 133.359C265.121 135.722 263.741 137.009 263.111 137.463L246.22 114.012C242.66 116.577 239.382 120.417 237.937 125.611C236.473 130.872 237.32 135.979 239.291 140.188L265.464 127.935ZM263.12 137.456C264.066 136.774 265.107 136.206 266.092 135.821L255.561 108.908C252.211 110.219 249.038 111.979 246.211 114.019L263.12 137.456ZM266.1 135.818C274.291 132.607 281.452 128.259 287.839 123.787L271.264 100.112C265.931 103.846 260.849 106.835 255.553 108.911L266.1 135.818ZM287.854 123.777C290.974 121.586 293.716 118.877 295.903 115.978L272.833 98.5716C272.371 99.1842 271.781 99.7495 271.249 100.123L287.854 123.777ZM295.927 115.947C305.614 103.035 303.172 86.0095 291.877 75.7094L272.404 97.0635C272.98 97.5892 273.04 97.9765 273.047 98.0438C273.053 98.0952 273.05 98.1385 273.035 98.1915C273.022 98.2397 272.977 98.3803 272.809 98.6036L295.927 115.947ZM291.87 75.7028C284.632 69.1117 275.965 66.1838 267.041 66.0023L266.453 94.8963C269.169 94.9515 270.898 95.6924 272.411 97.0701L291.87 75.7028ZM267.113 66.0039C263.133 65.9031 257.057 66.2628 254.808 66.2968L255.245 95.1935C260.823 95.1092 262.574 94.7982 266.381 94.8947L267.113 66.0039ZM254.829 66.2965C254.451 66.3017 254.197 66.3048 253.962 66.3044C253.738 66.3041 253.607 66.3002 253.534 66.2967C253.462 66.2933 253.485 66.292 253.576 66.3035C253.669 66.3152 253.856 66.343 254.112 66.4052L247.311 94.4934C250.778 95.333 254.135 95.2087 255.224 95.1938L254.829 66.2965ZM254.077 66.3968C255.632 66.769 257.423 67.6978 258.875 69.3989C260.318 71.0913 261.038 73.0992 261.158 74.9676L232.317 76.8182C232.874 85.4878 238.942 92.4891 247.346 94.5019L254.077 66.3968ZM261.156 74.9309C261.247 76.3043 260.984 78.3234 259.755 80.3334C258.581 82.2521 257.114 83.2044 256.364 83.5831L243.333 57.7879C240.436 59.2515 237.333 61.6042 235.101 65.2538C232.813 68.9947 232.068 73.075 232.32 76.8548L261.156 74.9309ZM256.537 83.4946C256.06 83.7433 255.579 83.9188 255.063 84.0346L248.728 55.8373C246.808 56.2688 244.921 56.9571 243.161 57.8764L256.537 83.4946ZM254.86 84.0786C262.33 82.513 268.261 82.2755 273.352 83.7308L281.295 55.9439C269.688 52.6258 258.4 53.8085 248.931 55.7933L254.86 84.0786ZM273.362 83.7337C283.375 86.5882 286.937 94.8932 285.19 101.643L313.169 108.883C319.048 86.1642 305.591 62.8701 281.285 55.941L273.362 83.7337ZM285.183 101.673C284.388 104.771 282.45 107.583 278.647 110.189L294.986 134.027C303.386 128.27 310.318 119.997 313.176 108.853L285.183 101.673ZM278.678 110.168C272.636 114.287 267.395 117.522 261.888 119.684L272.449 146.585C281.111 143.184 288.555 138.411 294.955 134.048L278.678 110.168ZM262.171 119.576C260.405 120.227 259.123 121.075 258.79 121.292C258.68 121.363 258.581 121.429 258.524 121.467C258.451 121.516 258.428 121.531 258.39 121.556C258.336 121.592 258.325 121.598 258.328 121.597L273.6 146.132C273.904 145.942 274.155 145.779 274.333 145.661C274.411 145.61 274.497 145.552 274.526 145.532C274.572 145.502 274.571 145.503 274.554 145.514C274.536 145.526 274.284 145.691 273.916 145.894C273.517 146.115 272.922 146.414 272.166 146.693L262.171 119.576Z" fill="#267DFF" mask="url(#path-6-outside-3_121_1337)"/>
<mask id="path-8-outside-4_121_1337" maskUnits="userSpaceOnUse" x="308.654" y="67.1335" width="75" height="123" fill="black">
<rect fill="white" x="308.654" y="67.1335" width="75" height="123"/>
<path d="M336.619 162.057C338.405 161.919 339.783 161.742 341.181 161.742C347.957 161.781 354.733 161.88 361.509 161.978C362.033 161.978 362.557 162.057 363.081 162.136C366.149 162.648 368.265 165.013 368.323 167.949C368.381 170.846 366.323 173.427 363.295 173.959C361.664 174.235 359.955 174.215 358.305 174.176C351.355 173.979 344.404 173.565 337.454 174.472C335.803 174.688 334.134 175.023 332.483 175.102C325.805 175.417 322.252 170.865 324.174 164.382C327.047 154.628 330.076 144.913 332.93 135.159C335.337 126.942 337.492 118.646 339.9 110.428C342.618 101.186 344.695 94.6243 347.549 85.4218C347.782 84.673 348.132 83.9045 348.637 83.3133C350.287 81.3821 353.141 81.8945 353.917 84.3183C354.286 85.4612 354.344 86.8209 354.112 88.0032C352.908 94.0332 352.481 97.4422 351.063 103.413C349.103 111.65 346.928 119.848 344.87 128.065C342.366 138.115 339.919 148.165 337.454 158.214C337.182 159.338 336.949 160.461 336.599 162.037"/>
</mask>
<path d="M341.181 161.742L341.265 147.292L341.223 147.292H341.181V161.742ZM361.509 161.978L361.298 176.427L361.403 176.428H361.509V161.978ZM363.081 162.136L365.462 147.883L365.346 147.864L365.23 147.847L363.081 162.136ZM368.323 167.949L353.876 168.236L353.876 168.24L368.323 167.949ZM363.295 173.959L365.705 188.207L365.75 188.199L365.795 188.191L363.295 173.959ZM358.305 174.176L357.896 188.62L357.928 188.621L357.96 188.622L358.305 174.176ZM337.454 174.472L335.585 160.143L335.572 160.145L337.454 174.472ZM332.483 175.102L333.165 189.536L333.173 189.536L332.483 175.102ZM324.174 164.382L338.028 168.49L338.031 168.478L338.035 168.465L324.174 164.382ZM332.93 135.159L319.063 131.096L319.061 131.101L332.93 135.159ZM339.9 110.428L326.037 106.351L326.035 106.358L326.033 106.366L339.9 110.428ZM347.549 85.4218L333.752 81.1289L333.748 81.1415L347.549 85.4218ZM348.637 83.3133L337.651 73.9258L337.648 73.9301L348.637 83.3133ZM353.917 84.3183L340.156 88.7273L340.161 88.742L340.166 88.7566L353.917 84.3183ZM354.112 88.0032L368.282 90.832L368.285 90.8144L368.289 90.7969L354.112 88.0032ZM351.063 103.413L365.121 106.76L365.123 106.75L351.063 103.413ZM344.87 128.065L330.853 124.554L330.851 124.562L330.849 124.571L344.87 128.065ZM337.454 158.214L323.42 154.771L323.414 154.794L323.409 154.816L337.454 158.214ZM337.731 176.464C340.484 176.252 340.518 176.192 341.181 176.192V147.292C339.049 147.292 336.326 147.587 335.506 147.65L337.731 176.464ZM341.097 176.191C347.799 176.23 354.512 176.328 361.298 176.427L361.719 147.53C354.953 147.431 348.115 147.332 341.265 147.292L341.097 176.191ZM361.509 176.428C361.061 176.428 360.753 176.395 360.676 176.386C360.633 176.382 360.624 176.38 360.671 176.387C360.725 176.394 360.79 176.404 360.933 176.425L365.23 147.847C364.895 147.796 363.296 147.528 361.509 147.528V176.428ZM360.701 176.388C359.168 176.132 357.462 175.325 356.089 173.799C354.699 172.254 353.916 170.255 353.876 168.236L382.77 167.662C382.564 157.276 374.885 149.457 365.462 147.883L360.701 176.388ZM353.876 168.24C353.79 163.979 356.837 160.422 360.795 159.727L365.795 188.191C375.81 186.432 382.972 177.712 382.77 167.659L353.876 168.24ZM360.885 159.712C360.922 159.705 360.788 159.73 360.382 159.742C359.96 159.755 359.451 159.749 358.65 159.73L357.96 188.622C359.531 188.659 362.533 188.743 365.705 188.207L360.885 159.712ZM358.715 159.732C352.431 159.554 343.978 159.048 335.585 160.143L339.322 188.8C344.831 188.082 350.278 188.404 357.896 188.62L358.715 159.732ZM335.572 160.145C332.558 160.54 332.691 160.626 331.794 160.669L333.173 189.536C335.577 189.421 339.048 188.836 339.335 188.799L335.572 160.145ZM331.802 160.668C331.803 160.668 332.396 160.639 333.34 161.007C334.335 161.394 335.529 162.158 336.515 163.428C338.655 166.183 337.99 168.617 338.028 168.49L310.32 160.275C308.436 166.631 308.586 174.582 313.692 181.156C318.815 187.751 326.511 189.85 333.165 189.536L331.802 160.668ZM338.035 168.465C340.659 159.557 344.102 148.433 346.799 139.217L319.061 131.101C316.05 141.393 313.435 149.699 310.313 160.299L338.035 168.465ZM346.797 139.222C348.037 134.988 349.207 130.752 350.343 126.642C351.489 122.495 352.6 118.475 353.767 114.491L326.033 106.366C324.792 110.599 323.622 114.835 322.487 118.945C321.341 123.092 320.23 127.112 319.063 131.096L346.797 139.222ZM353.763 114.505C356.442 105.395 358.475 98.9764 361.351 89.702L333.748 81.1415C330.916 90.2723 328.794 96.9777 326.037 106.351L353.763 114.505ZM361.347 89.7146C361.278 89.9376 361.149 90.303 360.919 90.7641C360.694 91.2149 360.293 91.915 359.626 92.6965L337.648 73.9301C335.4 76.5627 334.303 79.3583 333.752 81.1289L361.347 89.7146ZM359.622 92.7008C357.212 95.5203 353.2 97.1794 348.955 96.3877C344.633 95.5814 341.353 92.4616 340.156 88.7273L367.678 79.9092C365.705 73.7512 360.61 69.1632 354.254 67.9777C347.976 66.8066 341.711 69.1751 337.651 73.9258L359.622 92.7008ZM340.166 88.7566C339.917 87.985 339.832 87.3454 339.808 86.8679C339.784 86.3848 339.811 85.8369 339.934 85.2096L368.289 90.7969C368.962 87.3823 368.845 83.5228 367.669 79.8799L340.166 88.7566ZM339.941 85.1745C338.539 92.1989 338.367 94.3343 337.004 100.076L365.123 106.75C366.594 100.55 367.277 95.8674 368.282 90.832L339.941 85.1745ZM337.006 100.067C335.065 108.22 332.983 116.051 330.853 124.554L358.887 131.575C360.874 123.644 363.14 115.08 365.121 106.76L337.006 100.067ZM330.849 124.571C328.336 134.655 325.877 144.755 323.42 154.771L351.487 161.658C353.961 151.574 356.395 141.575 358.891 131.559L330.849 124.571ZM323.409 154.816C323.094 156.116 322.786 157.585 322.492 158.91L350.707 165.165C351.112 163.337 351.269 162.559 351.498 161.613L323.409 154.816Z" fill="#267DFF" mask="url(#path-8-outside-4_121_1337)"/>
<mask id="path-10-outside-5_121_1337" maskUnits="userSpaceOnUse" x="281.356" y="52.0549" width="67" height="138" fill="black">
<rect fill="white" x="281.356" y="52.0549" width="67" height="138"/>
<path d="M333.09 69.8881C333.646 71.2768 333.686 72.8044 333.428 74.2526C332.473 79.3908 331.698 84.5885 330.366 89.6275C326.232 105.28 321.74 120.853 317.506 136.486C314.683 146.901 311.701 156.225 308.998 166.7C308.68 167.91 308.62 169.2 308.282 170.41C307.368 173.664 304.784 175.429 301.623 175.072C298.701 174.735 296.356 172.275 296.356 169.041C296.356 168.605 296.455 168.168 296.575 167.752C302.757 147.655 309.078 127.598 315.319 107.502C318.996 95.6385 322.952 83.8544 325.099 71.5942C325.636 68.5788 327.484 66.7734 329.79 67.0909C331.34 67.3091 332.434 68.301 333.09 69.9079"/>
</mask>
<path d="M333.428 74.2526L347.635 76.8907L347.644 76.8408L347.653 76.7908L333.428 74.2526ZM330.366 89.6275L316.396 85.9351L316.396 85.9372L330.366 89.6275ZM317.506 136.486L331.453 140.266L331.453 140.264L317.506 136.486ZM308.998 166.7L322.974 170.373L322.982 170.342L322.99 170.311L308.998 166.7ZM308.282 170.41L322.194 174.32L322.197 174.308L322.2 174.296L308.282 170.41ZM301.623 175.072L299.967 189.427L299.984 189.429L300.001 189.431L301.623 175.072ZM296.575 167.752L282.763 163.503L282.722 163.639L282.683 163.775L296.575 167.752ZM315.319 107.502L329.119 111.788L329.121 111.78L315.319 107.502ZM325.099 71.5942L310.872 69.0622L310.869 69.082L310.865 69.1019L325.099 71.5942ZM329.79 67.0909L331.804 52.7819L331.782 52.7788L331.761 52.7759L329.79 67.0909ZM319.677 75.2638C318.961 73.4779 319.129 72.1223 319.202 71.7143L347.653 76.7908C348.243 73.4864 348.331 69.0757 346.503 64.5124L319.677 75.2638ZM319.22 71.6144C318.14 77.4327 317.544 81.5929 316.396 85.9351L344.337 93.3198C345.853 87.5841 346.807 81.3489 347.635 76.8907L319.22 71.6144ZM316.396 85.9372C312.242 101.662 307.91 116.641 303.558 132.709L331.453 140.264C335.569 125.065 340.222 108.898 344.337 93.3178L316.396 85.9372ZM303.559 132.706C301.087 141.828 297.608 153.01 295.007 163.089L322.99 170.311C325.795 159.441 328.279 151.975 331.453 140.266L303.559 132.706ZM295.023 163.027C294.814 163.821 294.674 164.529 294.577 165.069C294.484 165.584 294.408 166.086 294.368 166.341C294.257 167.058 294.27 166.864 294.365 166.524L322.2 174.296C322.633 172.745 322.844 171.302 322.927 170.769C323.053 169.958 323.041 170.117 322.974 170.373L295.023 163.027ZM294.371 166.5C294.702 165.326 295.605 163.581 297.545 162.232C299.515 160.862 301.651 160.533 303.246 160.713L300.001 189.431C304.756 189.968 309.765 188.935 314.045 185.958C318.296 183.002 320.949 178.748 322.194 174.32L294.371 166.5ZM303.28 160.717C307.572 161.213 310.806 164.858 310.806 169.041H281.906C281.906 179.692 289.831 188.257 299.967 189.427L303.28 160.717ZM310.806 169.041C310.806 169.906 310.709 170.588 310.631 171.008C310.555 171.421 310.476 171.696 310.467 171.729L282.683 163.775C282.457 164.562 281.906 166.554 281.906 169.041H310.806ZM310.386 172C316.564 151.915 322.849 131.975 329.119 111.788L301.519 103.216C295.306 123.222 288.949 143.395 282.763 163.503L310.386 172ZM329.121 111.78C332.647 100.405 336.985 87.4949 339.332 74.0865L310.865 69.1019C308.92 80.214 305.346 90.8716 301.517 103.224L329.121 111.78ZM339.325 74.1262C339.206 74.7952 338.721 76.6518 336.813 78.4925C334.628 80.601 331.306 81.8858 327.819 81.4059L331.761 52.7759C325.968 51.9785 320.569 54.0072 316.749 57.6929C313.206 61.1108 311.528 65.3778 310.872 69.0622L339.325 74.1262ZM327.776 81.3998C325.88 81.1329 323.931 80.3025 322.309 78.8962C320.784 77.5741 320.041 76.1763 319.711 75.3691L346.468 64.4468C344.332 59.2139 339.555 53.8728 331.804 52.7819L327.776 81.3998Z" fill="#267DFF" mask="url(#path-10-outside-5_121_1337)"/>
<mask id="path-12-outside-6_121_1337" maskUnits="userSpaceOnUse" x="103.917" y="69.6465" width="78" height="119" fill="black">
<rect fill="white" x="103.917" y="69.6465" width="78" height="119"/>
<path d="M162.578 84.6662C165.313 84.6662 167.458 86.8727 167.301 89.6111C167.242 90.734 166.888 91.8964 166.435 92.9405C165.392 95.4031 164.29 97.846 163.05 100.23C152.049 121.191 142.367 142.783 132.98 164.493C132.351 165.971 131.701 167.448 130.973 168.867C130.481 169.812 129.93 170.758 129.261 171.566C127.431 173.753 124.617 174.422 122.275 173.378C119.933 172.334 118.536 169.753 119.008 166.936C119.264 165.459 119.736 163.981 120.366 162.622C127.234 148.181 134.181 133.8 141.029 119.359C145.791 109.351 151.125 99.6584 156.753 90.1233C157.442 88.961 158.13 87.8183 158.918 86.7348C159.862 85.4346 161.161 84.7253 162.598 84.6465"/>
</mask>
<path d="M167.301 89.6111L152.875 88.7817L152.873 88.8171L152.871 88.8525L167.301 89.6111ZM166.435 92.9405L153.177 87.1933L153.153 87.2491L153.129 87.305L166.435 92.9405ZM163.05 100.23L175.845 106.945L175.858 106.921L175.87 106.897L163.05 100.23ZM132.98 164.493L119.717 158.758L119.702 158.793L119.687 158.828L132.98 164.493ZM130.973 168.867L143.792 175.536L143.81 175.501L143.828 175.466L130.973 168.867ZM129.261 171.566L140.342 180.84L140.365 180.812L140.389 180.784L129.261 171.566ZM119.008 166.936L104.77 164.471L104.763 164.509L104.757 164.547L119.008 166.936ZM120.366 162.622L107.317 156.415L107.285 156.481L107.254 156.548L120.366 162.622ZM141.029 119.359L127.981 113.15L127.977 113.159L127.973 113.167L141.029 119.359ZM156.753 90.1233L144.322 82.7568L144.315 82.7674L144.309 82.7781L156.753 90.1233ZM158.918 86.7348L170.608 95.2279V95.2279L158.918 86.7348ZM162.578 99.1162C157.247 99.1162 152.542 94.5737 152.875 88.7817L181.727 90.4405C182.375 79.1717 173.38 70.2162 162.578 70.2162V99.1162ZM152.871 88.8525C152.906 88.1876 153.013 87.729 153.071 87.5175C153.103 87.4007 153.13 87.3182 153.147 87.2707C153.165 87.2226 153.176 87.1971 153.177 87.1933L179.693 98.6877C180.537 96.7417 181.55 93.8211 181.731 90.3698L152.871 88.8525ZM153.129 87.305C152.167 89.5763 151.23 91.6405 150.23 93.5622L175.87 106.897C177.35 104.051 178.617 101.23 179.741 98.576L153.129 87.305ZM150.255 93.5148C138.995 114.97 129.14 136.964 119.717 158.758L146.244 170.228C155.594 148.602 165.104 127.412 175.845 106.945L150.255 93.5148ZM119.687 158.828C119.083 160.246 118.599 161.33 118.118 162.268L143.828 175.466C144.803 173.566 145.618 171.696 146.273 170.159L119.687 158.828ZM118.154 162.198C118.085 162.331 118.03 162.432 117.987 162.509C117.944 162.586 117.918 162.629 117.907 162.645C117.897 162.662 117.909 162.642 117.943 162.594C117.977 162.546 118.039 162.461 118.133 162.348L140.389 180.784C142.029 178.803 143.135 176.799 143.792 175.536L118.154 162.198ZM118.18 162.292C120.166 159.918 124.152 158.394 128.159 160.181L116.39 186.576C125.081 190.451 134.695 187.587 140.342 180.84L118.18 162.292ZM128.159 160.181C132.175 161.971 133.812 166.025 133.259 169.325L104.757 164.547C103.259 173.482 107.691 182.697 116.39 186.576L128.159 160.181ZM133.246 169.401C133.275 169.236 133.351 168.968 133.477 168.696L107.254 156.548C106.121 158.994 105.253 161.682 104.77 164.471L133.246 169.401ZM133.415 168.828C140.177 154.61 147.288 139.884 154.085 125.551L127.973 113.167C121.073 127.716 114.29 141.752 107.317 156.415L133.415 168.828ZM154.077 125.568C158.601 116.062 163.711 106.762 169.197 97.4686L144.309 82.7781C138.538 92.5546 132.982 102.64 127.981 113.15L154.077 125.568ZM169.184 97.4898C169.877 96.3208 170.261 95.7059 170.608 95.2279L147.227 78.2418C146 79.9308 145.006 81.6012 144.322 82.7568L169.184 97.4898ZM170.608 95.2279C169.166 97.2129 166.572 98.9003 163.389 99.0749L161.806 70.2182C155.75 70.5504 150.558 73.6562 147.227 78.2418L170.608 95.2279Z" fill="#267DFF" mask="url(#path-12-outside-6_121_1337)"/>
<path d="M242.724 95.6606L242.726 95.6549C243.859 92.6356 244.962 89.585 246.078 86.4963C246.228 86.0821 246.378 85.6672 246.528 85.2516L246.536 85.2305L246.543 85.2108C246.543 85.2108 246.55 85.1927 246.565 85.1474C246.583 85.0934 246.603 85.0323 246.635 84.9365L246.642 84.9139L246.65 84.8915C247.376 82.7239 248.627 80.3682 250.777 78.5997C253.11 76.6809 256.073 75.8287 259.131 76.286L259.139 76.2871L259.146 76.2882C265.856 77.3056 269.527 83.5151 268.724 89.7035L268.72 89.7293L268.717 89.755C268.246 93.1931 267.577 97.1478 266.225 101.003L242.724 95.6606ZM242.724 95.6606C241.972 97.6696 241.12 99.8101 240.236 102.03M242.724 95.6606L240.236 102.03M251.458 154.889L251.457 154.897C250.889 157.37 250.195 159.765 249.558 161.95L249.491 162.18C248.862 164.335 248.294 166.284 247.827 168.238L247.825 168.244L240.8 166.557C247.825 168.244 247.825 168.246 247.824 168.247L247.824 168.25L247.822 168.256L247.819 168.267L247.813 168.293L247.799 168.351C247.788 168.393 247.775 168.442 247.761 168.497C247.731 168.608 247.693 168.746 247.645 168.909C247.549 169.236 247.415 169.668 247.23 170.202C246.86 171.27 246.291 172.747 245.437 174.617L245.429 174.635L245.421 174.653C244.608 176.41 243.499 178.714 240.985 180.395C237.054 183.025 232.749 182.274 232.102 182.161C232.085 182.158 232.071 182.156 232.059 182.154C225.887 181.238 222.097 176.453 221.12 170.852L251.458 154.889ZM251.458 154.889C255.654 136.503 260.104 118.477 266.224 101.006L251.458 154.889ZM221.241 164.49C220.891 166.308 220.712 168.51 221.12 170.851L221.241 164.49ZM221.241 164.49C221.63 162.462 221.916 161.479 222.369 159.925C222.488 159.514 222.62 159.064 222.767 158.544C223.39 156.337 224.012 154.125 224.635 151.91C227.947 140.133 231.287 128.257 234.922 116.472L221.241 164.49ZM240.236 102.03C238.393 106.658 236.413 111.63 234.923 116.469L240.236 102.03Z" stroke="#267DFF" stroke-width="14.45"/>
<path d="M177.681 59.9309L184.806 59.8327C186.676 59.8069 189.07 59.9447 191.501 60.7184C193.956 61.4903 196.22 62.9321 197.902 65.1349C199.57 67.3193 200.354 69.8433 200.55 72.3095L200.551 72.3208L200.552 72.3322C200.97 77.8006 198.014 83.2776 192.378 85.4788L192.36 85.4859L192.342 85.4929C190.054 86.3722 187.528 86.8876 185.047 86.9495L185.035 86.9498C179.549 87.0777 173.956 87.1541 168.405 87.2299C164.28 87.2862 160.178 87.3422 156.162 87.4188L177.681 59.9309ZM177.681 59.9309V60.0816M177.681 59.9309V60.0816M177.681 60.0816L130.985 61.5875L130.891 61.5905L130.798 61.5959C129.15 61.6918 127.23 61.8951 125.256 62.397L177.681 60.0816ZM134.52 87.9881L134.506 87.9884C134.162 87.9968 133.759 88.011 133.319 88.0265C132.102 88.0693 130.595 88.1224 129.213 88.0921C127.516 88.0805 125.907 87.7686 124.51 87.3169C119.019 85.555 115.414 80.6689 115.414 74.9399C115.414 68.9868 119.467 63.8686 125.255 62.3973L134.52 87.9881ZM134.52 87.9881L134.533 87.9877M134.52 87.9881L134.533 87.9877M134.533 87.9877C136.014 87.946 137.491 87.9036 138.964 87.8612M134.533 87.9877L138.964 87.8612M138.964 87.8612C144.719 87.6959 150.429 87.5318 156.157 87.4189L138.964 87.8612Z" stroke="#267DFF" stroke-width="14.45"/>
<path d="M395.601 62.4111C400.305 64.4869 403.325 69.113 402.788 74.5747C402.186 80.8527 397.06 84.8372 391.686 85.4833L395.601 62.4111ZM395.601 62.4111V60.9684L388.259 61.0874L354.012 61.6425C354.01 61.6424 354.008 61.6424 354.005 61.6424C353.8 61.6388 352.847 61.6223 352.08 61.6873L352.006 61.6936L351.933 61.7013C347.422 62.1769 342.35 65.1239 341.382 71.0855L341.382 71.0855L341.38 71.0967C340.374 77.3489 344.836 82.0592 349.538 83.5604L349.565 83.5688L349.591 83.577C351.129 84.0552 352.753 84.3645 354.391 84.4785C357.271 84.6835 360.285 84.8786 363.335 84.9574C369.013 85.1189 374.699 85.2477 380.364 85.376C383.162 85.4393 385.956 85.5026 388.74 85.5696C388.767 85.5704 388.796 85.5713 388.827 85.5723C389.401 85.5898 390.516 85.6239 391.684 85.4835L395.601 62.4111Z" stroke="#267DFF" stroke-width="14.45"/>
<path d="M355.413 143.278L355.371 143.274C353.63 143.12 351.291 142.78 348.997 141.834L348.981 141.828L348.965 141.821C346.729 140.887 344.611 139.343 343.132 137.035C341.64 134.707 341.113 132.091 341.274 129.572L341.275 129.563L341.275 129.554C341.443 127.029 342.32 124.585 344.021 122.543C345.673 120.56 347.778 119.34 349.839 118.629C351.697 117.98 353.633 117.699 355.368 117.67C355.369 117.67 355.37 117.67 355.372 117.67L355.413 143.278ZM355.413 143.278L355.456 143.281M355.413 143.278L355.456 143.281M355.456 143.281C357.145 143.411 359.072 143.378 360.497 143.354M355.456 143.281L360.497 143.354M360.497 143.354C360.967 143.346 361.383 143.338 361.717 143.338M360.497 143.354L361.717 143.338M361.717 143.338C362.178 143.338 362.737 143.348 363.358 143.359C365.003 143.388 367.08 143.424 368.911 143.306C375.358 142.908 381.754 138.223 381.754 130.54C381.754 122.846 375.377 118.345 369.267 117.729L361.717 143.338Z" stroke="#267DFF" stroke-width="14.45"/>
</g>
<defs>
<filter id="filter0_f_121_1337" x="0.356973" y="0.10563" width="477.843" height="264.579" filterUnits="userSpaceOnUse" color-interpolation-filters="sRGB">
<feFlood flood-opacity="0" result="BackgroundImageFix"/>
<feBlend mode="normal" in="SourceGraphic" in2="BackgroundImageFix" result="shape"/>
<feGaussianBlur stdDeviation="6.145" result="effect1_foregroundBlur_121_1337"/>
</filter>
</defs>
</svg>
