<svg width="535" height="322" viewBox="0 0 535 322" fill="none" xmlns="http://www.w3.org/2000/svg">
<g style="mix-blend-mode:hard-light" filter="url(#filter0_f_121_1325)">
<mask id="path-1-outside-1_121_1325" maskUnits="userSpaceOnUse" x="230.665" y="79.3114" width="267" height="206" fill="black">
<rect fill="white" x="230.665" y="79.3114" width="267" height="206"/>
<path d="M372.734 266.936C343.511 267.234 316.337 259.531 290.601 245.972C278.443 239.58 266.876 232.235 255.959 223.857C254.244 222.547 252.609 221.137 251.072 219.648C249.535 218.179 248.609 216.333 248.668 214.11C248.766 210.258 252.333 207.578 255.939 208.849C257.496 209.405 258.954 210.397 260.274 211.45C279.665 226.895 300.888 239.004 324.377 246.925C342.762 253.139 361.699 255.045 380.991 254.112C391.1 253.616 401.15 252.563 410.983 250.102C420.816 247.64 430.353 244.404 439.26 239.421C446.374 235.431 451.97 229.833 456.601 223.202C457.823 221.435 458.769 219.47 459.754 217.564C463.38 210.497 462.848 203.509 459.281 196.58C456.562 191.319 453.862 187.746 450.394 183.756C440.147 172.003 440.265 172.817 435.792 167.417C434.097 165.373 426.274 155.824 420.934 144.21C420.264 142.741 419.515 141.014 418.904 138.711C417.564 133.649 417.604 128.428 418.707 123.107C419.417 119.613 420.776 116.358 423.181 113.697C430.531 105.578 439.221 99.6421 450.217 97.776C458.276 96.4062 465.705 98.0539 472.346 102.878C478.455 107.305 480.721 113.598 478.79 120.924C478.238 122.988 477.391 125.013 476.464 126.939C475.932 128.051 475.105 129.083 474.218 129.917C472.011 132.001 468.858 132.2 466.572 130.592C464.247 128.964 463.459 126.006 464.621 123.127C465.134 121.876 465.863 120.725 466.355 119.474C467.814 115.822 467.183 114.094 463.794 112.07C462.473 111.275 461.114 110.7 459.754 110.323C455.852 109.251 451.714 110.045 449.034 110.759C446.177 111.514 440.147 113.102 435.201 118.621C433.211 120.844 430.393 123.981 429.959 128.666C429.526 133.351 431.634 137.857 432.245 139.227C432.462 139.684 432.994 140.796 433.723 142.126C434.846 144.19 435.812 145.659 436.285 146.374C440.719 153.124 440.462 153.164 442.886 156.519C444.837 159.238 446.098 160.985 448.148 163.248C449.724 164.956 450.355 165.452 452.68 167.814C453.98 169.145 455.636 170.911 457.902 173.552C463.873 180.421 467.065 185.066 469.489 189.414C472.05 194.039 473.725 198.943 474.435 204.184C475.164 209.603 474.198 214.785 472.208 219.807C467.636 231.401 459.833 240.374 449.783 247.422C442.078 252.841 433.388 256.216 424.54 259.154C411.633 263.442 398.332 265.606 384.794 266.321C380.774 266.539 376.754 266.718 372.734 266.917"/>
</mask>
<path d="M290.601 245.972L298.987 230.056L298.98 230.053L298.973 230.049L290.601 245.972ZM255.959 223.857L266.911 209.585L266.897 209.574L266.883 209.564L255.959 223.857ZM251.072 219.648L263.589 206.727L263.545 206.685L263.502 206.643L251.072 219.648ZM248.668 214.11L266.651 214.588L266.652 214.579L266.652 214.57L248.668 214.11ZM255.939 208.849L261.989 191.907L261.953 191.894L261.917 191.881L255.939 208.849ZM260.274 211.45L249.062 225.518L249.066 225.521L260.274 211.45ZM324.377 246.925L330.137 229.882L330.125 229.879L324.377 246.925ZM380.991 254.112L381.86 272.081L381.873 272.08L380.991 254.112ZM439.26 239.421L448.044 255.121L448.052 255.116L448.061 255.111L439.26 239.421ZM456.601 223.202L471.35 233.503L471.374 233.468L471.398 233.434L456.601 223.202ZM459.754 217.564L475.735 225.826L475.748 225.801L475.761 225.776L459.754 217.564ZM459.281 196.58L475.276 188.346L475.269 188.333L475.262 188.319L459.281 196.58ZM450.394 183.756L463.972 171.954L463.963 171.944L463.954 171.933L450.394 183.756ZM435.792 167.417L449.646 155.941L449.643 155.938L435.792 167.417ZM420.934 144.21L404.566 151.675L404.578 151.701L404.589 151.726L420.934 144.21ZM418.904 138.711L401.513 143.315L401.516 143.324L418.904 138.711ZM418.707 123.107L436.322 126.761L436.33 126.724L436.338 126.687L418.707 123.107ZM423.181 113.697L409.844 101.624L409.838 101.63L409.833 101.635L423.181 113.697ZM450.217 97.776L453.227 115.512L453.231 115.512L450.217 97.776ZM472.346 102.878L461.773 117.433L461.781 117.439L461.789 117.445L472.346 102.878ZM478.79 120.924L496.17 125.568L496.178 125.539L496.185 125.509L478.79 120.924ZM476.464 126.939L460.252 119.141L460.245 119.157L460.237 119.173L476.464 126.939ZM474.218 129.917L461.895 116.81L461.88 116.824L461.865 116.838L474.218 129.917ZM466.572 130.592L476.923 115.878L476.906 115.866L476.89 115.854L466.572 130.592ZM464.621 123.127L447.974 116.308L447.957 116.349L447.941 116.39L464.621 123.127ZM466.355 119.474L449.648 112.805L449.632 112.843L449.617 112.881L466.355 119.474ZM463.794 112.07L454.521 127.486L454.544 127.5L454.567 127.513L463.794 112.07ZM459.754 110.323L464.563 92.9872L464.542 92.9813L464.52 92.9754L459.754 110.323ZM449.034 110.759L453.627 128.153L453.648 128.148L453.67 128.142L449.034 110.759ZM435.201 118.621L421.804 106.614L421.797 106.622L435.201 118.621ZM432.245 139.227L415.815 146.554L415.902 146.75L415.993 146.942L432.245 139.227ZM433.723 142.126L449.526 133.529L449.512 133.503L449.498 133.478L433.723 142.126ZM436.285 146.374L451.321 136.497L451.304 136.472L451.287 136.446L436.285 146.374ZM442.886 156.519L457.504 146.033L457.487 146.008L457.469 145.984L442.886 156.519ZM448.148 163.248L434.812 175.324L434.871 175.389L434.93 175.453L448.148 163.248ZM452.68 167.814L465.543 155.237L465.522 155.216L465.501 155.195L452.68 167.814ZM457.902 173.552L444.25 185.268L444.287 185.311L444.324 185.354L457.902 173.552ZM469.489 189.414L485.226 180.698L485.214 180.676L485.202 180.654L469.489 189.414ZM474.435 204.184L492.264 201.785L492.263 201.778L492.262 201.771L474.435 204.184ZM472.208 219.807L455.483 213.18L455.478 213.194L455.472 213.208L472.208 219.807ZM449.783 247.422L439.454 232.692L439.443 232.7L439.433 232.707L449.783 247.422ZM424.54 259.154L418.871 242.081L418.868 242.082L424.54 259.154ZM384.794 266.321L383.846 248.356L383.832 248.357L383.818 248.357L384.794 266.321ZM372.551 248.947C346.767 249.21 322.517 242.453 298.987 230.056L282.216 261.889C310.157 276.61 340.255 285.258 372.917 284.925L372.551 248.947ZM298.973 230.049C287.683 224.113 276.984 217.315 266.911 209.585L245.007 238.129C256.768 247.155 269.203 255.047 282.229 261.896L298.973 230.049ZM266.883 209.564C265.726 208.679 264.622 207.728 263.589 206.727L238.555 232.57C240.595 234.547 242.763 236.414 245.035 238.151L266.883 209.564ZM263.502 206.643C264.148 207.261 265.001 208.281 265.671 209.767C266.366 211.307 266.694 212.98 266.651 214.588L230.684 213.632C230.468 221.763 234.081 228.295 238.642 232.654L263.502 206.643ZM266.652 214.57C266.469 221.731 258.982 228.995 249.961 225.817L261.917 191.881C245.684 186.162 231.064 198.786 230.684 213.65L266.652 214.57ZM249.89 225.791C249.523 225.66 249.244 225.533 249.058 225.44C248.872 225.348 248.756 225.278 248.713 225.251C248.648 225.211 248.747 225.267 249.062 225.518L271.486 197.381C269.641 195.91 266.341 193.461 261.989 191.907L249.89 225.791ZM249.066 225.521C269.898 242.114 292.94 255.31 318.628 263.972L330.125 229.879C308.835 222.699 289.431 211.675 271.483 197.378L249.066 225.521ZM318.617 263.968C339.552 271.044 360.807 273.099 381.86 272.081L380.122 236.143C362.591 236.991 345.972 235.234 330.137 229.882L318.617 263.968ZM381.873 272.08C392.587 271.554 403.93 270.413 415.352 267.553L406.614 232.65C398.37 234.714 389.613 235.677 380.109 236.143L381.873 272.08ZM415.352 267.553C426.084 264.866 437.27 261.149 448.044 255.121L430.477 223.721C423.437 227.66 415.548 230.414 406.614 232.65L415.352 267.553ZM448.061 255.111C458.03 249.519 465.527 241.841 471.35 233.503L441.852 212.901C438.414 217.825 434.718 221.342 430.459 223.731L448.061 255.111ZM471.398 233.434C473.461 230.45 475.1 227.054 475.735 225.826L443.773 209.302C442.438 211.885 442.185 212.42 441.804 212.97L471.398 233.434ZM475.761 225.776C482.454 212.73 481.049 199.561 475.276 188.346L443.286 204.814C444.111 206.416 444.224 207.315 444.236 207.666C444.245 207.917 444.238 208.396 443.748 209.352L475.761 225.776ZM475.262 188.319C471.693 181.414 468.057 176.654 463.972 171.954L436.816 195.557C439.667 198.838 441.431 201.225 443.3 204.841L475.262 188.319ZM463.954 171.933C458.688 165.894 456.02 163.009 454.082 160.932C452.314 159.037 451.527 158.212 449.646 155.941L421.938 178.894C424.53 182.023 425.92 183.49 427.774 185.477C429.457 187.28 431.853 189.865 436.834 195.578L463.954 171.933ZM449.643 155.938C448.154 154.141 441.593 146.077 437.279 136.694L404.589 151.726C410.955 165.57 420.041 176.604 421.941 178.897L449.643 155.938ZM437.302 136.745C436.785 135.611 436.52 134.953 436.293 134.098L401.516 143.324C402.511 147.075 403.743 149.871 404.566 151.675L437.302 136.745ZM436.295 134.108C435.788 132.19 435.684 129.84 436.322 126.761L401.092 119.454C399.524 127.015 399.341 135.108 401.513 143.315L436.295 134.108ZM436.338 126.687C436.466 126.055 436.597 125.728 436.649 125.615C436.691 125.523 436.662 125.61 436.528 125.76L409.833 101.635C404.706 107.309 402.238 113.809 401.077 119.528L436.338 126.687ZM436.518 125.771C442.022 119.69 447.317 116.515 453.227 115.512L447.207 80.0396C431.125 82.7688 419.04 91.4654 409.844 101.624L436.518 125.771ZM453.231 115.512C456.658 114.929 459.163 115.537 461.773 117.433L482.919 88.323C472.248 80.5709 459.894 77.8832 447.202 80.0403L453.231 115.512ZM461.789 117.445C462.104 117.673 462.142 117.759 462.049 117.641C461.946 117.51 461.778 117.248 461.645 116.875C461.511 116.502 461.474 116.192 461.471 116.023C461.467 115.87 461.494 115.96 461.394 116.338L496.185 125.509C497.935 118.872 498.009 111.706 495.521 104.752C493.034 97.8021 488.436 92.3213 482.903 88.311L461.789 117.445ZM461.41 116.279C461.264 116.822 460.937 117.718 460.252 119.141L492.677 134.736C493.844 132.308 495.211 129.154 496.17 125.568L461.41 116.279ZM460.237 119.173C460.591 118.433 460.948 117.912 461.197 117.587C461.451 117.255 461.688 117.005 461.895 116.81L486.541 143.023C488.619 141.069 490.975 138.293 492.692 134.705L460.237 119.173ZM461.865 116.838C465.676 113.239 471.992 112.409 476.923 115.878L456.221 145.306C465.724 151.99 478.346 150.763 486.571 142.995L461.865 116.838ZM476.89 115.854C479.25 117.507 480.958 119.978 481.688 122.756C482.405 125.483 482.06 127.989 481.302 129.864L447.941 116.39C444.005 126.135 446.303 138.362 456.255 145.329L476.89 115.854ZM481.269 129.947C481.18 130.164 481.111 130.276 481.504 129.509C481.77 128.991 482.475 127.638 483.094 126.068L449.617 112.881C449.743 112.562 449.838 112.41 449.487 113.093C449.265 113.527 448.576 114.839 447.974 116.308L481.269 129.947ZM483.063 126.144C484.219 123.25 486.491 116.71 483.875 109.225C481.299 101.858 475.56 98.1429 473.02 96.6258L454.567 127.513C455.417 128.021 451.688 126.182 449.91 121.098C448.092 115.896 449.95 112.046 449.648 112.805L483.063 126.144ZM473.066 96.6531C470.356 95.0231 467.495 93.8006 464.563 92.9872L454.945 127.658C454.732 127.599 454.591 127.528 454.521 127.486L473.066 96.6531ZM464.52 92.9754C455.805 90.5809 447.757 92.4812 444.399 93.3767L453.67 128.142C454.031 128.045 454.365 127.967 454.676 127.907C454.99 127.847 455.238 127.815 455.421 127.799C455.607 127.784 455.667 127.792 455.615 127.788C455.562 127.785 455.338 127.766 454.988 127.67L464.52 92.9754ZM444.442 93.3653C441.171 94.2289 430.54 96.8659 421.804 106.614L448.598 130.627C449.754 129.338 451.183 128.798 453.627 128.153L444.442 93.3653ZM421.797 106.622C420.026 108.6 413.087 115.752 412.046 127.008L447.873 130.324C447.831 130.773 447.729 131.19 447.604 131.537C447.484 131.869 447.37 132.064 447.345 132.105C447.325 132.136 447.377 132.046 447.582 131.794C447.683 131.669 447.809 131.519 447.98 131.323C448.159 131.118 448.343 130.912 448.605 130.619L421.797 106.622ZM412.046 127.008C411.117 137.045 415.436 145.705 415.815 146.554L448.675 131.9C448.333 131.132 448.142 130.706 447.981 130.153C447.908 129.901 447.885 129.761 447.881 129.735C447.877 129.705 447.91 129.916 447.873 130.324L412.046 127.008ZM415.993 146.942C416.27 147.525 416.974 148.996 417.948 150.773L449.498 133.478C449.014 132.595 448.654 131.843 448.497 131.512L415.993 146.942ZM417.92 150.723C419.404 153.451 420.694 155.413 421.282 156.302L451.287 136.446C450.93 135.906 450.288 134.93 449.526 133.529L417.92 150.723ZM421.249 156.251C423.341 159.437 424.291 160.982 425.07 162.233C426.014 163.748 426.788 164.956 428.303 167.054L457.469 145.984C456.561 144.727 456.25 144.237 455.608 143.206C454.801 141.91 453.662 140.061 451.321 136.497L421.249 156.251ZM428.268 167.004C430.225 169.732 432.008 172.226 434.812 175.324L461.483 151.173C460.189 149.744 459.449 148.745 457.504 146.033L428.268 167.004ZM434.93 175.453C435.994 176.605 436.774 177.383 437.538 178.131C438.232 178.812 438.835 179.394 439.859 180.434L465.501 155.195C464.199 153.872 463.324 153.025 462.728 152.44C462.201 151.923 461.877 151.599 461.365 151.044L434.93 175.453ZM439.817 180.392C440.847 181.445 442.239 182.925 444.25 185.268L471.553 161.835C469.032 158.897 467.113 156.844 465.543 155.237L439.817 180.392ZM444.324 185.354C449.688 191.524 452.094 195.157 453.776 198.174L485.202 180.654C482.036 174.975 478.057 169.317 471.479 161.749L444.324 185.354ZM453.751 198.129C455.285 200.899 456.212 203.675 456.607 206.597L492.262 201.771C491.239 194.21 488.816 187.179 485.226 180.698L453.751 198.129ZM456.605 206.582C456.829 208.243 456.633 210.278 455.483 213.18L488.933 226.435C491.764 219.291 493.499 210.963 492.264 201.785L456.605 206.582ZM455.472 213.208C452.398 221.005 447.11 227.324 439.454 232.692L460.112 262.151C472.556 253.424 482.875 241.797 488.944 226.407L455.472 213.208ZM439.433 232.707C433.96 236.557 427.334 239.271 418.871 242.081L430.21 276.228C439.442 273.162 450.196 269.126 460.133 262.136L439.433 232.707ZM418.868 242.082C407.765 245.771 396.096 247.709 383.846 248.356L385.742 284.286C400.568 283.503 415.501 281.114 430.212 276.227L418.868 242.082ZM383.818 248.357C379.85 248.573 375.992 248.744 371.847 248.948L373.622 284.885C377.516 284.692 381.698 284.506 385.77 284.284L383.818 248.357Z" fill="#2EACF3" mask="url(#path-1-outside-1_121_1325)"/>
<path d="M101.64 55.9099C92.8696 63.6673 88.037 73.7324 87.2582 85.4263L87.2581 85.4281C86.4439 97.6882 90.1364 108.47 95.199 117.965L95.2039 117.974L95.2088 117.984C96.792 120.937 98.4352 123.838 100.019 126.634L100.166 126.895C101.813 129.803 103.395 132.602 104.897 135.421L104.901 135.427C107.131 139.605 109.233 143.884 111.187 148.205C113.03 152.306 114.23 156.661 114.828 161.254L114.829 161.265L114.83 161.275C115.238 164.358 115.183 166.863 113.907 169.44L113.901 169.453L113.895 169.466C112.829 171.636 111.223 172.994 109.315 174.509L109.305 174.517C107.039 176.322 105.027 177.166 103.14 177.927C100.344 179.051 96.8027 180.381 92.0377 180.171C86.9525 179.945 83.3099 178.022 82.1475 177.369C79.6168 175.925 77.8496 174.679 76.7492 172.567C76.237 171.567 76.2231 171.05 76.2302 170.896L76.2303 170.895C76.2346 170.801 76.2504 170.461 76.7558 169.772L76.7609 169.765C77.477 168.786 78.7071 167.077 79.5942 164.996L79.6007 164.98L79.6072 164.965C82.4934 158.125 80.242 150.085 73.7951 146.019C67.3113 141.923 58.8728 143.335 54.0347 149.462C51.8107 152.276 48.5561 156.587 47.2902 162.225C46.6581 165.039 45.7895 169.246 46.2134 173.597C46.8713 180.523 49.1883 185.528 50.4723 187.928C54.8501 196.199 61.0735 200.554 63.9105 202.53L63.9208 202.538L63.9311 202.545C69.9317 206.699 75.3748 208.379 78.2838 209.241C82.8969 210.636 95.6563 214.292 110.742 209.352C114.019 208.281 120.499 205.798 127.171 200.359C130.246 197.868 137.157 192.154 141.502 181.965M101.64 55.9099L147.86 51.484M101.64 55.9099C109.357 49.0258 118.539 46.9002 127.271 46.8517C134.635 46.8026 141.491 48.5392 147.859 51.4836L144.085 59.6485M101.64 55.9099L147.86 51.484M141.502 181.965C141.502 181.966 141.502 181.967 141.501 181.968L133.232 178.428L141.507 181.955C141.505 181.958 141.504 181.962 141.502 181.965ZM141.502 181.965C145.967 171.534 145.377 162.199 144.845 157.655L144.844 157.647L144.843 157.64C143.76 148.522 141.101 139.811 136.938 131.693M136.938 131.693C132.29 122.575 127.4 113.629 122.498 104.806L122.494 104.799L122.49 104.792C120.195 100.678 118.571 96.4672 117.659 92.0261M136.938 131.693C136.936 131.69 136.935 131.687 136.933 131.683L128.93 135.789M136.938 131.693C136.94 131.697 136.942 131.701 136.944 131.705L128.93 135.789M117.659 92.0261C117.047 89.0148 117.223 86.3251 118.126 83.9164M117.659 92.0261C117.659 92.0241 117.658 92.022 117.658 92.0199L108.846 93.8273M117.659 92.0261C117.66 92.0285 117.66 92.0308 117.661 92.0331L108.846 93.8273M118.126 83.9164C119.804 79.4755 122.018 77.8001 125.328 77.3979M118.126 83.9164C118.127 83.9142 118.127 83.912 118.128 83.9099L109.707 80.749M118.126 83.9164C118.125 83.9193 118.124 83.9221 118.123 83.925L109.707 80.749M125.328 77.3979C126.851 77.2173 128.35 77.2333 129.832 77.449M125.328 77.3979C125.33 77.3976 125.333 77.3973 125.335 77.397L124.256 68.4669L125.319 77.3989C125.322 77.3985 125.325 77.3982 125.328 77.3979ZM129.832 77.449C128.213 83.0267 129.606 89.4319 134.874 93.4291L134.891 93.4414L134.907 93.4536C140.743 97.84 148.05 96.9055 153.07 92.8873L153.099 92.8636L153.129 92.8397C153.137 92.8329 153.147 92.825 153.158 92.816C153.36 92.6519 154.007 92.1273 154.657 91.4155M129.832 77.449C130.005 76.853 130.213 76.2664 130.453 75.6932L130.458 75.6811L130.464 75.6691C130.84 74.7794 131.273 73.9497 131.528 73.4607C131.551 73.4158 131.573 73.3737 131.593 73.3348C131.884 72.7751 131.98 72.572 132.03 72.4504M129.832 77.449C131.442 77.6832 133.032 78.153 134.612 78.8621L132.03 72.4504M154.657 91.4155C159.871 85.82 162.776 78.2157 161.989 70.5877C161.163 62.5762 156.324 55.3967 147.86 51.484M154.657 91.4155C154.696 91.3728 154.735 91.3295 154.774 91.2855L148.035 85.3274M154.657 91.4155C154.638 91.4367 154.618 91.4579 154.598 91.479L148.035 85.3274M147.86 51.484L144.085 59.6485M148.035 85.3274C155.369 77.5043 155.369 64.8639 144.085 59.6485M148.035 85.3274L144.085 59.6485M132.03 72.4504C132.05 72.3993 132.063 72.3641 132.07 72.3438M132.03 72.4504L132.044 72.4377C132.055 72.3944 132.064 72.3628 132.07 72.3438M132.07 72.3438C132.074 72.3293 132.077 72.3224 132.076 72.3226C132.076 72.3228 132.074 72.3299 132.07 72.3438ZM109.707 80.749C108.123 84.9691 107.947 89.4081 108.846 93.8273M109.707 80.749L135.911 158.701C134.953 150.639 132.606 142.956 128.93 135.789M108.846 93.8273C109.961 99.2617 111.936 104.338 114.635 109.175C119.524 117.973 124.354 126.812 128.93 135.789M69.5011 164.454C66.6265 168.376 66.6069 172.516 68.758 176.696C71.1438 181.295 74.9571 183.624 77.7144 185.196L69.5011 164.454ZM69.5011 164.454C70.1856 163.518 70.87 162.523 71.3198 161.468M69.5011 164.454L71.3198 161.468M71.3198 161.468C72.5713 158.502 71.5544 155.238 68.9927 153.625C66.4114 151.993 63.087 152.51 61.0923 155.039C58.9217 157.786 56.8488 160.712 56.0666 164.195L71.3198 161.468ZM134.747 78.9258C134.759 78.9321 134.765 78.9354 134.765 78.9354C134.765 78.9354 134.758 78.9323 134.747 78.9258ZM106.5 186.271C108.573 185.435 111.584 184.201 114.909 181.553L106.5 186.271ZM80.8628 200.623C78.2424 199.847 73.8815 198.493 69.0514 195.149L80.8628 200.623Z" stroke="#2EACF3" stroke-width="17.99"/>
<mask id="path-4-outside-2_121_1325" maskUnits="userSpaceOnUse" x="184.754" y="78.0549" width="95" height="143" fill="black">
<rect fill="white" x="184.754" y="78.0549" width="95" height="143"/>
<path d="M202.754 183.442C203.464 168.354 205.554 154.034 211.547 140.463C215.628 131.205 220.123 122.164 225.19 113.419C227.378 109.657 230.099 106.17 232.78 102.723C234.772 100.163 237.394 98.2322 240.45 97.0307C243.762 95.711 247.093 95.6913 250.346 97.208C256.655 100.163 260.322 104.89 260.184 112.119C260.165 113.557 260.204 114.995 260.066 116.413C259.81 118.973 258.114 120.726 255.886 120.943C253.442 121.179 251.529 119.781 250.8 117.122C250.563 116.275 250.524 115.369 250.406 114.482C250.248 113.34 250.228 112.138 249.913 111.035C249.026 107.805 245.713 106.82 243.367 109.125C242.224 110.248 241.179 111.508 240.292 112.828C231.183 126.517 223.849 141.093 218.822 156.753C216.713 163.351 216.101 170.225 215.569 177.1C215.313 180.468 215.234 183.876 215.471 187.244C215.687 190.297 217.048 191.124 220.025 190.336C221.365 189.982 222.805 189.371 223.79 188.445C226.038 186.298 228.423 184.132 230.079 181.551C236.526 171.486 241.278 160.613 244.235 149.012C244.55 147.81 244.925 146.609 245.221 145.387C246.463 140.365 247.744 135.342 248.907 130.299C249.637 127.108 251.49 125.02 254.23 124.666C257.996 124.193 261.17 127.03 261.071 131.127C261.012 133.51 260.598 135.933 260.007 138.257C256.754 151.08 253.422 163.883 247.389 175.76C245.161 180.133 242.756 184.427 240.233 188.642C237.808 192.68 234.476 195.93 230.73 198.747C225.703 202.509 220.104 203.691 213.992 202.293C209.793 201.347 206.776 198.944 204.943 195.005C203.168 191.183 202.833 187.106 202.774 183.403"/>
</mask>
<path d="M211.547 140.463L228.004 147.731L228.009 147.72L211.547 140.463ZM225.19 113.419L209.64 104.373L209.632 104.387L209.624 104.4L225.19 113.419ZM232.78 102.723L246.98 113.769L246.982 113.767L232.78 102.723ZM240.45 97.0307L247.032 113.773L247.071 113.758L247.108 113.743L240.45 97.0307ZM250.346 97.208L257.976 80.9161L257.962 80.9096L257.949 80.9031L250.346 97.208ZM260.184 112.119L242.198 111.775L242.197 111.824L242.196 111.872L260.184 112.119ZM260.066 116.413L277.967 118.204L277.969 118.18L277.971 118.155L260.066 116.413ZM255.886 120.943L257.618 138.85L257.628 138.849L255.886 120.943ZM250.8 117.122L268.149 112.363L268.138 112.322L268.127 112.282L250.8 117.122ZM250.406 114.482L268.238 112.103L268.232 112.062L268.227 112.022L250.406 114.482ZM249.913 111.035L232.565 115.8L232.59 115.891L232.616 115.982L249.913 111.035ZM243.367 109.125L255.971 121.961L255.974 121.959L243.367 109.125ZM240.292 112.828L225.362 102.791L225.338 102.827L225.314 102.862L240.292 112.828ZM218.822 156.753L201.693 151.253L201.69 151.264L201.687 151.274L218.822 156.753ZM215.569 177.1L197.633 175.711L197.632 175.723L197.631 175.735L215.569 177.1ZM215.471 187.244L197.525 188.504L197.525 188.511L197.526 188.519L215.471 187.244ZM220.025 190.336L215.425 172.944L215.422 172.945L220.025 190.336ZM223.79 188.445L236.106 201.559L236.162 201.507L236.217 201.454L223.79 188.445ZM230.079 181.551L245.219 191.268L245.224 191.261L245.228 191.254L230.079 181.551ZM244.235 149.012L226.834 144.443L226.818 144.506L226.802 144.568L244.235 149.012ZM245.221 145.387L227.757 141.069L227.746 141.111L227.736 141.153L245.221 145.387ZM248.907 130.299L266.437 134.343L266.441 134.326L266.445 134.308L248.907 130.299ZM254.23 124.666L251.989 106.816L251.956 106.82L251.922 106.825L254.23 124.666ZM261.071 131.127L279.056 131.573L279.056 131.559L261.071 131.127ZM260.007 138.257L242.572 133.82L242.569 133.833L260.007 138.257ZM247.389 175.76L263.419 183.927L263.424 183.917L263.429 183.907L247.389 175.76ZM240.233 188.642L255.655 197.904L255.662 197.894L255.668 197.883L240.233 188.642ZM230.73 198.747L241.509 213.15L241.525 213.138L241.542 213.126L230.73 198.747ZM213.992 202.293L218.005 184.756L217.974 184.749L217.943 184.742L213.992 202.293ZM204.943 195.005L188.626 202.581L188.629 202.588L188.633 202.596L204.943 195.005ZM220.725 184.288C221.386 170.225 223.287 158.411 228.004 147.731L195.091 133.195C187.821 149.658 185.542 166.484 184.784 182.597L220.725 184.288ZM228.009 147.72C231.868 138.965 236.071 130.525 240.756 122.437L209.624 104.4C204.176 113.804 199.388 123.446 195.086 133.206L228.009 147.72ZM240.741 122.464C242.213 119.933 244.15 117.408 246.98 113.769L218.58 91.6778C216.049 94.9326 212.544 99.3803 209.64 104.373L240.741 122.464ZM246.982 113.767C246.977 113.773 246.967 113.784 246.955 113.797C246.942 113.809 246.931 113.818 246.924 113.823C246.917 113.829 246.919 113.826 246.934 113.818C246.949 113.81 246.98 113.794 247.032 113.773L233.867 80.2884C227.916 82.6282 222.623 86.4786 218.579 91.6797L246.982 113.767ZM247.108 113.743C246.845 113.848 246.175 114.056 245.206 114.044C244.205 114.032 243.341 113.791 242.744 113.513L257.949 80.9031C249.815 77.1107 241.298 77.3273 233.791 80.3185L247.108 113.743ZM242.717 113.5C243.79 114.003 243.435 114.091 242.86 113.254C242.578 112.844 242.38 112.403 242.273 112.019C242.17 111.655 242.202 111.535 242.198 111.775L278.171 112.462C278.303 105.553 276.571 98.7778 272.506 92.8668C268.555 87.1208 263.212 83.3679 257.976 80.9161L242.717 113.5ZM242.196 111.872C242.19 112.339 242.188 112.791 242.187 113.135C242.186 113.51 242.185 113.776 242.181 114.026C242.174 114.527 242.16 114.677 242.161 114.67L277.971 118.155C278.206 115.742 278.167 112.806 278.173 112.365L242.196 111.872ZM242.165 114.621C242.391 112.366 243.358 109.641 245.575 107.27C247.828 104.861 250.898 103.353 254.145 103.038L257.628 138.849C269.452 137.699 276.966 128.2 277.967 118.204L242.165 114.621ZM254.155 103.037C256.938 102.768 260.402 103.42 263.455 105.697C266.389 107.885 267.668 110.611 268.149 112.363L233.451 121.881C234.661 126.292 237.261 131.046 241.945 134.539C246.747 138.121 252.39 139.355 257.618 138.85L254.155 103.037ZM268.127 112.282C268.255 112.74 268.327 113.103 268.366 113.322C268.386 113.434 268.399 113.518 268.406 113.569C268.414 113.619 268.417 113.643 268.415 113.632C268.414 113.62 268.41 113.588 268.402 113.516C268.398 113.48 268.394 113.441 268.388 113.39C268.386 113.365 268.383 113.34 268.38 113.311C268.377 113.283 268.374 113.253 268.37 113.221C268.357 113.098 268.339 112.931 268.318 112.75C268.297 112.566 268.27 112.346 268.238 112.103L232.574 116.862C232.571 116.839 232.574 116.865 232.598 117.078C232.614 117.227 232.655 117.617 232.702 118.001C232.796 118.777 232.996 120.253 233.473 121.962L268.127 112.282ZM268.227 112.022C268.235 112.084 268.231 112.068 268.208 111.833C268.195 111.704 268.146 111.187 268.1 110.772C268.002 109.884 267.788 108.113 267.209 106.089L232.616 115.982C232.474 115.484 232.401 115.102 232.366 114.901C232.333 114.707 232.325 114.614 232.337 114.716C232.342 114.763 232.349 114.832 232.361 114.952C232.367 115.012 232.373 115.072 232.38 115.15C232.388 115.223 232.396 115.31 232.405 115.401C232.44 115.747 232.497 116.31 232.585 116.943L268.227 112.022ZM267.26 106.271C265.394 99.474 260.252 93.0921 252.257 90.7437C244.116 88.3523 236.083 91.0626 230.761 96.2909L255.974 121.959C252.998 124.882 247.794 126.933 242.117 125.265C236.587 123.641 233.545 119.366 232.565 115.8L267.26 106.271ZM230.763 96.2881C228.746 98.2692 226.923 100.469 225.362 102.791L255.222 122.865C255.435 122.547 255.702 122.226 255.971 121.961L230.763 96.2881ZM225.314 102.862C215.406 117.755 207.29 133.82 201.693 151.253L235.951 162.252C240.409 148.367 246.961 135.28 255.269 122.793L225.314 102.862ZM201.687 151.274C198.854 160.134 198.153 168.99 197.633 175.711L233.505 178.489C234.05 171.461 234.571 166.569 235.958 162.231L201.687 151.274ZM197.631 175.735C197.328 179.716 197.211 184.035 197.525 188.504L233.416 185.983C233.257 183.717 233.298 181.22 233.507 178.465L197.631 175.735ZM197.526 188.519C197.737 191.495 198.778 199.926 206.774 205.226C214.332 210.235 222.173 208.377 224.628 207.728L215.422 172.945C215.615 172.894 216.788 172.584 218.561 172.631C220.473 172.681 223.534 173.169 226.651 175.235C229.84 177.348 231.601 180.128 232.479 182.251C233.271 184.164 233.391 185.622 233.415 185.969L197.526 188.519ZM224.624 207.728C227.299 207.021 232.014 205.402 236.106 201.559L211.475 175.332C212.668 174.211 213.731 173.639 214.248 173.391C214.805 173.123 215.211 173.001 215.425 172.944L224.624 207.728ZM236.217 201.454C237.799 199.943 242.126 196.088 245.219 191.268L214.939 171.834C214.968 171.79 214.807 172.046 214.162 172.72C213.44 173.474 212.721 174.141 211.364 175.437L236.217 201.454ZM245.228 191.254C252.698 179.592 258.228 166.947 261.667 153.455L226.802 144.568C224.327 154.28 220.354 163.38 214.93 171.848L245.228 191.254ZM261.635 153.58C261.739 153.183 261.847 152.81 262.05 152.088C262.228 151.458 262.473 150.579 262.705 149.621L227.736 141.153C227.399 142.546 227.531 141.79 226.834 144.443L261.635 153.58ZM262.685 149.706C263.884 144.855 265.231 139.569 266.437 134.343L231.378 126.256C230.257 131.115 229.041 135.874 227.757 141.069L262.685 149.706ZM266.445 134.308C266.283 135.017 265.732 136.795 263.992 138.666C262.074 140.73 259.397 142.137 256.539 142.507L251.922 106.825C239.408 108.444 233.194 118.309 231.37 126.29L266.445 134.308ZM256.471 142.516C253.148 142.933 249.562 141.875 246.861 139.367C244.148 136.849 243.018 133.537 243.087 130.694L279.056 131.559C279.408 116.956 267.149 104.913 251.989 106.816L256.471 142.516ZM243.087 130.68C243.07 131.347 242.938 132.385 242.572 133.82L277.441 142.693C278.259 139.48 278.954 135.673 279.056 131.573L243.087 130.68ZM242.569 133.833C239.261 146.874 236.344 157.781 231.35 167.614L263.429 183.907C270.5 169.985 274.247 155.286 277.444 142.681L242.569 133.833ZM231.36 167.594C229.345 171.547 227.145 175.481 224.797 179.402L255.668 197.883C258.368 193.373 260.977 188.719 263.419 183.927L231.36 167.594ZM224.81 179.38C223.949 180.815 222.49 182.434 219.918 184.369L241.542 213.126C246.461 209.426 251.667 204.546 255.655 197.904L224.81 179.38ZM219.951 184.344C219.618 184.593 219.387 184.717 219.26 184.776C219.138 184.833 219.071 184.849 219.043 184.855C219.014 184.861 218.947 184.873 218.812 184.871C218.672 184.868 218.41 184.848 218.005 184.756L209.979 219.829C221.237 222.405 232.246 220.082 241.509 213.15L219.951 184.344ZM217.943 184.742C218.186 184.796 218.965 185.038 219.846 185.745C220.729 186.455 221.141 187.173 221.253 187.414L188.633 202.596C192.838 211.631 200.443 217.682 210.04 219.843L217.943 184.742ZM221.26 187.428C221.223 187.35 221.095 187.042 220.98 186.323C220.859 185.565 220.785 184.577 220.762 183.116L184.786 183.69C184.855 188.013 185.208 195.22 188.626 202.581L221.26 187.428Z" fill="#2EACF3" mask="url(#path-4-outside-2_121_1325)"/>
<mask id="path-6-outside-3_121_1325" maskUnits="userSpaceOnUse" x="256.723" y="79.3114" width="90" height="148" fill="black">
<rect fill="white" x="256.723" y="79.3114" width="90" height="148"/>
<path d="M294.005 162.805C294.707 163.91 295.229 164.876 295.871 165.704C300.949 172.194 304.902 179.334 308.836 186.514C310.963 190.361 313.231 194.148 315.278 198.033C316.041 199.513 316.683 201.17 316.844 202.807C317.125 205.726 315.258 208.073 312.489 208.882C309.88 209.651 307.17 208.705 305.605 206.298C304.14 204.03 302.835 201.663 301.531 199.316C299.303 195.311 297.216 191.228 294.847 187.303C292.018 182.609 288.887 178.111 286.037 173.437C283.99 170.064 282.043 166.612 280.377 163.061C278.872 159.846 279.735 156.848 282.665 154.737C284.552 153.376 286.659 152.213 288.827 151.365C295.57 148.721 301.691 145.053 307.551 140.95C309.378 139.668 311.044 138.031 312.368 136.275C317.325 129.667 316.262 120.969 310.14 115.386C305.765 111.402 300.567 109.568 294.747 109.449C290.854 109.351 286.94 109.686 283.027 109.745C281.581 109.765 280.096 109.785 278.712 109.449C276.323 108.877 274.878 107.082 274.738 104.893C274.577 102.486 275.701 100.77 277.849 99.6855C278.491 99.3502 279.193 99.0938 279.896 98.936C288.365 97.1607 296.975 96.4506 305.324 98.8374C322.483 103.729 330.993 119.529 327.18 134.263C325.353 141.384 320.918 146.926 314.817 151.108C308.595 155.349 302.253 159.353 295.169 162.134C294.847 162.253 294.566 162.489 293.964 162.864"/>
</mask>
<path d="M295.871 165.704L281.653 176.727L281.678 176.759L281.703 176.79L295.871 165.704ZM308.836 186.514L293.059 195.158L293.076 195.19L293.093 195.221L308.836 186.514ZM315.278 198.033L331.269 189.79L331.232 189.719L331.195 189.648L315.278 198.033ZM316.844 202.807L334.751 201.083L334.749 201.067L334.748 201.051L316.844 202.807ZM312.489 208.882L307.446 191.613L307.423 191.62L307.401 191.627L312.489 208.882ZM305.605 206.298L290.493 216.059L290.509 216.083L290.525 216.108L305.605 206.298ZM301.531 199.316L317.255 190.576L317.251 190.569L301.531 199.316ZM294.847 187.303L279.44 196.591L279.444 196.597L294.847 187.303ZM286.037 173.437L270.658 182.77L270.667 182.786L270.676 182.801L286.037 173.437ZM280.377 163.061L264.084 170.689L264.088 170.696L264.091 170.703L280.377 163.061ZM282.665 154.737L293.18 169.335L293.191 169.327L282.665 154.737ZM288.827 151.365L295.382 168.118L295.392 168.114L288.827 151.365ZM307.551 140.95L317.869 155.687L317.878 155.681L317.888 155.674L307.551 140.95ZM312.368 136.275L326.729 147.111L326.744 147.091L326.759 147.071L312.368 136.275ZM310.14 115.386L322.263 102.094L322.253 102.086L310.14 115.386ZM294.747 109.449L294.292 127.434L294.336 127.435L294.381 127.436L294.747 109.449ZM283.027 109.745L283.272 127.734L283.285 127.733L283.298 127.733L283.027 109.745ZM278.712 109.449L282.945 91.9646L282.924 91.9593L282.902 91.9541L278.712 109.449ZM274.738 104.893L292.691 103.741L292.689 103.718L292.688 103.695L274.738 104.893ZM277.849 99.6855L285.961 115.743L286.068 115.688L286.175 115.633L277.849 99.6855ZM279.896 98.936L276.205 81.3286L276.079 81.3551L275.953 81.3834L279.896 98.936ZM305.324 98.8374L300.379 116.134L300.392 116.138L305.324 98.8374ZM327.18 134.263L309.763 129.756L309.758 129.775L309.754 129.794L327.18 134.263ZM314.817 151.108L324.949 165.973L324.968 165.96L324.987 165.947L314.817 151.108ZM295.169 162.134L301.39 179.014L301.567 178.949L301.743 178.88L295.169 162.134ZM278.824 172.459C278.907 172.589 279.001 172.741 279.139 172.968C279.247 173.145 279.468 173.509 279.655 173.813C280.048 174.449 280.737 175.545 281.653 176.727L310.089 154.682C310.363 155.035 310.47 155.234 310.265 154.903C310.155 154.724 310.073 154.588 309.865 154.247C309.688 153.956 309.453 153.573 309.185 153.151L278.824 172.459ZM281.703 176.79C285.744 181.956 289.048 187.838 293.059 195.158L324.613 177.87C320.756 170.831 316.153 162.432 310.039 154.619L281.703 176.79ZM293.093 195.221C295.705 199.943 297.347 202.595 299.362 206.418L331.195 189.648C329.115 185.701 326.222 180.778 324.578 177.807L293.093 195.221ZM299.288 206.277C299.371 206.437 299.342 206.408 299.272 206.203C299.205 206.009 299.026 205.441 298.94 204.563L334.748 201.051C334.273 196.207 332.527 192.231 331.269 189.79L299.288 206.277ZM298.936 204.53C298.649 201.547 299.493 198.447 301.34 195.947C303.106 193.557 305.399 192.211 307.446 191.613L317.531 226.151C327.342 223.286 335.978 213.835 334.751 201.083L298.936 204.53ZM307.401 191.627C309.688 190.952 312.326 190.962 314.869 191.898C317.433 192.842 319.424 194.55 320.685 196.488L290.525 216.108C296.444 225.207 307.367 229.148 317.576 226.138L307.401 191.627ZM320.717 196.538C319.64 194.87 318.64 193.067 317.255 190.576L285.806 208.055C287.031 210.259 288.64 213.19 290.493 216.059L320.717 196.538ZM317.251 190.569C315.459 187.348 312.81 182.251 310.251 178.01L279.444 196.597C281.621 200.206 283.146 203.275 285.81 208.062L317.251 190.569ZM310.255 178.016C308.659 175.369 307.009 172.827 305.531 170.555C304.002 168.204 302.66 166.143 301.398 164.072L270.676 182.801C272.264 185.405 273.912 187.93 275.368 190.17C276.876 192.489 278.206 194.543 279.44 196.591L310.255 178.016ZM301.416 164.103C299.553 161.032 297.958 158.179 296.664 155.42L264.091 170.703C266.128 175.045 268.427 179.095 270.658 182.77L301.416 164.103ZM296.67 155.434C297.434 157.065 298.128 159.936 297.189 163.309C296.274 166.597 294.323 168.512 293.18 169.335L272.151 140.14C268.077 143.074 264.23 147.543 262.527 153.662C260.8 159.865 261.816 165.843 264.084 170.689L296.67 155.434ZM293.191 169.327C293.906 168.811 294.687 168.39 295.382 168.118L282.271 134.612C278.631 136.036 275.197 137.942 272.14 140.148L293.191 169.327ZM295.392 168.114C303.937 164.764 311.353 160.249 317.869 155.687L297.234 126.213C292.03 129.856 287.202 132.679 282.262 134.615L295.392 168.114ZM317.888 155.674C321.325 153.261 324.331 150.289 326.729 147.111L298.008 125.439C297.757 125.772 297.43 126.075 297.215 126.226L317.888 155.674ZM326.759 147.071C337.604 132.614 334.825 113.55 322.263 102.094L298.018 128.679C298.019 128.68 297.992 128.655 297.95 128.6C297.907 128.545 297.853 128.464 297.796 128.355C297.681 128.132 297.572 127.821 297.529 127.435C297.486 127.046 297.516 126.639 297.621 126.256C297.728 125.868 297.882 125.606 297.978 125.479L326.759 147.071ZM322.253 102.086C314.315 94.8558 304.798 91.66 295.113 91.463L294.381 127.436C296.337 127.475 297.216 127.948 298.027 128.687L322.253 102.086ZM295.203 91.4651C291.202 91.3637 284.596 91.7294 282.755 91.7572L283.298 127.733C289.285 127.643 290.506 127.338 294.292 127.434L295.203 91.4651ZM282.781 91.7569C282.595 91.7594 282.449 91.7614 282.307 91.7627C282.17 91.7641 282.06 91.7646 281.968 91.7645C281.876 91.7643 281.81 91.7635 281.765 91.7625C281.719 91.7616 281.7 91.7606 281.702 91.7607C281.704 91.7608 281.733 91.7623 281.785 91.7665C281.837 91.7708 281.916 91.7784 282.019 91.7913C282.222 91.8169 282.541 91.8667 282.945 91.9646L274.478 126.934C278.455 127.897 282.271 127.747 283.272 127.734L282.781 91.7569ZM282.902 91.9541C285.129 92.4876 287.595 93.789 289.568 96.1013C291.531 98.4028 292.524 101.147 292.691 103.741L256.785 106.045C257.443 116.302 264.644 124.579 274.521 126.944L282.902 91.9541ZM292.688 103.695C292.822 105.7 292.435 108.466 290.775 111.18C289.184 113.781 287.157 115.138 285.961 115.743L269.737 83.6282C266.393 85.3174 262.73 88.075 260.081 92.4067C257.362 96.852 256.493 101.679 256.788 106.091L292.688 103.695ZM286.175 115.633C285.425 116.024 284.653 116.306 283.839 116.489L275.953 81.3834C273.734 81.8819 271.557 82.676 269.522 83.7384L286.175 115.633ZM283.586 116.543C290.811 115.029 296.087 114.907 300.379 116.134L310.268 81.5402C297.863 77.994 285.919 79.2925 276.205 81.3286L283.586 116.543ZM300.392 116.138C308.654 118.493 311.004 124.962 309.763 129.756L344.596 138.77C350.982 114.095 336.313 88.9648 310.256 81.5366L300.392 116.138ZM309.754 129.794C309.212 131.905 307.885 134.049 304.646 136.269L324.987 165.947C333.95 159.804 341.494 150.862 344.605 138.733L309.754 129.794ZM304.684 136.243C298.686 140.332 293.715 143.378 288.595 145.388L301.743 178.88C310.791 175.328 318.505 170.366 324.949 165.973L304.684 136.243ZM288.947 145.254C286.787 146.05 285.228 147.085 284.859 147.325C284.734 147.407 284.623 147.48 284.564 147.519C284.485 147.572 284.471 147.582 284.437 147.604C284.398 147.629 284.417 147.616 284.458 147.591L303.471 178.137C303.813 177.924 304.093 177.741 304.286 177.613C304.368 177.559 304.462 177.496 304.486 177.48C304.531 177.451 304.517 177.46 304.485 177.481C304.44 177.51 304.106 177.729 303.628 177.993C303.111 178.278 302.351 178.66 301.39 179.014L288.947 145.254Z" fill="#2EACF3" mask="url(#path-6-outside-3_121_1325)"/>
<mask id="path-8-outside-4_121_1325" maskUnits="userSpaceOnUse" x="333.654" y="93.1335" width="81" height="129" fill="black">
<rect fill="white" x="333.654" y="93.1335" width="81" height="129"/>
<path d="M364.619 191.057C366.405 190.919 367.783 190.742 369.181 190.742C375.957 190.781 382.733 190.88 389.509 190.978C390.033 190.978 390.557 191.057 391.081 191.136C394.149 191.648 396.265 194.013 396.323 196.949C396.381 199.846 394.323 202.427 391.295 202.959C389.664 203.235 387.955 203.215 386.305 203.176C379.355 202.979 372.404 202.565 365.454 203.472C363.803 203.688 362.134 204.023 360.483 204.102C353.805 204.417 350.252 199.865 352.174 193.382C355.047 183.628 358.076 173.913 360.93 164.159C363.337 155.942 365.492 147.646 367.9 139.428C370.618 130.186 372.695 123.624 375.549 114.422C375.782 113.673 376.132 112.904 376.637 112.313C378.287 110.382 381.141 110.894 381.917 113.318C382.286 114.461 382.344 115.821 382.112 117.003C380.908 123.033 380.481 126.442 379.063 132.413C377.103 140.65 374.928 148.848 372.87 157.065C370.366 167.115 367.919 177.165 365.454 187.214C365.182 188.338 364.949 189.461 364.599 191.037"/>
</mask>
<path d="M369.181 190.742L369.286 172.752L369.234 172.752H369.181V190.742ZM389.509 190.978L389.247 208.966L389.378 208.968H389.509V190.978ZM391.081 191.136L394.045 173.392L393.901 173.368L393.756 173.346L391.081 191.136ZM396.323 196.949L378.337 197.306L378.337 197.311L396.323 196.949ZM391.295 202.959L394.295 220.697L394.351 220.688L394.407 220.678L391.295 202.959ZM386.305 203.176L385.795 221.159L385.835 221.16L385.876 221.161L386.305 203.176ZM365.454 203.472L363.127 185.633L363.119 185.634L363.111 185.635L365.454 203.472ZM360.483 204.102L361.332 222.072L361.342 222.072L360.483 204.102ZM352.174 193.382L369.422 198.496L369.426 198.481L369.431 198.466L352.174 193.382ZM360.93 164.159L343.666 159.101L343.664 159.107L360.93 164.159ZM367.9 139.428L350.641 134.352L350.638 134.361L350.636 134.37L367.9 139.428ZM375.549 114.422L358.372 109.077L358.369 109.085L358.367 109.093L375.549 114.422ZM376.637 112.313L362.96 100.626L362.955 100.631L376.637 112.313ZM381.917 113.318L364.785 118.807L364.791 118.826L364.797 118.844L381.917 113.318ZM382.112 117.003L399.753 120.525L399.758 120.503L399.762 120.481L382.112 117.003ZM379.063 132.413L396.564 136.579L396.567 136.568L379.063 132.413ZM372.87 157.065L355.419 152.694L355.416 152.704L355.414 152.715L372.87 157.065ZM365.454 187.214L347.982 182.928L347.975 182.955L347.968 182.983L365.454 187.214ZM366.004 208.994C366.564 208.95 367.073 208.905 367.493 208.868C367.947 208.827 368.238 208.8 368.532 208.776C369.099 208.729 369.219 208.732 369.181 208.732V172.752C366.869 172.752 363.817 173.075 363.234 173.12L366.004 208.994ZM369.077 208.731C375.761 208.77 382.458 208.868 389.247 208.966L389.77 172.99C383.007 172.892 376.153 172.792 369.286 172.752L369.077 208.731ZM389.509 208.968C388.887 208.968 388.439 208.922 388.279 208.904C388.194 208.895 388.15 208.888 388.177 208.892C388.212 208.897 388.261 208.904 388.406 208.926L393.756 173.346C393.468 173.303 391.606 172.988 389.509 172.988V208.968ZM388.118 208.88C383.272 208.071 378.462 203.645 378.337 197.306L414.31 196.592C414.067 184.381 405.025 175.226 394.045 173.392L388.118 208.88ZM378.337 197.311C378.216 191.297 382.513 186.236 388.182 185.241L394.407 220.678C406.134 218.618 414.547 208.394 414.31 196.587L378.337 197.311ZM388.294 185.221C388.541 185.18 388.579 185.195 388.278 185.204C387.957 185.213 387.53 185.21 386.735 185.191L385.876 221.161C387.427 221.198 390.746 221.298 394.295 220.697L388.294 185.221ZM386.815 185.193C380.695 185.02 371.873 184.492 363.127 185.633L367.78 221.311C372.935 220.638 378.014 220.938 385.795 221.159L386.815 185.193ZM363.111 185.635C362.508 185.714 361.945 185.799 361.504 185.866C361.009 185.941 360.714 185.987 360.38 186.036C359.737 186.129 359.58 186.135 359.625 186.133L361.342 222.072C363.037 221.991 364.54 221.789 365.557 221.641C366.95 221.439 367.057 221.406 367.796 221.308L363.111 185.635ZM359.635 186.132C360.423 186.095 364.261 186.33 367.311 190.256C370.339 194.154 369.61 197.86 369.422 198.496L334.926 188.269C332.815 195.388 332.902 204.611 338.896 212.327C344.911 220.071 353.865 222.425 361.332 222.072L359.635 186.132ZM369.431 198.466C371.994 189.764 375.538 178.295 378.196 169.211L343.664 159.107C340.614 169.531 338.101 177.492 334.917 188.299L369.431 198.466ZM378.194 169.217C379.444 164.953 380.621 160.69 381.755 156.585C382.902 152.434 384.006 148.439 385.164 144.486L350.636 134.37C349.386 138.634 348.209 142.897 347.075 147.003C345.928 151.153 344.824 155.148 343.666 159.101L378.194 169.217ZM385.159 144.504C387.829 135.426 389.85 129.043 392.732 119.751L358.367 109.093C355.54 118.206 353.407 124.947 350.641 134.352L385.159 144.504ZM392.727 119.766C392.612 120.136 392.417 120.683 392.086 121.346C391.762 121.995 391.21 122.95 390.318 123.995L362.955 100.631C360.28 103.764 359 107.056 358.372 109.077L392.727 119.766ZM390.313 124.001C387.111 127.747 381.84 129.9 376.306 128.868C370.675 127.817 366.37 123.753 364.785 118.807L399.049 107.829C396.688 100.459 390.567 94.9272 382.903 93.4977C375.336 92.0862 367.812 94.9481 362.96 100.626L390.313 124.001ZM364.797 118.844C364.442 117.743 364.31 116.794 364.273 116.045C364.235 115.289 364.278 114.451 364.461 113.525L399.762 120.481C400.543 116.52 400.411 112.048 399.038 107.793L364.797 118.844ZM364.47 113.481C363.019 120.75 362.909 122.573 361.56 128.258L396.567 136.568C398.052 130.312 398.797 125.317 399.753 120.525L364.47 113.481ZM361.562 128.247C359.626 136.38 357.566 144.121 355.419 152.694L390.321 161.435C392.29 153.574 394.579 144.92 396.564 136.579L361.562 128.247ZM355.414 152.715C352.899 162.807 350.437 172.92 347.982 182.928L382.925 191.501C385.402 181.409 387.832 171.423 390.326 161.415L355.414 152.715ZM347.968 182.983C347.643 184.327 347.316 185.881 347.036 187.144L382.163 194.931C382.582 193.041 382.721 192.348 382.939 191.446L347.968 182.983Z" fill="#2EACF3" mask="url(#path-8-outside-4_121_1325)"/>
<mask id="path-10-outside-5_121_1325" maskUnits="userSpaceOnUse" x="306.356" y="78.0549" width="74" height="145" fill="black">
<rect fill="white" x="306.356" y="78.0549" width="74" height="145"/>
<path d="M361.09 98.8881C361.646 100.277 361.686 101.804 361.428 103.253C360.473 108.391 359.698 113.588 358.366 118.627C354.232 134.28 349.74 149.853 345.506 165.486C342.683 175.901 339.701 185.225 336.998 195.7C336.68 196.91 336.62 198.2 336.282 199.41C335.368 202.664 332.784 204.429 329.623 204.072C326.701 203.735 324.356 201.275 324.356 198.041C324.356 197.605 324.455 197.168 324.575 196.752C330.757 176.655 337.078 156.598 343.319 136.502C346.996 124.639 350.952 112.854 353.099 100.594C353.636 97.5788 355.484 95.7734 357.79 96.0909C359.34 96.3091 360.434 97.301 361.09 98.9079"/>
</mask>
<path d="M361.428 103.253L379.115 106.537L379.127 106.475L379.138 106.413L361.428 103.253ZM358.366 118.627L340.974 114.031L340.973 114.033L358.366 118.627ZM345.506 165.486L362.869 170.192L362.87 170.189L345.506 165.486ZM336.998 195.7L354.397 200.273L354.407 200.234L354.417 200.196L336.998 195.7ZM336.282 199.41L353.602 204.277L353.606 204.263L353.61 204.248L336.282 199.41ZM329.623 204.072L327.561 221.943L327.582 221.946L327.604 221.948L329.623 204.072ZM324.575 196.752L307.38 191.462L307.328 191.631L307.279 191.8L324.575 196.752ZM343.319 136.502L360.5 141.838L360.503 141.828L343.319 136.502ZM353.099 100.594L335.387 97.4419L335.383 97.4666L335.379 97.4914L353.099 100.594ZM357.79 96.0909L360.297 78.2764L360.27 78.2726L360.243 78.2689L357.79 96.0909ZM344.391 105.581C343.363 103.017 343.563 100.955 343.717 100.092L379.138 106.413C379.809 102.654 379.929 97.5364 377.788 92.1955L344.391 105.581ZM343.74 99.9681C342.629 105.953 342.076 109.859 340.974 114.031L375.759 123.224C377.32 117.318 378.318 110.829 379.115 106.537L343.74 99.9681ZM340.973 114.033C336.815 129.776 332.522 144.609 328.141 160.783L362.87 170.189C366.957 155.097 371.649 138.784 375.76 123.222L340.973 114.033ZM328.142 160.78C325.756 169.585 322.155 181.223 319.579 191.205L354.417 200.196C357.248 189.228 359.61 182.218 362.869 170.192L328.142 160.78ZM319.599 191.128C319.359 192.041 319.199 192.847 319.092 193.444C318.991 194.009 318.908 194.557 318.87 194.798C318.82 195.124 318.81 195.179 318.81 195.177C318.814 195.153 318.858 194.921 318.955 194.572L353.61 204.248C353.876 203.293 354.054 202.447 354.174 201.803C354.291 201.181 354.379 200.611 354.425 200.312C354.485 199.928 354.497 199.851 354.507 199.796C354.511 199.773 354.478 199.964 354.397 200.273L319.599 191.128ZM318.963 194.543C319.487 192.681 320.826 190.202 323.524 188.325C326.259 186.423 329.271 185.928 331.643 186.196L327.604 221.948C333.137 222.573 339.021 221.374 344.066 217.865C349.075 214.381 352.164 209.392 353.602 204.277L318.963 194.543ZM331.686 186.201C337.746 186.9 342.346 192.041 342.346 198.041H306.366C306.366 210.509 315.657 220.57 327.561 221.943L331.686 186.201ZM342.346 198.041C342.346 199.172 342.219 200.074 342.113 200.649C342.008 201.217 341.896 201.612 341.87 201.703L307.279 191.8C307.028 192.678 306.366 195.051 306.366 198.041H342.346ZM341.769 202.041C347.947 181.959 354.223 162.047 360.5 141.838L326.139 131.166C319.932 151.15 313.566 171.352 307.38 191.462L341.769 202.041ZM360.503 141.828C363.991 130.573 368.422 117.387 370.819 103.697L335.379 97.4914C333.482 108.322 330.002 118.704 326.136 131.176L360.503 141.828ZM370.811 103.747C370.597 104.949 369.847 107.555 367.271 110.04C364.35 112.859 359.96 114.549 355.337 113.913L360.243 78.2689C353.315 77.3151 346.847 79.7497 342.291 84.1452C338.08 88.2071 336.138 93.2243 335.387 97.4419L370.811 103.747ZM355.283 113.905C352.732 113.546 350.144 112.438 347.99 110.571C345.957 108.808 344.925 106.909 344.434 105.707L377.745 92.1089C375.247 85.9877 369.567 79.5812 360.297 78.2764L355.283 113.905Z" fill="#2EACF3" mask="url(#path-10-outside-5_121_1325)"/>
<mask id="path-12-outside-6_121_1325" maskUnits="userSpaceOnUse" x="128.917" y="95.6465" width="85" height="126" fill="black">
<rect fill="white" x="128.917" y="95.6465" width="85" height="126"/>
<path d="M190.578 113.666C193.313 113.666 195.458 115.873 195.301 118.611C195.242 119.734 194.888 120.896 194.435 121.941C193.392 124.403 192.29 126.846 191.05 129.23C180.049 150.191 170.367 171.783 160.98 193.493C160.351 194.971 159.701 196.448 158.973 197.867C158.481 198.812 157.93 199.758 157.261 200.566C155.431 202.753 152.617 203.422 150.275 202.378C147.933 201.334 146.536 198.753 147.008 195.936C147.264 194.459 147.736 192.981 148.366 191.622C155.234 177.181 162.181 162.8 169.029 148.359C173.791 138.351 179.125 128.658 184.753 119.123C185.442 117.961 186.13 116.818 186.918 115.735C187.862 114.435 189.161 113.725 190.598 113.647"/>
</mask>
<path d="M195.301 118.611L177.341 117.579L177.338 117.623L177.336 117.667L195.301 118.611ZM194.435 121.941L177.929 114.785L177.899 114.855L177.87 114.924L194.435 121.941ZM191.05 129.23L206.98 137.59L206.995 137.56L207.011 137.531L191.05 129.23ZM160.98 193.493L144.468 186.354L144.449 186.397L144.431 186.44L160.98 193.493ZM158.973 197.867L174.932 206.17L174.955 206.126L174.977 206.082L158.973 197.867ZM157.261 200.566L171.057 212.112L171.086 212.077L171.115 212.042L157.261 200.566ZM147.008 195.936L129.282 192.867L129.274 192.914L129.266 192.962L147.008 195.936ZM148.366 191.622L132.12 183.895L132.081 183.977L132.042 184.06L148.366 191.622ZM169.029 148.359L152.785 140.629L152.779 140.64L152.774 140.65L169.029 148.359ZM184.753 119.123L169.276 109.952L169.268 109.965L169.26 109.979L184.753 119.123ZM186.918 115.735L201.472 126.309L186.918 115.735ZM190.578 131.656C183.27 131.656 176.887 125.46 177.341 117.579L213.261 119.644C214.029 106.285 203.356 95.6762 190.578 95.6762V131.656ZM177.336 117.667C177.387 116.701 177.546 115.99 177.655 115.59C177.767 115.177 177.876 114.907 177.929 114.785L210.941 129.096C211.88 126.929 213.055 123.577 213.266 119.556L177.336 117.667ZM177.87 114.924C176.927 117.149 176.03 119.12 175.09 120.929L207.011 137.531C208.55 134.572 209.857 131.657 211.001 128.957L177.87 114.924ZM175.121 120.87C163.797 142.446 153.9 164.538 144.468 186.354L177.493 200.633C186.834 179.028 196.302 157.936 206.98 137.59L175.121 120.87ZM144.431 186.44C143.832 187.844 143.389 188.832 142.968 189.651L174.977 206.082C176.013 204.065 176.869 202.098 177.53 200.547L144.431 186.44ZM143.014 189.564C142.895 189.791 142.864 189.836 142.9 189.778C142.936 189.72 143.101 189.459 143.407 189.09L171.115 212.042C172.993 209.774 174.235 207.51 174.932 206.17L143.014 189.564ZM143.465 189.02C146.387 185.529 152.038 183.467 157.601 185.947L142.949 218.809C153.195 223.378 164.475 219.977 171.057 212.112L143.465 189.02ZM157.601 185.947C163.174 188.432 165.555 194.112 164.75 198.911L129.266 192.962C127.516 203.395 132.692 214.236 142.949 218.809L157.601 185.947ZM164.734 199.005C164.718 199.101 164.703 199.147 164.701 199.155C164.698 199.164 164.696 199.17 164.689 199.184L132.042 184.06C130.785 186.773 129.82 189.756 129.282 192.867L164.734 199.005ZM164.612 199.349C171.348 185.185 178.499 170.374 185.284 156.068L152.774 140.65C145.862 155.225 139.12 169.177 132.12 183.895L164.612 199.349ZM185.274 156.089C189.739 146.706 194.794 137.503 200.245 128.268L169.26 109.979C163.455 119.814 157.844 129.996 152.785 140.629L185.274 156.089ZM200.23 128.294C200.923 127.124 201.233 126.638 201.472 126.309L172.363 105.161C171.028 106.998 169.96 108.798 169.276 109.952L200.23 128.294ZM201.472 126.309C199.445 129.098 195.897 131.373 191.583 131.61L189.612 95.6835C182.425 96.0778 176.279 99.7707 172.363 105.161L201.472 126.309Z" fill="#2EACF3" mask="url(#path-12-outside-6_121_1325)"/>
<path d="M268.8 195.557L277.546 197.658L277.548 197.65C278.005 195.739 278.563 193.827 279.195 191.658L279.257 191.445C279.893 189.265 280.602 186.823 281.182 184.293L281.184 184.283C285.377 165.909 289.809 147.964 295.894 130.592C295.894 130.591 295.895 130.59 295.895 130.588C297.307 126.561 297.995 122.464 298.47 118.995L298.475 118.963L298.479 118.931C299.387 111.935 295.213 104.721 287.411 103.538L287.402 103.537L287.393 103.535C283.833 103.003 280.367 104 277.653 106.233C275.166 108.278 273.764 110.963 272.971 113.329L272.962 113.357L272.953 113.385C272.921 113.482 272.903 113.536 272.888 113.582C272.883 113.597 272.879 113.606 272.878 113.612L272.873 113.623L272.864 113.65C272.713 114.066 272.563 114.481 272.414 114.895C271.297 117.985 270.198 121.025 269.069 124.033L269.066 124.04C268.341 125.977 267.505 128.078 266.63 130.276C264.773 134.94 262.742 140.042 261.231 144.947L268.8 195.557ZM268.8 195.557C277.546 197.658 277.546 197.659 277.545 197.661L277.544 197.665L277.543 197.672L277.539 197.686L277.532 197.717L277.515 197.785C277.508 197.813 277.5 197.843 277.492 197.874C277.485 197.899 277.478 197.925 277.471 197.953C277.438 198.078 277.396 198.229 277.344 198.406C277.24 198.761 277.096 199.22 276.902 199.781C276.514 200.903 275.924 202.432 275.048 204.352L275.038 204.374L275.027 204.396C274.208 206.166 272.928 208.889 269.965 210.869C265.418 213.908 260.474 213.026 259.824 212.91C259.808 212.907 259.796 212.905 259.785 212.903C252.725 211.849 248.457 206.352 247.377 200.156L268.8 195.557ZM290.065 118.951C290.065 118.951 290.06 118.963 290.05 118.985C290.059 118.961 290.064 118.951 290.065 118.951ZM247.503 193.157C247.124 195.12 246.921 197.546 247.376 200.154L261.23 144.951C257.589 156.759 254.242 168.659 250.93 180.435C250.308 182.649 249.686 184.858 249.065 187.061C248.922 187.561 248.794 188 248.676 188.406C248.218 189.976 247.908 191.042 247.503 193.157Z" stroke="#2EACF3" stroke-width="17.99"/>
<path d="M203.911 87.1851L212.782 87.0628C214.747 87.0358 217.352 87.1774 220.034 88.0307C222.796 88.8996 225.381 90.5361 227.309 93.0609C229.219 95.5627 230.097 98.428 230.315 101.169L230.316 101.183L230.317 101.197C230.79 107.382 227.438 113.622 221.022 116.128L221 116.136L220.977 116.145C218.506 117.095 215.779 117.652 213.091 117.719L213.084 117.719L213.077 117.719C207.591 117.847 201.974 117.924 196.41 118C192.284 118.056 188.188 118.112 184.196 118.188L203.911 87.1851ZM203.911 87.1851V87.3678M203.911 87.1851V87.3678M203.911 87.3678L158.928 88.8184L158.811 88.8222L158.695 88.8289C156.987 88.9283 154.944 89.1415 152.82 89.6815L203.911 87.3678ZM162.566 118.757L162.549 118.758C162.239 118.765 161.862 118.779 161.44 118.794C160.22 118.837 158.625 118.893 157.188 118.862C155.291 118.847 153.507 118.499 151.967 118.002C145.756 116.008 141.644 110.448 141.644 103.94C141.644 97.1621 146.261 91.349 152.818 89.6819L162.566 118.757ZM162.566 118.757L162.583 118.757M162.566 118.757L162.583 118.757M162.583 118.757C164.066 118.715 165.544 118.673 167.019 118.63M162.583 118.757L167.019 118.63M167.019 118.63C172.774 118.465 178.475 118.301 184.195 118.189L167.019 118.63Z" stroke="#2EACF3" stroke-width="17.99"/>
<path d="M382.268 115.244C380.49 115.12 378.732 114.785 377.066 114.267L377.033 114.257L377 114.247C371.687 112.55 366.453 107.145 367.632 99.8157L367.633 99.8086L367.635 99.8016C368.767 92.8295 374.692 89.474 379.747 88.9411L379.839 88.9314L379.931 88.9236C380.518 88.8739 381.031 88.8683 381.359 88.8683C381.519 88.8683 381.672 88.8699 381.777 88.8709L381.792 88.8711C381.875 88.8719 381.933 88.8725 381.982 88.8728L416.23 88.3176L425.371 88.1694V90.3094C430.121 92.8759 433.124 97.8875 432.55 103.745C431.854 110.993 425.945 115.513 419.897 116.241L382.268 115.244ZM382.268 115.244C385.151 115.449 388.196 115.647 391.288 115.727C396.969 115.888 402.664 116.017 408.331 116.146C411.126 116.209 413.915 116.272 416.692 116.339C416.719 116.34 416.748 116.341 416.78 116.342C417.352 116.359 418.588 116.398 419.895 116.241L382.268 115.244Z" stroke="#2EACF3" stroke-width="17.99"/>
<path d="M383.268 174.042L383.215 174.037C381.398 173.877 378.856 173.515 376.323 172.471L376.303 172.463L376.283 172.455C373.775 171.407 371.347 169.651 369.641 166.99C367.92 164.303 367.326 161.302 367.508 158.459L367.509 158.448L367.509 158.436C367.7 155.575 368.699 152.766 370.661 150.411C372.562 148.128 374.964 146.749 377.258 145.957C379.319 145.238 381.444 144.932 383.337 144.9C383.339 144.9 383.341 144.9 383.342 144.9L383.492 153.894C386.339 153.843 389.186 153.854 392.033 153.866C393.253 153.871 394.473 153.875 395.693 153.875H395.693C395.96 153.875 396.209 153.875 396.476 153.912L383.268 174.042ZM383.268 174.042L383.321 174.046C385.105 174.183 387.193 174.147 388.618 174.122C389.057 174.115 389.432 174.108 389.717 174.108C390.123 174.108 390.641 174.118 391.232 174.128C392.888 174.157 395.112 174.195 397.022 174.073C404.17 173.63 411.524 168.374 411.524 159.54C411.524 150.694 404.2 145.656 397.457 144.97L383.268 174.042Z" stroke="#2EACF3" stroke-width="17.99"/>
</g>
<defs>
<filter id="filter0_f_121_1325" x="0.227421" y="0.975651" width="534.103" height="320.839" filterUnits="userSpaceOnUse" color-interpolation-filters="sRGB">
<feFlood flood-opacity="0" result="BackgroundImageFix"/>
<feBlend mode="normal" in="SourceGraphic" in2="BackgroundImageFix" result="shape"/>
<feGaussianBlur stdDeviation="18.44" result="effect1_foregroundBlur_121_1325"/>
</filter>
</defs>
</svg>
