<svg width="217" height="148" viewBox="0 0 217 148" fill="none" xmlns="http://www.w3.org/2000/svg">
<g style="mix-blend-mode:hard-light" filter="url(#filter0_f_639_699)">
<path d="M175.709 68.88C176.559 68.09 177.229 67.19 177.699 66.2C178.009 65.54 178.469 64.54 178.779 63.37C179.999 58.8 178.419 54.42 174.569 51.64C172.019 49.8 169.159 48.87 166.079 48.87C165.229 48.87 164.349 48.94 163.479 49.09C161.829 49.37 160.259 49.87 158.739 50.58C157.999 50 157.139 49.54 156.179 49.25C155.359 49 154.459 48.88 153.519 48.88H153.349L143.309 49.06H143.129C142.839 49.06 142.569 49.07 142.309 49.1C141.169 49.23 140.129 49.6 139.209 50.15C138.289 49.49 137.219 49.04 136.049 48.88C135.719 48.83 135.389 48.81 135.059 48.81C131.909 48.81 129.249 50.85 128.239 53.9C126.409 51.92 124.009 50.38 121.189 49.56C119.609 49.1 117.919 48.87 116.169 48.87C114.519 48.87 112.779 49.07 110.839 49.48C110.129 49.63 109.419 49.89 108.739 50.24C108.219 50.51 107.749 50.84 107.309 51.21C106.529 50.55 105.629 49.97 104.619 49.5C103.329 48.89 101.969 48.59 100.569 48.59C99.3388 48.59 98.1188 48.83 96.9288 49.3C96.3288 49.54 95.7688 49.84 95.2188 50.17C94.5988 49.77 93.9088 49.44 93.1488 49.22C92.2488 48.95 91.2588 48.82 90.2088 48.82H90.0188C90.0188 48.82 89.9488 48.82 89.9188 48.82L78.2888 49.18C78.3988 48.15 78.3788 47.11 78.1788 46.09C77.5388 42.81 75.3388 40.1 72.1388 38.65C69.7288 37.55 67.2188 37 64.6988 37H64.6088C60.7088 37.02 57.4088 38.19 54.7888 40.47C51.5188 43.32 49.6288 47.13 49.3388 51.47C49.0888 55.24 49.9988 58.97 52.1188 62.88C52.6188 63.81 53.1388 64.71 53.6388 65.57C54.1288 66.41 54.5888 67.21 55.0188 68.01C55.6388 69.16 56.2388 70.35 56.7988 71.57C57.1988 72.44 57.4688 73.41 57.6088 74.44C57.6388 74.67 57.6488 74.8 57.6488 74.87C57.5488 74.96 57.3688 75.11 57.2188 75.22C56.8988 75.47 56.6188 75.58 56.1888 75.75C55.6388 75.97 55.0788 76.19 54.3688 76.19C54.3188 76.19 54.2688 76.19 54.2088 76.19C53.9488 76.18 53.7088 76.14 53.4988 76.09C54.8488 72.55 53.5388 68.63 50.3088 66.64C49.0788 65.88 47.6588 65.48 46.2088 65.48C43.8388 65.48 41.6188 66.55 40.1188 68.41C39.0788 69.7 37.9488 71.32 37.4388 73.53C37.1488 74.78 36.8888 76.28 37.0488 77.96C37.2388 79.88 37.8088 81.78 38.7088 83.45C40.4188 86.62 42.8688 88.29 43.7888 88.92C46.0488 90.46 48.1288 91.07 49.0088 91.33C49.8488 91.58 52.0688 92.23 54.9288 92.23C56.8788 92.23 58.8088 91.93 60.6488 91.34C62.3688 90.79 64.0388 89.94 65.5488 88.9C66.3288 90.07 67.4188 91.04 68.7688 91.64C69.7588 92.08 70.8088 92.3 71.8888 92.3C74.1888 92.3 76.3688 91.27 77.8788 89.49C78.3488 88.94 78.7588 88.3 79.1488 87.55C79.4488 86.97 79.6888 86.42 79.9088 85.9C80.5588 84.4 81.2288 82.87 81.9188 81.32C81.9788 82.81 82.2188 84.65 83.0988 86.56C84.4188 89.41 86.8388 91.35 89.8988 92.05C90.8188 92.26 91.7488 92.37 92.6688 92.37C94.3088 92.37 95.9188 92.02 97.4088 91.35C97.8288 92.62 98.5488 93.79 99.5688 94.76C100.179 95.34 100.839 95.91 101.529 96.44C104.329 98.57 108.479 101.07 114.219 104.07C122.269 108.28 130.909 110.33 140.649 110.33C140.889 110.33 141.129 110.33 141.359 110.33C141.439 110.33 141.519 110.33 141.599 110.33L142.789 110.27C143.589 110.23 144.389 110.19 145.199 110.15C149.969 109.9 154.489 109.08 158.649 107.7C158.999 107.58 159.349 107.47 159.709 107.36C162.219 106.55 165.069 105.64 167.779 103.75C170.729 101.69 174.399 98.64 176.529 93.26C177.549 90.69 177.889 88.12 177.559 85.64C177.249 83.37 176.519 81.19 175.379 79.17C174.359 77.34 173.109 75.64 171.219 73.47C170.559 72.71 169.989 72.09 169.429 71.53C169.189 71.28 168.999 71.1 168.839 70.94C169.309 71.03 169.789 71.07 170.269 71.07C172.259 71.07 174.169 70.31 175.639 68.94L175.709 68.88ZM149.549 73.37C149.549 74.34 148.789 75.1 147.689 75.17C147.429 75.19 147.169 75.19 146.909 75.19C146.629 75.19 146.349 75.19 146.069 75.19C146.189 74.72 146.309 74.24 146.429 73.77C146.619 73.03 146.809 72.29 146.999 71.55C147.159 71.55 147.309 71.55 147.469 71.55C147.549 71.55 147.629 71.55 147.709 71.56C148.799 71.66 149.559 72.41 149.559 73.38L149.549 73.37ZM141.109 63.31C141.649 63.47 142.199 63.58 142.759 63.64C142.679 64.05 142.579 64.48 142.459 64.97C142.399 65.21 142.339 65.44 142.279 65.68C141.709 65.77 141.149 65.91 140.629 66.11C140.519 66.15 140.419 66.21 140.319 66.25C140.589 65.27 140.849 64.29 141.109 63.32V63.31ZM134.939 85.64V85.58C135.359 83.98 135.799 82.47 136.269 80.87C136.549 79.92 136.829 78.94 137.109 77.93C137.579 78.55 138.139 79.11 138.789 79.57C138.649 80.13 138.509 80.69 138.369 81.25C138.289 81.58 138.219 81.92 138.109 82.39C138.639 82.35 139.049 82.3 139.449 82.3C139.459 82.3 139.469 82.3 139.479 82.3C141.519 82.31 143.569 82.34 145.609 82.37C145.769 82.37 145.929 82.39 146.089 82.42C147.009 82.57 147.649 83.27 147.669 84.14C147.689 85 147.069 85.77 146.149 85.92C145.819 85.98 145.469 85.99 145.129 85.99C144.969 85.99 144.809 85.99 144.649 85.99C143.539 85.96 142.439 85.91 141.329 85.91C140.339 85.91 139.349 85.95 138.369 86.08C137.869 86.14 137.369 86.24 136.869 86.27C136.799 86.27 136.739 86.27 136.669 86.27C135.939 86.27 135.349 86.07 134.929 85.72C134.929 85.7 134.929 85.67 134.939 85.65V85.64ZM148.479 65.61C148.619 64.99 148.729 64.44 148.829 63.93C148.869 63.93 148.899 63.93 148.939 63.93C148.909 64.52 148.909 65.1 148.939 65.67C148.789 65.64 148.629 65.62 148.479 65.61ZM152.019 55.67C151.389 56.36 150.869 57.14 150.429 57.97C150.009 57.96 149.579 57.95 149.159 57.94C149.119 57.78 149.089 57.61 149.039 57.45C148.739 56.52 148.239 55.69 147.619 54.99L152.769 54.9C152.519 55.15 152.269 55.4 152.019 55.67ZM107.209 81.53C106.939 81.44 106.659 81.38 106.389 81.32C106.449 81.21 106.509 81.1 106.569 80.99C106.969 80.2 107.329 79.4 107.659 78.6C107.989 79.22 108.349 79.86 108.759 80.54C108.929 80.82 109.099 81.09 109.269 81.37C109.169 81.7 109.089 82.04 108.989 82.37C108.489 82.06 107.899 81.76 107.219 81.53H107.209ZM112.499 65.34C112.059 65.52 111.629 65.73 111.199 65.96C111.219 65.69 111.259 65.41 111.269 65.14C111.269 64.91 111.269 64.69 111.249 64.47C111.829 64.55 112.349 64.57 112.719 64.57C112.849 64.57 112.989 64.57 113.119 64.57C113.379 64.57 113.649 64.56 113.909 64.55C113.889 64.61 113.869 64.66 113.849 64.72C113.389 64.96 112.929 65.18 112.489 65.36L112.499 65.34ZM119.709 82.76C119.489 83.48 119.379 84.18 119.379 84.9C119.379 85.8 119.539 86.67 119.819 87.48C119.739 87.4 119.669 87.32 119.609 87.22C119.189 86.55 118.809 85.85 118.419 85.15C117.769 83.96 117.159 82.75 116.469 81.59C116.229 81.18 115.969 80.77 115.709 80.37C116.119 78.64 116.519 76.99 116.919 75.41C118.209 77.13 119.259 79 120.289 80.89C120.099 81.51 119.899 82.14 119.709 82.76ZM132.009 90.98C133.349 91.8 134.949 92.26 136.659 92.26C136.819 92.26 136.979 92.26 137.139 92.25C137.789 92.22 138.359 92.13 138.779 92.07C138.889 92.05 139.009 92.04 139.119 92.02C139.739 91.94 140.439 91.9 141.319 91.9C142.039 91.9 142.779 91.92 143.569 91.95L144.469 91.98C144.689 91.98 144.909 91.99 145.129 91.99C145.879 91.99 146.519 91.94 147.149 91.83C150.999 91.18 153.739 87.9 153.669 84.02C153.639 82.43 153.119 80.95 152.239 79.72C153.029 79.17 153.709 78.47 154.249 77.68C154.759 78.37 155.229 78.96 155.599 79.4C156.329 80.28 156.739 80.71 157.249 81.25C157.769 81.8 158.469 82.55 160.029 84.32C160.789 85.19 161.309 85.86 161.859 86.92C162.029 87.24 162.049 87.4 162.059 87.43C162.059 87.43 162.039 87.48 161.989 87.58L161.849 87.86C161.729 88.1 161.559 88.44 161.479 88.55C160.519 89.91 159.489 90.89 158.319 91.54C156.439 92.59 154.239 93.4 151.389 94.11C149.219 94.65 146.749 94.97 143.639 95.12C142.819 95.16 142.009 95.18 141.229 95.18C136.779 95.18 132.789 94.57 129.019 93.3C128.459 93.11 127.889 92.9 127.329 92.69C129.099 92.66 130.719 92.04 132.029 90.99L132.009 90.98ZM133.839 56.15C133.979 55.33 134.459 54.81 135.069 54.81C135.119 54.81 135.169 54.81 135.219 54.82C135.449 54.85 135.649 54.95 135.809 55.09C135.809 55.13 135.789 55.16 135.779 55.19C135.659 55.96 135.669 56.72 135.799 57.46C135.759 57.58 135.709 57.7 135.669 57.82L135.189 59.36C134.559 61.36 134.019 63.08 133.349 65.32C132.959 66.64 132.589 67.96 132.229 69.23C131.909 70.38 131.579 71.53 131.249 72.68C130.789 74.22 130.319 75.76 129.849 77.3C129.439 78.65 129.019 80 128.619 81.35C128.439 81.95 128.329 82.56 128.269 83.16C128.129 82.78 127.959 82.4 127.769 82.02C127.439 81.39 127.119 80.8 126.789 80.22C127.589 77.64 128.389 75.06 129.189 72.47C130.379 70.93 131.249 69.19 131.729 67.3C132.099 65.84 132.229 64.37 132.149 62.94C132.829 60.7 133.449 58.45 133.859 56.14L133.839 56.15ZM126.039 62.37C125.909 62.77 125.789 63.17 125.659 63.58L125.229 64.97C124.759 66.49 124.279 68.01 123.809 69.54C123.359 70.01 122.849 70.44 122.289 70.83C120.719 71.92 119.099 72.95 117.359 73.74C117.819 72.02 118.309 70.37 118.829 68.74C119.289 68.44 119.739 68.14 120.179 67.82C120.709 67.44 121.199 66.96 121.579 66.43C123.019 64.47 122.719 61.89 120.929 60.23C120.839 60.15 120.749 60.08 120.659 60C120.409 57.93 119.319 56.11 117.679 54.95C118.299 55.02 118.909 55.14 119.519 55.31C123.199 56.38 125.509 59.2 126.039 62.36V62.37ZM70.7588 64.34C70.7588 64.34 70.8188 64.37 70.8588 64.38C71.4888 64.57 72.1488 64.68 72.8188 64.73C72.4588 65.42 72.1188 66.11 71.7888 66.78C71.4888 65.95 71.1488 65.14 70.7588 64.34ZM90.1288 54.81C90.1288 54.81 90.1988 54.81 90.2288 54.81C90.3788 54.81 90.5288 54.82 90.6688 54.83C90.2388 55.43 89.8188 56.06 89.4188 56.75C89.3888 56.81 89.3588 56.86 89.3288 56.92C89.1288 56.63 88.9088 56.35 88.6588 56.09C88.2188 55.63 87.7188 55.24 87.1888 54.91L90.1288 54.82V54.81ZM79.0488 55.15C78.3888 55.62 77.7988 56.2 77.3088 56.87C76.9188 57.41 76.6088 57.92 76.3588 58.35C76.2888 58.47 76.2188 58.59 76.1488 58.71C75.7388 58.72 75.3188 58.73 74.9088 58.74C74.4888 58.75 74.0688 58.77 73.6588 58.77C73.5688 58.77 73.4888 58.77 73.3988 58.77C73.1388 58.77 72.8688 58.72 72.6188 58.65C72.1888 58.52 71.8688 58.26 71.6588 57.93C72.6388 57.64 73.5788 57.17 74.3988 56.52C74.7088 56.27 74.9688 56.04 75.1988 55.8C75.3588 55.63 75.5088 55.44 75.6588 55.26L79.0488 55.16V55.15ZM62.9188 83.42C61.2688 84.74 59.6688 85.34 58.8688 85.6C57.4788 86.05 56.1588 86.2 54.9888 86.2C53.0488 86.2 51.5288 85.77 50.7588 85.54C49.9788 85.31 48.6688 84.92 47.2288 83.93C46.4488 83.4 45.0388 82.41 44.0488 80.57C43.7688 80.05 43.2288 78.92 43.0788 77.35C42.9988 76.53 43.1588 75.66 43.3488 74.84C43.5788 73.82 44.1988 72.96 44.8488 72.15C45.2188 71.69 45.7388 71.46 46.2588 71.46C46.5888 71.46 46.9188 71.55 47.2088 71.73C47.9788 72.2 48.2788 73.17 47.8988 74.03C47.7588 74.34 47.5588 74.63 47.3588 74.91C46.4988 76.06 46.4888 77.28 47.1388 78.51C47.8488 79.86 48.9888 80.55 49.8188 81.01C50.3188 81.29 51.8388 82.08 53.9888 82.17C54.1288 82.17 54.2688 82.17 54.4088 82.17C56.2188 82.17 57.5788 81.65 58.4388 81.31C59.0588 81.06 59.9588 80.7 60.9588 79.93C61.5388 79.48 62.4588 78.76 63.0688 77.54C63.7888 76.1 63.7588 74.75 63.5988 73.62C63.3888 72.03 62.9588 70.49 62.2888 69.04C61.6788 67.71 61.0288 66.41 60.3288 65.12C59.3888 63.39 58.3688 61.71 57.4288 59.99C56.0488 57.45 55.1688 54.78 55.3588 51.84C55.5388 49.08 56.6888 46.77 58.7588 44.96C60.4388 43.49 62.4788 42.98 64.6588 42.97C64.6788 42.97 64.6988 42.97 64.7188 42.97C66.4588 42.97 68.0988 43.37 69.6788 44.09C72.1188 45.2 72.7888 47.45 72.1488 49.48C71.8688 49.53 71.5988 49.57 71.3288 49.63C70.0888 49.92 68.9888 50.51 68.0788 51.29C67.8888 50.86 67.8588 50.35 68.0788 49.83C68.2288 49.49 68.4288 49.17 68.5688 48.83C68.8888 48.03 68.7388 47.68 67.9388 47.32C66.8888 46.86 65.7988 46.62 64.6888 46.62C64.3788 46.62 64.0588 46.64 63.7388 46.68C61.5188 46.94 60.1488 48.29 59.3888 50.29C58.9188 51.53 58.8588 52.84 59.1288 54.14C59.4588 55.74 60.0488 57.23 60.8588 58.65C62.3188 61.24 63.7688 63.84 65.1388 66.47C66.2388 68.58 66.9388 70.84 67.2288 73.21C67.3188 73.91 67.3988 75.03 67.1888 76.37C66.5488 77.7 65.9188 79.02 65.2888 80.35C65.0888 80.77 64.9288 81.2 64.7788 81.64C64.0688 82.47 63.3688 83.05 62.9188 83.41V83.42ZM74.4588 83.49C74.2688 83.93 74.0788 84.37 73.8588 84.79C73.7188 85.07 73.5488 85.35 73.3488 85.59C72.9688 86.04 72.4588 86.27 71.9388 86.27C71.7088 86.27 71.4788 86.22 71.2688 86.13C70.5988 85.83 70.1988 85.11 70.2988 84.3C70.8888 83.47 71.4488 82.52 71.9388 81.4C72.3888 80.37 72.7188 79.32 72.9488 78.24C74.2488 75.52 75.5588 72.8 76.8488 70.08C77.7288 68.23 78.6888 66.41 79.6788 64.62C80.2988 64.61 80.9188 64.59 81.5388 64.58C82.1288 64.57 82.7288 64.56 83.3188 64.55C80.0788 70.73 77.2288 77.09 74.4488 83.49H74.4588ZM92.7288 86.33C92.2588 86.33 91.7788 86.27 91.2888 86.16C90.0388 85.88 89.1388 85.16 88.5988 84C88.0688 82.86 87.9688 81.65 87.9588 80.55C88.1688 76.07 88.7888 71.81 90.5688 67.78C91.0988 66.57 91.6688 65.37 92.2488 64.19C92.7388 64.08 93.2188 63.95 93.6788 63.78C96.9188 62.58 98.9188 59.45 98.6488 56C98.6288 55.71 98.5688 55.44 98.5188 55.17C98.7188 55.06 98.9288 54.96 99.1388 54.88C99.6188 54.69 100.099 54.59 100.579 54.59C101.079 54.59 101.579 54.7 102.079 54.93C103.279 55.49 104.149 56.27 104.609 57.32C104.609 57.38 104.609 57.44 104.609 57.5C104.649 58.15 104.799 58.78 104.999 59.38C104.999 59.8 104.999 60.22 104.959 60.63C104.879 61.39 104.379 61.91 103.719 61.97C103.669 61.97 103.619 61.97 103.569 61.97C102.919 61.97 102.419 61.56 102.209 60.83C102.139 60.58 102.129 60.31 102.089 60.04C102.039 59.7 102.039 59.35 101.949 59.02C101.779 58.42 101.329 58.08 100.849 58.08C100.559 58.08 100.259 58.2 99.9988 58.45C99.6588 58.78 99.3488 59.16 99.0888 59.55C96.3888 63.62 94.2088 67.95 92.7188 72.6C92.0888 74.56 91.9088 76.61 91.7488 78.64C91.6688 79.64 91.6488 80.66 91.7188 81.65C91.7688 82.35 92.0188 82.65 92.5288 82.65C92.6888 82.65 92.8688 82.62 93.0688 82.57C93.4688 82.47 93.8988 82.28 94.1888 82.01C94.8588 81.37 95.5588 80.73 96.0488 79.96C97.9588 76.97 99.3688 73.74 100.249 70.29C100.339 69.93 100.449 69.58 100.539 69.21C100.909 67.72 101.289 66.23 101.629 64.73C101.849 63.78 102.399 63.16 103.209 63.06C103.289 63.05 103.369 63.05 103.449 63.05C103.969 63.05 104.439 63.27 104.759 63.63C104.189 65.03 103.599 66.48 103.109 68.06C101.989 71.64 100.949 75.27 99.9388 78.79L99.4688 80.42L99.3488 80.84C99.2388 81.23 99.1288 81.58 99.0188 82.12C98.2988 83.3 97.3288 84.25 96.2288 85.08C95.1388 85.9 93.9588 86.3 92.6988 86.3L92.7288 86.33ZM168.749 62.49C168.899 62.12 169.119 61.78 169.259 61.41C169.689 60.33 169.509 59.82 168.499 59.23C168.109 59 167.699 58.83 167.299 58.72C166.889 58.61 166.479 58.57 166.079 58.57C165.339 58.57 164.639 58.72 164.119 58.85C163.269 59.07 161.479 59.54 160.009 61.17C159.419 61.82 158.579 62.75 158.449 64.13C158.319 65.51 158.949 66.84 159.129 67.24C159.189 67.38 159.359 67.71 159.569 68.1C159.909 68.71 160.189 69.14 160.329 69.35C161.649 71.34 161.569 71.35 162.289 72.34C162.869 73.14 163.239 73.66 163.859 74.32C164.329 74.83 164.519 74.97 165.199 75.67C165.589 76.06 166.079 76.58 166.749 77.36C168.519 79.39 169.469 80.76 170.189 82.04C170.949 83.4 171.449 84.85 171.659 86.39C171.879 87.98 171.589 89.52 170.999 90.99C169.649 94.41 167.379 96.68 164.399 98.77C162.109 100.37 159.449 101.08 156.819 101.95C152.989 103.22 148.959 103.89 144.939 104.1C143.749 104.16 142.549 104.22 141.359 104.28C141.139 104.28 140.919 104.28 140.709 104.28C132.279 104.28 124.509 102.6 117.059 98.71C113.789 97 109.409 94.61 106.199 92.34C106.339 92.34 106.469 92.36 106.639 92.36C108.119 92.36 109.539 91.94 110.729 91.15C110.769 91.12 110.799 91.09 110.839 91.07C115.879 94.36 121.739 97.21 127.089 99C131.689 100.54 136.409 101.19 141.209 101.19C142.109 101.19 143.009 101.17 143.909 101.12C146.909 100.98 149.899 100.67 152.819 99.94C155.739 99.21 158.579 98.26 161.219 96.79C163.329 95.61 164.999 93.96 166.369 92.01C166.729 91.49 167.009 90.91 167.299 90.35C168.379 88.27 168.219 86.2 167.159 84.17C166.349 82.62 165.549 81.57 164.519 80.39C161.479 76.92 161.509 77.16 160.189 75.58C159.689 74.98 157.359 72.16 155.769 68.74C155.569 68.31 155.349 67.8 155.169 67.12C154.899 66.11 154.829 65.07 154.909 64.02C154.909 64.02 154.929 64.02 154.939 64.02C158.499 63.55 161.209 60.76 161.539 57.22C161.579 56.79 161.579 56.36 161.549 55.94C162.459 55.54 163.429 55.23 164.469 55.05C165.009 54.96 165.539 54.91 166.059 54.91C167.839 54.91 169.509 55.45 171.039 56.55C172.859 57.86 173.529 59.71 172.959 61.87C172.799 62.48 172.539 63.07 172.269 63.65C172.109 63.98 171.869 64.28 171.599 64.53C171.229 64.87 170.779 65.04 170.329 65.04C169.979 65.04 169.629 64.93 169.329 64.72C168.639 64.24 168.399 63.37 168.749 62.52V62.49Z" fill="#2EACF3"/>
</g>
<g style="mix-blend-mode:hard-light" filter="url(#filter1_f_639_699)">
<path d="M179.447 67.12C179.797 66.39 180.297 65.27 180.657 63.94C182.077 58.62 180.167 53.31 175.687 50.08C172.827 48.02 169.487 46.93 166.037 46.93C165.077 46.93 164.087 47.01 163.107 47.18C161.667 47.42 160.287 47.83 158.937 48.37C158.257 47.96 157.517 47.63 156.717 47.39C155.707 47.09 154.617 46.93 153.487 46.93H153.287L143.267 47.11H143.097C142.737 47.11 142.397 47.13 142.067 47.16C141.067 47.27 140.127 47.53 139.257 47.9C138.347 47.43 137.357 47.09 136.307 46.94C135.887 46.88 135.457 46.85 135.047 46.85C132.017 46.85 129.337 48.32 127.647 50.68C125.947 49.35 123.947 48.32 121.727 47.67C119.967 47.16 118.087 46.9 116.147 46.9C114.357 46.9 112.477 47.12 110.407 47.56C109.517 47.75 108.647 48.07 107.807 48.5C107.647 48.58 107.497 48.69 107.347 48.78C106.757 48.39 106.127 48.03 105.457 47.72C103.897 46.99 102.247 46.62 100.557 46.62C99.0771 46.62 97.6071 46.91 96.1771 47.47C95.8471 47.6 95.5371 47.77 95.2171 47.92C94.7371 47.68 94.2271 47.48 93.6971 47.32C92.6171 47 91.4271 46.83 90.1871 46.83H89.9671C89.9671 46.83 89.8771 46.83 89.8371 46.83L80.3071 47.12C80.2671 46.65 80.2171 46.18 80.1271 45.71C79.3671 41.79 76.7571 38.55 72.9571 36.83C70.2771 35.61 67.4971 35 64.6871 35H64.5871C60.1971 35.02 56.4571 36.36 53.4671 38.96C49.7871 42.17 47.6671 46.45 47.3371 51.34C47.0571 55.5 48.0471 59.58 50.3571 63.84C50.4971 64.1 50.6371 64.36 50.7871 64.62C49.3771 63.88 47.8071 63.49 46.2071 63.49C43.2271 63.49 40.4371 64.83 38.5571 67.17C37.4471 68.56 36.0871 70.48 35.4871 73.09C35.1871 74.41 34.8671 76.19 35.0571 78.16C35.2771 80.37 35.9071 82.47 36.9471 84.4C38.8871 87.99 41.6271 89.87 42.6671 90.57C45.1871 92.29 47.4771 92.96 48.4571 93.25C49.8871 93.67 52.1171 94.23 54.9471 94.23C57.1071 94.23 59.2371 93.9 61.2771 93.24C62.6071 92.81 63.8971 92.22 65.1371 91.52C65.9471 92.32 66.8971 92.98 67.9771 93.46C69.2171 94.01 70.5471 94.3 71.9071 94.3C74.7971 94.3 77.5371 93.02 79.4271 90.78C79.9971 90.11 80.4971 89.35 80.9471 88.46C81.1071 88.15 81.2571 87.84 81.3871 87.55C82.9971 90.89 85.8571 93.17 89.4871 93.99C90.5571 94.23 91.6371 94.35 92.6971 94.35C93.9471 94.35 95.1871 94.17 96.3771 93.83C96.8671 94.68 97.4771 95.48 98.2171 96.18C98.8771 96.81 99.5971 97.43 100.347 98C103.237 100.2 107.477 102.75 113.327 105.81C121.667 110.17 130.617 112.29 140.677 112.29C140.917 112.29 141.167 112.29 141.407 112.29C141.507 112.29 141.617 112.29 141.717 112.29L142.897 112.23C143.707 112.19 144.507 112.15 145.317 112.11C150.267 111.85 154.967 111 159.287 109.57C159.637 109.46 159.977 109.34 160.327 109.23C162.977 108.38 165.977 107.41 168.927 105.35C171.867 103.3 176.037 99.89 178.387 93.96C179.537 91.07 179.917 88.16 179.537 85.33C179.197 82.81 178.387 80.4 177.127 78.15C176.107 76.33 174.907 74.65 173.147 72.6C174.567 72.16 175.887 71.41 177.007 70.36C178.037 69.39 178.857 68.29 179.427 67.09L179.447 67.12ZM127.857 76.66C127.857 76.66 127.917 76.62 127.937 76.59C127.917 76.65 127.897 76.71 127.887 76.77C127.787 77.08 127.697 77.4 127.597 77.71C127.587 77.68 127.567 77.66 127.557 77.63C127.657 77.31 127.757 76.98 127.857 76.66ZM147.617 84.19C147.637 85.05 147.017 85.82 146.097 85.97C145.767 86.03 145.417 86.04 145.077 86.04C144.917 86.04 144.757 86.04 144.597 86.04C143.487 86.01 142.387 85.96 141.277 85.96C140.287 85.96 139.297 86 138.317 86.13C137.817 86.19 137.317 86.29 136.817 86.32C136.837 86.22 136.847 86.13 136.857 86.05C137.247 84.56 137.657 83.12 138.097 81.62C138.137 81.65 138.187 81.67 138.227 81.7C138.177 81.92 138.127 82.16 138.057 82.45C138.587 82.41 138.997 82.36 139.397 82.36C139.407 82.36 139.417 82.36 139.427 82.36C139.467 82.36 139.517 82.36 139.557 82.36C140.657 82.81 141.847 83.1 143.127 83.21C143.557 83.25 144.017 83.27 144.507 83.27C144.737 83.27 144.957 83.27 145.187 83.27C145.307 83.27 145.437 83.27 145.557 83.27C145.617 83.27 145.677 83.27 145.737 83.27C145.847 83.27 145.957 83.27 146.067 83.27C146.327 83.27 146.577 83.27 146.837 83.27C146.997 83.27 147.137 83.27 147.287 83.27C147.477 83.54 147.587 83.87 147.597 84.22L147.617 84.19ZM148.197 74.75C148.237 74.6 148.277 74.45 148.307 74.3C148.447 73.75 148.587 73.19 148.737 72.64C148.957 73.09 149.177 73.53 149.407 73.96C149.287 74.35 149.027 74.67 148.677 74.9C148.517 74.85 148.357 74.8 148.197 74.76V74.75ZM133.717 57.31L133.277 58.69C133.427 58.06 133.557 57.42 133.677 56.79C133.677 56.97 133.697 57.14 133.717 57.31ZM117.757 82.22C117.627 82.64 117.537 83.07 117.467 83.49C117.357 83.28 117.237 83.08 117.127 82.87C117.217 82.54 117.307 82.2 117.387 81.84C117.727 80.39 118.057 79.01 118.387 77.67C118.557 77.95 118.737 78.24 118.907 78.52C118.527 79.75 118.137 80.98 117.757 82.21V82.22ZM155.617 84.03C155.607 83.45 155.537 82.88 155.427 82.33C155.527 82.44 155.637 82.55 155.737 82.67C156.247 83.21 156.937 83.94 158.467 85.69C159.087 86.4 159.447 86.87 159.777 87.44C159.767 87.46 159.757 87.48 159.747 87.5C158.967 88.6 158.187 89.34 157.287 89.84C155.777 90.68 154.007 91.37 151.787 91.97C154.187 90.14 155.667 87.25 155.607 84.04L155.617 84.03ZM124.837 59.33C124.487 60.54 124.107 61.77 123.717 63.03L123.277 64.43C122.567 66.71 121.857 68.99 121.147 71.27C121.097 71.42 121.057 71.57 121.007 71.72C120.597 71.99 120.167 72.26 119.747 72.51C120.307 70.55 120.897 68.66 121.567 66.79C121.657 66.54 121.727 66.3 121.797 66.05C122.287 65.22 122.497 64.3 122.427 63.4C122.497 63.02 122.547 62.65 122.597 62.33C122.907 60.07 122.427 57.91 121.367 56.13C122.857 56.91 124.027 58.03 124.837 59.33ZM102.047 54.97C102.287 55.08 102.517 55.21 102.737 55.34C102.607 56.1 102.537 56.87 102.587 57.67C102.667 58.96 103.007 60.19 103.557 61.29C103.467 61.52 103.377 61.75 103.277 61.98C102.757 61.88 102.347 61.51 102.177 60.88C102.107 60.63 102.097 60.36 102.057 60.09C102.007 59.75 102.007 59.4 101.917 59.07C101.747 58.47 101.297 58.13 100.817 58.13C100.717 58.13 100.617 58.16 100.507 58.19C100.627 57.44 100.657 56.67 100.597 55.88C100.567 55.45 100.487 55.04 100.407 54.63C100.447 54.63 100.497 54.62 100.537 54.62C101.037 54.62 101.537 54.73 102.037 54.96L102.047 54.97ZM58.8271 85.63C57.4371 86.08 56.1171 86.23 54.9471 86.23C53.0071 86.23 51.4871 85.8 50.7171 85.57C49.9371 85.34 48.6271 84.95 47.1871 83.96C46.4071 83.43 44.9971 82.44 44.0071 80.6C43.7271 80.08 43.1871 78.95 43.0371 77.38C42.9571 76.56 43.1171 75.69 43.3071 74.87C43.5371 73.85 44.1571 72.99 44.8071 72.18C45.1771 71.72 45.6971 71.49 46.2171 71.49C46.5471 71.49 46.8771 71.58 47.1671 71.76C47.9371 72.23 48.2371 73.2 47.8571 74.06C47.7171 74.37 47.5171 74.66 47.3171 74.94C46.4571 76.09 46.4471 77.31 47.0971 78.54C47.8071 79.89 48.9471 80.58 49.7771 81.04C50.2771 81.32 51.7971 82.11 53.9471 82.2C54.0871 82.2 54.2271 82.2 54.3671 82.2C56.1771 82.2 57.5371 81.68 58.3971 81.34C59.0171 81.09 59.9171 80.73 60.9171 79.96C61.4971 79.51 62.4171 78.79 63.0271 77.57C63.7471 76.13 63.7171 74.78 63.5571 73.65C63.3471 72.06 62.9171 70.52 62.2471 69.07C61.6371 67.74 60.9871 66.44 60.2871 65.15C59.3471 63.42 58.3271 61.74 57.3871 60.02C56.0071 57.48 55.1271 54.81 55.3171 51.87C55.4971 49.11 56.6471 46.8 58.7171 44.99C60.3971 43.52 62.4371 43.01 64.6171 43C64.6371 43 64.6571 43 64.6771 43C66.4171 43 68.0571 43.4 69.6371 44.12C71.2671 44.86 72.1071 46.11 72.2971 47.46C71.7971 47.52 71.3071 47.61 70.8271 47.72C70.0571 47.9 69.3171 48.18 68.6371 48.53C68.7771 47.96 68.5771 47.66 67.8971 47.36C66.8471 46.9 65.7571 46.66 64.6471 46.66C64.3371 46.66 64.0171 46.68 63.6971 46.72C61.4771 46.98 60.1071 48.33 59.3471 50.33C58.8771 51.57 58.8171 52.88 59.0871 54.18C59.4171 55.78 60.0071 57.27 60.8171 58.69C62.2771 61.28 63.7271 63.88 65.0971 66.51C66.0171 68.27 66.6371 70.14 66.9871 72.09C66.8071 72.46 66.6371 72.83 66.4571 73.2C65.4471 75.31 64.4371 77.41 63.4271 79.53C62.9071 80.62 62.5471 81.76 62.3571 82.92C62.2971 83.25 62.2671 83.58 62.2471 83.91C60.8271 84.91 59.5171 85.4 58.8171 85.62L58.8271 85.63ZM74.4271 83.52C74.2371 83.96 74.0471 84.4 73.8271 84.82C73.6871 85.1 73.5171 85.38 73.3171 85.62C72.9371 86.07 72.4271 86.3 71.9071 86.3C71.7271 86.3 71.5471 86.26 71.3771 86.2C72.2071 85.13 73.0471 83.81 73.7371 82.22C74.9471 79.44 75.4471 76.48 75.2371 73.4C75.7671 72.3 76.2871 71.2 76.8171 70.1C77.3671 68.94 77.9571 67.8 78.5571 66.67C79.5571 66.64 80.5571 66.62 81.5471 66.6C81.7871 66.6 82.0271 66.6 82.2671 66.59C79.4471 72.14 76.8971 77.8 74.4271 83.51V83.52ZM91.2471 86.2C89.9971 85.92 89.1071 85.2 88.5571 84.04C88.0271 82.9 87.9271 81.69 87.9171 80.59C88.1171 76.43 88.6771 72.47 90.1671 68.7C90.2671 68.52 90.3471 68.33 90.4471 68.15C90.7671 67.54 91.0471 66.95 91.2871 66.41C92.3271 66.3 93.3571 66.06 94.3271 65.7C94.8871 65.49 95.4171 65.24 95.9071 64.94C94.6271 67.41 93.5371 69.98 92.6771 72.66C92.0471 74.62 91.8671 76.67 91.7071 78.7C91.6271 79.7 91.6071 80.72 91.6771 81.71C91.7271 82.41 91.9771 82.71 92.4871 82.71C92.6471 82.71 92.8271 82.68 93.0271 82.63C93.4271 82.53 93.8571 82.34 94.1471 82.07C94.8171 81.43 95.5171 80.79 96.0071 80.02C97.9171 77.03 99.3271 73.8 100.207 70.35C100.297 69.99 100.407 69.64 100.497 69.27C100.867 67.78 101.247 66.29 101.587 64.79C101.767 64.02 102.167 63.49 102.737 63.25C102.197 64.59 101.637 65.98 101.157 67.52C100.027 71.13 98.9871 74.77 97.9771 78.3L97.5071 79.93L97.3871 80.34C97.2171 80.92 97.0871 81.37 96.9371 82.16C96.8671 82.5 96.8171 82.84 96.7871 83.18C96.2771 83.9 95.8671 84.7 95.5671 85.55C94.6571 86.09 93.6871 86.37 92.6571 86.37C92.1871 86.37 91.7071 86.31 91.2171 86.2H91.2471ZM170.967 91.03C169.617 94.45 167.347 96.72 164.367 98.81C162.077 100.41 159.417 101.12 156.787 101.99C152.957 103.26 148.927 103.93 144.907 104.14C143.717 104.2 142.517 104.26 141.327 104.32C141.107 104.32 140.887 104.32 140.677 104.32C132.247 104.32 124.477 102.64 117.027 98.75C114.587 97.48 111.537 95.82 108.807 94.12C109.877 93.87 110.887 93.46 111.807 92.85C112.107 92.65 112.367 92.44 112.627 92.23C113.087 92.51 113.547 92.79 114.007 93.06C115.497 94.64 117.457 95.67 119.597 95.99C122.107 97.18 124.637 98.22 127.057 99.03C131.657 100.57 136.377 101.22 141.177 101.22C142.077 101.22 142.977 101.2 143.877 101.15C146.877 101.01 149.867 100.7 152.787 99.97C155.707 99.24 158.547 98.29 161.187 96.82C163.297 95.64 164.967 93.99 166.337 92.04C166.697 91.52 166.977 90.94 167.267 90.38C168.347 88.3 168.187 86.23 167.127 84.2C166.317 82.65 165.517 81.6 164.487 80.42C161.447 76.95 161.477 77.19 160.157 75.61C159.807 75.19 158.587 73.71 157.347 71.7C157.037 69.96 156.247 68.38 155.127 67.08C155.037 66.74 154.967 66.39 154.927 66.04C155.007 66.04 155.097 66.04 155.177 66.02C156.347 65.87 157.447 65.51 158.437 64.99C158.537 66.05 158.957 66.97 159.107 67.28C159.167 67.42 159.337 67.75 159.547 68.14C159.887 68.75 160.167 69.18 160.307 69.39C161.627 71.38 161.547 71.39 162.267 72.38C162.847 73.18 163.217 73.7 163.837 74.36C164.307 74.87 164.497 75.01 165.177 75.71C165.567 76.1 166.057 76.62 166.727 77.4C168.497 79.43 169.447 80.8 170.167 82.08C170.927 83.44 171.427 84.89 171.637 86.43C171.857 88.02 171.567 89.56 170.977 91.03H170.967ZM172.917 61.88C172.757 62.49 172.497 63.08 172.227 63.66C172.067 63.99 171.827 64.29 171.557 64.54C171.187 64.88 170.737 65.05 170.287 65.05C169.937 65.05 169.587 64.94 169.287 64.73C168.597 64.25 168.357 63.38 168.707 62.53C168.857 62.16 169.077 61.82 169.217 61.45C169.647 60.37 169.467 59.86 168.457 59.27C168.067 59.04 167.657 58.87 167.257 58.76C166.847 58.65 166.437 58.61 166.037 58.61C165.297 58.61 164.597 58.76 164.077 58.89C163.837 58.95 163.527 59.04 163.167 59.16C163.327 58.6 163.437 58.02 163.497 57.42C163.567 56.69 163.537 55.98 163.457 55.28C163.777 55.2 164.107 55.12 164.437 55.06C164.977 54.97 165.507 54.92 166.027 54.92C167.807 54.92 169.477 55.46 171.007 56.56C172.827 57.87 173.497 59.72 172.927 61.88H172.917Z" fill="#267DFF"/>
</g>
<g style="mix-blend-mode:hard-light" filter="url(#filter2_ddi_639_699)">
<path d="M175.709 68.88C176.559 68.09 177.229 67.19 177.699 66.2C178.009 65.54 178.469 64.54 178.779 63.37C179.999 58.8 178.419 54.42 174.569 51.64C172.019 49.8 169.159 48.87 166.079 48.87C165.229 48.87 164.349 48.94 163.479 49.09C161.829 49.37 160.259 49.87 158.739 50.58C157.999 50 157.139 49.54 156.179 49.25C155.359 49 154.459 48.88 153.519 48.88H153.349L143.309 49.06H143.129C142.839 49.06 142.569 49.07 142.309 49.1C141.169 49.23 140.129 49.6 139.209 50.15C138.289 49.49 137.219 49.04 136.049 48.88C135.719 48.83 135.389 48.81 135.059 48.81C131.909 48.81 129.249 50.85 128.239 53.9C126.409 51.92 124.009 50.38 121.189 49.56C119.609 49.1 117.919 48.87 116.169 48.87C114.519 48.87 112.779 49.07 110.839 49.48C110.129 49.63 109.419 49.89 108.739 50.24C108.219 50.51 107.749 50.84 107.309 51.21C106.529 50.55 105.629 49.97 104.619 49.5C103.329 48.89 101.969 48.59 100.569 48.59C99.3388 48.59 98.1188 48.83 96.9288 49.3C96.3288 49.54 95.7688 49.84 95.2188 50.17C94.5988 49.77 93.9088 49.44 93.1488 49.22C92.2488 48.95 91.2588 48.82 90.2088 48.82H90.0188C90.0188 48.82 89.9488 48.82 89.9188 48.82L78.2888 49.18C78.3988 48.15 78.3788 47.11 78.1788 46.09C77.5388 42.81 75.3388 40.1 72.1388 38.65C69.7288 37.55 67.2188 37 64.6988 37H64.6088C60.7088 37.02 57.4088 38.19 54.7888 40.47C51.5188 43.32 49.6288 47.13 49.3388 51.47C49.0888 55.24 49.9988 58.97 52.1188 62.88C52.6188 63.81 53.1388 64.71 53.6388 65.57C54.1288 66.41 54.5888 67.21 55.0188 68.01C55.6388 69.16 56.2388 70.35 56.7988 71.57C57.1988 72.44 57.4688 73.41 57.6088 74.44C57.6388 74.67 57.6488 74.8 57.6488 74.87C57.5488 74.96 57.3688 75.11 57.2188 75.22C56.8988 75.47 56.6188 75.58 56.1888 75.75C55.6388 75.97 55.0788 76.19 54.3688 76.19C54.3188 76.19 54.2688 76.19 54.2088 76.19C53.9488 76.18 53.7088 76.14 53.4988 76.09C54.8488 72.55 53.5388 68.63 50.3088 66.64C49.0788 65.88 47.6588 65.48 46.2088 65.48C43.8388 65.48 41.6188 66.55 40.1188 68.41C39.0788 69.7 37.9488 71.32 37.4388 73.53C37.1488 74.78 36.8888 76.28 37.0488 77.96C37.2388 79.88 37.8088 81.78 38.7088 83.45C40.4188 86.62 42.8688 88.29 43.7888 88.92C46.0488 90.46 48.1288 91.07 49.0088 91.33C49.8488 91.58 52.0688 92.23 54.9288 92.23C56.8788 92.23 58.8088 91.93 60.6488 91.34C62.3688 90.79 64.0388 89.94 65.5488 88.9C66.3288 90.07 67.4188 91.04 68.7688 91.64C69.7588 92.08 70.8088 92.3 71.8888 92.3C74.1888 92.3 76.3688 91.27 77.8788 89.49C78.3488 88.94 78.7588 88.3 79.1488 87.55C79.4488 86.97 79.6888 86.42 79.9088 85.9C80.5588 84.4 81.2288 82.87 81.9188 81.32C81.9788 82.81 82.2188 84.65 83.0988 86.56C84.4188 89.41 86.8388 91.35 89.8988 92.05C90.8188 92.26 91.7488 92.37 92.6688 92.37C94.3088 92.37 95.9188 92.02 97.4088 91.35C97.8288 92.62 98.5488 93.79 99.5688 94.76C100.179 95.34 100.839 95.91 101.529 96.44C104.329 98.57 108.479 101.07 114.219 104.07C122.269 108.28 130.909 110.33 140.649 110.33C140.889 110.33 141.129 110.33 141.359 110.33C141.439 110.33 141.519 110.33 141.599 110.33L142.789 110.27C143.589 110.23 144.389 110.19 145.199 110.15C149.969 109.9 154.489 109.08 158.649 107.7C158.999 107.58 159.349 107.47 159.709 107.36C162.219 106.55 165.069 105.64 167.779 103.75C170.729 101.69 174.399 98.64 176.529 93.26C177.549 90.69 177.889 88.12 177.559 85.64C177.249 83.37 176.519 81.19 175.379 79.17C174.359 77.34 173.109 75.64 171.219 73.47C170.559 72.71 169.989 72.09 169.429 71.53C169.189 71.28 168.999 71.1 168.839 70.94C169.309 71.03 169.789 71.07 170.269 71.07C172.259 71.07 174.169 70.31 175.639 68.94L175.709 68.88ZM149.549 73.37C149.549 74.34 148.789 75.1 147.689 75.17C147.429 75.19 147.169 75.19 146.909 75.19C146.629 75.19 146.349 75.19 146.069 75.19C146.189 74.72 146.309 74.24 146.429 73.77C146.619 73.03 146.809 72.29 146.999 71.55C147.159 71.55 147.309 71.55 147.469 71.55C147.549 71.55 147.629 71.55 147.709 71.56C148.799 71.66 149.559 72.41 149.559 73.38L149.549 73.37ZM141.109 63.31C141.649 63.47 142.199 63.58 142.759 63.64C142.679 64.05 142.579 64.48 142.459 64.97C142.399 65.21 142.339 65.44 142.279 65.68C141.709 65.77 141.149 65.91 140.629 66.11C140.519 66.15 140.419 66.21 140.319 66.25C140.589 65.27 140.849 64.29 141.109 63.32V63.31ZM134.939 85.64V85.58C135.359 83.98 135.799 82.47 136.269 80.87C136.549 79.92 136.829 78.94 137.109 77.93C137.579 78.55 138.139 79.11 138.789 79.57C138.649 80.13 138.509 80.69 138.369 81.25C138.289 81.58 138.219 81.92 138.109 82.39C138.639 82.35 139.049 82.3 139.449 82.3C139.459 82.3 139.469 82.3 139.479 82.3C141.519 82.31 143.569 82.34 145.609 82.37C145.769 82.37 145.929 82.39 146.089 82.42C147.009 82.57 147.649 83.27 147.669 84.14C147.689 85 147.069 85.77 146.149 85.92C145.819 85.98 145.469 85.99 145.129 85.99C144.969 85.99 144.809 85.99 144.649 85.99C143.539 85.96 142.439 85.91 141.329 85.91C140.339 85.91 139.349 85.95 138.369 86.08C137.869 86.14 137.369 86.24 136.869 86.27C136.799 86.27 136.739 86.27 136.669 86.27C135.939 86.27 135.349 86.07 134.929 85.72C134.929 85.7 134.929 85.67 134.939 85.65V85.64ZM148.479 65.61C148.619 64.99 148.729 64.44 148.829 63.93C148.869 63.93 148.899 63.93 148.939 63.93C148.909 64.52 148.909 65.1 148.939 65.67C148.789 65.64 148.629 65.62 148.479 65.61ZM152.019 55.67C151.389 56.36 150.869 57.14 150.429 57.97C150.009 57.96 149.579 57.95 149.159 57.94C149.119 57.78 149.089 57.61 149.039 57.45C148.739 56.52 148.239 55.69 147.619 54.99L152.769 54.9C152.519 55.15 152.269 55.4 152.019 55.67ZM107.209 81.53C106.939 81.44 106.659 81.38 106.389 81.32C106.449 81.21 106.509 81.1 106.569 80.99C106.969 80.2 107.329 79.4 107.659 78.6C107.989 79.22 108.349 79.86 108.759 80.54C108.929 80.82 109.099 81.09 109.269 81.37C109.169 81.7 109.089 82.04 108.989 82.37C108.489 82.06 107.899 81.76 107.219 81.53H107.209ZM112.499 65.34C112.059 65.52 111.629 65.73 111.199 65.96C111.219 65.69 111.259 65.41 111.269 65.14C111.269 64.91 111.269 64.69 111.249 64.47C111.829 64.55 112.349 64.57 112.719 64.57C112.849 64.57 112.989 64.57 113.119 64.57C113.379 64.57 113.649 64.56 113.909 64.55C113.889 64.61 113.869 64.66 113.849 64.72C113.389 64.96 112.929 65.18 112.489 65.36L112.499 65.34ZM119.709 82.76C119.489 83.48 119.379 84.18 119.379 84.9C119.379 85.8 119.539 86.67 119.819 87.48C119.739 87.4 119.669 87.32 119.609 87.22C119.189 86.55 118.809 85.85 118.419 85.15C117.769 83.96 117.159 82.75 116.469 81.59C116.229 81.18 115.969 80.77 115.709 80.37C116.119 78.64 116.519 76.99 116.919 75.41C118.209 77.13 119.259 79 120.289 80.89C120.099 81.51 119.899 82.14 119.709 82.76ZM132.009 90.98C133.349 91.8 134.949 92.26 136.659 92.26C136.819 92.26 136.979 92.26 137.139 92.25C137.789 92.22 138.359 92.13 138.779 92.07C138.889 92.05 139.009 92.04 139.119 92.02C139.739 91.94 140.439 91.9 141.319 91.9C142.039 91.9 142.779 91.92 143.569 91.95L144.469 91.98C144.689 91.98 144.909 91.99 145.129 91.99C145.879 91.99 146.519 91.94 147.149 91.83C150.999 91.18 153.739 87.9 153.669 84.02C153.639 82.43 153.119 80.95 152.239 79.72C153.029 79.17 153.709 78.47 154.249 77.68C154.759 78.37 155.229 78.96 155.599 79.4C156.329 80.28 156.739 80.71 157.249 81.25C157.769 81.8 158.469 82.55 160.029 84.32C160.789 85.19 161.309 85.86 161.859 86.92C162.029 87.24 162.049 87.4 162.059 87.43C162.059 87.43 162.039 87.48 161.989 87.58L161.849 87.86C161.729 88.1 161.559 88.44 161.479 88.55C160.519 89.91 159.489 90.89 158.319 91.54C156.439 92.59 154.239 93.4 151.389 94.11C149.219 94.65 146.749 94.97 143.639 95.12C142.819 95.16 142.009 95.18 141.229 95.18C136.779 95.18 132.789 94.57 129.019 93.3C128.459 93.11 127.889 92.9 127.329 92.69C129.099 92.66 130.719 92.04 132.029 90.99L132.009 90.98ZM133.839 56.15C133.979 55.33 134.459 54.81 135.069 54.81C135.119 54.81 135.169 54.81 135.219 54.82C135.449 54.85 135.649 54.95 135.809 55.09C135.809 55.13 135.789 55.16 135.779 55.19C135.659 55.96 135.669 56.72 135.799 57.46C135.759 57.58 135.709 57.7 135.669 57.82L135.189 59.36C134.559 61.36 134.019 63.08 133.349 65.32C132.959 66.64 132.589 67.96 132.229 69.23C131.909 70.38 131.579 71.53 131.249 72.68C130.789 74.22 130.319 75.76 129.849 77.3C129.439 78.65 129.019 80 128.619 81.35C128.439 81.95 128.329 82.56 128.269 83.16C128.129 82.78 127.959 82.4 127.769 82.02C127.439 81.39 127.119 80.8 126.789 80.22C127.589 77.64 128.389 75.06 129.189 72.47C130.379 70.93 131.249 69.19 131.729 67.3C132.099 65.84 132.229 64.37 132.149 62.94C132.829 60.7 133.449 58.45 133.859 56.14L133.839 56.15ZM126.039 62.37C125.909 62.77 125.789 63.17 125.659 63.58L125.229 64.97C124.759 66.49 124.279 68.01 123.809 69.54C123.359 70.01 122.849 70.44 122.289 70.83C120.719 71.92 119.099 72.95 117.359 73.74C117.819 72.02 118.309 70.37 118.829 68.74C119.289 68.44 119.739 68.14 120.179 67.82C120.709 67.44 121.199 66.96 121.579 66.43C123.019 64.47 122.719 61.89 120.929 60.23C120.839 60.15 120.749 60.08 120.659 60C120.409 57.93 119.319 56.11 117.679 54.95C118.299 55.02 118.909 55.14 119.519 55.31C123.199 56.38 125.509 59.2 126.039 62.36V62.37ZM70.7588 64.34C70.7588 64.34 70.8188 64.37 70.8588 64.38C71.4888 64.57 72.1488 64.68 72.8188 64.73C72.4588 65.42 72.1188 66.11 71.7888 66.78C71.4888 65.95 71.1488 65.14 70.7588 64.34ZM90.1288 54.81C90.1288 54.81 90.1988 54.81 90.2288 54.81C90.3788 54.81 90.5288 54.82 90.6688 54.83C90.2388 55.43 89.8188 56.06 89.4188 56.75C89.3888 56.81 89.3588 56.86 89.3288 56.92C89.1288 56.63 88.9088 56.35 88.6588 56.09C88.2188 55.63 87.7188 55.24 87.1888 54.91L90.1288 54.82V54.81ZM79.0488 55.15C78.3888 55.62 77.7988 56.2 77.3088 56.87C76.9188 57.41 76.6088 57.92 76.3588 58.35C76.2888 58.47 76.2188 58.59 76.1488 58.71C75.7388 58.72 75.3188 58.73 74.9088 58.74C74.4888 58.75 74.0688 58.77 73.6588 58.77C73.5688 58.77 73.4888 58.77 73.3988 58.77C73.1388 58.77 72.8688 58.72 72.6188 58.65C72.1888 58.52 71.8688 58.26 71.6588 57.93C72.6388 57.64 73.5788 57.17 74.3988 56.52C74.7088 56.27 74.9688 56.04 75.1988 55.8C75.3588 55.63 75.5088 55.44 75.6588 55.26L79.0488 55.16V55.15ZM62.9188 83.42C61.2688 84.74 59.6688 85.34 58.8688 85.6C57.4788 86.05 56.1588 86.2 54.9888 86.2C53.0488 86.2 51.5288 85.77 50.7588 85.54C49.9788 85.31 48.6688 84.92 47.2288 83.93C46.4488 83.4 45.0388 82.41 44.0488 80.57C43.7688 80.05 43.2288 78.92 43.0788 77.35C42.9988 76.53 43.1588 75.66 43.3488 74.84C43.5788 73.82 44.1988 72.96 44.8488 72.15C45.2188 71.69 45.7388 71.46 46.2588 71.46C46.5888 71.46 46.9188 71.55 47.2088 71.73C47.9788 72.2 48.2788 73.17 47.8988 74.03C47.7588 74.34 47.5588 74.63 47.3588 74.91C46.4988 76.06 46.4888 77.28 47.1388 78.51C47.8488 79.86 48.9888 80.55 49.8188 81.01C50.3188 81.29 51.8388 82.08 53.9888 82.17C54.1288 82.17 54.2688 82.17 54.4088 82.17C56.2188 82.17 57.5788 81.65 58.4388 81.31C59.0588 81.06 59.9588 80.7 60.9588 79.93C61.5388 79.48 62.4588 78.76 63.0688 77.54C63.7888 76.1 63.7588 74.75 63.5988 73.62C63.3888 72.03 62.9588 70.49 62.2888 69.04C61.6788 67.71 61.0288 66.41 60.3288 65.12C59.3888 63.39 58.3688 61.71 57.4288 59.99C56.0488 57.45 55.1688 54.78 55.3588 51.84C55.5388 49.08 56.6888 46.77 58.7588 44.96C60.4388 43.49 62.4788 42.98 64.6588 42.97C64.6788 42.97 64.6988 42.97 64.7188 42.97C66.4588 42.97 68.0988 43.37 69.6788 44.09C72.1188 45.2 72.7888 47.45 72.1488 49.48C71.8688 49.53 71.5988 49.57 71.3288 49.63C70.0888 49.92 68.9888 50.51 68.0788 51.29C67.8888 50.86 67.8588 50.35 68.0788 49.83C68.2288 49.49 68.4288 49.17 68.5688 48.83C68.8888 48.03 68.7388 47.68 67.9388 47.32C66.8888 46.86 65.7988 46.62 64.6888 46.62C64.3788 46.62 64.0588 46.64 63.7388 46.68C61.5188 46.94 60.1488 48.29 59.3888 50.29C58.9188 51.53 58.8588 52.84 59.1288 54.14C59.4588 55.74 60.0488 57.23 60.8588 58.65C62.3188 61.24 63.7688 63.84 65.1388 66.47C66.2388 68.58 66.9388 70.84 67.2288 73.21C67.3188 73.91 67.3988 75.03 67.1888 76.37C66.5488 77.7 65.9188 79.02 65.2888 80.35C65.0888 80.77 64.9288 81.2 64.7788 81.64C64.0688 82.47 63.3688 83.05 62.9188 83.41V83.42ZM74.4588 83.49C74.2688 83.93 74.0788 84.37 73.8588 84.79C73.7188 85.07 73.5488 85.35 73.3488 85.59C72.9688 86.04 72.4588 86.27 71.9388 86.27C71.7088 86.27 71.4788 86.22 71.2688 86.13C70.5988 85.83 70.1988 85.11 70.2988 84.3C70.8888 83.47 71.4488 82.52 71.9388 81.4C72.3888 80.37 72.7188 79.32 72.9488 78.24C74.2488 75.52 75.5588 72.8 76.8488 70.08C77.7288 68.23 78.6888 66.41 79.6788 64.62C80.2988 64.61 80.9188 64.59 81.5388 64.58C82.1288 64.57 82.7288 64.56 83.3188 64.55C80.0788 70.73 77.2288 77.09 74.4488 83.49H74.4588ZM92.7288 86.33C92.2588 86.33 91.7788 86.27 91.2888 86.16C90.0388 85.88 89.1388 85.16 88.5988 84C88.0688 82.86 87.9688 81.65 87.9588 80.55C88.1688 76.07 88.7888 71.81 90.5688 67.78C91.0988 66.57 91.6688 65.37 92.2488 64.19C92.7388 64.08 93.2188 63.95 93.6788 63.78C96.9188 62.58 98.9188 59.45 98.6488 56C98.6288 55.71 98.5688 55.44 98.5188 55.17C98.7188 55.06 98.9288 54.96 99.1388 54.88C99.6188 54.69 100.099 54.59 100.579 54.59C101.079 54.59 101.579 54.7 102.079 54.93C103.279 55.49 104.149 56.27 104.609 57.32C104.609 57.38 104.609 57.44 104.609 57.5C104.649 58.15 104.799 58.78 104.999 59.38C104.999 59.8 104.999 60.22 104.959 60.63C104.879 61.39 104.379 61.91 103.719 61.97C103.669 61.97 103.619 61.97 103.569 61.97C102.919 61.97 102.419 61.56 102.209 60.83C102.139 60.58 102.129 60.31 102.089 60.04C102.039 59.7 102.039 59.35 101.949 59.02C101.779 58.42 101.329 58.08 100.849 58.08C100.559 58.08 100.259 58.2 99.9988 58.45C99.6588 58.78 99.3488 59.16 99.0888 59.55C96.3888 63.62 94.2088 67.95 92.7188 72.6C92.0888 74.56 91.9088 76.61 91.7488 78.64C91.6688 79.64 91.6488 80.66 91.7188 81.65C91.7688 82.35 92.0188 82.65 92.5288 82.65C92.6888 82.65 92.8688 82.62 93.0688 82.57C93.4688 82.47 93.8988 82.28 94.1888 82.01C94.8588 81.37 95.5588 80.73 96.0488 79.96C97.9588 76.97 99.3688 73.74 100.249 70.29C100.339 69.93 100.449 69.58 100.539 69.21C100.909 67.72 101.289 66.23 101.629 64.73C101.849 63.78 102.399 63.16 103.209 63.06C103.289 63.05 103.369 63.05 103.449 63.05C103.969 63.05 104.439 63.27 104.759 63.63C104.189 65.03 103.599 66.48 103.109 68.06C101.989 71.64 100.949 75.27 99.9388 78.79L99.4688 80.42L99.3488 80.84C99.2388 81.23 99.1288 81.58 99.0188 82.12C98.2988 83.3 97.3288 84.25 96.2288 85.08C95.1388 85.9 93.9588 86.3 92.6988 86.3L92.7288 86.33ZM168.749 62.49C168.899 62.12 169.119 61.78 169.259 61.41C169.689 60.33 169.509 59.82 168.499 59.23C168.109 59 167.699 58.83 167.299 58.72C166.889 58.61 166.479 58.57 166.079 58.57C165.339 58.57 164.639 58.72 164.119 58.85C163.269 59.07 161.479 59.54 160.009 61.17C159.419 61.82 158.579 62.75 158.449 64.13C158.319 65.51 158.949 66.84 159.129 67.24C159.189 67.38 159.359 67.71 159.569 68.1C159.909 68.71 160.189 69.14 160.329 69.35C161.649 71.34 161.569 71.35 162.289 72.34C162.869 73.14 163.239 73.66 163.859 74.32C164.329 74.83 164.519 74.97 165.199 75.67C165.589 76.06 166.079 76.58 166.749 77.36C168.519 79.39 169.469 80.76 170.189 82.04C170.949 83.4 171.449 84.85 171.659 86.39C171.879 87.98 171.589 89.52 170.999 90.99C169.649 94.41 167.379 96.68 164.399 98.77C162.109 100.37 159.449 101.08 156.819 101.95C152.989 103.22 148.959 103.89 144.939 104.1C143.749 104.16 142.549 104.22 141.359 104.28C141.139 104.28 140.919 104.28 140.709 104.28C132.279 104.28 124.509 102.6 117.059 98.71C113.789 97 109.409 94.61 106.199 92.34C106.339 92.34 106.469 92.36 106.639 92.36C108.119 92.36 109.539 91.94 110.729 91.15C110.769 91.12 110.799 91.09 110.839 91.07C115.879 94.36 121.739 97.21 127.089 99C131.689 100.54 136.409 101.19 141.209 101.19C142.109 101.19 143.009 101.17 143.909 101.12C146.909 100.98 149.899 100.67 152.819 99.94C155.739 99.21 158.579 98.26 161.219 96.79C163.329 95.61 164.999 93.96 166.369 92.01C166.729 91.49 167.009 90.91 167.299 90.35C168.379 88.27 168.219 86.2 167.159 84.17C166.349 82.62 165.549 81.57 164.519 80.39C161.479 76.92 161.509 77.16 160.189 75.58C159.689 74.98 157.359 72.16 155.769 68.74C155.569 68.31 155.349 67.8 155.169 67.12C154.899 66.11 154.829 65.07 154.909 64.02C154.909 64.02 154.929 64.02 154.939 64.02C158.499 63.55 161.209 60.76 161.539 57.22C161.579 56.79 161.579 56.36 161.549 55.94C162.459 55.54 163.429 55.23 164.469 55.05C165.009 54.96 165.539 54.91 166.059 54.91C167.839 54.91 169.509 55.45 171.039 56.55C172.859 57.86 173.529 59.71 172.959 61.87C172.799 62.48 172.539 63.07 172.269 63.65C172.109 63.98 171.869 64.28 171.599 64.53C171.229 64.87 170.779 65.04 170.329 65.04C169.979 65.04 169.629 64.93 169.329 64.72C168.639 64.24 168.399 63.37 168.749 62.52V62.49Z" fill="#379FFF" fill-opacity="0.2" shape-rendering="crispEdges"/>
</g>
<g filter="url(#filter3_f_639_699)">
<path d="M172.75 54.11C170.72 52.65 168.45 51.9 166.02 51.9C165.33 51.9 164.63 51.96 163.93 52.08C161.81 52.44 159.85 53.22 158.02 54.42C157.47 53.36 156.51 52.53 155.28 52.16C154.73 52 154.13 51.91 153.48 51.91H153.36L143.29 52.09H143.25H143.09C142.92 52.09 142.75 52.09 142.59 52.12C140.92 52.3 139.59 53.32 139 54.75C138.98 54.69 138.97 54.63 138.94 54.57C138.34 53.08 137.12 52.1 135.6 51.89C135.41 51.86 135.22 51.85 135.03 51.85C132.96 51.85 131.24 53.42 130.85 55.67C130.44 58.01 129.79 60.29 129.07 62.64C128.63 57.97 125.33 53.93 120.32 52.48C119.01 52.1 117.61 51.91 116.14 51.91C114.67 51.91 113.17 52.09 111.44 52.46C110.99 52.56 110.54 52.72 110.09 52.95C108.55 53.75 107.64 55.18 107.57 56.85C106.93 54.87 105.48 53.28 103.32 52.26C102.43 51.84 101.5 51.63 100.54 51.63C99.69 51.63 98.84 51.8 98 52.13C96.84 52.59 95.81 53.31 94.97 54.2C94.39 53.22 93.45 52.47 92.27 52.12C91.64 51.93 90.95 51.84 90.18 51.84H90.04L74.08 52.33C75.16 50.6 75.58 48.59 75.21 46.68C74.75 44.33 73.22 42.46 70.88 41.4C68.86 40.48 66.77 40.02 64.68 40.02H64.61C61.45 40.04 58.81 40.96 56.75 42.75C54.05 45.1 52.56 48.11 52.32 51.69C52.11 54.87 52.9 58.07 54.74 61.47C55.23 62.37 55.73 63.25 56.23 64.1C56.73 64.96 57.19 65.77 57.65 66.6C58.3 67.8 58.93 69.06 59.52 70.34C60.04 71.48 60.4 72.74 60.58 74.06C60.69 74.87 60.69 75.54 60.34 76.24C60.03 76.85 59.52 77.25 59.06 77.61C58.38 78.14 57.78 78.38 57.29 78.57C56.63 78.83 55.65 79.22 54.37 79.22C54.28 79.22 54.18 79.22 54.08 79.22C52.73 79.16 51.72 78.7 51.24 78.43C50.61 78.08 50.06 77.74 49.75 77.15C49.67 77 49.65 76.91 49.64 76.87C49.64 76.87 49.67 76.82 49.72 76.74C49.99 76.38 50.34 75.88 50.6 75.28C51.58 73.03 50.79 70.49 48.73 69.22C47.97 68.75 47.09 68.5 46.2 68.5C44.74 68.5 43.38 69.16 42.45 70.31C41.58 71.39 40.73 72.61 40.36 74.21C40.13 75.22 39.91 76.43 40.03 77.68C40.18 79.21 40.64 80.71 41.35 82.04C42.71 84.57 44.65 85.89 45.48 86.46C47.35 87.73 49.04 88.23 49.86 88.47C50.58 88.68 52.51 89.25 54.94 89.25C56.58 89.25 58.19 89 59.74 88.5C61.53 87.92 63.26 86.99 64.75 85.81C65.33 85.35 66.4 84.48 67.45 83.11C67.39 83.33 67.33 83.55 67.29 83.77C66.93 85.93 68.04 88.05 70 88.92C70.6 89.19 71.24 89.32 71.9 89.32C73.31 89.32 74.66 88.68 75.6 87.57C75.92 87.19 76.21 86.75 76.49 86.2C76.75 85.7 76.97 85.2 77.17 84.73C79.8 78.66 82.69 72.17 86.02 65.84C86.46 64.99 86.83 64.16 87.13 63.46C87.41 62.8 87.57 62.16 87.61 61.53C88.45 61.52 89.29 61.51 90.13 61.49C90.16 61.49 90.2 61.49 90.23 61.48C89.39 63.11 88.57 64.81 87.77 66.62C86.06 70.5 85.18 74.77 84.91 80.46C84.91 80.52 84.91 80.58 84.91 80.65C84.93 81.94 85.05 83.63 85.83 85.32C86.77 87.33 88.41 88.65 90.58 89.14C91.29 89.3 91.99 89.38 92.68 89.38C94.61 89.38 96.4 88.77 98.01 87.56C99.58 86.38 100.75 85.12 101.6 83.7C101.69 83.55 101.77 83.41 101.85 83.26C101.74 83.91 101.73 84.54 101.81 85.14C100.75 85.97 100.05 87.24 100.01 88.72C99.97 90.18 100.55 91.56 101.65 92.6C102.18 93.11 102.75 93.6 103.36 94.06C106.02 96.09 110.03 98.49 115.62 101.42C123.23 105.4 131.42 107.33 140.66 107.33C140.89 107.33 141.11 107.33 141.34 107.33C141.38 107.33 141.42 107.33 141.46 107.33L142.65 107.27C143.45 107.23 144.25 107.19 145.05 107.15C149.55 106.91 153.81 106.14 157.72 104.85C158.08 104.73 158.44 104.62 158.8 104.5C161.23 103.72 163.73 102.91 166.07 101.28C168.68 99.46 171.91 96.78 173.74 92.15C174.58 90.03 174.85 88.03 174.58 86.04C174.32 84.15 173.71 82.32 172.76 80.63C171.84 78.99 170.71 77.44 168.96 75.44C168.34 74.73 167.8 74.15 167.29 73.62C166.96 73.29 166.74 73.07 166.55 72.88C166.37 72.7 166.22 72.56 166.01 72.33C165.52 71.8 165.22 71.38 164.68 70.63C164.35 70.17 164.23 69.99 163.98 69.58C163.74 69.2 163.42 68.69 162.79 67.74C162.66 67.54 162.43 67.19 162.15 66.7C161.97 66.38 161.84 66.12 161.79 66.01C161.39 65.15 161.36 64.67 161.38 64.46C161.41 64.1 161.72 63.74 162.18 63.23C163.05 62.27 164.16 61.98 164.82 61.8C165.21 61.7 165.54 61.64 165.83 61.62C165.08 63.7 165.77 65.97 167.55 67.21C168.35 67.77 169.29 68.07 170.27 68.07C171.5 68.07 172.68 67.6 173.59 66.75C174.15 66.22 174.61 65.61 174.92 64.97C175.2 64.38 175.56 63.58 175.8 62.67C176.7 59.3 175.58 56.19 172.74 54.15L172.75 54.11ZM106.17 84.39C105.71 84.23 105.24 84.15 104.76 84.14C104.76 83.99 104.79 83.83 104.81 83.68C104.93 83.05 104.99 82.91 105.22 82.13C106.39 78.05 107.54 73.96 108.81 69.92C109.44 67.9 110.32 65.96 111.08 63.98C111.39 63.18 111.68 62.38 111.97 61.58C112.22 61.6 112.46 61.61 112.66 61.61C112.78 61.61 112.89 61.61 113.01 61.61C113.47 61.61 113.94 61.58 114.4 61.56C114.47 61.56 114.53 61.56 114.59 61.56C114.46 62.42 114.3 63.29 114 64.11C113.46 65.62 112.98 67.14 112.52 68.66C112.02 68.92 111.53 69.21 111.07 69.55C109.04 71.04 108.41 73.45 109.45 75.7C109.68 76.2 109.94 76.71 110.22 77.24C110 78.17 109.77 79.1 109.55 80.04C109.25 81.34 108.8 82.61 108.48 83.91C108.48 83.91 108.36 84.41 107.91 85.37C107.45 85.04 106.85 84.66 106.14 84.42L106.17 84.39ZM118.84 62.46C119.53 63.1 119.64 63.97 119.12 64.68C118.92 64.96 118.66 65.21 118.39 65.41C117.65 65.94 116.97 66.38 116.3 66.78C116.49 66.22 116.66 65.65 116.86 65.09C117.29 63.88 117.5 62.67 117.63 61.72C118.08 61.88 118.49 62.12 118.85 62.45L118.84 62.46ZM110.65 86.63C111.19 85.48 111.38 84.78 111.42 84.6C111.55 84.06 111.72 83.5 111.89 82.91C112.08 82.27 112.27 81.61 112.44 80.91C112.48 80.98 112.53 81.05 112.57 81.12C113.01 81.81 113.43 82.47 113.83 83.14C114.24 83.83 114.62 84.54 115.02 85.3C115.26 85.74 115.49 86.19 115.73 86.63L115.83 86.81C116.2 87.48 116.58 88.17 117.01 88.86C117.9 90.26 119.4 91.1 121.03 91.1C121.49 91.1 121.96 91.03 122.41 90.9C123.44 90.59 124.28 89.98 124.88 89.19C125.38 89.45 125.94 89.63 126.53 89.7C126.73 89.72 126.92 89.73 127.11 89.73C129.23 89.73 130.98 88.41 131.64 86.37C131.78 86.66 131.94 86.94 132.13 87.21C133.13 88.56 134.72 89.3 136.6 89.3C136.71 89.3 136.82 89.3 136.94 89.3C137.44 89.28 137.88 89.21 138.27 89.15C138.41 89.13 138.54 89.11 138.68 89.09C139.43 88.99 140.25 88.95 141.26 88.95C142.02 88.95 142.79 88.98 143.6 89L144.49 89.03C144.68 89.03 144.87 89.03 145.06 89.03C145.64 89.03 146.12 88.99 146.58 88.92C148.95 88.52 150.64 86.5 150.6 84.12C150.55 81.78 148.87 79.88 146.5 79.49C146.26 79.45 145.95 79.41 145.58 79.4H144.93C143.91 79.38 142.89 79.36 141.87 79.35C141.99 78.89 142.1 78.42 142.22 77.96C142.63 78.07 143.07 78.15 143.55 78.19C143.84 78.22 144.15 78.23 144.5 78.23C144.69 78.23 144.89 78.23 145.08 78.23C145.24 78.23 145.39 78.23 145.55 78.23C145.59 78.23 145.63 78.23 145.67 78.23C145.83 78.23 145.98 78.23 146.14 78.23C146.37 78.23 146.6 78.23 146.83 78.23C147.16 78.23 147.48 78.23 147.81 78.2C150.47 78.03 152.47 75.97 152.48 73.41C152.48 70.87 150.56 68.85 147.91 68.6C147.74 68.58 147.56 68.58 147.39 68.58H146.42H145.34C145.09 68.58 144.85 68.58 144.6 68.58C144.84 67.63 145.09 66.67 145.32 65.71C145.62 64.49 145.78 63.6 145.95 62.66C146.04 62.16 146.14 61.64 146.26 61.02C146.26 60.98 146.26 60.94 146.28 60.9C148.13 60.95 149.97 61 151.82 61.05H152.35C152.27 61.34 152.18 61.62 152.12 61.92C151.69 64.01 151.72 66.02 152.22 67.9C152.45 68.79 152.75 69.47 153 70.01C154.61 73.49 156.92 76.41 157.83 77.51C158.5 78.32 158.87 78.7 159.36 79.23C159.89 79.79 160.62 80.57 162.21 82.38C163.11 83.4 163.76 84.25 164.45 85.57C165.12 86.85 165.16 87.88 164.59 88.99L164.45 89.26C164.25 89.66 164.05 90.04 163.87 90.31C162.64 92.05 161.28 93.32 159.71 94.2C157.59 95.38 155.16 96.29 152.04 97.06C149.67 97.65 147.02 98 143.71 98.16C142.85 98.2 141.99 98.22 141.15 98.22C136.37 98.22 132.06 97.56 127.99 96.19C122.02 94.19 115.48 90.84 110.36 87.19C110.46 87.01 110.55 86.83 110.63 86.65L110.65 86.63ZM123.48 80.58C123.36 80.37 123.24 80.16 123.13 79.95C122.33 78.47 121.52 76.96 120.57 75.48C121.77 74.8 122.9 74.05 123.96 73.31C124.91 72.65 125.73 71.91 126.43 71.1C126.26 71.64 126.09 72.19 125.92 72.73C125.11 75.34 124.3 77.96 123.49 80.57L123.48 80.58ZM134.3 83.09C135.17 80.19 136.08 77.31 136.94 74.41C137.66 71.97 138.31 69.51 139.04 67.07C139.8 64.51 140.4 62.64 141.17 60.18C141.33 60.25 141.48 60.33 141.64 60.39C142.15 60.56 142.7 60.67 143.26 60.72C142.94 62.32 142.81 63.32 142.4 64.99C142.07 66.34 141.73 67.69 141.38 69.04C139.69 69.76 138.62 71.24 138.51 73.06C138.44 74.3 138.81 75.43 139.54 76.32C139.13 77.97 138.71 79.63 138.3 81.28C138.22 81.61 138.15 81.95 138.04 82.42C138.57 82.38 138.98 82.33 139.38 82.33C139.39 82.33 139.4 82.33 139.41 82.33C141.45 82.34 143.5 82.37 145.54 82.4C145.7 82.4 145.86 82.42 146.02 82.45C146.94 82.6 147.58 83.3 147.6 84.17C147.62 85.03 147 85.8 146.08 85.95C145.75 86.01 145.4 86.02 145.06 86.02C144.9 86.02 144.74 86.02 144.58 86.02C143.47 85.99 142.37 85.94 141.26 85.94C140.27 85.94 139.28 85.98 138.3 86.11C137.8 86.17 137.3 86.27 136.8 86.3C136.73 86.3 136.67 86.3 136.6 86.3C134.71 86.3 133.73 84.98 134.29 83.11L134.3 83.09ZM143.45 73.05C143.57 72.56 143.7 72.06 143.83 71.57C144.33 71.57 144.84 71.56 145.34 71.56C146.03 71.56 146.71 71.56 147.4 71.56C147.48 71.56 147.56 71.56 147.64 71.57C148.73 71.67 149.49 72.42 149.49 73.39C149.49 74.36 148.73 75.12 147.63 75.19C147.37 75.21 147.11 75.21 146.85 75.21C146.42 75.21 145.99 75.2 145.57 75.2C145.22 75.2 144.87 75.22 144.52 75.22C144.29 75.22 144.05 75.22 143.82 75.19C143.53 75.17 143.24 75.11 142.96 75.03C143.13 74.37 143.29 73.71 143.46 73.05H143.45ZM142.89 55.1C142.95 55.1 143.01 55.1 143.07 55.1C143.14 55.1 143.21 55.1 143.28 55.1L153.38 54.92C153.38 54.92 153.43 54.92 153.46 54.92C153.78 54.92 154.1 54.95 154.4 55.04C155.07 55.24 155.45 55.76 155.49 56.39C155.04 56.81 154.6 57.24 154.17 57.72C154.07 57.83 153.98 57.96 153.89 58.08C153.86 58.08 153.83 58.08 153.8 58.08C153.72 58.08 153.64 58.08 153.56 58.08C151.07 58.02 148.58 57.96 146.09 57.89C146.03 57.89 145.97 57.89 145.91 57.88C145.26 56.54 143.92 55.68 142.41 55.68C142.21 55.68 142.01 55.71 141.82 55.75C142.02 55.4 142.4 55.17 142.9 55.11L142.89 55.1ZM130.91 66.77C131.99 63.27 133.16 59.79 133.79 56.17C133.93 55.35 134.41 54.83 135.02 54.83C135.07 54.83 135.12 54.83 135.17 54.84C135.63 54.9 135.95 55.2 136.14 55.67C136.3 56.08 136.32 56.53 136.24 56.96C135.96 58.48 135.73 60.01 135.34 61.5C134.12 66.12 132.8 70.71 131.55 75.32C130.72 78.4 129.84 81.15 129.05 84.23C128.96 84.59 128.94 84.97 128.84 85.32C128.6 86.2 127.94 86.71 127.12 86.71C127.04 86.71 126.96 86.71 126.88 86.7C126.47 86.65 126.09 86.46 125.82 86.16C125.82 86.08 125.82 86 125.82 85.93C125.77 85.42 125.64 84.89 125.45 84.37C127.25 78.5 129.1 72.64 130.91 66.77ZM111.46 55.6C111.65 55.5 111.85 55.42 112.05 55.38C113.4 55.09 114.76 54.9 116.12 54.9C117.24 54.9 118.36 55.03 119.47 55.35C124.47 56.8 126.95 61.49 125.85 65.86C125.31 67.97 124.03 69.62 122.24 70.86C120.43 72.12 118.57 73.31 116.51 74.13C116.42 74.17 116.33 74.24 116.16 74.35C116.37 74.68 116.51 74.96 116.71 75.21C118.19 77.13 119.34 79.26 120.49 81.38C121.1 82.5 121.75 83.61 122.34 84.74C122.34 84.8 122.33 84.86 122.33 84.93C122.33 85.63 122.49 86.28 122.76 86.88C122.59 87.42 122.15 87.84 121.57 88.01C121.4 88.06 121.22 88.09 121.05 88.09C120.47 88.09 119.91 87.8 119.57 87.25C119.15 86.58 118.77 85.88 118.38 85.18C117.73 83.99 117.12 82.78 116.43 81.62C115.61 80.23 114.69 78.89 113.86 77.5C113.72 77.26 113.59 77.02 113.45 76.78C113.94 74.79 114.48 72.78 115.06 70.78C116.87 70.01 118.54 69 120.14 67.86C120.67 67.48 121.16 67 121.54 66.47C122.98 64.51 122.68 61.93 120.89 60.27C119.76 59.21 118.42 58.67 116.95 58.54C116.31 57.58 115.31 56.88 114.08 56.7C113.88 56.67 113.68 56.66 113.48 56.66C112.44 56.66 111.5 57.06 110.75 57.75C110.65 57.57 110.58 57.37 110.57 57.15C110.52 56.43 110.85 55.93 111.48 55.6H111.46ZM107.9 60.96C107.95 60.51 107.95 60.11 107.95 59.76C107.95 59.65 107.95 59.55 107.95 59.44C107.95 59.24 107.93 59.04 107.92 58.84C108.2 59.49 108.62 60.05 109.17 60.5L109.06 60.8C108.8 61.5 108.55 62.19 108.28 62.89C108.19 63.12 108.1 63.34 108.01 63.57C107.89 63.16 107.73 62.77 107.52 62.42C107.72 61.97 107.85 61.49 107.9 60.97V60.96ZM70.16 72.88C69.83 70.17 69.02 67.55 67.76 65.12C66.55 62.8 65.22 60.36 63.43 57.2C62.74 55.98 62.28 54.79 62.03 53.56C61.86 52.76 61.91 52.03 62.15 51.4C62.7 49.97 63.42 49.77 64.05 49.69C64.25 49.67 64.45 49.65 64.65 49.65C64.76 49.65 64.87 49.65 64.97 49.66C64.6 51.45 65.24 53.25 66.72 54.35C67.33 54.81 68.03 55.09 68.77 55.21C68.51 55.79 68.35 56.41 68.34 57.07C68.33 59.12 69.67 60.92 71.69 61.54C72.2 61.7 72.74 61.78 73.29 61.8C73.39 61.8 73.5 61.8 73.61 61.8C73.92 61.8 74.24 61.8 74.55 61.78H74.93L77.02 61.71C77.3 61.71 77.58 61.7 77.86 61.69C76.39 64.25 75.17 66.56 74.09 68.82C73.05 71 72.01 73.18 70.96 75.36C70.64 76.02 70.33 76.68 70.02 77.33C70.29 75.9 70.34 74.41 70.16 72.88ZM66.38 79.04C65.34 81.43 63.7 82.78 62.87 83.44C61.22 84.76 59.62 85.36 58.82 85.62C57.43 86.07 56.11 86.22 54.94 86.22C53 86.22 51.48 85.79 50.71 85.56C49.93 85.33 48.62 84.94 47.18 83.95C46.4 83.42 44.99 82.43 44 80.59C43.72 80.07 43.18 78.94 43.03 77.37C42.95 76.55 43.11 75.68 43.3 74.86C43.53 73.84 44.15 72.98 44.8 72.17C45.17 71.71 45.69 71.48 46.21 71.48C46.54 71.48 46.87 71.57 47.16 71.75C47.93 72.22 48.23 73.19 47.85 74.05C47.71 74.36 47.51 74.65 47.31 74.93C46.45 76.08 46.44 77.3 47.09 78.53C47.8 79.88 48.94 80.57 49.77 81.03C50.27 81.31 51.79 82.1 53.94 82.19C54.08 82.19 54.22 82.19 54.36 82.19C56.17 82.19 57.53 81.67 58.39 81.33C59.01 81.08 59.91 80.72 60.91 79.95C61.49 79.5 62.41 78.78 63.02 77.56C63.74 76.12 63.71 74.77 63.55 73.64C63.34 72.05 62.91 70.51 62.24 69.06C61.63 67.73 60.98 66.43 60.28 65.14C59.34 63.41 58.32 61.73 57.38 60.01C56 57.47 55.12 54.8 55.31 51.86C55.49 49.1 56.64 46.79 58.71 44.98C60.39 43.51 62.43 43 64.61 42.99C64.63 42.99 64.65 42.99 64.67 42.99C66.41 42.99 68.05 43.39 69.63 44.11C73.01 45.65 73.01 49.36 70.81 51.66C70.76 51.72 70.69 51.77 70.63 51.82C70.26 52.11 69.85 52.26 69.45 52.26C69.11 52.26 68.78 52.15 68.49 51.94C67.87 51.48 67.68 50.67 68.02 49.86C68.17 49.52 68.37 49.2 68.51 48.86C68.83 48.06 68.68 47.71 67.88 47.35C66.83 46.89 65.74 46.65 64.63 46.65C64.32 46.65 64 46.67 63.68 46.71C61.46 46.97 60.09 48.32 59.33 50.32C58.86 51.56 58.8 52.87 59.07 54.17C59.4 55.77 59.99 57.26 60.8 58.68C62.26 61.27 63.71 63.87 65.08 66.5C66.18 68.61 66.88 70.87 67.17 73.24C67.31 74.37 67.44 76.58 66.37 79.04H66.38ZM83.36 64.42C80.09 70.65 77.21 77.06 74.41 83.51C74.22 83.95 74.03 84.39 73.81 84.81C73.67 85.09 73.5 85.37 73.3 85.61C72.92 86.06 72.41 86.29 71.89 86.29C71.66 86.29 71.43 86.24 71.22 86.15C70.52 85.84 70.11 85.07 70.25 84.24C70.32 83.8 70.47 83.36 70.66 82.96C72.7 78.67 74.77 74.4 76.81 70.11C78.19 67.2 79.75 64.38 81.38 61.61C81.4 61.61 81.42 61.61 81.45 61.61C82.49 61.59 83.54 61.58 84.58 61.56C84.53 61.8 84.47 62.04 84.37 62.26C84.06 62.99 83.73 63.72 83.36 64.42ZM90.07 58.47C88.95 58.49 87.83 58.51 86.7 58.53C86.61 58.41 86.53 58.29 86.43 58.18C85.6 57.31 84.43 56.81 83.22 56.81C83.16 56.81 83.1 56.81 83.05 56.81C81.72 56.89 80.51 57.56 79.71 58.65C78.1 58.69 76.48 58.73 74.87 58.77C74.45 58.78 74.03 58.8 73.62 58.8C73.53 58.8 73.45 58.8 73.36 58.8C73.1 58.8 72.83 58.75 72.58 58.68C71.81 58.45 71.35 57.83 71.35 57.1C71.35 56.35 71.88 55.7 72.67 55.51C73.08 55.41 73.51 55.36 73.93 55.34L90.08 54.84C90.08 54.84 90.15 54.84 90.18 54.84C90.59 54.84 91.02 54.88 91.41 55C92.14 55.22 92.56 55.74 92.62 56.51C92.68 57.24 92.28 57.92 91.54 58.2C91.08 58.37 90.56 58.47 90.07 58.48V58.47ZM101.16 78.31C100.5 79.61 99.79 80.88 99.03 82.13C98.31 83.33 97.32 84.3 96.21 85.13C95.12 85.95 93.94 86.35 92.68 86.35C92.21 86.35 91.73 86.29 91.24 86.18C89.99 85.9 89.09 85.18 88.55 84.02C88.02 82.88 87.92 81.67 87.91 80.57C88.12 76.09 88.74 71.83 90.52 67.8C91.73 65.05 93.07 62.36 94.57 59.77C95.22 58.65 96.03 57.62 96.83 56.59C97.42 55.83 98.2 55.25 99.11 54.9C99.59 54.71 100.07 54.61 100.55 54.61C101.05 54.61 101.55 54.72 102.05 54.95C103.92 55.83 105.01 57.24 104.97 59.38C104.97 59.8 104.97 60.23 104.93 60.65C104.85 61.41 104.35 61.93 103.69 61.99C103.64 61.99 103.59 61.99 103.54 61.99C102.89 61.99 102.39 61.58 102.18 60.85C102.11 60.6 102.1 60.33 102.06 60.06C102.01 59.72 102.01 59.37 101.92 59.04C101.75 58.44 101.3 58.1 100.82 58.1C100.53 58.1 100.23 58.22 99.97 58.47C99.63 58.8 99.32 59.18 99.06 59.57C96.36 63.64 94.18 67.97 92.69 72.62C92.06 74.58 91.88 76.63 91.72 78.66C91.64 79.66 91.62 80.68 91.69 81.67C91.74 82.37 91.99 82.67 92.5 82.67C92.66 82.67 92.84 82.64 93.04 82.59C93.44 82.49 93.87 82.3 94.16 82.03C94.83 81.39 95.53 80.75 96.02 79.98C97.93 76.99 99.34 73.76 100.22 70.31C100.31 69.95 100.42 69.6 100.51 69.23C100.88 67.74 101.26 66.25 101.6 64.75C101.82 63.8 102.37 63.18 103.18 63.08C103.26 63.08 103.34 63.07 103.42 63.07C104.43 63.07 105.24 63.87 105.21 65C105.19 65.71 105.07 66.43 104.89 67.12C103.92 70.93 102.94 74.74 101.14 78.27L101.16 78.31ZM97.76 67.96L97.61 68.55C97.57 68.71 97.53 68.86 97.48 69.02C97.42 69.21 97.37 69.41 97.32 69.61C96.79 71.7 96.03 73.73 95.05 75.67C95.17 74.94 95.32 74.24 95.54 73.57C96.14 71.69 96.88 69.82 97.76 67.97V67.96ZM172.92 61.87C172.76 62.48 172.5 63.07 172.23 63.65C172.07 63.98 171.83 64.28 171.56 64.53C171.19 64.87 170.74 65.04 170.29 65.04C169.94 65.04 169.59 64.93 169.29 64.72C168.6 64.24 168.36 63.37 168.71 62.52C168.86 62.15 169.08 61.81 169.22 61.44C169.65 60.36 169.47 59.85 168.46 59.26C168.07 59.03 167.66 58.86 167.26 58.75C166.85 58.64 166.44 58.6 166.04 58.6C165.3 58.6 164.6 58.75 164.08 58.88C163.23 59.1 161.44 59.57 159.97 61.2C159.38 61.85 158.54 62.78 158.41 64.16C158.28 65.54 158.91 66.87 159.09 67.27C159.15 67.41 159.32 67.74 159.53 68.13C159.87 68.74 160.15 69.17 160.29 69.38C161.61 71.37 161.53 71.38 162.25 72.37C162.83 73.17 163.2 73.69 163.82 74.35C164.29 74.86 164.48 75 165.16 75.7C165.55 76.09 166.04 76.61 166.71 77.39C168.48 79.42 169.43 80.79 170.15 82.07C170.91 83.43 171.41 84.88 171.62 86.42C171.84 88.01 171.55 89.55 170.96 91.02C169.61 94.44 167.34 96.71 164.36 98.8C162.07 100.4 159.41 101.11 156.78 101.98C152.95 103.25 148.92 103.92 144.9 104.13C143.71 104.19 142.51 104.25 141.32 104.31C141.1 104.31 140.88 104.31 140.67 104.31C132.24 104.31 124.47 102.63 117.02 98.74C113.41 96.85 108.43 94.13 105.19 91.66C104.68 91.27 104.2 90.86 103.74 90.42C103.28 89.98 103.01 89.44 103.03 88.79C103.03 88.52 103.11 88.27 103.22 88.04C103.91 88.73 104.8 89.18 105.83 89.33C106.03 89.36 106.28 89.39 106.61 89.39C107.1 89.39 107.57 89.31 108.02 89.16C113.59 93.25 120.68 96.89 127.06 99.03C131.66 100.57 136.38 101.22 141.18 101.22C142.08 101.22 142.98 101.2 143.88 101.15C146.88 101.01 149.87 100.7 152.79 99.97C155.71 99.24 158.55 98.29 161.19 96.82C163.3 95.64 164.97 93.99 166.34 92.04C166.7 91.52 166.98 90.94 167.27 90.38C168.35 88.3 168.19 86.23 167.13 84.2C166.32 82.65 165.52 81.6 164.49 80.42C161.45 76.95 161.48 77.19 160.16 75.61C159.66 75.01 157.33 72.19 155.74 68.77C155.54 68.34 155.32 67.83 155.14 67.15C154.74 65.66 154.76 64.12 155.08 62.55C155.21 61.91 155.43 61.3 155.75 60.73C156.97 60.22 157.9 59.22 158.31 57.97C160.07 56.52 162.08 55.48 164.45 55.08C164.99 54.99 165.52 54.94 166.04 54.94C167.82 54.94 169.49 55.48 171.02 56.58C172.84 57.89 173.51 59.74 172.94 61.9L172.92 61.87Z" fill="#379FFF"/>
</g>
<g filter="url(#filter4_f_639_699)">
<path d="M172.806 54.7142C170.843 53.3408 168.669 52.6443 166.324 52.6443C165.659 52.6443 164.985 52.7031 164.301 52.811C162.046 53.1838 159.983 54.0177 158.05 55.342C157.637 54.1746 156.691 53.2525 155.362 52.8699C154.859 52.7228 154.295 52.6443 153.692 52.6443H153.581L143.405 52.8209H143.384H143.233C143.082 52.8209 142.931 52.8209 142.78 52.8405C140.979 53.0367 139.59 54.2727 139.328 55.9404C139.217 56.6467 139.328 57.3334 139.62 57.9612C139.409 58.2751 139.227 58.6185 139.096 59.0207L138.603 60.5412C137.979 62.4835 137.436 64.161 136.761 66.3388C136.449 67.3492 136.157 68.3695 135.865 69.3701C136.54 67.0157 137.224 64.6025 137.868 62.1991C138.191 61.0023 138.412 59.8055 138.623 58.6479C138.684 58.2849 138.754 57.9318 138.825 57.5688C138.996 56.6467 138.915 55.7442 138.583 54.9398C138.05 53.6449 136.973 52.8012 135.624 52.6149C135.453 52.5952 135.282 52.5854 135.121 52.5854C133.258 52.5854 131.769 53.9294 131.406 55.9306C130.883 58.8539 129.977 61.6791 129.011 64.6711L128.578 66.0249C127.863 68.2714 127.149 70.508 126.434 72.7545C125.498 75.6876 124.562 78.6109 123.636 81.5441C123.575 81.446 123.525 81.3381 123.465 81.24C123.213 80.7985 122.951 80.3571 122.71 79.9156C121.834 78.3264 120.928 76.7078 119.851 75.1284C121.23 74.4025 122.498 73.5785 123.686 72.7741C126.092 71.1456 127.652 69.0169 128.326 66.4565C129.836 60.6295 126.333 54.93 120.173 53.1838C118.905 52.8209 117.536 52.6443 116.107 52.6443C114.677 52.6443 113.188 52.8209 111.487 53.174C111.074 53.2623 110.661 53.4094 110.259 53.6155C108.729 54.3806 107.883 55.8227 107.994 57.4707C108.074 58.7068 108.719 59.7662 109.715 60.4333L109.474 61.0709C109.212 61.7576 108.95 62.4443 108.688 63.131C108.447 63.7588 108.185 64.3768 107.923 64.9949C107.813 65.2695 107.702 65.554 107.581 65.8287C107.601 65.5933 107.642 65.3382 107.642 65.1126C107.662 64.161 107.39 63.2683 106.867 62.5228C107.108 62.0715 107.269 61.5614 107.33 61.0219C107.37 60.6099 107.37 60.2273 107.38 59.8937C107.38 59.7858 107.38 59.6779 107.38 59.57C107.43 56.6271 105.88 54.2825 102.991 52.9582C102.166 52.5756 101.3 52.3892 100.415 52.3892C99.6294 52.3892 98.8242 52.5462 98.0391 52.8405C96.7104 53.3506 95.5529 54.1942 94.6872 55.2831C94.2343 54.1158 93.268 53.2427 91.9494 52.8601C91.3555 52.6933 90.7214 52.605 89.9967 52.605H89.8658L73.5697 53.0955C73.5496 53.0955 73.5294 53.0955 73.5093 53.0955C73.2476 53.1053 73.006 53.1348 72.7645 53.1642C74.224 51.418 74.8581 49.2108 74.4454 47.141C74.0227 45.0024 72.5732 43.2857 70.3689 42.3145C68.396 41.4414 66.3728 41 64.3396 41H64.2691C61.1689 41.0196 58.6928 41.8535 56.6797 43.5604C54.0727 45.7774 52.6233 48.6124 52.4018 51.9968C52.1905 55.0281 52.9756 58.0789 54.7874 61.326C55.2705 62.1991 55.7839 63.0623 56.2771 63.8962C56.7602 64.7006 57.2534 65.5442 57.7064 66.3584C58.3707 67.5454 59.0048 68.7913 59.5987 70.0567C60.1523 71.2241 60.5247 72.4994 60.7059 73.8532C60.8066 74.6183 60.8468 75.4325 60.414 76.2762C60.0517 76.9727 59.4578 77.4239 58.9847 77.7869C58.2499 78.3461 57.5655 78.6109 57.0723 78.7973C56.3777 79.0622 55.3309 79.4644 53.9419 79.4644C53.8412 79.4644 53.7305 79.4644 53.6298 79.4644C52.1603 79.4055 51.0732 78.915 50.5498 78.6305C49.8653 78.2578 49.2211 77.8654 48.8487 77.1787C48.5769 76.6784 48.6675 76.5214 48.8688 76.2566C49.1406 75.9034 49.4526 75.462 49.7043 74.9126C50.59 72.931 49.8854 70.6944 48.0233 69.5761C47.3389 69.164 46.5437 68.9384 45.7384 68.9384C44.4198 68.9384 43.1919 69.5172 42.3564 70.5276C41.521 71.538 40.6956 72.6858 40.3534 74.1573C40.1219 75.1579 39.9205 76.2468 40.0313 77.4043C40.1722 78.8366 40.6151 80.2492 41.2995 81.495C42.608 83.869 44.5004 85.1247 45.3056 85.6544C47.1174 86.861 48.7782 87.3319 49.5734 87.5575C50.7813 87.9008 52.4421 88.303 54.5458 88.303C56.1462 88.303 57.7165 88.0676 59.2162 87.5869C60.9576 87.0376 62.6486 86.1547 64.098 85.0266C64.9838 84.3399 67.0573 82.7212 68.3658 79.7685C69.3321 77.6005 69.6643 75.256 69.3623 72.8133C69.0402 70.2137 68.245 67.7024 66.9969 65.3676C65.779 63.0918 64.4402 60.708 62.6486 57.6179C61.9339 56.3818 61.4508 55.1654 61.179 53.8999C60.9978 53.0269 61.0381 52.2126 61.3199 51.4965C61.944 49.9073 62.8499 49.6032 63.6451 49.5149C63.8665 49.4855 64.088 49.4757 64.3094 49.4757C64.6315 49.4757 64.9536 49.5051 65.2656 49.564C64.6718 51.3003 65.2153 53.125 66.6949 54.1844C67.4197 54.7043 68.2652 54.979 69.161 54.979C69.2113 54.979 69.2516 54.9692 69.3019 54.9692C68.8288 55.6265 68.5369 56.4113 68.5369 57.2451C68.5269 59.0403 69.7347 60.6099 71.5465 61.1494C72.0196 61.2867 72.5128 61.3652 73.0161 61.375C73.1168 61.375 73.2174 61.375 73.3281 61.375C73.6402 61.375 73.9522 61.375 74.2642 61.3554H74.6568L76.7605 61.2867C77.3443 61.2671 77.918 61.2573 78.5018 61.2475C76.8309 64.0531 75.462 66.5448 74.2743 68.9679C73.2275 71.1064 72.1807 73.2449 71.1238 75.3835C70.1072 77.4436 69.0905 79.5134 68.084 81.5735C67.7921 82.1817 67.5807 82.839 67.47 83.4766C67.1378 85.3699 68.1444 87.2338 69.9058 87.9989C70.4494 88.2344 71.0131 88.3521 71.6069 88.3521C72.8852 88.3521 74.0931 87.7929 74.9487 86.812C75.2507 86.4686 75.5124 86.0664 75.7841 85.5563C76.0358 85.0756 76.2572 84.5949 76.4585 84.1339C79.1058 78.1695 82.0248 71.7931 85.3766 65.5638C85.8195 64.7496 86.1818 63.9452 86.4738 63.2683C86.7455 62.6503 86.8965 62.0421 86.9267 61.4633C86.9267 61.3358 86.9166 61.2083 86.9066 61.0906C87.9232 61.0807 88.9297 61.0611 89.9464 61.0415C90.2785 61.0415 90.6107 60.9925 90.9429 60.9336C89.9464 62.768 88.9801 64.6908 88.044 66.7606C86.353 70.508 85.4773 74.6379 85.2055 80.1609C85.2055 80.2099 85.2055 80.259 85.2055 80.308C85.2256 81.5244 85.3363 83.1136 86.0913 84.6832C86.967 86.5177 88.4969 87.7145 90.5201 88.1657C91.1945 88.3129 91.8689 88.3913 92.5232 88.3913C94.3551 88.3913 96.0562 87.8224 97.5861 86.704C99.106 85.5857 100.253 84.3987 101.069 83.0548C101.914 81.6912 102.639 80.4061 103.293 79.1505C103.293 79.1407 103.303 79.121 103.313 79.1112C103.273 79.2486 103.233 79.3859 103.193 79.5134L102.72 81.1124L102.589 81.5539C102.458 81.9953 102.377 82.2602 102.257 82.8488C102.116 83.5355 102.106 84.2025 102.216 84.8206C102.216 84.8598 102.236 84.8892 102.246 84.9285C101.159 85.6446 100.445 86.8512 100.404 88.2442C100.364 89.5293 100.898 90.7555 101.894 91.6874C102.408 92.1681 102.981 92.639 103.575 93.0804C106.232 95.0522 110.239 97.3968 115.845 100.251C123.434 104.117 131.598 106 140.808 106C141.039 106 141.261 106 141.492 106C141.522 106 141.563 106 141.593 106L142.791 105.941C143.596 105.902 144.391 105.863 145.196 105.823C149.685 105.598 153.923 104.842 157.818 103.597C158.181 103.479 158.543 103.361 158.906 103.253C161.311 102.498 163.797 101.723 166.092 100.163C168.659 98.417 171.84 95.8468 173.631 91.4324C174.447 89.441 174.708 87.5575 174.447 85.6838C174.195 83.8886 173.601 82.1621 172.675 80.5435C171.769 78.9641 170.642 77.473 168.911 75.5404C168.287 74.8439 167.763 74.2848 167.25 73.7845C166.918 73.4608 166.696 73.2548 166.515 73.0684C166.324 72.8918 166.173 72.7446 165.951 72.5092C165.438 71.9697 165.126 71.5478 164.572 70.7925C164.23 70.3314 164.109 70.145 163.848 69.733C163.606 69.3602 163.284 68.8599 162.66 67.9378C162.529 67.7416 162.288 67.3885 161.996 66.8784C161.814 66.5546 161.674 66.28 161.623 66.172C161.19 65.2695 161.14 64.7104 161.17 64.3965C161.221 63.8864 161.573 63.4743 162.106 62.9054C163.083 61.8557 164.291 61.5418 165.015 61.3554C165.539 61.2181 165.972 61.1592 166.354 61.1592C166.565 61.1592 166.747 61.1788 166.908 61.2181C166.837 61.3554 166.777 61.4829 166.716 61.6203C165.921 63.5038 166.525 65.6031 168.186 66.7312C168.911 67.2217 169.756 67.4866 170.632 67.4866C171.739 67.4866 172.806 67.0746 173.631 66.3192C174.155 65.8385 174.578 65.2892 174.859 64.7202C175.141 64.161 175.483 63.3959 175.715 62.5522C176.561 59.4523 175.504 56.5976 172.826 54.7142H172.806ZM116.358 64.9164C116.791 63.7392 116.993 62.5326 117.123 61.6203C117.144 61.4633 117.144 61.3064 117.144 61.1494C117.939 61.2867 118.593 61.6105 119.177 62.1402C120.052 62.9348 120.193 64.0727 119.519 64.9752C119.287 65.2892 118.986 65.5736 118.673 65.7993C117.496 66.6233 116.429 67.2609 115.392 67.7809C115.704 66.8195 116.016 65.8679 116.358 64.9164ZM111.366 82.427C111.577 81.7403 111.789 81.034 111.97 80.2786C112.04 79.9745 112.121 79.6606 112.191 79.3565C112.443 79.7587 112.705 80.1609 112.956 80.5435C113.409 81.2302 113.832 81.8776 114.235 82.5349C114.647 83.2216 115.03 83.918 115.442 84.6636C115.674 85.0952 115.916 85.5269 116.157 85.9585L116.258 86.1351C116.62 86.7825 117.003 87.4594 117.435 88.1265C118.231 89.3625 119.589 90.0982 121.059 90.0982C121.482 90.0982 121.894 90.0394 122.307 89.9217C123.394 89.6078 124.26 88.9211 124.793 88.048C125.337 88.4011 125.971 88.6562 126.655 88.7347C126.837 88.7543 127.008 88.7641 127.179 88.7641C129.162 88.7641 130.792 87.5281 131.336 85.6053C131.427 85.2816 131.477 84.9873 131.507 84.7519C131.517 84.6636 131.527 84.5655 131.557 84.4772C131.618 84.2614 131.678 84.0554 131.739 83.8396C131.759 84.8206 132.061 85.7231 132.644 86.4784C133.56 87.6752 135.01 88.3325 136.731 88.3325C136.832 88.3325 136.942 88.3325 137.043 88.3325C137.516 88.3129 137.949 88.2442 138.332 88.1951C138.472 88.1755 138.613 88.1559 138.754 88.1363C139.529 88.0382 140.375 87.9891 141.412 87.9891C142.187 87.9891 142.962 88.0186 143.787 88.0382L144.683 88.0676C144.874 88.0676 145.055 88.0676 145.247 88.0676C145.8 88.0676 146.253 88.0382 146.696 87.9597C148.84 87.6065 150.36 85.8408 150.32 83.7415C150.279 81.6912 148.759 80.0137 146.615 79.6802C146.394 79.641 146.102 79.6017 145.77 79.6017H145.116C143.878 79.5723 142.64 79.5625 141.402 79.5429L141.422 79.4448C141.623 78.6502 141.824 77.8556 142.036 77.061C142.559 77.2474 143.123 77.3749 143.767 77.4337C144.049 77.4534 144.341 77.473 144.683 77.473C144.874 77.473 145.065 77.473 145.257 77.473C145.418 77.473 145.579 77.473 145.74 77.473C145.78 77.473 145.82 77.473 145.85 77.473C146.012 77.473 146.173 77.473 146.344 77.473C146.575 77.473 146.797 77.473 147.028 77.473C147.35 77.473 147.662 77.473 147.984 77.4436C150.39 77.2964 152.212 75.4816 152.212 73.2351C152.212 71.0083 150.471 69.2229 148.065 69.0071C147.914 68.9973 147.753 68.9875 147.592 68.9875H146.605H145.518C145.055 68.9875 144.592 68.9875 144.129 68.9875C144.431 67.8593 144.733 66.7116 145.015 65.5638C145.307 64.3768 145.468 63.5136 145.649 62.6013C145.74 62.1108 145.84 61.5909 145.971 60.9826C146.012 60.8159 146.032 60.6393 146.042 60.4627C146.092 60.4627 146.152 60.4627 146.203 60.4627C148.155 60.5216 150.108 60.5608 152.061 60.6099L153.279 60.6393C153.108 61.0906 152.957 61.5516 152.846 62.0519C152.423 64.0335 152.453 65.9268 152.937 67.6926C153.158 68.5264 153.43 69.1444 153.692 69.684C155.292 73.0389 157.577 75.874 158.483 76.9334C159.147 77.7182 159.509 78.091 160.003 78.6011C160.536 79.1603 161.271 79.9156 162.881 81.701C163.787 82.7016 164.492 83.5943 165.196 84.9285C165.941 86.3313 165.992 87.4986 165.337 88.7347L165.196 88.9995C164.985 89.4116 164.784 89.7941 164.572 90.0884C163.294 91.8542 161.865 93.1589 160.224 94.0516C158.05 95.2288 155.564 96.1313 152.383 96.9063C149.967 97.4949 147.27 97.8382 143.898 97.9952C143.022 98.0344 142.146 98.054 141.301 98.054C136.429 98.054 132.051 97.3968 127.894 96.0332C121.683 94.0026 114.889 90.5691 109.645 86.861C109.846 86.5765 109.997 86.292 110.138 85.9977C110.661 84.9088 110.842 84.2712 110.883 84.0946C111.024 83.5453 111.185 82.9959 111.366 82.4171V82.427ZM143.123 72.7741C143.233 72.3424 143.354 71.9108 143.465 71.4792C143.586 71.4694 143.707 71.4497 143.817 71.4497C144.381 71.4497 144.945 71.4399 145.508 71.4399C146.203 71.4399 146.887 71.4399 147.582 71.4399C147.662 71.4399 147.743 71.4399 147.823 71.4497C148.92 71.5478 149.685 72.2836 149.685 73.2351C149.685 74.1867 148.92 74.9322 147.813 75.0009C147.552 75.0205 147.29 75.0205 147.028 75.0205C146.595 75.0205 146.163 75.0107 145.74 75.0107C145.387 75.0107 145.035 75.0303 144.683 75.0303C144.451 75.0303 144.21 75.0303 143.978 75.0009C143.535 74.9617 143.072 74.8832 142.67 74.7066C142.66 74.7066 142.65 74.6968 142.64 74.687C142.801 74.0494 142.962 73.4117 143.133 72.7741H143.123ZM143.052 55.2831C143.113 55.2831 143.173 55.2831 143.233 55.2831C143.304 55.2831 143.374 55.2831 143.445 55.2831L153.611 55.1065C153.611 55.1065 153.661 55.1065 153.692 55.1065C154.014 55.1065 154.336 55.136 154.638 55.2243C155.413 55.4499 155.825 56.0777 155.755 56.8233C155.735 57.0293 155.664 57.2255 155.564 57.4021C155.383 57.5786 155.191 57.765 155.01 57.9514C154.809 58.0691 154.597 58.1672 154.346 58.1966C154.245 58.2065 154.134 58.2163 154.034 58.2163C153.953 58.2163 153.873 58.2163 153.792 58.2163C151.286 58.1574 148.78 58.0985 146.273 58.0299C146.012 58.0299 145.76 58.0005 145.498 57.9906C144.884 56.99 143.797 56.3524 142.579 56.3524C142.328 56.3524 142.076 56.3818 141.834 56.4309C141.834 56.4014 141.834 56.3622 141.834 56.3328C141.925 55.7638 142.398 55.3714 143.072 55.2929L143.052 55.2831ZM137.063 74.2357C137.788 71.8421 138.442 69.4289 139.177 67.0353C139.992 64.367 140.626 62.4639 141.472 59.8153C141.633 59.8937 141.784 59.9624 141.955 60.0213C142.448 60.1782 142.962 60.2861 143.495 60.3254C143.495 60.3842 143.495 60.4529 143.485 60.5118C143.123 62.2677 142.992 63.2585 142.559 65.0047C142.177 66.535 141.774 68.0555 141.371 69.5859C140.053 70.2628 139.237 71.4792 139.147 72.9506C139.086 73.8924 139.348 74.7655 139.841 75.4914C139.368 77.3258 138.905 79.1505 138.432 80.9849C138.352 81.3086 138.281 81.6422 138.17 82.1032C138.704 82.064 139.117 82.0149 139.519 82.0149C139.529 82.0149 139.539 82.0149 139.549 82.0149C141.603 82.0247 143.666 82.0542 145.72 82.0836C145.881 82.0836 146.042 82.1032 146.203 82.1327C147.129 82.2798 147.773 82.9665 147.793 83.8199C147.813 84.6636 147.189 85.419 146.263 85.5661C145.931 85.625 145.579 85.6348 145.236 85.6348C145.075 85.6348 144.914 85.6348 144.753 85.6348C143.636 85.6053 142.529 85.5563 141.412 85.5563C140.415 85.5563 139.419 85.5955 138.432 85.7231C137.929 85.7819 137.426 85.88 136.922 85.9094C136.852 85.9094 136.791 85.9094 136.721 85.9094C134.819 85.9094 133.832 84.6145 134.396 82.7801C135.272 79.9353 136.188 77.11 137.053 74.2652L137.063 74.2357ZM125.438 84.1731C127.269 78.3559 129.142 72.5484 130.994 66.741C132.081 63.3076 133.258 59.8938 133.893 56.3426C134.034 55.5382 134.517 55.0281 135.131 55.0281C135.181 55.0281 135.231 55.0281 135.282 55.0379C135.745 55.0967 136.067 55.391 136.258 55.8521C136.419 56.2543 136.439 56.6957 136.359 57.1176C136.077 58.6087 135.845 60.1096 135.453 61.5712C134.225 66.1034 132.896 70.6061 131.638 75.1284C130.802 78.1499 129.917 80.8476 129.122 83.869C129.031 84.2222 129.011 84.5949 128.91 84.9383C128.669 85.8015 128.004 86.3018 127.179 86.3018C127.098 86.3018 127.018 86.3018 126.937 86.292C126.072 86.1939 125.377 85.4778 125.377 84.5459C125.377 84.4184 125.407 84.2908 125.448 84.1731H125.438ZM111.416 55.7736C111.607 55.6755 111.809 55.597 112.01 55.5578C113.369 55.2733 114.738 55.0869 116.107 55.0869C117.234 55.0869 118.361 55.2145 119.479 55.5284C124.511 56.9508 127.008 61.5516 125.901 65.8385C125.357 67.9084 124.069 69.527 122.267 70.7434C120.445 71.9795 118.573 73.1468 116.499 73.9513C116.409 73.9905 116.318 74.0592 116.147 74.1671C116.358 74.4908 116.499 74.7655 116.701 75.0107C118.19 76.8942 119.348 78.9837 120.505 81.0634C121.129 82.1817 121.794 83.2804 122.398 84.4183C122.629 84.85 122.81 85.3307 122.851 85.8113C122.931 86.655 122.378 87.3417 121.572 87.5771C121.401 87.6262 121.22 87.6556 121.049 87.6556C120.465 87.6556 119.901 87.3711 119.559 86.8316C119.136 86.1743 118.754 85.4876 118.361 84.8009C117.707 83.6336 117.093 82.4466 116.399 81.3086C115.573 79.9451 114.647 78.6305 113.812 77.267C113.55 76.8353 113.288 76.3939 113.037 75.9525C113.46 74.2946 113.923 72.6171 114.416 70.9396C114.486 70.9102 114.557 70.871 114.637 70.8415C116.61 70.0764 118.412 69.0071 120.133 67.8103C120.666 67.4375 121.16 66.9666 121.542 66.4467C122.992 64.524 122.69 61.9931 120.888 60.3646C119.61 59.2071 118.08 58.6773 116.368 58.6381C116.328 58.6381 116.298 58.6381 116.258 58.6381C115.694 57.971 114.899 57.4903 113.953 57.353C113.772 57.3236 113.6 57.3138 113.419 57.3138C112.493 57.3138 111.648 57.6669 110.983 58.2849C110.691 58.0397 110.51 57.6963 110.49 57.3138C110.44 56.6075 110.772 56.117 111.406 55.7932L111.416 55.7736ZM108.749 69.8115C109.383 67.8299 110.269 65.9268 111.034 63.9845C111.406 63.0427 111.758 62.0912 112.121 61.1494C112.302 61.1494 112.483 61.169 112.634 61.169C112.745 61.169 112.866 61.169 112.976 61.169C113.439 61.169 113.902 61.1396 114.365 61.12C114.456 61.12 114.537 61.12 114.627 61.12C114.627 61.1788 114.647 61.2377 114.627 61.3064C114.496 62.2579 114.315 63.2193 113.983 64.1218C113.369 65.8189 112.815 67.5356 112.292 69.2523C111.96 69.4387 111.638 69.6349 111.326 69.8507C109.484 71.1653 108.91 73.294 109.856 75.2854C110.007 75.5993 110.188 75.9328 110.359 76.2566C110.067 77.4141 109.786 78.5815 109.504 79.7391C109.202 81.0143 108.749 82.2602 108.427 83.5355C108.427 83.5355 108.306 84.026 107.843 84.9775C107.752 85.1639 107.682 85.2914 107.611 85.4091C107.169 85.0952 106.595 84.7323 105.9 84.4968C105.498 84.3595 105.085 84.2908 104.672 84.281C104.632 83.9671 104.652 83.6434 104.713 83.3393C104.833 82.7212 104.894 82.5839 105.125 81.8187C106.303 77.8163 107.46 73.8041 108.739 69.8409L108.749 69.8115ZM68.1746 52.1832C67.5505 51.732 67.3593 50.9374 67.7015 50.1428C67.8525 49.8092 68.0538 49.4953 68.1947 49.1618C68.5168 48.377 68.3658 48.0337 67.5606 47.6805C66.5037 47.2292 65.4065 46.9938 64.2893 46.9938C63.9772 46.9938 63.6551 47.0134 63.333 47.0527C61.0985 47.3077 59.7195 48.6321 58.9545 50.594C58.4814 51.8104 58.421 53.0955 58.6928 54.3708C59.025 55.9404 59.6188 57.4021 60.4342 58.795C61.9037 61.3358 63.3632 63.8864 64.7422 66.4663C65.8494 68.5362 66.554 70.7532 66.8459 73.0782C66.9868 74.1867 67.1177 76.3547 66.0407 78.7679C64.9939 81.1124 63.3431 82.4368 62.5077 83.0842C60.8468 84.3791 59.2364 84.9677 58.4311 85.2228C57.032 85.6642 55.7033 85.8113 54.5257 85.8113C52.573 85.8113 51.043 85.3895 50.2679 85.1639C49.4828 84.9383 48.1642 84.5557 46.7148 83.5845C45.9297 83.0646 44.5104 82.0934 43.5139 80.2884C43.2321 79.7783 42.6886 78.6698 42.5376 77.1296C42.4571 76.3252 42.6181 75.4718 42.8094 74.6674C43.0409 73.6668 43.6649 72.8231 44.3192 72.0285C44.6916 71.5773 45.215 71.3516 45.7384 71.3516C46.0706 71.3516 46.4028 71.4399 46.6947 71.6165C47.4697 72.0776 47.7717 73.0291 47.3892 73.8728C47.2483 74.1769 47.047 74.4614 46.8456 74.736C45.98 75.8642 45.9699 77.061 46.6242 78.2676C47.3389 79.5919 48.4863 80.2688 49.3218 80.72C49.8251 80.9947 51.355 81.7697 53.5191 81.858C53.66 81.858 53.8009 81.858 53.9419 81.858C55.7637 81.858 57.1327 81.3479 57.9983 81.0143C58.6224 80.7691 59.5283 80.4159 60.5348 79.6606C61.1186 79.2191 62.0446 78.5128 62.6586 77.316C63.3834 75.9034 63.3532 74.5791 63.1921 73.4706C62.9807 71.9108 62.5479 70.4001 61.8735 68.9777C61.2595 67.673 60.6053 66.3977 59.9007 65.1322C58.9545 63.4351 57.9278 61.787 56.9817 60.0998C55.5926 57.6081 54.7068 54.9888 54.8981 52.1047C55.0793 49.3972 56.2368 47.1311 58.3204 45.3556C60.0114 43.9135 62.0648 43.4132 64.2591 43.4034C64.2792 43.4034 64.2993 43.4034 64.3195 43.4034C66.0709 43.4034 67.7216 43.7958 69.312 44.5021C72.7141 46.0128 72.7141 49.6523 70.4997 51.9085C70.4494 51.9674 70.3789 52.0164 70.3185 52.0655C69.9461 52.35 69.5334 52.4971 69.1308 52.4971C68.7886 52.4971 68.4564 52.3892 68.1645 52.1832H68.1746ZM84.1385 62.2972C83.8265 63.0133 83.4943 63.7294 83.1219 64.4161C79.8305 70.5276 76.9316 76.8157 74.1132 83.1431C73.922 83.5747 73.7308 84.0063 73.5093 84.4183C73.3684 84.693 73.1973 84.9677 72.996 85.2031C72.6135 85.6446 72.1001 85.8702 71.5767 85.8702C71.3452 85.8702 71.1137 85.8212 70.9023 85.7329C70.1977 85.4288 69.7851 84.6734 69.926 83.8592C69.9964 83.4276 70.1474 82.9959 70.3387 82.6035C72.392 78.3951 74.4756 74.2063 76.529 69.9979C77.9583 67.0844 79.5486 64.2591 81.2397 61.4731C81.3001 61.3652 81.3806 61.2671 81.451 61.1592C82.4375 61.1396 83.4138 61.1298 84.4002 61.12C84.4002 61.1886 84.4103 61.2573 84.4103 61.326C84.3902 61.6497 84.2895 61.9931 84.1486 62.2972H84.1385ZM89.8759 58.5792C88.5372 58.6087 87.1985 58.6283 85.8598 58.6479C85.8598 58.6479 85.8598 58.6381 85.8396 58.6283C85.1048 57.8729 84.058 57.4315 82.981 57.4315C82.981 57.4315 82.8803 57.4315 82.8401 57.4315C81.7933 57.4903 80.8471 57.971 80.1425 58.7362C78.2905 58.7754 76.4283 58.8245 74.5763 58.8735C74.1535 58.8833 73.7308 58.903 73.3181 58.903C73.2275 58.903 73.147 58.903 73.0564 58.903C72.7947 58.903 72.5229 58.8539 72.2713 58.7852C71.4962 58.5596 71.0332 57.9514 71.0332 57.2353C71.0332 56.4995 71.5667 55.8619 72.3618 55.6755C72.7745 55.5774 73.2073 55.5284 73.6301 55.5088L89.886 55.0183C89.886 55.0183 89.9564 55.0183 89.9866 55.0183C90.3993 55.0183 90.8321 55.0575 91.2247 55.1752C91.9595 55.391 92.3822 55.9011 92.4426 56.6565C92.503 57.3726 92.1004 58.0397 91.3555 58.3144C90.8925 58.4811 90.3691 58.5792 89.8759 58.589V58.5792ZM101.039 78.042C100.374 79.3172 99.6596 80.5631 98.8946 81.7893C98.1699 82.9665 97.1734 83.918 96.0562 84.7323C94.959 85.5367 93.7713 85.9291 92.503 85.9291C92.0299 85.9291 91.5468 85.8702 91.0536 85.7623C89.7954 85.4876 88.8895 84.7813 88.3459 83.6434C87.8125 82.525 87.7118 81.3381 87.7017 80.259C87.9131 75.8642 88.5372 71.6852 90.3289 67.7318C91.5468 65.0341 92.8956 62.3953 94.4054 59.8545C95.0597 58.7558 95.875 57.7454 96.6802 56.735C97.2741 55.9894 98.0592 55.4205 98.9752 55.0771C99.4583 54.8907 99.9415 54.7926 100.425 54.7926C100.928 54.7926 101.431 54.9005 101.934 55.1262C103.817 55.9894 104.914 57.3726 104.874 59.4719C104.874 59.8839 104.874 60.3058 104.833 60.7178C104.753 61.4633 104.25 61.9734 103.585 62.0323C103.535 62.0323 103.485 62.0323 103.434 62.0323C102.78 62.0323 102.277 61.6301 102.065 60.914C101.995 60.6687 101.985 60.4039 101.945 60.139C101.894 59.8055 101.894 59.4621 101.804 59.1384C101.632 58.5498 101.18 58.2163 100.696 58.2163C100.404 58.2163 100.103 58.334 99.8408 58.5792C99.4986 58.903 99.1866 59.2757 98.9248 59.6583C96.2071 63.6509 94.0129 67.8986 92.5131 72.4602C91.879 74.3829 91.6978 76.3939 91.5367 78.3853C91.4562 79.3663 91.4361 80.3669 91.5065 81.3381C91.5569 82.0247 91.8085 82.319 92.3218 82.319C92.4829 82.319 92.6641 82.2896 92.8654 82.2406C93.268 82.1425 93.7008 81.9659 93.9927 81.6912C94.6671 81.0634 95.3717 80.4356 95.8649 79.6802C97.7874 76.7471 99.2067 73.5785 100.092 70.1941C100.183 69.8409 100.294 69.4976 100.384 69.1346C100.757 67.673 101.139 66.2113 101.481 64.7398C101.703 63.8079 102.257 63.1997 103.072 63.1016C103.152 63.0918 103.233 63.0918 103.313 63.0918C104.33 63.0918 105.145 63.8765 105.115 64.9851C105.095 65.6816 104.974 66.3879 104.793 67.0647C103.817 70.8023 102.83 74.5398 101.018 78.0027L101.039 78.042ZM99.0758 64.1022C99.0758 64.1022 99.0557 64.1905 99.0456 64.2395C98.794 65.3284 98.5021 66.4467 98.2303 67.5258L97.9586 68.5951C97.9183 68.752 97.868 68.909 97.8277 69.066C97.7774 69.2523 97.717 69.4387 97.6667 69.6251C96.9117 72.5092 95.7139 75.2756 94.1135 77.8359C94.2544 76.1585 94.4457 74.6379 94.9087 73.2351C95.9253 70.1548 97.3244 67.0844 99.0859 64.0924L99.0758 64.1022ZM173.269 61.9146C173.108 62.513 172.846 63.0918 172.575 63.6607C172.413 63.9845 172.172 64.2787 171.9 64.524C171.528 64.8575 171.075 65.0243 170.622 65.0243C170.27 65.0243 169.917 64.9164 169.615 64.7104C168.921 64.2395 168.679 63.3861 169.031 62.5522C169.182 62.1893 169.404 61.8557 169.545 61.4928C169.978 60.4333 169.796 59.933 168.78 59.3542C168.387 59.1286 167.975 58.9618 167.572 58.8539C167.159 58.746 166.747 58.7068 166.344 58.7068C165.599 58.7068 164.895 58.8539 164.371 58.9814C163.516 59.1973 161.714 59.6583 160.234 61.2573C159.64 61.895 158.795 62.8073 158.664 64.161C158.533 65.5148 159.167 66.8195 159.348 67.2119C159.409 67.3492 159.58 67.673 159.791 68.0555C160.134 68.6539 160.415 69.0758 160.556 69.2818C161.885 71.2339 161.804 71.2437 162.529 72.2149C163.113 72.9997 163.485 73.5098 164.109 74.1573C164.582 74.6576 164.774 74.7949 165.458 75.4816C165.851 75.8642 166.344 76.3743 167.018 77.1394C168.8 79.1308 169.756 80.4748 170.481 81.7305C171.246 83.0646 171.749 84.487 171.961 85.9977C172.182 87.5575 171.89 89.0682 171.296 90.5103C169.937 93.8652 167.652 96.0921 164.653 98.1423C162.348 99.7119 159.67 100.408 157.023 101.262C153.168 102.508 149.112 103.165 145.065 103.371C143.868 103.43 142.66 103.489 141.462 103.548C141.24 103.548 141.019 103.548 140.808 103.548C132.322 103.548 124.501 101.899 117.003 98.0835C113.369 96.2294 108.356 93.5611 105.095 91.1381C104.582 90.7555 104.099 90.3533 103.636 89.9217C103.173 89.49 102.901 88.9603 102.921 88.3227C102.931 87.8616 103.122 87.4692 103.414 87.1749C104.038 87.8126 104.864 88.2344 105.81 88.3619C105.93 88.3815 106.192 88.4208 106.524 88.4208C106.836 88.4208 107.138 88.3815 107.43 88.3129C113.117 92.4722 120.485 96.2 127.098 98.3679C131.729 99.8787 136.479 100.516 141.311 100.516C142.217 100.516 143.123 100.497 144.029 100.448C147.048 100.31 150.058 100.006 152.997 99.2901C155.936 98.5739 158.795 97.642 161.452 96.2C163.576 95.0424 165.257 93.4238 166.636 91.5109C166.998 91.0008 167.28 90.4318 167.572 89.8824C168.659 87.842 168.498 85.8113 167.431 83.8199C166.616 82.2994 165.81 81.2694 164.774 80.1118C161.714 76.7078 161.744 76.9433 160.415 75.3933C159.912 74.8047 157.567 72.0383 155.966 68.6834C155.765 68.2615 155.544 67.7612 155.362 67.0942C154.96 65.6325 154.98 64.1218 155.302 62.5816C155.513 61.5909 155.916 60.6687 156.6 59.9036C156.983 59.6289 157.315 59.3052 157.577 58.9226C159.57 57.0587 161.885 55.7246 164.713 55.2537C165.257 55.1654 165.79 55.1164 166.314 55.1164C168.105 55.1164 169.786 55.6461 171.326 56.7252C173.158 58.0103 173.833 59.8251 173.259 61.944L173.269 61.9146Z" fill="white"/>
</g>
<path d="M88.5858 37.3501V38.8986H85.8213V44.0001H83.8833V38.8986H81.1378V37.3501H88.5858Z" fill="#64D18C"/>
<path d="M95.4394 37.3501H97.3774V44.0001H95.4394V41.4256H91.4494V44.0001H89.5114V37.3501H91.4494V39.8296H95.4394V37.3501Z" fill="#64D18C"/>
<path d="M100.847 42.5181H106.034V44.0001H98.9372V37.3501H105.929V38.8321H100.847V39.9246H105.036V41.3401H100.847V42.5181Z" fill="#64D18C"/>
<path d="M116.815 37.3501H118.876V44.0001H116.948V39.7536L114.297 43.0026H114.202L111.552 39.7536V44.0001H109.68V37.3501H111.799L114.297 40.5421L116.815 37.3501Z" fill="#64D18C"/>
<path d="M122.342 42.5181H127.529V44.0001H120.433V37.3501H127.425V38.8321H122.342V39.9246H126.532V41.3401H122.342V42.5181Z" fill="#64D18C"/>
<path d="M132.413 37.3501C134.969 37.3501 136.593 38.5851 136.593 40.6751C136.593 42.7651 134.969 44.0001 132.413 44.0001H128.699V37.3501H132.413ZM132.261 42.4611C133.686 42.4611 134.617 41.8531 134.617 40.6751C134.617 39.4971 133.686 38.8891 132.261 38.8891H130.637V42.4611H132.261Z" fill="#64D18C"/>
<path d="M139.71 44.0001H137.772V37.3501H139.71V44.0001Z" fill="#64D18C"/>
<path d="M145.146 42.6416C146.039 42.6416 146.723 42.3376 147.188 41.6251L148.851 42.4801C148.233 43.4586 146.893 44.2186 145.098 44.2186C142.59 44.2186 140.899 42.9171 140.899 40.6751C140.899 38.4331 142.59 37.1316 145.174 37.1316C146.894 37.1316 148.223 37.9106 148.822 38.8606L147.15 39.7156C146.713 39.0316 146.039 38.7086 145.146 38.7086C143.778 38.7086 142.866 39.4021 142.866 40.6751C142.866 41.9481 143.778 42.6416 145.146 42.6416Z" fill="#64D18C"/>
<path d="M155.719 44.0001L155.092 42.7271H151.444L150.817 44.0001H148.784L152.223 37.3501H154.341L157.78 44.0001H155.719ZM152.109 41.3496H154.417L153.268 38.9936L152.109 41.3496Z" fill="#64D18C"/>
<path d="M166.411 44.0001H164.159L162.402 41.9006H160.445V44.0001H158.516V37.3501H163.181C164.881 37.3501 166.202 38.1006 166.202 39.6206C166.202 40.7321 165.499 41.4351 164.454 41.7391L166.411 44.0001ZM160.435 40.4946H163.038C163.732 40.4946 164.235 40.3046 164.235 39.6586C164.235 39.0126 163.732 38.8226 163.038 38.8226H160.435V40.4946Z" fill="#64D18C"/>
<path d="M169.36 42.5181H174.547V44.0001H167.45V37.3501H174.442V38.8321H169.36V39.9246H173.549V41.3401H169.36V42.5181Z" fill="#64D18C"/>
<path d="M139.103 94.4072C138.095 94.4072 137.423 93.8962 137.423 92.9582C137.423 92.0202 138.095 91.5092 139.103 91.5092C139.761 91.5092 140.258 91.7472 140.58 92.2512L141.812 91.6212C141.371 90.9212 140.391 90.3472 139.124 90.3472C137.22 90.3472 135.974 91.3062 135.974 92.9582C135.974 94.6102 137.22 95.5692 139.068 95.5692C140.391 95.5692 141.378 95.0092 141.833 94.2882L140.608 93.6582C140.265 94.1832 139.761 94.4072 139.103 94.4072Z" fill="#64D18C"/>
<path d="M145.407 95.5692C147.346 95.5692 148.606 94.6172 148.606 92.9582C148.606 91.2992 147.346 90.3472 145.407 90.3472C143.468 90.3472 142.215 91.2992 142.215 92.9582C142.215 94.6172 143.468 95.5692 145.407 95.5692ZM145.407 94.4072C144.329 94.4072 143.664 93.8822 143.664 92.9582C143.664 92.0342 144.336 91.5092 145.407 91.5092C146.485 91.5092 147.15 92.0342 147.15 92.9582C147.15 93.8822 146.485 94.4072 145.407 94.4072Z" fill="#64D18C"/>
<defs>
<filter id="filter0_f_639_699" x="0.119999" y="0.119999" width="215.943" height="147.09" filterUnits="userSpaceOnUse" color-interpolation-filters="sRGB">
<feFlood flood-opacity="0" result="BackgroundImageFix"/>
<feBlend mode="normal" in="SourceGraphic" in2="BackgroundImageFix" result="shape"/>
<feGaussianBlur stdDeviation="18.44" result="effect1_foregroundBlur_639_699"/>
</filter>
<filter id="filter1_f_639_699" x="22.71" y="22.71" width="170.699" height="101.87" filterUnits="userSpaceOnUse" color-interpolation-filters="sRGB">
<feFlood flood-opacity="0" result="BackgroundImageFix"/>
<feBlend mode="normal" in="SourceGraphic" in2="BackgroundImageFix" result="shape"/>
<feGaussianBlur stdDeviation="6.145" result="effect1_foregroundBlur_639_699"/>
</filter>
<filter id="filter2_ddi_639_699" x="21.02" y="33.31" width="174.143" height="105.29" filterUnits="userSpaceOnUse" color-interpolation-filters="sRGB">
<feFlood flood-opacity="0" result="BackgroundImageFix"/>
<feColorMatrix in="SourceAlpha" type="matrix" values="0 0 0 0 0 0 0 0 0 0 0 0 0 0 0 0 0 0 127 0" result="hardAlpha"/>
<feOffset dy="7.99"/>
<feGaussianBlur stdDeviation="3.075"/>
<feComposite in2="hardAlpha" operator="out"/>
<feColorMatrix type="matrix" values="0 0 0 0 0 0 0 0 0 0.084549 0 0 0 0 0.301961 0 0 0 0.7 0"/>
<feBlend mode="normal" in2="BackgroundImageFix" result="effect1_dropShadow_639_699"/>
<feColorMatrix in="SourceAlpha" type="matrix" values="0 0 0 0 0 0 0 0 0 0 0 0 0 0 0 0 0 0 127 0" result="hardAlpha"/>
<feOffset dy="12.29"/>
<feGaussianBlur stdDeviation="7.99"/>
<feComposite in2="hardAlpha" operator="out"/>
<feColorMatrix type="matrix" values="0 0 0 0 0 0 0 0 0 0.204 0 0 0 0 0.6 0 0 0 1 0"/>
<feBlend mode="normal" in2="effect1_dropShadow_639_699" result="effect2_dropShadow_639_699"/>
<feBlend mode="normal" in="SourceGraphic" in2="effect2_dropShadow_639_699" result="shape"/>
<feColorMatrix in="SourceAlpha" type="matrix" values="0 0 0 0 0 0 0 0 0 0 0 0 0 0 0 0 0 0 127 0" result="hardAlpha"/>
<feOffset dx="-0.8" dy="1.6"/>
<feGaussianBlur stdDeviation="0.4"/>
<feComposite in2="hardAlpha" operator="arithmetic" k2="-1" k3="1"/>
<feColorMatrix type="matrix" values="0 0 0 0 1 0 0 0 0 1 0 0 0 0 1 0 0 0 0.5 0"/>
<feBlend mode="normal" in2="shape" result="effect3_innerShadow_639_699"/>
</filter>
<filter id="filter3_f_639_699" x="38.7661" y="38.79" width="138.568" height="69.7701" filterUnits="userSpaceOnUse" color-interpolation-filters="sRGB">
<feFlood flood-opacity="0" result="BackgroundImageFix"/>
<feBlend mode="normal" in="SourceGraphic" in2="BackgroundImageFix" result="shape"/>
<feGaussianBlur stdDeviation="0.615" result="effect1_foregroundBlur_639_699"/>
</filter>
<filter id="filter4_f_639_699" x="39.18" y="40.18" width="137.64" height="66.64" filterUnits="userSpaceOnUse" color-interpolation-filters="sRGB">
<feFlood flood-opacity="0" result="BackgroundImageFix"/>
<feBlend mode="normal" in="SourceGraphic" in2="BackgroundImageFix" result="shape"/>
<feGaussianBlur stdDeviation="0.41" result="effect1_foregroundBlur_639_699"/>
</filter>
</defs>
</svg>
