<svg width="245" height="292" viewBox="0 0 245 292" fill="none" xmlns="http://www.w3.org/2000/svg">
<g style="mix-blend-mode:hard-light" filter="url(#filter0_f_295_4722)">
<path d="M167.732 48.567C171.448 51.6237 172.267 57.0021 169.641 61.0408L169.64 61.0406C168.673 62.588 162.022 73.4524 158.409 87.3687C160.072 88.6242 161.196 90.3595 161.736 92.2541C174.694 99.9039 184.046 110.467 190.401 119.895C203.965 140.015 212 167.06 212 192.364C212 214.014 204.56 230.983 188.831 242.259C173.492 253.256 151.126 258.199 122.53 258.199C93.9333 258.199 71.5599 253.256 56.2126 242.26C40.4761 230.986 33.0254 214.016 33.0254 192.364C33.0254 168.338 40.3191 142.749 52.773 122.914C52.5124 122.936 52.2518 122.947 51.9919 122.947C49.166 122.947 46.3602 121.716 44.4675 119.252L44.4452 119.223L44.4233 119.193C41.3314 115.065 42.08 109.2 46.2107 106.004L46.22 105.996L46.2292 105.989C51.6521 101.827 58.1718 98.0264 65.3323 94.714C61.6357 93.2042 57.9842 91.289 54.8551 88.8661L167.732 48.567ZM167.732 48.567C166.189 47.296 154.183 38.278 131.023 40.5957C121.008 34.6295 109.884 32.6623 100.345 33.0463C95.2591 33.251 90.4821 34.1277 86.4138 35.5231C82.4609 36.8788 78.6924 38.8918 76.1241 41.7067C71.127 47.1621 69.6761 54.9223 74.1383 61.3317C74.5869 61.9788 75.107 62.5731 75.4822 62.9852M167.732 48.567L75.4822 62.9852M75.4822 62.9852C76.7645 64.9396 79.9981 70.5947 81.697 80.0052C80.9036 79.8286 80.0775 79.6316 79.2319 79.4124C74.3446 78.1453 69.5194 76.3135 66.4255 73.911L66.4175 73.9048C62.2667 70.6928 56.3517 71.4643 53.1544 75.6078L57.6312 79.0622L53.1544 75.6078C49.9547 79.7546 50.7182 85.6633 54.8533 88.8647L75.4822 62.9852ZM140.23 81.8726C128.085 80.0578 114.489 80.8111 101.246 83.3108C100.706 77.7509 99.7069 72.8931 98.5012 68.7305C102.076 68.1372 105.949 67.0474 110.121 65.3883L110.118 65.3755C128.599 57.9415 141.192 58.5982 148.382 60.3417C145.685 65.8014 142.51 73.2724 140.23 81.8726ZM90.0435 54.5524C90.0433 54.5524 90.0466 54.5474 90.054 54.5374C90.0474 54.5474 90.0437 54.5524 90.0435 54.5524ZM122.495 239.308C96.7982 239.308 79.1351 235.128 68.0191 227.447C57.3586 220.081 51.9063 208.913 51.9063 192.398C51.9063 173.744 57.7142 150.468 69.6462 132.022C81.4979 113.701 98.9643 100.682 122.495 100.682C150.659 100.682 193.05 127.987 193.05 192.398C193.05 208.932 187.596 220.099 176.942 227.46C165.83 235.136 148.177 239.308 122.495 239.308Z" fill="#85F32E" stroke="#85F32E" stroke-width="12"/>
<path d="M112.97 158.014C112.97 154.297 115.989 150.574 121.19 150.025H122.53C128.993 150.025 134.268 155.295 134.268 161.789V167.406C130.866 166.191 127.478 165.462 124.723 164.869C124.596 164.841 124.471 164.814 124.347 164.788L124.344 164.787C118.906 163.617 116.073 162.817 114.446 161.753C113.829 161.35 113.573 161.014 113.412 160.69C113.225 160.312 112.97 159.542 112.97 158.014ZM141.326 170.863C139.428 169.591 137.371 168.592 135.297 167.789H140.268H147.183H153.183V161.789C153.183 148.168 144.28 136.602 131.987 132.597V129.69V123.69H125.987H119.072H113.072V129.69V132.594C102.107 136.179 94.0544 145.895 94.0544 158.049C94.0544 167.457 98.0732 173.669 103.952 177.517C104.65 177.974 105.37 178.394 106.104 178.781H104.791H97.876H91.876V184.781C91.876 198.409 100.786 209.942 113.072 213.938V216.776V222.776H119.072H125.987H131.987V216.776V214.161C141.907 211.436 151.42 204.103 151.42 191.221C151.42 181.407 147.367 174.912 141.326 170.863ZM110.791 184.781V180.799C114.047 181.943 117.284 182.641 119.918 183.208C120.068 183.241 120.217 183.273 120.363 183.304L120.369 183.306C126.058 184.529 129.022 185.375 130.739 186.543C131.396 186.99 131.729 187.406 131.957 187.891C132.217 188.442 132.504 189.44 132.504 191.256C132.504 192.435 131.99 193.535 130.294 194.607C128.46 195.766 125.643 196.544 122.53 196.544C116.066 196.544 110.791 191.274 110.791 184.781Z" fill="#85F32E" stroke="#85F32E" stroke-width="12"/>
</g>
<g style="mix-blend-mode:hard-light" filter="url(#filter1_f_295_4722)">
<path d="M152.538 93.2303C165.529 100.758 174.901 111.299 181.261 120.734C194.65 140.593 202.603 167.344 202.603 192.364C202.603 213.635 195.318 230.102 180.061 241.04C165.095 251.769 143.104 256.699 114.633 256.699C86.1624 256.699 64.1634 251.769 49.1897 241.041C33.9242 230.104 26.6289 213.637 26.6289 192.364C26.6289 167.369 34.6218 140.653 48.1126 120.694L48.1129 120.694C48.2476 120.495 48.3836 120.295 48.5209 120.095C47.1774 120.998 45.618 121.447 44.0954 121.447C41.708 121.447 39.353 120.411 37.7606 118.338L37.7438 118.316L37.7274 118.294C35.1233 114.817 35.7538 109.882 39.2323 107.19L39.2392 107.185L39.2461 107.179C45.3906 102.463 52.9994 98.2003 61.3853 94.5947C56.6836 92.9762 51.8322 90.7428 47.8766 87.6798L152.538 93.2303ZM152.538 93.2303C152.097 91.1239 150.819 89.1959 148.798 88.0306C152.439 73.2392 159.607 61.6254 160.486 60.2229L160.487 60.2232C162.698 56.823 162.007 52.2977 158.886 49.7277C158.885 49.7268 158.884 49.726 158.883 49.7251C157.571 48.6446 145.792 39.6903 122.781 42.1393C112.951 36.1489 101.948 34.1652 92.5087 34.5451C87.5517 34.7446 82.92 35.5988 79.0039 36.942C75.1749 38.2553 71.6679 40.1613 69.3353 42.7182C64.7142 47.7617 63.4872 54.7507 67.4735 60.4756C67.8993 61.09 68.4045 61.6586 68.7721 62.0596C70.1999 64.209 74.0094 70.8076 75.6323 81.9185M152.538 93.2303L75.6323 81.9185M75.6323 81.9185C74.2129 81.643 72.6233 81.2958 70.959 80.8644C66.0163 79.583 60.9495 77.6897 57.609 75.0957L57.603 75.0911C54.1096 72.3878 49.1373 73.0356 46.4455 76.5242L50.0082 79.2732L46.4455 76.5242C43.7518 80.0151 44.3936 84.9834 47.8753 87.6788L75.6323 81.9185ZM101.67 63.9945L101.668 63.9816C122.064 55.7784 135.536 57.2404 142.652 59.3746C139.705 65.1145 135.937 73.6309 133.445 83.567C120.692 81.4384 106.131 82.274 92.001 85.101C91.4572 78.1666 90.1865 72.3035 88.6634 67.4967C92.57 67.0132 96.903 65.8903 101.67 63.9945ZM91.8474 50.6063C88.8748 51.5022 86.455 51.8518 84.5833 51.8903C84.7619 51.8359 84.9463 51.7819 85.1364 51.7288C87.002 51.207 89.2882 50.7937 91.8474 50.6063ZM114.599 240.808C88.7952 240.808 70.761 236.621 59.2699 228.681C48.1205 220.978 42.5098 209.294 42.5098 192.398C42.5098 173.482 48.3871 149.917 60.4902 131.207C72.5331 112.591 90.4198 99.1821 114.599 99.1821C143.666 99.1821 186.653 127.235 186.653 192.398C186.653 209.313 181.042 220.995 169.898 228.694C158.411 236.629 140.386 240.808 114.599 240.808Z" fill="#92FF26" stroke="#92FF26" stroke-width="9"/>
<path d="M103.573 158.014C103.573 153.381 107.328 149.115 113.225 148.525H114.633C121.927 148.525 127.871 154.468 127.871 161.789V166.289H132.371H139.287H143.787V161.789C143.787 148.456 134.814 137.189 122.591 133.708V129.69V125.19H118.091H111.175H106.675V129.69V133.703C95.7357 136.818 87.6579 146.242 87.6579 158.049C87.6579 166.949 91.4197 172.69 96.8769 176.262C101.763 179.46 107.836 180.771 112.413 181.758C112.538 181.785 112.661 181.812 112.784 181.838L112.788 181.839C118.403 183.047 121.681 183.939 123.686 185.303C124.538 185.882 125.062 186.495 125.418 187.251C125.798 188.057 126.108 189.288 126.108 191.256C126.108 193.066 125.221 194.597 123.199 195.875C121.073 197.218 117.962 198.044 114.633 198.044C107.339 198.044 101.395 192.101 101.395 184.781V180.281H96.895H89.9795H85.4795V184.781C85.4795 198.12 94.4576 209.353 106.675 212.828V216.776V221.276H111.175H118.091H122.591V216.776V213.001C132.503 210.649 142.023 203.632 142.023 191.221C142.023 181.896 138.21 175.873 132.595 172.109C127.517 168.706 121.194 167.344 116.427 166.317C116.329 166.296 116.232 166.275 116.135 166.254L116.133 166.254C110.765 165.099 107.634 164.255 105.729 163.009C104.923 162.482 104.47 161.956 104.172 161.357C103.855 160.719 103.573 159.706 103.573 158.014Z" fill="#92FF26" stroke="#92FF26" stroke-width="9"/>
</g>
<g style="mix-blend-mode:hard-light" filter="url(#filter2_di_295_4722)">
<path d="M176.401 123.249C169.935 113.657 160.322 103.027 146.941 95.894C147.425 94.2319 146.664 92.4313 145.039 91.7388C144.209 91.3925 143.31 91.1155 142.446 90.8039C146.042 72.5557 155.481 57.9432 155.585 57.7701C156.553 56.2811 156.242 54.3074 154.894 53.1994C154.306 52.7146 143.206 43.9194 120.593 46.7934C102.094 34.6395 78.028 38.6216 71.5275 45.7547C68.0352 49.5636 67.4819 54.2382 70.0407 57.9086C70.3518 58.3587 70.7668 58.8089 71.1817 59.259C73.0143 61.9253 78.5467 71.2398 79.584 87.272C76.887 86.9603 61.8804 84.9866 53.7201 78.6499C52.1987 77.4726 50.0549 77.7497 48.8793 79.2732C47.7036 80.7968 47.9803 82.9436 49.5017 84.121C57.2816 90.146 69.4183 92.743 75.573 93.7125C62.0878 97.9716 49.7437 103.927 40.8573 110.749C39.3359 111.926 39.0593 114.073 40.2003 115.597C40.8919 116.497 41.8946 116.947 42.9665 116.947C43.6927 116.947 44.4534 116.705 45.0758 116.22C51.7146 111.13 59.9786 106.767 68.9342 103.269C61.2234 109.433 55.2069 116.566 50.7119 123.214C37.7453 142.398 30 168.229 30 192.364C30 232.635 57.3162 252.199 113.504 252.199C169.693 252.199 196.974 232.635 196.974 192.364C196.974 168.194 189.264 142.328 176.401 123.249ZM76.6104 50.4292C78.6159 48.2478 85.393 45.997 93.7262 45.997C98.7053 45.997 104.272 46.7934 109.666 48.9403C105.517 50.0137 101.057 51.5027 96.2849 53.4071C85.5313 57.7355 78.8233 56.6274 76.3683 54.6537C76.0917 54.2728 75.8842 54.0304 75.8497 53.9612C75.7805 53.8919 75.7113 53.8573 75.6422 53.788C75.0198 52.6453 75.8151 51.3642 76.6449 50.4292H76.6104ZM98.8436 59.8131C125.952 48.9057 142.031 54.1343 147.909 57.0429C144.797 62.4447 138.642 74.4255 135.738 88.8302C121.354 85.506 103.615 86.6141 86.6378 90.6308C86.3958 78.3729 83.7679 69.2661 81.14 63.2065C85.7734 63.5527 91.6515 62.6871 98.8782 59.8131H98.8436ZM113.47 245.308C61.2234 245.308 36.8809 228.479 36.8809 192.398C36.8809 152.993 61.2234 94.6821 113.47 94.6821C145.247 94.6821 190.024 124.98 190.024 192.398C190.024 228.514 165.682 245.308 113.47 245.308Z" fill="#37FF4B" fill-opacity="0.2"/>
<path d="M68.4319 61.4399C69.9528 63.711 74.1456 70.9267 75.6802 83.1539C73.9325 82.8445 71.8233 82.4142 69.5791 81.8324C64.5995 80.5414 59.3716 78.6071 55.8668 75.8855L55.8621 75.8819C52.8069 73.5177 48.4632 74.0832 46.1083 77.1351C43.7519 80.1888 44.3126 84.5301 47.3586 86.8882C51.9299 90.4283 57.7571 92.8439 63.1346 94.4742C53.8278 98.2638 45.3922 102.855 38.7261 107.972L38.7153 107.981C35.6718 110.336 35.1199 114.652 37.3989 117.695L37.4117 117.712L37.4247 117.729C38.8169 119.541 40.8714 120.447 42.9665 120.447C44.4417 120.447 45.9596 119.963 47.2139 118.991C48.6592 117.883 50.1906 116.808 51.7977 115.768C50.3574 117.615 49.0302 119.453 47.8124 121.254L47.8122 121.254C34.4379 141.041 26.5 167.56 26.5 192.364C26.5 213.384 33.6917 229.516 48.6432 240.228C63.3677 250.777 85.1172 255.699 113.504 255.699C141.892 255.699 163.633 250.777 178.349 240.227C193.292 229.514 200.474 213.383 200.474 192.364C200.474 167.533 192.575 140.979 179.303 121.293C172.934 111.846 163.539 101.31 150.507 93.8654C150.181 91.6358 148.8 89.5796 146.512 88.5629C150.156 73.1293 157.716 60.956 158.519 59.6778L158.519 59.678C160.455 56.7017 159.848 52.7419 157.118 50.4972C155.963 49.5455 144.335 40.6312 121.421 43.1704C111.716 37.1626 100.792 35.167 91.42 35.5442C86.5489 35.7403 82.0141 36.5795 78.1994 37.8879C74.4527 39.1729 71.1199 41.0079 68.9445 43.3929C64.5743 48.1618 63.4968 54.6365 67.1658 59.9049C67.5728 60.4926 68.0651 61.0409 68.4319 61.4399ZM83.1964 52.8937C81.5553 52.9023 80.4015 52.6838 79.6438 52.4397C80.3042 52.0074 81.6158 51.3594 83.7382 50.7657C86.4007 50.021 89.8599 49.497 93.7262 49.497C94.6165 49.497 95.5251 49.5245 96.4471 49.5829C95.9634 49.77 95.4769 49.9612 94.9875 50.1565L94.978 50.1603C89.9173 52.1972 85.992 52.8792 83.1964 52.8937ZM100.172 63.0653L100.169 63.0524C121.912 54.3084 135.967 56.4089 142.957 58.7833C139.884 64.6206 135.678 73.8533 133.065 84.7115C119.921 82.3523 104.693 83.2455 89.9565 86.3083C89.4353 78.3742 87.951 71.8242 86.2005 66.6345C90.313 66.2597 94.965 65.136 100.172 63.0653ZM113.47 241.808C87.5952 241.808 69.3137 237.617 57.5725 229.504C46.0971 221.575 40.3809 209.549 40.3809 192.398C40.3809 173.307 46.3045 149.551 58.5217 130.664C70.692 111.851 88.8588 98.1821 113.47 98.1821C143.139 98.1821 186.524 126.734 186.524 192.398C186.524 209.567 180.807 221.593 169.337 229.517C157.601 237.625 139.328 241.808 113.47 241.808Z" stroke="#37FF4B" stroke-opacity="0.2" stroke-width="7"/>
<path d="M113.504 144.025C123.29 144.025 131.243 151.989 131.243 161.789H138.158C138.158 149.358 128.926 139.039 116.962 137.342V129.69H110.047V137.342C99.1547 138.866 91.029 147.384 91.029 158.049C91.029 172.8 102.993 175.362 112.605 177.44C123.393 179.76 129.479 181.56 129.479 191.256C129.479 198.666 121.457 202.544 113.504 202.544C103.719 202.544 95.7661 194.58 95.7661 184.781H88.8506C88.8506 197.212 98.0828 207.496 110.047 209.192V216.776H116.962V209.227C127.093 208.084 136.395 201.955 136.395 191.221C136.395 175.501 124.016 172.8 114.058 170.653C103.753 168.437 97.9444 166.74 97.9444 158.014C97.9444 150.119 104.756 143.956 113.504 143.956V144.025Z" fill="#37FF4B" fill-opacity="0.2"/>
<path d="M101.444 158.014C101.444 152.767 105.693 148.14 112.052 147.525H113.504C121.352 147.525 127.743 153.918 127.743 161.789V165.289H131.243H138.158H141.658V161.789C141.658 148.651 132.635 137.589 120.462 134.473V129.69V126.19H116.962H110.047H106.547V129.69V134.469C95.6217 137.255 87.529 146.482 87.529 158.049C87.529 166.61 91.1195 172.037 96.2956 175.425C101.024 178.52 106.938 179.797 111.553 180.793C111.658 180.816 111.762 180.838 111.866 180.861L111.869 180.862C117.435 182.059 120.922 182.982 123.119 184.476C124.101 185.144 124.752 185.889 125.194 186.825C125.653 187.8 125.979 189.187 125.979 191.256C125.979 193.487 124.843 195.305 122.604 196.72C120.284 198.186 116.977 199.044 113.504 199.044C105.657 199.044 99.2661 192.652 99.2661 184.781V181.281H95.7661H88.8506H85.3506V184.781C85.3506 197.923 94.3781 208.952 106.547 212.062V216.776V220.276H110.047H116.962H120.462V216.776V212.203C130.385 210.107 139.895 203.297 139.895 191.221C139.895 182.221 136.241 176.513 130.909 172.94C125.993 169.644 119.83 168.317 115.024 167.281C114.947 167.264 114.871 167.248 114.795 167.232L114.793 167.231C109.474 166.087 106.144 165.213 104.052 163.846C103.122 163.237 102.536 162.583 102.148 161.802C101.744 160.99 101.444 159.815 101.444 158.014Z" stroke="#37FF4B" stroke-opacity="0.2" stroke-width="7"/>
</g>
<g style="mix-blend-mode:hard-light" filter="url(#filter3_f_295_4722)">
<path d="M154.894 53.1994L156.481 51.2678C156.482 51.2687 156.483 51.2697 156.484 51.2707C158.818 53.1909 159.34 56.5822 157.681 59.1329L157.681 59.1328C156.975 60.2525 148.978 73.0419 145.345 89.1734C145.57 89.2576 145.792 89.344 146.002 89.4316L146.01 89.4352L146.019 89.4389C148.181 90.3601 149.426 92.3638 149.569 94.4832C162.659 101.843 172.091 112.383 178.474 121.852C191.629 141.364 199.474 167.722 199.474 192.364C199.474 213.13 192.396 228.927 177.767 239.415C163.3 249.786 141.808 254.699 113.504 254.699C85.201 254.699 63.701 249.786 49.2256 239.415C34.5881 228.928 27.5 213.131 27.5 192.364C27.5 167.751 35.3829 141.428 48.6406 121.814L48.6408 121.814C50.8297 118.577 53.3742 115.222 56.2949 111.91C52.78 113.86 49.5216 115.962 46.6029 118.199C45.5292 119.032 44.2276 119.447 42.9665 119.447C41.1638 119.447 39.4098 118.671 38.2177 117.119L38.2085 117.107L38.1993 117.095C36.2454 114.486 36.7187 110.79 39.3273 108.772L39.335 108.766C46.5625 103.218 55.9264 98.2756 66.2541 94.3168L121.187 44.2032M154.894 53.1994C154.306 52.7146 143.206 43.9194 120.593 46.7934M154.894 53.1994C156.242 54.3074 156.553 56.2811 155.585 57.7701L154.894 53.1994ZM120.593 46.7934L121.966 44.7041C121.707 44.5341 121.447 44.3672 121.187 44.2032M120.593 46.7934L120.278 44.3134C120.583 44.2746 120.886 44.2379 121.187 44.2032M120.593 46.7934C102.094 34.6395 78.028 38.6216 71.5275 45.7547M121.187 44.2032C111.609 38.177 100.766 36.1689 91.4602 36.5434C86.6749 36.736 82.237 37.5602 78.5239 38.8338C74.8594 40.0906 71.7008 41.8545 69.6825 44.0676M71.5275 45.7547L69.6848 44.0651C69.684 44.066 69.6833 44.0668 69.6825 44.0676M71.5275 45.7547C68.0352 49.5636 67.4819 54.2382 70.0407 57.9086L67.987 59.3343C64.6354 54.5224 65.5633 48.5621 69.6825 44.0676M71.5275 45.7547L69.6797 44.0707C69.6806 44.0697 69.6816 44.0686 69.6825 44.0676M83.2016 53.8937C80.4836 53.9079 78.8837 53.3305 78.1467 52.8567C78.1074 52.8052 78.0714 52.7586 78.0396 52.7175C78.0636 52.6771 78.0916 52.6328 78.124 52.5847C78.2289 52.4289 78.3611 52.2618 78.5146 52.0888L78.6637 51.9209C79.338 51.3554 80.9019 50.5207 83.4688 49.8027C86.2239 49.0321 89.7741 48.497 93.7262 48.497C95.9728 48.497 98.3372 48.6683 100.742 49.064C98.9891 49.6785 97.1944 50.3524 95.3582 51.0852L95.3514 51.0879C90.2004 53.1613 86.1493 53.8784 83.2016 53.8937ZM99.8021 62.1361L99.7996 62.1232C122.956 52.8118 137.59 55.6461 144.383 58.234C141.224 64.0854 136.538 74.057 133.82 85.8692C120.299 83.2607 104.385 84.2135 89.0269 87.5274C88.5509 78.5103 86.8168 71.2574 84.8268 65.7318C89.1277 65.5007 94.1102 64.3997 99.8021 62.1361ZM113.47 242.808C87.5242 242.808 68.9954 238.612 57.0041 230.327C45.2027 222.173 39.3809 209.803 39.3809 192.398C39.3809 173.133 45.3508 149.184 57.6821 130.121C69.9799 111.11 88.4268 97.1821 113.47 97.1821C143.741 97.1821 187.524 126.233 187.524 192.398C187.524 209.821 181.702 222.19 169.906 230.34C157.919 238.62 139.399 242.808 113.47 242.808Z" fill="#9BFF37" stroke="#9BFF37" stroke-width="5"/>
<path d="M100.444 158.014C100.444 152.151 105.19 147.165 112.01 146.525H113.504C121.906 146.525 128.743 153.367 128.743 161.789V164.289H131.243H138.158H140.658V161.789C140.658 148.849 131.581 137.994 119.462 135.261V129.69V127.19H116.962H110.047H107.547V129.69V135.257C96.6348 137.702 88.529 146.729 88.529 158.049C88.529 166.271 91.9482 171.385 96.8433 174.589C101.414 177.58 107.171 178.824 111.829 179.83C111.912 179.848 111.995 179.866 112.077 179.883L112.08 179.884C117.596 181.07 121.292 182.024 123.682 183.649C124.793 184.405 125.572 185.282 126.098 186.399C126.638 187.543 126.979 189.085 126.979 191.256C126.979 193.908 125.595 196.013 123.138 197.565C120.624 199.154 117.121 200.044 113.504 200.044C105.103 200.044 98.2661 193.203 98.2661 184.781V182.281H95.7661H88.8506H86.3506V184.781C86.3506 197.724 95.4311 208.545 107.547 211.274V216.776V219.276H110.047H116.962H119.462V216.776V211.382C129.414 209.551 138.895 202.944 138.895 191.221C138.895 182.547 135.4 177.154 130.352 173.77C125.596 170.583 119.594 169.289 114.743 168.243L114.584 168.209L114.583 168.209C109.312 167.075 105.782 166.171 103.505 164.682C102.449 163.992 101.731 163.211 101.252 162.247C100.762 161.261 100.444 159.924 100.444 158.014Z" fill="#9BFF37" stroke="#9BFF37" stroke-width="5"/>
</g>
<g filter="url(#filter4_f_295_4722)">
<path d="M176.401 123.249C169.935 113.657 160.322 103.027 146.941 95.894C147.425 94.2319 146.664 92.4313 145.039 91.7388C144.209 91.3925 143.31 91.1155 142.446 90.8039C146.042 72.5557 155.481 57.9432 155.585 57.7701C156.553 56.2811 156.242 54.3074 154.894 53.1994C154.306 52.7146 143.206 43.9194 120.593 46.7934C102.094 34.6395 78.028 38.6216 71.5275 45.7547C68.0352 49.5636 67.4819 54.2382 70.0407 57.9086C70.3518 58.3587 70.7668 58.8089 71.1817 59.259C73.0143 61.9253 78.5467 71.2398 79.584 87.272C76.887 86.9603 61.8804 84.9866 53.7201 78.6499C52.1987 77.4726 50.0549 77.7497 48.8793 79.2732C47.7036 80.7968 47.9803 82.9436 49.5017 84.121C57.2816 90.146 69.4183 92.743 75.573 93.7125C62.0878 97.9716 49.7437 103.927 40.8573 110.749C39.3359 111.926 39.0593 114.073 40.2003 115.597C40.8919 116.497 41.8946 116.947 42.9665 116.947C43.6927 116.947 44.4534 116.705 45.0758 116.22C51.7146 111.13 59.9786 106.767 68.9342 103.269C61.2234 109.433 55.2069 116.566 50.7119 123.214C37.7453 142.398 30 168.229 30 192.364C30 232.635 57.3162 252.199 113.504 252.199C169.693 252.199 196.974 232.635 196.974 192.364C196.974 168.194 189.264 142.328 176.401 123.249ZM76.6104 50.4292C78.6159 48.2478 85.393 45.997 93.7262 45.997C98.7053 45.997 104.272 46.7934 109.666 48.9403C105.517 50.0137 101.057 51.5027 96.2849 53.4071C85.5313 57.7355 78.8233 56.6274 76.3683 54.6537C76.0917 54.2728 75.8842 54.0304 75.8497 53.9612C75.7805 53.8919 75.7113 53.8573 75.6422 53.788C75.0198 52.6453 75.8151 51.3642 76.6449 50.4292H76.6104ZM98.8436 59.8131C125.952 48.9057 142.031 54.1343 147.909 57.0429C144.797 62.4447 138.642 74.4255 135.738 88.8302C121.354 85.506 103.615 86.6141 86.6378 90.6308C86.3958 78.3729 83.7679 69.2661 81.14 63.2065C85.7734 63.5527 91.6515 62.6871 98.8782 59.8131H98.8436ZM113.47 245.308C61.2234 245.308 36.8809 228.479 36.8809 192.398C36.8809 152.993 61.2234 94.6821 113.47 94.6821C145.247 94.6821 190.024 124.98 190.024 192.398C190.024 228.514 165.682 245.308 113.47 245.308Z" fill="white"/>
<path d="M113.504 144.025C123.29 144.025 131.243 151.989 131.243 161.789H138.158C138.158 149.358 128.926 139.039 116.962 137.342V129.69H110.047V137.342C99.1547 138.866 91.029 147.384 91.029 158.049C91.029 172.8 102.993 175.362 112.605 177.44C123.393 179.76 129.479 181.56 129.479 191.256C129.479 198.666 121.457 202.544 113.504 202.544C103.719 202.544 95.7661 194.58 95.7661 184.781H88.8506C88.8506 197.212 98.0828 207.496 110.047 209.192V216.776H116.962V209.227C127.093 208.084 136.395 201.955 136.395 191.221C136.395 175.501 124.016 172.8 114.058 170.653C103.753 168.437 97.9444 166.74 97.9444 158.014C97.9444 150.119 104.756 143.956 113.504 143.956V144.025Z" fill="white"/>
</g>
<defs>
<filter id="filter0_f_295_4722" x="0.14139" y="0.116243" width="244.743" height="290.966" filterUnits="userSpaceOnUse" color-interpolation-filters="sRGB">
<feFlood flood-opacity="0" result="BackgroundImageFix"/>
<feBlend mode="normal" in="SourceGraphic" in2="BackgroundImageFix" result="shape"/>
<feGaussianBlur stdDeviation="13.442" result="effect1_foregroundBlur_295_4722"/>
</filter>
<filter id="filter1_f_295_4722" x="13.8389" y="21.7102" width="201.555" height="247.778" filterUnits="userSpaceOnUse" color-interpolation-filters="sRGB">
<feFlood flood-opacity="0" result="BackgroundImageFix"/>
<feBlend mode="normal" in="SourceGraphic" in2="BackgroundImageFix" result="shape"/>
<feGaussianBlur stdDeviation="4.145" result="effect1_foregroundBlur_295_4722"/>
</filter>
<filter id="filter2_di_295_4722" x="17" y="23.0002" width="208.975" height="255.198" filterUnits="userSpaceOnUse" color-interpolation-filters="sRGB">
<feFlood flood-opacity="0" result="BackgroundImageFix"/>
<feColorMatrix in="SourceAlpha" type="matrix" values="0 0 0 0 0 0 0 0 0 0 0 0 0 0 0 0 0 0 127 0" result="hardAlpha"/>
<feOffset dx="8" dy="5"/>
<feGaussianBlur stdDeviation="7"/>
<feComposite in2="hardAlpha" operator="out"/>
<feColorMatrix type="matrix" values="0 0 0 0 0.00392157 0 0 0 0 0.25098 0 0 0 0 0.160784 0 0 0 0.9 0"/>
<feBlend mode="normal" in2="BackgroundImageFix" result="effect1_dropShadow_295_4722"/>
<feBlend mode="normal" in="SourceGraphic" in2="effect1_dropShadow_295_4722" result="shape"/>
<feColorMatrix in="SourceAlpha" type="matrix" values="0 0 0 0 0 0 0 0 0 0 0 0 0 0 0 0 0 0 127 0" result="hardAlpha"/>
<feOffset dx="-0.8" dy="1.6"/>
<feGaussianBlur stdDeviation="0.4"/>
<feComposite in2="hardAlpha" operator="arithmetic" k2="-1" k3="1"/>
<feColorMatrix type="matrix" values="0 0 0 0 1 0 0 0 0 1 0 0 0 0 1 0 0 0 0.5 0"/>
<feBlend mode="normal" in2="shape" result="effect2_innerShadow_295_4722"/>
</filter>
<filter id="filter3_f_295_4722" x="23.77" y="32.77" width="179.435" height="225.658" filterUnits="userSpaceOnUse" color-interpolation-filters="sRGB">
<feFlood flood-opacity="0" result="BackgroundImageFix"/>
<feBlend mode="normal" in="SourceGraphic" in2="BackgroundImageFix" result="shape"/>
<feGaussianBlur stdDeviation="0.615" result="effect1_foregroundBlur_295_4722"/>
</filter>
<filter id="filter4_f_295_4722" x="29.18" y="38.18" width="168.615" height="214.838" filterUnits="userSpaceOnUse" color-interpolation-filters="sRGB">
<feFlood flood-opacity="0" result="BackgroundImageFix"/>
<feBlend mode="normal" in="SourceGraphic" in2="BackgroundImageFix" result="shape"/>
<feGaussianBlur stdDeviation="0.41" result="effect1_foregroundBlur_295_4722"/>
</filter>
</defs>
</svg>
