<svg width="425" height="423" viewBox="0 0 425 423" fill="none" xmlns="http://www.w3.org/2000/svg">
<g style="mix-blend-mode:hard-light" filter="url(#filter0_f_121_4485)">
<path d="M147.457 223.887V238.266C147.457 255.969 161.851 270.369 179.544 270.369H274.343C277.917 270.369 277.917 268.891 277.917 268.334C277.917 264.086 278.12 260.079 278.268 257.154C278.336 255.766 278.398 254.566 278.398 254.02C278.398 250.003 280.591 246.318 284.126 244.409C287.66 242.5 291.943 242.681 295.3 244.883C295.358 244.919 295.412 244.959 295.47 244.999L370.161 298.947C373.193 300.979 375 304.363 375 308.022C375 311.681 373.193 315.062 370.161 317.098L295.47 371.046C295.415 371.086 295.358 371.126 295.3 371.162C293.486 372.351 291.404 372.952 289.315 372.952C287.534 372.952 285.752 372.514 284.126 371.635C280.591 369.726 278.398 366.042 278.398 362.025C278.398 361.533 278.326 360.608 278.239 359.538C278.051 357.184 277.773 353.626 277.773 348.846C277.773 346.623 276.746 345.675 274.343 345.675H252.309" stroke="#A10F49" stroke-width="26" stroke-miterlimit="10" stroke-linecap="round"/>
<path d="M227.529 345.672H142.94C103.928 345.672 72.1879 313.916 72.1879 274.885V168.821C72.1879 164.739 68.5126 162.176 62.463 158.441C56.6375 154.847 50.0386 150.772 50.0386 143.075V60.928C50.0386 57.2293 51.8853 53.8125 54.9787 51.7878C58.0722 49.763 61.939 49.4376 65.3288 50.9164C65.4336 50.9634 65.5348 51.0104 65.636 51.0646L109.183 74.1395C109.599 74.2913 110.054 74.2913 110.469 74.1395L154.016 51.0646C154.118 51.0104 154.219 50.9634 154.324 50.9164C157.71 49.4376 161.58 49.763 164.674 51.7878C167.767 53.8125 169.614 57.2293 169.614 60.928V143.075C169.614 152.381 161.88 157.179 155.668 161.037C150.713 164.114 147.464 166.319 147.464 168.821V199.362" stroke="#A10F49" stroke-width="26" stroke-miterlimit="10" stroke-linecap="round"/>
</g>
<g style="mix-blend-mode:hard-light" filter="url(#filter1_f_121_4485)">
<path d="M132.087 223.887V238.266C132.087 255.969 146.481 270.369 164.174 270.369H258.973C262.547 270.369 262.547 268.891 262.547 268.334C262.547 264.086 262.749 260.079 262.898 257.154C262.966 255.766 263.028 254.566 263.028 254.02C263.028 250.003 265.221 246.318 268.756 244.409C272.29 242.5 276.572 242.681 279.93 244.883C279.988 244.919 280.042 244.959 280.1 244.999L354.791 298.947C357.823 300.979 359.63 304.363 359.63 308.022C359.63 311.681 357.823 315.062 354.791 317.098L280.1 371.046C280.045 371.086 279.988 371.126 279.93 371.162C278.116 372.351 276.034 372.952 273.945 372.952C272.164 372.952 270.382 372.514 268.756 371.635C265.221 369.726 263.028 366.042 263.028 362.025C263.028 361.533 262.955 360.608 262.869 359.538C262.681 357.184 262.403 353.626 262.403 348.846C262.403 346.623 261.376 345.675 258.973 345.675H236.939" stroke="#FF26C2" stroke-width="18" stroke-miterlimit="10" stroke-linecap="round"/>
<path d="M212.159 345.672H127.57C88.5583 345.672 56.8178 313.916 56.8178 274.885V168.821C56.8178 164.739 53.1425 162.176 47.0929 158.441C41.2674 154.847 34.6685 150.772 34.6685 143.075V60.928C34.6685 57.2293 36.5151 53.8125 39.6086 51.7878C42.7021 49.763 46.5689 49.4376 49.9587 50.9164C50.0635 50.9634 50.1647 51.0104 50.2659 51.0646L93.8128 74.1395C94.2284 74.2913 94.6837 74.2913 95.0993 74.1395L138.646 51.0646C138.747 51.0104 138.849 50.9634 138.953 50.9164C142.34 49.4376 146.21 49.763 149.304 51.7878C152.397 53.8125 154.244 57.2293 154.244 60.928V143.075C154.244 152.381 146.51 157.179 140.298 161.037C135.343 164.114 132.094 166.319 132.094 168.821V199.362" stroke="#FF26C2" stroke-width="18" stroke-miterlimit="10" stroke-linecap="round"/>
</g>
<g style="mix-blend-mode:hard-light" filter="url(#filter2_ddi_121_4485)">
<path d="M133.423 223.887V238.266C133.423 255.969 147.817 270.369 165.511 270.369H260.309C263.884 270.369 263.884 268.891 263.884 268.334C263.884 264.086 264.086 260.079 264.234 257.154C264.303 255.766 264.364 254.566 264.364 254.02C264.364 250.003 266.558 246.318 270.092 244.409C273.626 242.5 277.909 242.681 281.266 244.883C281.324 244.919 281.378 244.959 281.436 244.999L356.127 298.947C359.159 300.979 360.966 304.363 360.966 308.022C360.966 311.681 359.159 315.062 356.127 317.098L281.436 371.046C281.382 371.086 281.324 371.126 281.266 371.162C279.452 372.351 277.37 372.952 275.282 372.952C273.5 372.952 271.718 372.514 270.092 371.635C266.558 369.726 264.364 366.042 264.364 362.025C264.364 361.533 264.292 360.608 264.205 359.538C264.017 357.184 263.739 353.626 263.739 348.846C263.739 346.623 262.713 345.675 260.309 345.675H238.276" stroke="#FB37FF" stroke-opacity="0.2" stroke-width="20" stroke-miterlimit="10" stroke-linecap="round"/>
<path d="M213.496 345.672H128.906C89.8947 345.672 58.1542 313.916 58.1542 274.885V168.821C58.1542 164.739 54.4789 162.176 48.4293 158.441C42.6038 154.847 36.0049 150.772 36.0049 143.075V60.928C36.0049 57.2293 37.8516 53.8125 40.945 51.7878C44.0385 49.763 47.9053 49.4376 51.2951 50.9164C51.3999 50.9634 51.5011 51.0104 51.6023 51.0646L95.1492 74.1395C95.5648 74.2913 96.0202 74.2913 96.4358 74.1395L139.983 51.0646C140.084 51.0104 140.185 50.9634 140.29 50.9164C143.676 49.4376 147.547 49.763 150.64 51.7878C153.733 53.8125 155.58 57.2293 155.58 60.928V143.075C155.58 152.381 147.846 157.179 141.634 161.037C136.68 164.114 133.431 166.319 133.431 168.821V199.362" stroke="#FB37FF" stroke-opacity="0.2" stroke-width="20" stroke-miterlimit="10" stroke-linecap="round"/>
</g>
<g style="mix-blend-mode:hard-light" filter="url(#filter3_f_121_4485)">
<path d="M131.418 223.887V238.266C131.418 255.969 145.812 270.369 163.506 270.369H258.305C261.879 270.369 261.879 268.891 261.879 268.334C261.879 264.086 262.081 260.079 262.229 257.154C262.298 255.766 262.359 254.566 262.359 254.02C262.359 250.003 264.553 246.318 268.087 244.409C271.622 242.5 275.904 242.681 279.261 244.883C279.319 244.919 279.373 244.959 279.431 244.999L354.122 298.947C357.154 300.979 358.961 304.363 358.961 308.022C358.961 311.681 357.154 315.062 354.122 317.098L279.431 371.046C279.377 371.086 279.319 371.126 279.261 371.162C277.447 372.351 275.366 372.952 273.277 372.952C271.495 372.952 269.713 372.514 268.087 371.635C264.553 369.726 262.359 366.042 262.359 362.025C262.359 361.533 262.287 360.608 262.2 359.538C262.012 357.184 261.734 353.626 261.734 348.846C261.734 346.623 260.708 345.675 258.305 345.675H236.271" stroke="#FB37FF" stroke-width="16" stroke-miterlimit="10" stroke-linecap="round"/>
<path d="M211.491 345.672H126.901C87.8898 345.672 56.1493 313.916 56.1493 274.885V168.821C56.1493 164.739 52.474 162.176 46.4244 158.441C40.5989 154.847 34 150.772 34 143.075V60.928C34 57.2293 35.8467 53.8125 38.9401 51.7878C42.0336 49.763 45.9004 49.4376 49.2902 50.9164C49.395 50.9634 49.4962 51.0104 49.5974 51.0646L93.1444 74.1395C93.5599 74.2913 94.0153 74.2913 94.4309 74.1395L137.978 51.0646C138.079 51.0104 138.18 50.9634 138.285 50.9164C141.671 49.4376 145.542 49.763 148.635 51.7878C151.729 53.8125 153.575 57.2293 153.575 60.928V143.075C153.575 152.381 145.842 157.179 139.629 161.037C134.675 164.114 131.426 166.319 131.426 168.821V199.362" stroke="#FB37FF" stroke-width="16" stroke-miterlimit="10" stroke-linecap="round"/>
</g>
<g style="mix-blend-mode:hard-light" filter="url(#filter4_f_121_4485)">
<path d="M131.418 223.887V238.266C131.418 255.969 145.812 270.369 163.506 270.369H258.305C261.879 270.369 261.879 268.891 261.879 268.334C261.879 264.086 262.081 260.079 262.229 257.154C262.298 255.766 262.359 254.566 262.359 254.02C262.359 250.003 264.553 246.318 268.087 244.409C271.622 242.5 275.904 242.681 279.261 244.883C279.319 244.919 279.373 244.959 279.431 244.999L354.122 298.947C357.154 300.979 358.961 304.363 358.961 308.022C358.961 311.681 357.154 315.062 354.122 317.098L279.431 371.046C279.377 371.086 279.319 371.126 279.261 371.162C277.447 372.351 275.366 372.952 273.277 372.952C271.495 372.952 269.713 372.514 268.087 371.635C264.553 369.726 262.359 366.042 262.359 362.025C262.359 361.533 262.287 360.608 262.2 359.538C262.012 357.184 261.734 353.626 261.734 348.846C261.734 346.623 260.708 345.675 258.305 345.675H236.271" stroke="#F5F7FF" stroke-width="6" stroke-miterlimit="10" stroke-linecap="round"/>
<path d="M211.491 345.672H126.901C87.8898 345.672 56.1493 313.916 56.1493 274.885V168.821C56.1493 164.739 52.474 162.176 46.4244 158.441C40.5989 154.847 34 150.772 34 143.075V60.928C34 57.2293 35.8467 53.8125 38.9401 51.7878C42.0336 49.763 45.9004 49.4376 49.2902 50.9164C49.395 50.9634 49.4962 51.0104 49.5974 51.0646L93.1444 74.1395C93.5599 74.2913 94.0153 74.2913 94.4309 74.1395L137.978 51.0646C138.079 51.0104 138.18 50.9634 138.285 50.9164C141.671 49.4376 145.542 49.763 148.635 51.7878C151.729 53.8125 153.575 57.2293 153.575 60.928V143.075C153.575 152.381 145.842 157.179 139.629 161.037C134.675 164.114 131.426 166.319 131.426 168.821V199.362" stroke="#F5F7FF" stroke-width="6" stroke-miterlimit="10" stroke-linecap="round"/>
</g>
<defs>
<filter id="filter0_f_121_4485" x="0.158573" y="0.119999" width="424.721" height="422.712" filterUnits="userSpaceOnUse" color-interpolation-filters="sRGB">
<feFlood flood-opacity="0" result="BackgroundImageFix"/>
<feBlend mode="normal" in="SourceGraphic" in2="BackgroundImageFix" result="shape"/>
<feGaussianBlur stdDeviation="18.44" result="effect1_foregroundBlur_121_4485"/>
</filter>
<filter id="filter1_f_121_4485" x="13.3785" y="28.71" width="367.541" height="365.532" filterUnits="userSpaceOnUse" color-interpolation-filters="sRGB">
<feFlood flood-opacity="0" result="BackgroundImageFix"/>
<feBlend mode="normal" in="SourceGraphic" in2="BackgroundImageFix" result="shape"/>
<feGaussianBlur stdDeviation="6.145" result="effect1_foregroundBlur_121_4485"/>
</filter>
<filter id="filter2_ddi_121_4485" x="10.0249" y="36.31" width="376.921" height="374.912" filterUnits="userSpaceOnUse" color-interpolation-filters="sRGB">
<feFlood flood-opacity="0" result="BackgroundImageFix"/>
<feColorMatrix in="SourceAlpha" type="matrix" values="0 0 0 0 0 0 0 0 0 0 0 0 0 0 0 0 0 0 127 0" result="hardAlpha"/>
<feOffset dy="7.99"/>
<feGaussianBlur stdDeviation="3.075"/>
<feComposite in2="hardAlpha" operator="out"/>
<feColorMatrix type="matrix" values="0 0 0 0 0.301961 0 0 0 0 0 0 0 0 0 0.258824 0 0 0 0.7 0"/>
<feBlend mode="normal" in2="BackgroundImageFix" result="effect1_dropShadow_121_4485"/>
<feColorMatrix in="SourceAlpha" type="matrix" values="0 0 0 0 0 0 0 0 0 0 0 0 0 0 0 0 0 0 127 0" result="hardAlpha"/>
<feOffset dy="12.29"/>
<feGaussianBlur stdDeviation="7.99"/>
<feComposite in2="hardAlpha" operator="out"/>
<feColorMatrix type="matrix" values="0 0 0 0 0.6 0 0 0 0 0 0 0 0 0 0.6 0 0 0 1 0"/>
<feBlend mode="normal" in2="effect1_dropShadow_121_4485" result="effect2_dropShadow_121_4485"/>
<feBlend mode="normal" in="SourceGraphic" in2="effect2_dropShadow_121_4485" result="shape"/>
<feColorMatrix in="SourceAlpha" type="matrix" values="0 0 0 0 0 0 0 0 0 0 0 0 0 0 0 0 0 0 127 0" result="hardAlpha"/>
<feOffset dx="-0.8" dy="1.6"/>
<feGaussianBlur stdDeviation="0.4"/>
<feComposite in2="hardAlpha" operator="arithmetic" k2="-1" k3="1"/>
<feColorMatrix type="matrix" values="0 0 0 0 1 0 0 0 0 1 0 0 0 0 1 0 0 0 0.5 0"/>
<feBlend mode="normal" in2="shape" result="effect3_innerShadow_121_4485"/>
</filter>
<filter id="filter3_f_121_4485" x="24.77" y="40.77" width="343.421" height="341.412" filterUnits="userSpaceOnUse" color-interpolation-filters="sRGB">
<feFlood flood-opacity="0" result="BackgroundImageFix"/>
<feBlend mode="normal" in="SourceGraphic" in2="BackgroundImageFix" result="shape"/>
<feGaussianBlur stdDeviation="0.615" result="effect1_foregroundBlur_121_4485"/>
</filter>
<filter id="filter4_f_121_4485" x="30.18" y="46.18" width="332.601" height="330.592" filterUnits="userSpaceOnUse" color-interpolation-filters="sRGB">
<feFlood flood-opacity="0" result="BackgroundImageFix"/>
<feBlend mode="normal" in="SourceGraphic" in2="BackgroundImageFix" result="shape"/>
<feGaussianBlur stdDeviation="0.41" result="effect1_foregroundBlur_121_4485"/>
</filter>
</defs>
</svg>
