<svg width="94" height="294" viewBox="0 0 94 294" fill="none" xmlns="http://www.w3.org/2000/svg">
<path d="M47 0L47 252" stroke="#379FFF" stroke-miterlimit="10"/>
<g style="mix-blend-mode:hard-light" filter="url(#filter0_f_303_9884)">
<path d="M45.2957 252.048L45.3474 252.059L45.3993 252.068C45.913 252.159 46.3498 252.156 46.5812 252.151C46.6747 252.149 46.775 252.145 46.8257 252.143C46.8345 252.143 46.8418 252.143 46.8474 252.142C46.8779 252.141 46.8935 252.141 46.8996 252.141C46.9074 252.141 46.929 252.141 46.9763 252.143C46.9845 252.143 46.9961 252.144 47.0102 252.144C47.0687 252.147 47.1713 252.151 47.2595 252.154C47.4943 252.16 47.9196 252.166 48.416 252.093C50.6029 251.779 51.6764 250.124 52.0754 249.274C52.5342 248.297 52.6915 247.253 52.6915 246.341C52.6915 245.417 52.53 244.383 52.0777 243.415C51.6826 242.569 50.7165 241.098 48.8004 240.638C48.5334 240.572 48.2983 240.541 48.1128 240.526C47.9988 240.517 47.9046 240.514 47.8436 240.512C47.7876 240.511 47.7381 240.511 47.7359 240.511C47.6354 240.511 47.5107 240.51 47.3696 240.509C46.9439 240.505 46.369 240.5 45.8609 240.52C44.8148 240.562 43.8419 240.951 43.0654 241.573C41.3664 242.928 41.0758 244.923 41.043 246.061L41.0428 246.066C41.0116 247.193 41.1725 249.219 42.725 250.713L42.7347 250.723L42.7444 250.732C43.6249 251.568 44.5989 251.906 45.2957 252.048ZM48.9464 246.606C48.8877 246.769 48.7738 247.018 48.5678 247.289C48.6505 247.016 48.6965 246.692 48.6965 246.341C48.6965 246.321 48.6964 246.301 48.6961 246.282L49.0262 246.292C49.0266 246.295 49.027 246.298 49.0274 246.301C49.0258 246.311 49.0237 246.325 49.0207 246.341C49.01 246.399 48.9884 246.49 48.9464 246.606ZM49.0256 246.287L48.696 246.278C48.6896 245.873 48.621 245.508 48.5057 245.216C48.8241 245.605 48.9457 245.96 48.9879 246.111C49.0099 246.19 49.0206 246.25 49.0256 246.287ZM49.0299 246.33C49.0299 246.33 49.0297 246.328 49.0295 246.323C49.0299 246.327 49.03 246.33 49.0299 246.33ZM49.0302 246.278C49.0305 246.272 49.0308 246.269 49.0309 246.269C49.0309 246.269 49.0308 246.272 49.0302 246.278ZM47.3364 244.504C47.4436 244.505 47.5508 244.506 47.6579 244.506C47.5377 244.44 47.4217 244.387 47.3142 244.345C47.3008 244.34 47.2875 244.335 47.2743 244.33C47.1656 244.289 47.0665 244.26 46.9815 244.24C46.9527 244.246 46.9241 244.253 46.8959 244.26C46.8914 244.261 46.8869 244.262 46.8824 244.264L46.8342 244.5C46.8548 244.5 46.8753 244.5 46.8959 244.501C47.0044 244.501 47.1129 244.502 47.2214 244.503C47.2477 244.503 47.274 244.504 47.3003 244.504C47.3123 244.504 47.3244 244.504 47.3364 244.504ZM46.232 244.505C46.3948 244.424 46.5741 244.352 46.7711 244.294L46.7348 244.5C46.5672 244.5 46.3996 244.501 46.232 244.505ZM45.0345 246.341C45.0342 246.287 45.0348 246.232 45.0363 246.176C45.0449 245.878 45.0806 245.621 45.1404 245.403C44.969 245.625 44.8757 245.808 44.8427 245.879C44.7882 245.995 44.7544 246.092 44.7337 246.168C44.7336 246.168 44.7336 246.168 44.7336 246.168C44.6942 246.311 44.7015 246.376 44.7015 246.341L44.7017 246.345C44.7018 246.349 44.7021 246.354 44.7028 246.361C44.7041 246.374 44.7069 246.398 44.7134 246.431C44.7249 246.49 44.7559 246.62 44.8391 246.798C44.8786 246.882 44.9871 247.094 45.1902 247.341C45.0906 247.071 45.0372 246.733 45.0345 246.341ZM46.6566 248.33C46.496 248.278 46.348 248.217 46.2118 248.15C46.3587 248.163 46.5064 248.158 46.6543 248.152C46.6738 248.151 46.6934 248.15 46.7129 248.15C46.7739 248.147 46.8349 248.145 46.8959 248.145C46.9568 248.145 47.0177 248.147 47.0785 248.149C47.1185 248.151 47.1584 248.152 47.1984 248.154C47.3024 248.158 47.4064 248.162 47.5102 248.162C47.3603 248.238 47.2015 248.303 47.0349 248.355C46.9892 248.37 46.9428 248.383 46.8959 248.396C46.8949 248.396 46.8939 248.396 46.8928 248.397C46.8669 248.39 46.8407 248.384 46.8143 248.377C46.7604 248.362 46.7079 248.347 46.6566 248.33ZM47.654 248.501C47.6807 248.501 47.708 248.501 47.7359 248.501C47.768 248.501 47.7345 248.504 47.654 248.501ZM46.1741 248.504L46.1848 248.504L46.1741 248.504L46.1741 248.504Z" stroke="#2EACF3" stroke-width="7.99"/>
</g>
<g style="mix-blend-mode:hard-light" filter="url(#filter1_f_303_9884)">
<path d="M47.8432 248.14C47.9591 248.123 48.0668 248.071 48.1639 247.988C48.1755 247.978 48.187 247.967 48.1983 247.956C48.5041 247.664 48.6965 247.059 48.6965 246.341C48.6965 246.321 48.6964 246.301 48.6961 246.282L50.2591 246.327L50.2591 246.328C50.2591 246.329 50.259 246.334 50.2586 246.341C50.2557 246.401 50.2363 246.656 50.1031 247.024C49.9519 247.443 49.6005 248.143 48.8454 248.756C48.8383 248.762 48.8312 248.768 48.8241 248.774C48.8162 248.78 48.8082 248.786 48.8002 248.792C48.5623 248.98 48.299 249.146 48.0142 249.285L47.8432 248.14ZM47.8432 248.14C47.8074 248.145 47.7717 248.149 47.7359 248.152C47.5573 248.169 47.378 248.161 47.1984 248.154C47.1584 248.152 47.1185 248.151 47.0785 248.149C47.0177 248.147 46.9568 248.145 46.8959 248.145C46.8349 248.145 46.7739 248.147 46.7129 248.15C46.6934 248.15 46.6738 248.151 46.6543 248.152C46.4924 248.158 46.3308 248.165 46.1701 248.145C46.1668 248.145 46.1635 248.144 46.1603 248.144C46.138 248.141 46.1158 248.138 46.0936 248.134C45.8923 248.093 45.6803 248.011 45.4952 247.835C45.2013 247.552 45.0392 247.032 45.0345 246.341C45.0342 246.287 45.0348 246.232 45.0363 246.176C45.0578 245.432 45.2483 244.94 45.5596 244.694M47.8432 248.14L48.0036 249.29C47.9163 249.332 47.827 249.372 47.7359 249.409C47.4742 249.515 47.197 249.599 46.9068 249.655C46.9032 249.654 46.8996 249.653 46.8959 249.653C46.8535 249.645 46.8102 249.637 46.766 249.628C46.6704 249.608 46.5709 249.585 46.4691 249.558C46.4083 249.541 46.3487 249.523 46.2902 249.505C46.2683 249.498 46.2466 249.49 46.225 249.483C46.2205 249.482 46.2159 249.48 46.2114 249.479C46.0958 249.439 45.985 249.397 45.8788 249.351C45.8685 249.347 45.8583 249.342 45.8482 249.338C45.398 249.141 45.0315 248.891 44.7367 248.634C44.7349 248.632 44.733 248.63 44.7311 248.629C44.1273 248.099 43.8263 247.536 43.7247 247.318C43.48 246.795 43.4715 246.433 43.4715 246.341C43.4715 246.311 43.4722 246.24 43.4868 246.133C43.4868 246.133 43.4869 246.132 43.487 246.132C43.5111 245.958 43.5725 245.69 43.7293 245.356C43.8319 245.137 44.1849 244.474 44.9125 243.894L45.5596 244.694M45.5596 244.694C45.7045 244.577 45.8682 244.518 46.0211 244.512M45.5596 244.694L44.9214 243.887C45.21 243.658 45.557 243.442 45.9703 243.272L46.0211 244.512M46.0211 244.512C46.259 244.502 46.4969 244.5 46.7348 244.5L46.8959 243.587L47.0016 242.988C46.9963 242.987 46.991 242.986 46.9857 242.986C46.9555 242.991 46.9256 242.996 46.8959 243.001C46.5573 243.064 46.2506 243.157 45.9736 243.271L46.0211 244.512ZM47.8459 244.518L48.1952 243.398C48.4861 243.553 48.7946 243.763 49.0929 244.046L48.3177 244.862C48.1859 244.677 48.0254 244.556 47.8459 244.518ZM47.8459 244.518L48.0936 243.346C47.9697 243.285 47.8497 243.233 47.7359 243.189C47.5046 243.101 47.2988 243.047 47.1371 243.014L47.1321 243.038L47.1029 243.182L46.8959 244.197L46.8342 244.5C46.8548 244.5 46.8753 244.5 46.8959 244.501C47.0044 244.501 47.1129 244.502 47.2214 244.503C47.2477 244.503 47.274 244.504 47.3003 244.504C47.3123 244.504 47.3244 244.504 47.3364 244.504C47.4696 244.505 47.6027 244.506 47.7359 244.506H47.7359C47.7734 244.506 47.8083 244.506 47.8459 244.518ZM45.0501 253.254L45.1176 253.267L45.1856 253.279C45.8165 253.391 46.3467 253.387 46.6081 253.381C46.7149 253.379 46.8308 253.374 46.8779 253.372C46.8851 253.372 46.8907 253.372 46.8944 253.371C46.8971 253.371 46.8996 253.371 46.902 253.371C46.9089 253.371 46.9175 253.372 46.9279 253.372C46.9331 253.372 46.9416 253.373 46.9527 253.373C47.0075 253.375 47.1265 253.38 47.2253 253.383C47.4839 253.39 47.9912 253.398 48.5916 253.311C51.3744 252.911 52.713 250.81 53.1888 249.797C53.7427 248.617 53.9215 247.386 53.9215 246.341C53.9215 245.281 53.7373 244.061 53.192 242.894C52.7205 241.885 51.5202 240.025 49.088 239.442C48.7474 239.358 48.4478 239.319 48.212 239.3C48.0656 239.288 47.9452 239.284 47.8682 239.283C47.7978 239.281 47.7359 239.281 47.7359 239.281C47.6538 239.281 47.544 239.28 47.4148 239.279C46.9898 239.275 46.3552 239.269 45.8114 239.291C44.4908 239.344 43.2689 239.835 42.2979 240.612C40.1715 242.308 39.8498 244.765 39.8135 246.026L39.8133 246.032C39.779 247.267 39.9391 249.74 41.8721 251.6L41.8847 251.612L41.8975 251.624C42.9921 252.663 44.2006 253.08 45.0501 253.254ZM47.6206 249.731C47.6578 249.731 47.6962 249.731 47.7359 249.731C47.7739 249.731 47.7277 249.735 47.6206 249.731ZM46.2212 249.733L46.2352 249.733L46.2212 249.733L46.2212 249.733ZM48.3338 244.885C48.5512 245.204 48.6869 245.7 48.696 246.278L50.2593 246.321C50.2595 246.315 50.2606 246.268 50.252 246.184C50.2436 246.103 50.2235 245.963 50.1729 245.782C50.0817 245.454 49.8227 244.748 49.1183 244.07L48.3338 244.885Z" stroke="#267DFF" stroke-width="10.45"/>
</g>
<g style="mix-blend-mode:hard-light" filter="url(#filter2_ddi_303_9884)">
<path d="M45.2957 252.048L45.3474 252.059L45.3993 252.068C45.913 252.159 46.3498 252.156 46.5812 252.151C46.6747 252.149 46.775 252.145 46.8257 252.143C46.8345 252.143 46.8418 252.143 46.8474 252.142C46.8779 252.141 46.8935 252.141 46.8996 252.141C46.9074 252.141 46.929 252.141 46.9763 252.143C46.9845 252.143 46.9961 252.144 47.0102 252.144C47.0687 252.147 47.1713 252.151 47.2595 252.154C47.4943 252.16 47.9196 252.166 48.416 252.093C50.6029 251.779 51.6764 250.124 52.0754 249.274C52.5342 248.297 52.6915 247.253 52.6915 246.341C52.6915 245.417 52.53 244.383 52.0777 243.415C51.6826 242.569 50.7165 241.098 48.8004 240.638C48.5334 240.572 48.2983 240.541 48.1128 240.526C47.9988 240.517 47.9046 240.514 47.8436 240.512C47.7876 240.511 47.7381 240.511 47.7359 240.511C47.6354 240.511 47.5107 240.51 47.3696 240.509C46.9439 240.505 46.369 240.5 45.8609 240.52C44.8148 240.562 43.8419 240.951 43.0654 241.573C41.3664 242.928 41.0758 244.923 41.043 246.061L41.0428 246.066C41.0116 247.193 41.1725 249.219 42.725 250.713L42.7347 250.723L42.7444 250.732C43.6249 251.568 44.5989 251.906 45.2957 252.048ZM48.9464 246.606C48.8877 246.769 48.7738 247.018 48.5678 247.289C48.6505 247.016 48.6965 246.692 48.6965 246.341C48.6965 246.321 48.6964 246.301 48.6961 246.282L49.0262 246.292C49.0266 246.295 49.027 246.298 49.0274 246.301C49.0258 246.311 49.0237 246.325 49.0207 246.341C49.01 246.399 48.9884 246.49 48.9464 246.606ZM49.0256 246.287L48.696 246.278C48.6896 245.873 48.621 245.508 48.5057 245.216C48.8241 245.605 48.9457 245.96 48.9879 246.111C49.0099 246.19 49.0206 246.25 49.0256 246.287ZM49.0299 246.33C49.0299 246.33 49.0297 246.328 49.0295 246.323C49.0299 246.327 49.03 246.33 49.0299 246.33ZM49.0302 246.278C49.0305 246.272 49.0308 246.269 49.0309 246.269C49.0309 246.269 49.0308 246.272 49.0302 246.278ZM47.3364 244.504C47.4436 244.505 47.5508 244.506 47.6579 244.506C47.5377 244.44 47.4217 244.387 47.3142 244.345C47.3008 244.34 47.2875 244.335 47.2743 244.33C47.1656 244.289 47.0665 244.26 46.9815 244.24C46.9527 244.246 46.9241 244.253 46.8959 244.26C46.8914 244.261 46.8869 244.262 46.8824 244.264L46.8342 244.5C46.8548 244.5 46.8753 244.5 46.8959 244.501C47.0044 244.501 47.1129 244.502 47.2214 244.503C47.2477 244.503 47.274 244.504 47.3003 244.504C47.3123 244.504 47.3244 244.504 47.3364 244.504ZM46.232 244.505C46.3948 244.424 46.5741 244.352 46.7711 244.294L46.7348 244.5C46.5672 244.5 46.3996 244.501 46.232 244.505ZM45.0345 246.341C45.0342 246.287 45.0348 246.232 45.0363 246.176C45.0449 245.878 45.0806 245.621 45.1404 245.403C44.969 245.625 44.8757 245.808 44.8427 245.879C44.7882 245.995 44.7544 246.092 44.7337 246.168C44.7336 246.168 44.7336 246.168 44.7336 246.168C44.6942 246.311 44.7015 246.376 44.7015 246.341L44.7017 246.345C44.7018 246.349 44.7021 246.354 44.7028 246.361C44.7041 246.374 44.7069 246.398 44.7134 246.431C44.7249 246.49 44.7559 246.62 44.8391 246.798C44.8786 246.882 44.9871 247.094 45.1902 247.341C45.0906 247.071 45.0372 246.733 45.0345 246.341ZM46.6566 248.33C46.496 248.278 46.348 248.217 46.2118 248.15C46.3587 248.163 46.5064 248.158 46.6543 248.152C46.6738 248.151 46.6934 248.15 46.7129 248.15C46.7739 248.147 46.8349 248.145 46.8959 248.145C46.9568 248.145 47.0177 248.147 47.0785 248.149C47.1185 248.151 47.1584 248.152 47.1984 248.154C47.3024 248.158 47.4064 248.162 47.5102 248.162C47.3603 248.238 47.2015 248.303 47.0349 248.355C46.9892 248.37 46.9428 248.383 46.8959 248.396C46.8949 248.396 46.8939 248.396 46.8928 248.397C46.8669 248.39 46.8407 248.384 46.8143 248.377C46.7604 248.362 46.7079 248.347 46.6566 248.33ZM47.654 248.501C47.6807 248.501 47.708 248.501 47.7359 248.501C47.768 248.501 47.7345 248.504 47.654 248.501ZM46.1741 248.504L46.1848 248.504L46.1741 248.504L46.1741 248.504Z" stroke="#379FFF" stroke-opacity="0.2" stroke-width="7.99"/>
</g>
<g filter="url(#filter3_f_303_9884)">
<path d="M45.6023 250.544L45.6341 250.551L45.6661 250.556C46.0334 250.621 46.3537 250.621 46.5476 250.617C46.7227 250.613 46.7684 250.61 46.7976 250.608C46.8213 250.606 46.8341 250.605 46.8959 250.605C46.9601 250.605 46.988 250.607 47.0366 250.609C47.0853 250.612 47.1548 250.615 47.3022 250.619C47.5072 250.625 47.8299 250.628 48.1962 250.574C49.6397 250.367 50.3826 249.268 50.6859 248.622C51.0262 247.897 51.1565 247.088 51.1565 246.341C51.1565 245.586 51.0233 244.784 50.687 244.065C50.3871 243.423 49.7124 242.435 48.4383 242.13C48.2645 242.086 48.1109 242.066 47.9891 242.056C47.8594 242.045 47.7445 242.046 47.7363 242.046L47.7359 242.046C47.6102 242.046 47.4673 242.045 47.313 242.044C46.8927 242.04 46.3887 242.035 45.9236 242.054C45.22 242.082 44.5575 242.344 44.0235 242.772C42.8576 243.701 42.6058 245.119 42.5773 246.106L42.5772 246.108C42.5497 247.099 42.7117 248.57 43.7894 249.607L43.7953 249.613L43.8013 249.619C44.4147 250.201 45.0958 250.441 45.6023 250.544Z" stroke="#379FFF" stroke-width="4.92"/>
</g>
<g filter="url(#filter4_f_303_9884)">
<path d="M45.8638 249.342L45.8479 249.339C45.4941 249.267 45.0475 249.106 44.6482 248.727L44.6422 248.721L44.6423 248.721C43.9451 248.05 43.7823 247.025 43.8068 246.142L43.8068 246.141C43.8318 245.276 44.0526 244.321 44.7914 243.733C45.1307 243.461 45.5437 243.3 45.972 243.283M45.8638 249.342L46.0211 244.512M45.8638 249.342L45.8798 249.345C46.1299 249.389 46.3568 249.391 46.5207 249.387C46.6294 249.385 46.6888 249.382 46.7366 249.38C46.7878 249.377 46.8254 249.375 46.8959 249.375C46.9774 249.375 47.0354 249.378 47.1118 249.381C47.1699 249.384 47.2386 249.387 47.3364 249.39C47.5176 249.395 47.7579 249.396 48.0197 249.357M45.8638 249.342L48.0197 249.357M45.972 243.283C45.9727 243.283 45.9733 243.283 45.974 243.283L46.0211 244.512M45.972 243.283C45.9716 243.283 45.9711 243.283 45.9707 243.283L46.0211 244.512M45.972 243.283C46.4042 243.265 46.8552 243.27 47.2673 243.273C47.4308 243.275 47.5882 243.276 47.7359 243.276C47.7368 243.276 47.7384 243.276 47.7406 243.276C47.7738 243.276 47.9414 243.273 48.1396 243.323M46.0211 244.512C46.4212 244.496 46.8213 244.499 47.2214 244.503C47.3929 244.505 47.5644 244.506 47.7359 244.506H47.7359C47.7734 244.506 47.8083 244.506 47.8459 244.518M48.1396 243.323C48.1265 243.32 48.1134 243.317 48.1002 243.315L47.8459 244.518M48.1396 243.323C48.9044 243.502 49.3482 244.105 49.5727 244.586C49.816 245.106 49.9265 245.722 49.9265 246.341C49.9265 246.956 49.8177 247.577 49.5725 248.099C49.3458 248.582 48.8678 249.236 48.0197 249.357M48.1396 243.323C48.1634 243.329 48.1877 243.336 48.2122 243.344L47.8459 244.518M47.8459 244.518L48.0197 249.357" stroke="white" stroke-width="2.46"/>
</g>
<circle cx="46.8799" cy="246.5" r="3" fill="white"/>
<defs>
<filter id="filter0_f_303_9884" x="0.164433" y="199.63" width="93.4021" height="93.4021" filterUnits="userSpaceOnUse" color-interpolation-filters="sRGB">
<feFlood flood-opacity="0" result="BackgroundImageFix"/>
<feBlend mode="normal" in="SourceGraphic" in2="BackgroundImageFix" result="shape"/>
<feGaussianBlur stdDeviation="18.44" result="effect1_foregroundBlur_303_9884"/>
</filter>
<filter id="filter1_f_303_9884" x="22.2945" y="221.76" width="49.142" height="49.142" filterUnits="userSpaceOnUse" color-interpolation-filters="sRGB">
<feFlood flood-opacity="0" result="BackgroundImageFix"/>
<feBlend mode="normal" in="SourceGraphic" in2="BackgroundImageFix" result="shape"/>
<feGaussianBlur stdDeviation="6.145" result="effect1_foregroundBlur_303_9884"/>
</filter>
<filter id="filter2_ddi_303_9884" x="21.0644" y="232.82" width="51.6021" height="51.6021" filterUnits="userSpaceOnUse" color-interpolation-filters="sRGB">
<feFlood flood-opacity="0" result="BackgroundImageFix"/>
<feColorMatrix in="SourceAlpha" type="matrix" values="0 0 0 0 0 0 0 0 0 0 0 0 0 0 0 0 0 0 127 0" result="hardAlpha"/>
<feOffset dy="7.99"/>
<feGaussianBlur stdDeviation="3.075"/>
<feComposite in2="hardAlpha" operator="out"/>
<feColorMatrix type="matrix" values="0 0 0 0 0 0 0 0 0 0.084549 0 0 0 0 0.301961 0 0 0 0.7 0"/>
<feBlend mode="normal" in2="BackgroundImageFix" result="effect1_dropShadow_303_9884"/>
<feColorMatrix in="SourceAlpha" type="matrix" values="0 0 0 0 0 0 0 0 0 0 0 0 0 0 0 0 0 0 127 0" result="hardAlpha"/>
<feOffset dy="12.29"/>
<feGaussianBlur stdDeviation="7.99"/>
<feComposite in2="hardAlpha" operator="out"/>
<feColorMatrix type="matrix" values="0 0 0 0 0 0 0 0 0 0.204 0 0 0 0 0.6 0 0 0 1 0"/>
<feBlend mode="normal" in2="effect1_dropShadow_303_9884" result="effect2_dropShadow_303_9884"/>
<feBlend mode="normal" in="SourceGraphic" in2="effect2_dropShadow_303_9884" result="shape"/>
<feColorMatrix in="SourceAlpha" type="matrix" values="0 0 0 0 0 0 0 0 0 0 0 0 0 0 0 0 0 0 127 0" result="hardAlpha"/>
<feOffset dx="-0.8" dy="1.6"/>
<feGaussianBlur stdDeviation="0.4"/>
<feComposite in2="hardAlpha" operator="arithmetic" k2="-1" k3="1"/>
<feColorMatrix type="matrix" values="0 0 0 0 1 0 0 0 0 1 0 0 0 0 1 0 0 0 0.5 0"/>
<feBlend mode="normal" in2="shape" result="effect3_innerShadow_303_9884"/>
</filter>
<filter id="filter3_f_303_9884" x="38.8845" y="238.35" width="15.962" height="15.962" filterUnits="userSpaceOnUse" color-interpolation-filters="sRGB">
<feFlood flood-opacity="0" result="BackgroundImageFix"/>
<feBlend mode="normal" in="SourceGraphic" in2="BackgroundImageFix" result="shape"/>
<feGaussianBlur stdDeviation="0.615" result="effect1_foregroundBlur_303_9884"/>
</filter>
<filter id="filter4_f_303_9884" x="41.7545" y="241.22" width="10.222" height="10.222" filterUnits="userSpaceOnUse" color-interpolation-filters="sRGB">
<feFlood flood-opacity="0" result="BackgroundImageFix"/>
<feBlend mode="normal" in="SourceGraphic" in2="BackgroundImageFix" result="shape"/>
<feGaussianBlur stdDeviation="0.41" result="effect1_foregroundBlur_303_9884"/>
</filter>
</defs>
</svg>
