<svg width="1021" height="136" viewBox="0 0 1021 136" fill="none" xmlns="http://www.w3.org/2000/svg">
<path d="M79.16 51.08L79.2427 50.0834L79.2397 50.0832L79.16 51.08ZM74.66 28.4L74.6692 27.4H74.66V28.4ZM125.24 42.44L124.664 43.2573L125.428 43.796L126.017 43.0699L125.24 42.44ZM143.78 19.58L144.557 20.2099L145.229 19.3809L144.358 18.764L143.78 19.58ZM77 82.22L76.9138 83.2163L76.917 83.2165L77 82.22ZM19.76 87.8L20.4047 87.0356L19.6429 86.3931L18.9978 87.1527L19.76 87.8ZM0.5 110.48L-0.262238 109.833L-0.928779 110.618L-0.124695 111.261L0.5 110.48ZM79.2397 50.0832C67.9517 49.1801 58.7785 48.4648 52.4163 46.9352C49.2343 46.1702 46.8708 45.226 45.3186 44.0346C43.8158 42.881 43.08 41.5071 43.08 39.74H41.08C41.08 42.2029 42.1667 44.1365 44.1008 45.6211C45.9854 47.0677 48.6732 48.0923 51.9487 48.8798C58.5015 50.4552 67.8683 51.1799 79.0803 52.0768L79.2397 50.0832ZM43.08 39.74C43.08 37.8747 43.9841 36.3078 45.7106 34.9593C47.4619 33.5914 50.0055 32.4992 53.097 31.6601C59.2705 29.9844 67.3123 29.4 74.66 29.4V27.4C67.2477 27.4 58.9995 27.9856 52.5731 29.7299C49.3645 30.6008 46.5306 31.781 44.4795 33.3831C42.4034 35.0047 41.08 37.1053 41.08 39.74H43.08ZM74.6508 29.3999C94.1447 29.5788 110.843 33.5121 124.664 43.2573L125.816 41.6227C111.557 31.5679 94.4153 27.5812 74.6692 27.4L74.6508 29.3999ZM126.017 43.0699L144.557 20.2099L143.003 18.9501L124.463 41.8101L126.017 43.0699ZM144.358 18.764C126.86 6.36969 101.798 -0.140007 74.66 -0.140007V1.85999C101.522 1.85999 126.14 8.31029 143.202 20.396L144.358 18.764ZM74.66 -0.140007C54.5773 -0.140007 37.1054 3.56581 24.6165 10.7481C12.0918 17.9509 4.54 28.6875 4.54 42.62H6.54C6.54 29.5525 13.5682 19.409 25.6135 12.4819C37.6946 5.53417 54.7827 1.85999 74.66 1.85999V-0.140007ZM4.54 42.62C4.54 49.8602 6.73916 55.8622 10.6561 60.8182C14.5598 65.7574 20.1317 69.6111 26.8167 72.6456C40.1669 78.7056 58.1777 81.5949 76.9138 83.2163L77.0862 81.2237C58.3823 79.6051 40.6631 76.7344 27.6433 70.8244C21.1433 67.8739 15.8702 64.1901 12.2252 59.5781C8.59334 54.9828 6.54 49.4198 6.54 42.62H4.54ZM76.917 83.2165C89.8907 84.2977 98.7715 85.5071 104.398 87.4193C107.205 88.373 109.102 89.4703 110.294 90.7291C111.455 91.9551 112 93.3906 112 95.18H114C114 92.9194 113.285 90.9799 111.746 89.354C110.238 87.761 107.995 86.5295 105.042 85.5257C99.1485 83.5229 90.0293 82.3023 77.083 81.2234L76.917 83.2165ZM112 95.18C112 97.0099 111.412 98.5745 110.224 99.9254C109.018 101.297 107.155 102.491 104.549 103.469C99.3216 105.429 91.3684 106.42 80.6 106.42V108.42C91.4317 108.42 99.6785 107.431 105.251 105.341C108.045 104.294 110.232 102.946 111.726 101.246C113.238 99.5255 114 97.4901 114 95.18H112ZM80.6 106.42C55.5846 106.42 35.1286 99.4533 20.4047 87.0356L19.1153 88.5644C34.2714 101.347 55.2154 108.42 80.6 108.42V106.42ZM18.9978 87.1527L-0.262238 109.833L1.26224 111.127L20.5222 88.4473L18.9978 87.1527ZM-0.124695 111.261C19.8873 127.27 47.3017 136.14 79.88 136.14V134.14C47.6583 134.14 20.7127 125.37 1.1247 109.699L-0.124695 111.261ZM79.88 136.14C102.848 136.14 120.48 131.712 132.402 123.917C144.368 116.094 150.54 104.898 150.54 91.58H148.54C148.54 104.182 142.742 114.766 131.308 122.243C119.83 129.748 102.632 134.14 79.88 134.14V136.14ZM150.54 91.58C150.54 84.1575 148.669 78.0135 145.162 72.9384C141.662 67.8725 136.576 63.9369 130.246 60.8464C117.621 54.6821 99.8595 51.794 79.2427 50.0834L79.0773 52.0766C99.6805 53.786 117.109 56.6579 129.369 62.6436C135.482 65.6281 140.262 69.365 143.517 74.0754C146.766 78.7765 148.54 84.5125 148.54 91.58H150.54ZM296.27 4.99999H297.27V3.99999H296.27V4.99999ZM155.15 4.99999V3.99999H154.15V4.99999H155.15ZM155.15 34.34H154.15V35.34H155.15V34.34ZM207.17 34.34H208.17V33.34H207.17V34.34ZM207.17 131H206.17V132H207.17V131ZM243.89 131V132H244.89V131H243.89ZM243.89 34.34V33.34H242.89V34.34H243.89ZM296.27 34.34V35.34H297.27V34.34H296.27ZM296.27 3.99999H155.15V5.99999H296.27V3.99999ZM154.15 4.99999V34.34H156.15V4.99999H154.15ZM155.15 35.34H207.17V33.34H155.15V35.34ZM206.17 34.34V131H208.17V34.34H206.17ZM207.17 132H243.89V130H207.17V132ZM244.89 131V34.34H242.89V131H244.89ZM243.89 35.34H296.27V33.34H243.89V35.34ZM297.27 34.34V4.99999H295.27V34.34H297.27ZM384.644 136.14C409.724 136.14 430.534 129.984 445.096 118.349C459.685 106.691 467.904 89.6083 467.904 68H465.904C465.904 89.0517 457.923 105.539 443.847 116.786C429.744 128.056 409.423 134.14 384.644 134.14V136.14ZM467.904 68C467.904 46.3917 459.685 29.309 445.096 17.6513C430.534 6.01584 409.724 -0.140007 384.644 -0.140007V1.85999C409.423 1.85999 429.744 7.94415 443.847 19.2137C457.923 30.461 465.904 46.9483 465.904 68H467.904ZM384.644 -0.140007C359.563 -0.140007 338.798 6.01586 324.281 17.6522C309.736 29.3108 301.564 46.3936 301.564 68H303.564C303.564 46.9464 311.501 30.4592 325.532 19.2128C339.59 7.94412 359.864 1.85999 384.644 1.85999V-0.140007ZM301.564 68C301.564 89.6064 309.736 106.689 324.281 118.348C338.798 129.984 359.563 136.14 384.644 136.14V134.14C359.864 134.14 339.59 128.056 325.532 116.787C311.501 105.541 303.564 89.0536 303.564 68H301.564ZM384.644 104.26C370.933 104.26 359.979 100.92 352.473 94.7666C344.993 88.6351 340.824 79.6196 340.824 68H338.824C338.824 80.1404 343.205 89.7549 351.205 96.3134C359.178 102.85 370.635 106.26 384.644 106.26V104.26ZM340.824 68C340.824 56.3837 345.036 47.3675 352.539 41.2343C360.069 35.0792 371.024 31.74 384.644 31.74V29.74C370.724 29.74 359.268 33.1508 351.274 39.6857C343.252 46.2425 338.824 55.8563 338.824 68H340.824ZM384.644 31.74C398.355 31.74 409.308 35.0798 416.815 41.2334C424.295 47.3649 428.464 56.3804 428.464 68H430.464C430.464 55.8596 426.083 46.2451 418.083 39.6866C410.109 33.1502 398.653 29.74 384.644 29.74V31.74ZM428.464 68C428.464 79.6196 424.295 88.6351 416.815 94.7666C409.308 100.92 398.355 104.26 384.644 104.26V106.26C398.653 106.26 410.109 102.85 418.083 96.3134C426.083 89.7549 430.464 80.1404 430.464 68H428.464ZM638.817 131V132H641.005L639.573 130.346L638.817 131ZM601.737 88.16L601.457 87.1998L599.96 87.6354L600.98 88.8145L601.737 88.16ZM489.237 4.99999V3.99999H488.237V4.99999H489.237ZM489.237 131H488.237V132H489.237V131ZM525.777 131V132H526.777V131H525.777ZM525.777 91.22V90.22H524.777V91.22H525.777ZM562.857 91.22L563.623 90.5781L563.324 90.22H562.857V91.22ZM596.157 131L595.39 131.642L595.69 132H596.157V131ZM525.597 64.58H524.597V65.58H525.597V64.58ZM525.597 32.9V31.9H524.597V32.9H525.597ZM639.573 130.346L602.493 87.5056L600.98 88.8145L638.06 131.654L639.573 130.346ZM602.016 89.1202C612.051 86.2008 620.516 81.3452 626.477 74.4833C632.449 67.6083 635.857 58.7766 635.857 48.02H633.857C633.857 58.3234 630.604 66.6817 624.967 73.1717C619.317 79.6748 611.222 84.3592 601.457 87.1998L602.016 89.1202ZM635.857 48.02C635.857 33.2847 629.435 22.2265 618.89 14.8892C608.387 7.58064 593.855 3.99999 577.617 3.99999V5.99999C593.598 5.99999 607.686 9.52934 617.748 16.5308C627.768 23.5035 633.857 33.9553 633.857 48.02H635.857ZM577.617 3.99999H489.237V5.99999H577.617V3.99999ZM488.237 4.99999V131H490.237V4.99999H488.237ZM489.237 132H525.777V130H489.237V132ZM526.777 131V91.22H524.777V131H526.777ZM525.777 92.22H562.857V90.22H525.777V92.22ZM562.09 91.8619L595.39 131.642L596.923 130.358L563.623 90.5781L562.09 91.8619ZM596.157 132H638.817V130H596.157V132ZM526.597 64.58V32.9H524.597V64.58H526.597ZM525.597 33.9H574.917V31.9H525.597V33.9ZM574.917 33.9C581.433 33.9 586.878 34.7997 590.667 37.0862C594.365 39.3171 596.597 42.9339 596.597 48.74H598.597C598.597 42.3061 596.058 38.0029 591.701 35.3738C587.435 32.8003 581.54 31.9 574.917 31.9V33.9ZM596.597 48.74C596.597 54.5461 594.365 58.1629 590.667 60.3938C586.878 62.6803 581.433 63.58 574.917 63.58V65.58C581.54 65.58 587.435 64.6797 591.701 62.1062C596.058 59.4771 598.597 55.1739 598.597 48.74H596.597ZM574.917 63.58H525.597V65.58H574.917V63.58ZM695.234 131V132H696.234V131H695.234ZM695.234 4.99999H696.234V3.99999H695.234V4.99999ZM658.514 4.99999V3.99999H657.514V4.99999H658.514ZM658.514 131H657.514V132H658.514V131ZM696.234 131V4.99999H694.234V131H696.234ZM695.234 3.99999H658.514V5.99999H695.234V3.99999ZM657.514 4.99999V131H659.514V4.99999H657.514ZM658.514 132H695.234V130H658.514V132ZM761.139 102.92H760.139V103.92H761.139V102.92ZM761.139 80.6V79.6H760.139V80.6H761.139ZM840.519 80.6V81.6H841.519V80.6H840.519ZM840.519 53.78H841.519V52.78H840.519V53.78ZM761.139 53.78H760.139V54.78H761.139V53.78ZM761.139 33.08V32.08H760.139V33.08H761.139ZM857.439 33.08V34.08H858.439V33.08H857.439ZM857.439 4.99999H858.439V3.99999H857.439V4.99999ZM724.959 4.99999V3.99999H723.959V4.99999H724.959ZM724.959 131H723.959V132H724.959V131ZM859.419 131V132H860.419V131H859.419ZM859.419 102.92H860.419V101.92H859.419V102.92ZM762.139 102.92V80.6H760.139V102.92H762.139ZM761.139 81.6H840.519V79.6H761.139V81.6ZM841.519 80.6V53.78H839.519V80.6H841.519ZM840.519 52.78H761.139V54.78H840.519V52.78ZM762.139 53.78V33.08H760.139V53.78H762.139ZM761.139 34.08H857.439V32.08H761.139V34.08ZM858.439 33.08V4.99999H856.439V33.08H858.439ZM857.439 3.99999H724.959V5.99999H857.439V3.99999ZM723.959 4.99999V131H725.959V4.99999H723.959ZM724.959 132H859.419V130H724.959V132ZM860.419 131V102.92H858.419V131H860.419ZM859.419 101.92H761.139V103.92H859.419V101.92ZM949.98 51.08L950.063 50.0834L950.06 50.0832L949.98 51.08ZM945.48 28.4L945.49 27.4H945.48V28.4ZM996.06 42.44L995.484 43.2573L996.248 43.796L996.837 43.0699L996.06 42.44ZM1014.6 19.58L1015.38 20.2099L1016.05 19.3809L1015.18 18.764L1014.6 19.58ZM947.82 82.22L947.734 83.2163L947.737 83.2165L947.82 82.22ZM890.58 87.8L891.225 87.0356L890.463 86.3931L889.818 87.1527L890.58 87.8ZM871.32 110.48L870.558 109.833L869.892 110.618L870.696 111.261L871.32 110.48ZM950.06 50.0832C938.772 49.1801 929.599 48.4648 923.237 46.9352C920.055 46.1702 917.691 45.226 916.139 44.0346C914.636 42.881 913.9 41.5071 913.9 39.74H911.9C911.9 42.2029 912.987 44.1365 914.921 45.6211C916.806 47.0677 919.493 48.0923 922.769 48.8798C929.322 50.4552 938.689 51.1799 949.901 52.0768L950.06 50.0832ZM913.9 39.74C913.9 37.8747 914.804 36.3078 916.531 34.9593C918.282 33.5914 920.826 32.4992 923.917 31.6601C930.091 29.9844 938.133 29.4 945.48 29.4V27.4C938.068 27.4 929.82 27.9856 923.393 29.7299C920.185 30.6008 917.351 31.781 915.3 33.3831C913.224 35.0047 911.9 37.1053 911.9 39.74H913.9ZM945.471 29.3999C964.965 29.5788 981.664 33.5121 995.484 43.2573L996.637 41.6227C982.377 31.5679 965.236 27.5812 945.49 27.4L945.471 29.3999ZM996.837 43.0699L1015.38 20.2099L1013.82 18.9501L995.284 41.8101L996.837 43.0699ZM1015.18 18.764C997.681 6.36969 972.618 -0.140007 945.48 -0.140007V1.85999C972.342 1.85999 996.96 8.31029 1014.02 20.396L1015.18 18.764ZM945.48 -0.140007C925.398 -0.140007 907.926 3.56581 895.437 10.7481C882.912 17.9509 875.36 28.6875 875.36 42.62H877.36C877.36 29.5525 884.388 19.409 896.434 12.4819C908.515 5.53417 925.603 1.85999 945.48 1.85999V-0.140007ZM875.36 42.62C875.36 49.8602 877.559 55.8622 881.476 60.8182C885.38 65.7574 890.952 69.6111 897.637 72.6456C910.987 78.7056 928.998 81.5949 947.734 83.2163L947.907 81.2237C929.203 79.6051 911.483 76.7344 898.464 70.8244C891.964 67.8739 886.691 64.1901 883.045 59.5781C879.414 54.9828 877.36 49.4198 877.36 42.62H875.36ZM947.737 83.2165C960.711 84.2977 969.592 85.5071 975.219 87.4193C978.025 88.373 979.922 89.4703 981.114 90.7291C982.275 91.9551 982.82 93.3906 982.82 95.18H984.82C984.82 92.9194 984.106 90.9799 982.566 89.354C981.058 87.761 978.816 86.5295 975.862 85.5257C969.969 83.5229 960.85 82.3023 947.903 81.2234L947.737 83.2165ZM982.82 95.18C982.82 97.0099 982.232 98.5745 981.044 99.9254C979.839 101.297 977.975 102.491 975.369 103.469C970.142 105.429 962.189 106.42 951.42 106.42V108.42C962.252 108.42 970.499 107.431 976.071 105.341C978.865 104.294 981.052 102.946 982.546 101.246C984.059 99.5255 984.82 97.4901 984.82 95.18H982.82ZM951.42 106.42C926.405 106.42 905.949 99.4533 891.225 87.0356L889.936 88.5644C905.092 101.347 926.036 108.42 951.42 108.42V106.42ZM889.818 87.1527L870.558 109.833L872.083 111.127L891.343 88.4473L889.818 87.1527ZM870.696 111.261C890.708 127.27 918.122 136.14 950.7 136.14V134.14C918.479 134.14 891.533 125.37 871.945 109.699L870.696 111.261ZM950.7 136.14C973.669 136.14 991.3 131.712 1003.22 123.917C1015.19 116.094 1021.36 104.898 1021.36 91.58H1019.36C1019.36 104.182 1013.56 114.766 1002.13 122.243C990.65 129.748 973.452 134.14 950.7 134.14V136.14ZM1021.36 91.58C1021.36 84.1575 1019.49 78.0135 1015.98 72.9384C1012.48 67.8725 1007.4 63.9369 1001.07 60.8464C988.441 54.6821 970.68 51.794 950.063 50.0834L949.898 52.0766C970.501 53.786 987.929 56.6579 1000.19 62.6436C1006.3 65.6281 1011.08 69.365 1014.34 74.0754C1017.59 78.7765 1019.36 84.5125 1019.36 91.58H1021.36Z" fill="#DADADA"/>
</svg>
