<svg width="135" height="121" viewBox="0 0 135 121" fill="none" xmlns="http://www.w3.org/2000/svg">
<g style="mix-blend-mode:hard-light">
<path d="M37.6553 61.4619L28.2615 63.7769" stroke="#92FF26" stroke-width="3" stroke-miterlimit="10" stroke-linecap="round"/>
<path d="M96.4791 47.0084L87.4771 49.2209" stroke="#92FF26" stroke-width="3" stroke-miterlimit="10" stroke-linecap="round"/>
<path d="M57.0872 42.4542C48.1831 44.6412 39.4564 53.1628 37.6554 61.4619C36.0443 68.8259 40.4267 73.5364 48.0247 71.6725C66.4537 67.1546 59.8236 42.9602 79.2317 38.1864C86.438 36.4249 88.9888 42.1881 87.4438 49.2112C85.6427 57.5103 76.9376 66.0202 68.0119 68.219" stroke="#92FF26" stroke-width="3" stroke-miterlimit="10" stroke-linecap="round"/>
<path d="M114.166 29.0063L119.533 38.8635C123.523 46.0885 122.691 55.9112 116.139 66.6304C103.015 88.0807 71.7399 105.11 46.4927 104.552C33.8476 104.285 25.081 99.689 21.0911 92.4639L15.235 81.7087" stroke="#92FF26" stroke-width="3" stroke-miterlimit="10"/>
<path d="M88.5294 16.4358C113.786 16.96 123.674 34.8623 110.538 56.2912C97.4135 77.7415 66.1382 94.7705 40.8911 94.2132C15.6224 93.6676 5.76818 75.7749 18.8926 54.3247C32.007 32.9075 63.2391 15.9019 88.5294 16.4358Z" stroke="#92FF26" stroke-width="3" stroke-miterlimit="10"/>
</g>
</svg>
