<svg width="133" height="130" viewBox="0 0 133 130" fill="none" xmlns="http://www.w3.org/2000/svg">
<g style="mix-blend-mode:hard-light">
<path d="M51.643 40.7672L45.5028 34.1597" stroke="#92FF26" stroke-width="3" stroke-miterlimit="10" stroke-linecap="round"/>
<path d="M90.0553 82.1778L84.1763 75.8411" stroke="#92FF26" stroke-width="3" stroke-miterlimit="10" stroke-linecap="round"/>
<path d="M77.0008 42.9915C71.1871 36.7225 59.8121 35.7118 51.6431 40.7671C44.3889 45.2411 42.0995 52.984 47.0583 58.3353C59.0834 71.3171 77.7388 45.8662 90.4169 59.525C95.1144 64.6055 91.0926 71.544 84.1705 75.8032C76.0014 80.8585 64.6463 79.8578 58.8128 73.5788" stroke="#92FF26" stroke-width="3" stroke-miterlimit="10" stroke-linecap="round"/>
<path d="M113.608 83.8554C108.414 94.2501 96.8655 107.838 84.1023 111.304C58.5561 118.228 29.816 103.732 20.101 79.0225C15.2237 66.6579 15.5155 53.8449 20.7088 43.4502L22.1137 40.7582" stroke="#92FF26" stroke-width="3" stroke-miterlimit="10"/>
<path d="M113.815 50.4036C124.317 73.6006 112.677 96.9247 87.8986 102.326C63.1062 107.755 34.3661 93.2589 23.8973 70.0442C13.4086 46.8194 25.0547 23.5331 49.847 18.1039C74.6056 12.6925 103.306 27.1688 113.815 50.4036Z" stroke="#92FF26" stroke-width="3" stroke-miterlimit="10"/>
</g>
</svg>
