<svg width="133" height="208" viewBox="0 0 133 208" fill="none" xmlns="http://www.w3.org/2000/svg">
<path d="M87.3219 60.9761L75.3713 49.1328" stroke="#92FF26" stroke-width="3" stroke-miterlimit="10" stroke-linecap="round"/>
<path d="M132.734 74.0069C121.417 62.7749 101.044 56.9113 87.3215 60.9763C75.1336 64.5644 72.2825 74.7601 81.9362 84.3462C105.347 107.6 134.498 78.4088 159.175 102.885C168.322 111.982 162.266 120.354 150.634 123.763C136.912 127.828 116.575 121.987 105.222 110.733" stroke="#92FF26" stroke-width="3" stroke-miterlimit="10" stroke-linecap="round"/>
<path d="M204.448 146.468L195.007 162.252C188.138 173.903 173.084 180.611 151.5 179.695C108.296 177.841 54.9427 145.928 32.6887 108.63C21.5249 89.9584 20.2048 73.4559 27.0737 61.805L37.3748 44.583" stroke="#92FF26" stroke-width="3" stroke-miterlimit="10"/>
<path d="M199.32 98.9121C221.631 136.199 204.613 165.069 161.429 163.18C118.224 161.326 64.871 129.413 42.617 92.1148C20.3262 54.7941 37.3612 25.98 80.5658 27.8344C123.713 29.7011 176.993 61.5694 199.32 98.9121Z" stroke="#92FF26" stroke-width="3" stroke-miterlimit="10"/>
</svg>
