<svg width="155" height="164" viewBox="0 0 155 164" fill="none" xmlns="http://www.w3.org/2000/svg">
<path d="M61.5175 81.0972L44.3032 83.6653" stroke="#92FF26" stroke-width="3" stroke-miterlimit="10" stroke-linecap="round"/>
<path d="M169.296 65.0745L152.802 67.5273" stroke="#92FF26" stroke-width="3" stroke-miterlimit="10" stroke-linecap="round"/>
<path d="M103.326 55.9498C87.0123 58.3738 68.2428 69.6471 61.5177 81.0971C55.5279 91.2562 61.0344 98.1355 74.9542 96.0702C108.715 91.065 107.826 56.8482 143.388 51.5549C156.588 49.6049 158.475 57.8238 152.748 67.512C146.023 78.9621 127.296 90.2205 110.94 92.6594" stroke="#92FF26" stroke-width="3" stroke-miterlimit="10" stroke-linecap="round"/>
<path d="M207.655 41.2078L212.616 55.3358C216.349 65.6953 210.632 79.3389 194.657 93.8307C162.665 122.829 101.288 144.383 57.9772 141.829C36.2795 140.566 23.1603 133.537 19.4273 123.178L14.0139 107.763" stroke="#92FF26" stroke-width="3" stroke-miterlimit="10"/>
<path d="M168.91 21.8681C212.252 24.3769 221.504 50.0457 189.501 79.0136C157.508 108.012 96.1314 129.566 52.8208 127.011C9.46789 124.472 0.26915 98.8189 32.2616 69.8204C64.2224 40.8674 125.515 19.3434 168.91 21.8681Z" stroke="#92FF26" stroke-width="3" stroke-miterlimit="10"/>
</svg>
