<svg width="137" height="99" viewBox="0 0 137 99" fill="none" xmlns="http://www.w3.org/2000/svg">
<path d="M57.0601 87.5366C59.3656 89.4754 63.4735 93.6953 61.4615 95.0639C59.3656 95.9763 53.5391 97.5958 47 96.7746" stroke="#374BFF" stroke-width="3" stroke-linecap="round"/>
<path d="M97.5599 13.0137C91.3653 9.6749 82.8298 7.83055 71.9583 6.75217C49.1491 4.48969 26.3545 7.68332 15.8305 17.2642C4.88228 27.2314 11.8175 40.9007 27.2013 48.2131C43.3977 55.9118 68.4746 59.5567 92.2342 55.3839C109.186 52.4068 101.138 41.1827 91.3566 37.6758C77.6173 32.75 54.3946 34.9945 44.4518 42.4179C30.0332 53.1828 29.2317 76.2988 50 89.311C56.505 93.3866 59.5 94.0427 59.5 94.0427" stroke="#374BFF" stroke-width="3" stroke-linecap="round"/>
</svg>
