<svg width="270" height="310" viewBox="0 0 270 310" fill="none" xmlns="http://www.w3.org/2000/svg">
<path d="M188.848 245.998C191.782 248.364 197.373 253.759 196.261 256.408C194.859 258.377 190.528 262.437 184.419 262.931" stroke="#374BFF" stroke-width="3" stroke-linecap="round"/>
<path d="M147.611 50.897C136.222 44.8528 122.741 43.7233 106.591 45.6037C72.7063 49.5488 43.2213 67.7382 36.1147 97.3088C28.7216 128.072 49.4431 160.778 76.9409 173.23C105.891 186.34 144.074 185.026 174.129 163.862C195.573 148.763 175.25 122.924 158.683 117.991C135.413 111.061 104.564 126.956 96.5431 150.641C84.9112 184.986 109.662 218 136.73 235.079C153.674 245.77 173.068 253.92 194.422 256.052" stroke="#374BFF" stroke-width="3" stroke-linecap="round"/>
</svg>
