<svg width="162" height="164" viewBox="0 0 162 164" fill="none" xmlns="http://www.w3.org/2000/svg">
<path d="M68.5787 123.45C68.8897 130.134 68.2395 142.987 63.1503 140.928C58.6568 138.15 47.6085 129.298 39.3625 116.11" stroke="#374BFF" stroke-width="3" stroke-linecap="round"/>
<path d="M120.288 45.0351C82.3107 31.4619 44.7549 58.4744 54.5674 113.191C57.6408 130.329 60.9769 136.715 60.9769 136.715" stroke="#374BFF" stroke-width="3" stroke-linecap="round"/>
<path d="M112.992 42.9243C114.732 43.0983 120.83 44.8626 123.992 46.9243C126.31 48.4358 127.938 50.6843 128.992 52.9243C129.948 54.955 130.136 56.847 129.492 59.4243C128.492 63.4243 124.842 65.1634 122 65.5C117.132 66.0765 112.245 64.2972 108.496 61.026C103.927 57.039 101.56 50.7882 100.713 44.9176C100.331 42.2698 100.288 39.5793 100.319 36.9087C100.335 35.5054 100.453 34.1938 100.894 32.8558C101.334 31.523 101.811 30.1934 102.291 28.874" stroke="#374BFF" stroke-width="3.4" stroke-linecap="round"/>
</svg>
