<svg width="120" height="120" viewBox="0 0 120 120" fill="none" xmlns="http://www.w3.org/2000/svg">
<g clip-path="url(#clip0_476_18)">
<path d="M60 117.954C92.0074 117.954 117.954 92.0074 117.954 60C117.954 27.9925 92.0074 2.04541 60 2.04541C27.9925 2.04541 2.04541 27.9925 2.04541 60C2.04541 92.0074 27.9925 117.954 60 117.954Z" stroke="white" stroke-width="3.5"/>
<path d="M56.0973 69.2553C60.0998 66.7124 66.1647 62.8479 69.8548 60.4908C66.1349 58.1211 60.0821 54.2666 56.0973 51.7304V69.2553ZM53.4967 75.4735C52.7248 75.4735 52.0063 74.845 52.0063 73.8256C52.0063 72.4413 52.0063 48.1389 52.0063 47.1861C52.0063 45.9463 53.1679 45.0261 54.3165 45.7492C55.2367 46.3298 73.6254 58.0412 75.1952 59.0433C76.2255 59.7018 76.2084 61.2692 75.1952 61.9284C74.0651 62.6635 55.6062 74.4355 54.2695 75.2505C54.0228 75.4023 53.7567 75.4735 53.4967 75.4735Z" fill="white"/>
</g>
<defs>
<clipPath id="clip0_476_18">
<rect width="120" height="120" fill="white"/>
</clipPath>
</defs>
</svg>
