<svg width="206" height="261" viewBox="0 0 206 261" fill="none" xmlns="http://www.w3.org/2000/svg">
<g style="mix-blend-mode:hard-light" filter="url(#filter0_f_910_249)">
<path d="M113.995 125.036L117.753 129.367C122.381 134.7 121.809 142.8 116.48 147.425L87.9242 172.205C86.8476 173.14 86.4611 172.694 86.3155 172.526C85.205 171.247 84.0969 170.093 83.2877 169.251C82.9041 168.85 82.5718 168.505 82.4291 168.34C81.379 167.13 79.7552 166.594 78.1916 166.943C76.6279 167.292 75.3852 168.465 74.9495 170.006C74.9416 170.032 74.9356 170.058 74.9286 170.086L66.5321 205.86C66.1499 207.265 66.4903 208.756 67.4467 209.859C68.4032 210.961 69.8311 211.507 71.2766 211.327L107.877 208.054C107.904 208.052 107.932 208.048 107.959 208.044C108.816 207.928 109.6 207.565 110.229 207.019C110.766 206.553 111.188 205.956 111.448 205.266C112.014 203.767 111.711 202.084 110.661 200.874C110.533 200.726 110.313 200.428 110.059 200.083C109.5 199.325 108.654 198.18 107.405 196.741C106.824 196.071 106.885 195.517 107.609 194.889L114.246 189.129" stroke="#A10F49" stroke-width="24" stroke-miterlimit="10" stroke-linecap="round"/>
<path d="M121.709 182.651L147.189 160.539C158.94 150.342 160.2 132.479 149.998 120.722L122.273 88.7737C121.206 87.5441 121.643 85.8112 122.489 83.1048C123.304 80.4995 124.227 77.5471 122.215 75.2284L100.742 50.4841C99.775 49.37 98.3256 48.8235 96.8645 49.0222C95.4034 49.221 94.1536 50.1337 93.5191 51.4653C93.4998 51.5068 93.4816 51.5474 93.4653 51.5902L86.3797 69.9239C86.2942 70.0783 86.1571 70.1973 85.9922 70.2602L66.8432 74.6927C66.7986 74.7028 66.7558 74.7151 66.712 74.7283C65.3054 75.168 64.2246 76.2777 63.8221 77.6963C63.4195 79.1148 63.7564 80.6267 64.7232 81.7408L86.1962 106.485C88.6289 109.288 92.2126 108.712 95.0923 108.25C97.389 107.882 98.9442 107.697 99.5982 108.451L107.582 117.65" stroke="#A10F49" stroke-width="24" stroke-miterlimit="10" stroke-linecap="round"/>
</g>
<g style="mix-blend-mode:hard-light" filter="url(#filter1_f_910_249)">
<path d="M118.625 121.019L122.383 125.35C127.01 130.682 126.439 138.783 121.109 143.408L92.5541 168.188C91.4775 169.122 91.091 168.677 90.9454 168.509C89.8349 167.229 88.7268 166.075 87.9176 165.233C87.5339 164.833 87.2017 164.487 87.059 164.323C86.0089 163.113 84.3851 162.576 82.8215 162.925C81.2578 163.274 80.0151 164.448 79.5794 165.989C79.5715 166.015 79.5655 166.041 79.5585 166.068L71.162 201.843C70.7798 203.247 71.1202 204.739 72.0766 205.841C73.0331 206.943 74.461 207.489 75.9064 207.31L112.507 204.036C112.534 204.034 112.562 204.031 112.588 204.027C113.446 203.911 114.23 203.547 114.859 203.001C115.396 202.536 115.818 201.938 116.078 201.248C116.644 199.749 116.341 198.066 115.291 196.856C115.163 196.708 114.943 196.41 114.689 196.065C114.13 195.307 113.284 194.163 112.035 192.723C111.453 192.053 111.515 191.5 112.239 190.871L118.876 185.112" stroke="#FF26C2" stroke-width="19" stroke-miterlimit="10" stroke-linecap="round"/>
<path d="M126.339 178.633L151.819 156.522C163.57 146.324 164.83 128.462 154.628 116.705L126.903 84.7561C125.836 83.5265 126.273 81.7936 127.119 79.0872C127.934 76.4819 128.857 73.5295 126.845 71.2109L105.372 46.4666C104.405 45.3524 102.955 44.8059 101.494 45.0047C100.033 45.2034 98.7835 46.1161 98.1489 47.4477C98.1297 47.4892 98.1115 47.5298 98.0952 47.5726L91.0096 65.9063C90.9241 66.0607 90.787 66.1797 90.6221 66.2426L71.4731 70.6751C71.4285 70.6852 71.3857 70.6975 71.3418 70.7107C69.9353 71.1504 68.8545 72.2602 68.452 73.6787C68.0494 75.0972 68.3863 76.6091 69.3531 77.7233L90.8261 102.468C93.2588 105.271 96.8425 104.695 99.7222 104.233C102.019 103.864 103.574 103.68 104.228 104.433L112.211 113.633" stroke="#FF26C2" stroke-width="19" stroke-miterlimit="10" stroke-linecap="round"/>
</g>
<g style="mix-blend-mode:hard-light" filter="url(#filter2_ddi_910_249)">
<path d="M118.222 121.368L121.98 125.699C126.608 131.031 126.036 139.132 120.707 143.757L92.1513 168.537C91.0747 169.471 90.6881 169.026 90.5426 168.858C89.4321 167.578 88.324 166.424 87.5147 165.582C87.1311 165.182 86.7988 164.836 86.6561 164.672C85.6061 163.462 83.9823 162.925 82.4186 163.274C80.855 163.623 79.6123 164.797 79.1766 166.338C79.1686 166.364 79.1627 166.39 79.1557 166.417L70.7591 202.192C70.377 203.596 70.7173 205.088 71.6738 206.19C72.6302 207.292 74.0582 207.838 75.5036 207.659L112.104 204.385C112.131 204.383 112.159 204.38 112.186 204.376C113.043 204.26 113.827 203.896 114.456 203.35C114.993 202.885 115.415 202.287 115.675 201.597C116.241 200.099 115.939 198.415 114.889 197.205C114.76 197.057 114.54 196.76 114.286 196.415C113.728 195.656 112.881 194.512 111.632 193.072C111.051 192.402 111.112 191.849 111.836 191.221L118.473 185.461" stroke="#FB37FF" stroke-opacity="0.2" stroke-width="17" stroke-miterlimit="10" stroke-linecap="round"/>
<path d="M125.936 178.982L151.416 156.871C163.168 146.673 164.427 128.811 154.225 117.054L126.5 85.1052C125.433 83.8756 125.87 82.1427 126.716 79.4364C127.531 76.831 128.454 73.8787 126.442 71.56L104.969 46.8157C104.002 45.7015 102.553 45.1551 101.092 45.3538C99.6305 45.5525 98.3806 46.4653 97.7461 47.7968C97.7268 47.8383 97.7086 47.879 97.6923 47.9217L90.6068 66.2554C90.5213 66.4098 90.3841 66.5288 90.2193 66.5917L71.0703 71.0242C71.0256 71.0343 70.9829 71.0466 70.939 71.0598C69.5325 71.4995 68.4517 72.6093 68.0491 74.0278C67.6466 75.4463 67.9834 76.9582 68.9503 78.0724L90.4232 102.817C92.856 105.62 96.4397 105.044 99.3194 104.582C101.616 104.214 103.171 104.029 103.825 104.782L111.809 113.982" stroke="#FB37FF" stroke-opacity="0.2" stroke-width="17" stroke-miterlimit="10" stroke-linecap="round"/>
</g>
<g style="mix-blend-mode:hard-light" filter="url(#filter3_f_910_249)">
<path d="M118.826 120.844L122.584 125.175C127.212 130.507 126.64 138.608 121.311 143.233L92.7553 168.013C91.6787 168.947 91.2921 168.502 91.1466 168.334C90.0361 167.054 88.928 165.901 88.1187 165.058C87.7351 164.658 87.4028 164.312 87.2601 164.148C86.2101 162.938 84.5863 162.402 83.0226 162.75C81.459 163.099 80.2163 164.273 79.7806 165.814C79.7726 165.84 79.7667 165.866 79.7597 165.893L71.3631 201.668C70.981 203.072 71.3213 204.564 72.2778 205.666C73.2342 206.768 74.6622 207.314 76.1076 207.135L112.708 203.861C112.735 203.859 112.763 203.856 112.79 203.852C113.647 203.736 114.431 203.373 115.06 202.827C115.597 202.361 116.019 201.763 116.279 201.074C116.845 199.575 116.543 197.891 115.493 196.681C115.364 196.533 115.144 196.236 114.89 195.891C114.332 195.132 113.485 193.988 112.236 192.548C111.655 191.878 111.716 191.325 112.44 190.697L119.077 184.937" stroke="#FB37FF" stroke-width="14" stroke-miterlimit="10" stroke-linecap="round"/>
<path d="M126.54 178.458L152.02 156.347C163.772 146.149 165.031 128.287 154.829 116.53L127.104 84.5813C126.037 83.3517 126.474 81.6188 127.32 78.9124C128.135 76.3071 129.058 73.3547 127.046 71.036L105.573 46.2918C104.606 45.1776 103.157 44.6311 101.696 44.8299C100.234 45.0286 98.9846 45.9413 98.3501 47.2729C98.3308 47.3144 98.3126 47.355 98.2963 47.3978L91.2108 65.7315C91.1253 65.8859 90.9881 66.0049 90.8233 66.0678L71.6743 70.5003C71.6296 70.5104 71.5869 70.5227 71.543 70.5359C70.1365 70.9756 69.0557 72.0854 68.6531 73.5039C68.2506 74.9224 68.5874 76.4343 69.5543 77.5485L91.0272 102.293C93.46 105.096 97.0437 104.52 99.9234 104.058C102.22 103.69 103.775 103.505 104.429 104.258L112.413 113.458" stroke="#FB37FF" stroke-width="14" stroke-miterlimit="10" stroke-linecap="round"/>
</g>
<g style="mix-blend-mode:hard-light" filter="url(#filter4_f_910_249)">
<path d="M118.826 120.844L122.584 125.175C127.212 130.507 126.64 138.608 121.311 143.233L92.7553 168.013C91.6787 168.947 91.2921 168.502 91.1466 168.334C90.0361 167.054 88.928 165.901 88.1187 165.058C87.7351 164.658 87.4028 164.312 87.2601 164.148C86.2101 162.938 84.5863 162.402 83.0226 162.75C81.459 163.099 80.2163 164.273 79.7806 165.814C79.7726 165.84 79.7667 165.866 79.7597 165.893L71.3631 201.668C70.981 203.072 71.3213 204.564 72.2778 205.666C73.2342 206.768 74.6622 207.314 76.1076 207.135L112.708 203.861C112.735 203.859 112.763 203.856 112.79 203.852C113.647 203.736 114.431 203.373 115.06 202.827C115.597 202.361 116.019 201.763 116.279 201.074C116.845 199.575 116.543 197.891 115.493 196.681C115.364 196.533 115.144 196.236 114.89 195.891C114.332 195.132 113.485 193.988 112.236 192.548C111.655 191.878 111.716 191.325 112.44 190.697L119.077 184.937" stroke="#F5F7FF" stroke-width="5" stroke-miterlimit="10" stroke-linecap="round"/>
<path d="M126.54 178.458L152.02 156.347C163.772 146.149 165.031 128.287 154.829 116.53L127.104 84.5813C126.037 83.3517 126.474 81.6188 127.32 78.9124C128.135 76.3071 129.058 73.3547 127.046 71.036L105.573 46.2918C104.606 45.1776 103.157 44.6311 101.696 44.8299C100.234 45.0286 98.9846 45.9413 98.3501 47.2729C98.3308 47.3144 98.3126 47.355 98.2963 47.3978L91.2108 65.7315C91.1253 65.8859 90.9881 66.0049 90.8233 66.0678L71.6743 70.5003C71.6296 70.5104 71.5869 70.5227 71.543 70.5359C70.1365 70.9756 69.0557 72.0854 68.6531 73.5039C68.2506 74.9224 68.5874 76.4343 69.5543 77.5485L91.0272 102.293C93.46 105.096 97.0437 104.52 99.9234 104.058C102.22 103.69 103.775 103.505 104.429 104.258L112.413 113.458" stroke="#F5F7FF" stroke-width="5" stroke-miterlimit="10" stroke-linecap="round"/>
</g>
<defs>
<filter id="filter0_f_910_249" x="14.7753" y="0.101933" width="191.002" height="260.139" filterUnits="userSpaceOnUse" color-interpolation-filters="sRGB">
<feFlood flood-opacity="0" result="BackgroundImageFix"/>
<feBlend mode="normal" in="SourceGraphic" in2="BackgroundImageFix" result="shape"/>
<feGaussianBlur stdDeviation="18.44" result="effect1_foregroundBlur_910_249"/>
</filter>
<filter id="filter1_f_910_249" x="46.4952" y="23.1744" width="136.822" height="205.959" filterUnits="userSpaceOnUse" color-interpolation-filters="sRGB">
<feFlood flood-opacity="0" result="BackgroundImageFix"/>
<feBlend mode="normal" in="SourceGraphic" in2="BackgroundImageFix" result="shape"/>
<feGaussianBlur stdDeviation="6.145" result="effect1_foregroundBlur_910_249"/>
</filter>
<filter id="filter2_ddi_910_249" x="43.4023" y="33.1235" width="142.202" height="211.339" filterUnits="userSpaceOnUse" color-interpolation-filters="sRGB">
<feFlood flood-opacity="0" result="BackgroundImageFix"/>
<feColorMatrix in="SourceAlpha" type="matrix" values="0 0 0 0 0 0 0 0 0 0 0 0 0 0 0 0 0 0 127 0" result="hardAlpha"/>
<feOffset dy="7.99"/>
<feGaussianBlur stdDeviation="3.075"/>
<feComposite in2="hardAlpha" operator="out"/>
<feColorMatrix type="matrix" values="0 0 0 0 0.301961 0 0 0 0 0 0 0 0 0 0.258824 0 0 0 0.7 0"/>
<feBlend mode="normal" in2="BackgroundImageFix" result="effect1_dropShadow_910_249"/>
<feColorMatrix in="SourceAlpha" type="matrix" values="0 0 0 0 0 0 0 0 0 0 0 0 0 0 0 0 0 0 127 0" result="hardAlpha"/>
<feOffset dy="12.29"/>
<feGaussianBlur stdDeviation="7.99"/>
<feComposite in2="hardAlpha" operator="out"/>
<feColorMatrix type="matrix" values="0 0 0 0 0.6 0 0 0 0 0 0 0 0 0 0.6 0 0 0 1 0"/>
<feBlend mode="normal" in2="effect1_dropShadow_910_249" result="effect2_dropShadow_910_249"/>
<feBlend mode="normal" in="SourceGraphic" in2="effect2_dropShadow_910_249" result="shape"/>
<feColorMatrix in="SourceAlpha" type="matrix" values="0 0 0 0 0 0 0 0 0 0 0 0 0 0 0 0 0 0 127 0" result="hardAlpha"/>
<feOffset dx="-0.8" dy="1.6"/>
<feGaussianBlur stdDeviation="0.4"/>
<feComposite in2="hardAlpha" operator="arithmetic" k2="-1" k3="1"/>
<feColorMatrix type="matrix" values="0 0 0 0 1 0 0 0 0 1 0 0 0 0 1 0 0 0 0.5 0"/>
<feBlend mode="normal" in2="shape" result="effect3_innerShadow_910_249"/>
</filter>
<filter id="filter3_f_910_249" x="60.2563" y="36.5596" width="109.702" height="178.839" filterUnits="userSpaceOnUse" color-interpolation-filters="sRGB">
<feFlood flood-opacity="0" result="BackgroundImageFix"/>
<feBlend mode="normal" in="SourceGraphic" in2="BackgroundImageFix" result="shape"/>
<feGaussianBlur stdDeviation="0.615" result="effect1_foregroundBlur_910_249"/>
</filter>
<filter id="filter4_f_910_249" x="65.1663" y="41.4696" width="99.8817" height="169.019" filterUnits="userSpaceOnUse" color-interpolation-filters="sRGB">
<feFlood flood-opacity="0" result="BackgroundImageFix"/>
<feBlend mode="normal" in="SourceGraphic" in2="BackgroundImageFix" result="shape"/>
<feGaussianBlur stdDeviation="0.41" result="effect1_foregroundBlur_910_249"/>
</filter>
</defs>
</svg>
